<?xml version="1.0" encoding="utf-8"?>
<!-- Generator: Adobe Illustrator 22.0.1, SVG Export Plug-In . SVG Version: 6.00 Build 0)  -->
<svg version="1.1" id="Camada_1" xmlns="http://www.w3.org/2000/svg" xmlns:xlink="http://www.w3.org/1999/xlink" x="0px" y="0px"
	 viewBox="0 0 835.6 298.3" style="enable-background:new 0 0 835.6 298.3;" xml:space="preserve">
<style type="text/css">
	.st0{fill:#FDFF8D;}
	.st1{fill:#71BED9;}
	.st2{fill:#55BA83;}
	.st3{fill:#BA5110;}
	.st4{fill:#32638D;}
	.st5{fill:#B68502;}
	.st6{fill:#32638D;stroke:#FFFFFF;stroke-miterlimit:10;}
	.st7{fill:#55BA83;stroke:#FFFFFF;stroke-miterlimit:10;}
	.st8{fill:#BA5110;stroke:#FFFFFF;stroke-miterlimit:10;}
	.st9{fill:#71BED9;stroke:#FFFFFF;stroke-miterlimit:10;}
	.st10{fill:#FDFF8D;stroke:#FFFFFF;stroke-miterlimit:10;}
	.st11{fill:#B68502;stroke:#FFFFFF;stroke-miterlimit:10;}
	.st12{opacity:0.6;fill:#333333;}
	.st13{fill:#FFFFFF;}
	.st14{fill:#F8F8F8;}
	.st15{opacity:0.7;fill:#333333;}
</style>
<g>
	<g>
		<g>
			<path class="st0" d="M130,212.1c0,0-3.4,5.7,0,8.7c2.2,2,0.3,3.7,7,4.8c6.7,1.1,0,3.9,2.2,9.3c2.2,5.3,4.8,7.3,1.7,9.8
				c-3.1,2.5-5.9,2.5-9,6.2c-3.1,3.7,6.7,18,15.2,16.9c8.4-1.1,14.6-1.7,16.3-4.8c1.7-3.1,7-7.9,9-9.6c2-1.7,0.8-7.3,0.8-11
				s-1.1-5.9,3.7-6.7s2.8-3.1,11.2-9c8.4-5.9,15.2-5.9,19.4-5.1c4.2,0.8,12.1-6.5,16.3-14.6s7.6-10.1,9-15.7
				c1.4-5.6,3.1-15.2,2.8-20.2c-0.3-5.1,1.7-4.8,1.7-8.7s0.6-6.5,5.3-7.9c4.8-1.4,7-8.2,7-10.7c0-2.5,2-3.4,4.2-3.4s3.9-3.4,4.8-5.9
				c0.8-2.5,5.3-2.2,5.6-5.6c0.3-3.4,0.6-3.9,2-5.6c1.4-1.7,1.1-12.4,0-14.9c-1.1-2.5-0.5-3.4-3.8-5.5c-3.3-2.1-59.9,49.8-59.9,49.8
				l-61,40.8L130,212.1z"/>
			<path class="st1" d="M219.7,86.7c2.2,0,4.2-0.8,6.2-1.1c2-0.3,3.1-1.1,7-0.6s7.3,3.9,10.7,7c3.4,3.1,8.4,8.2,11.2,8.2
				c2.8,0,7.9,0,8.4,4.8s1.1,14.6-1.7,16.9c-2.8,2.2-6.2,1.1-6.7,5.6c-0.6,4.5-0.8,8.4-2.2,7.9c-1.4-0.6-3.1-2.5-3.7,0.6
				s-3.7,8.4-6.5,11.2c-2.8,2.8-3.7,2.5-4.5,0.3c-0.8-2.2-3.1-2-3.1,0.3c0,2.2-0.3,4.2-2.5,5.9c-2.2,1.7-3.4,5.1-4.5,7.3
				c-1.1,2.2-3.4,5.1-5.9,5.9c-2.5,0.8-5.1,0.6-6.2,0c-1.1-0.6-2.2-2.8-2.8-0.3c-0.6,2.5-1.1,10.7-1.1,10.7l-12.9-6.7l-3-50.5
				l16.9-31.2L219.7,86.7z"/>
			<path class="st2" d="M117.6,209.6c0.6,2.2,0.3,3.9,4.8,3.7s6.5-1.7,7,0.8c0.6,2.5,1.4,2.8,2.8,0.8c1.4-2,3.9-6.5,6.5-5.6
				c2.5,0.8,3.9,2.2,6.5,2.2c2.5,0,5.9-2.8,10.4-9.3c4.5-6.5,2.8-9.6,3.7-11.2c0.8-1.7,3.9-4.8,5.9-4.5c2,0.3,6.5-2.8,8.4-2.2
				c2,0.6,2.5,1.4,2.2,3.7c-0.3,2.2-6.5,2.2-8.2,2.2c-1.7,0-4.8,1.7-4.8,3.9c0,2.2,2.5,2.2,5.1,2.2c2.5,0,4.2,0,5.1,3.4
				s1.7,2.5,1.7,3.9s-0.3,2.5-2.2,3.1c-2,0.6-2.5,1.7,0.6,2.5c3.1,0.8,0.6,6.2,0,4.8c-0.6-1.4-2.2-3.4-2.8-2s-0.8,2.2-3.4,1.7
				c-2.5-0.6-2.8-1.4-4.8-1.1c-2,0.3-4.8-0.3-4.2,1.1c0.6,1.4,2.2,2,7.9,2s4.8,4.2,3.7,5.9c-1.1,1.7-5.6,2.5-6.2,4.2
				c-0.6,1.7-1.4,4.5,0.8,3.1c2.2-1.4,5.3-3.9,8.4-4.8c2-1.4-1.7-1.1,1.7-4.8s3.7-3.7,5.6-7.3c2-3.7,3.7-3.4,4.8-4.2
				c1.1-0.8-1.7-3.7,0.6-3.7c2.2,0,6.7,2.2,9.3,2.5c2.5,0.3,0.8-2.8,0-3.9c-0.8-1.1-0.3-3.1,1.4-2.5c1.7,0.6,5.6,0.6,7.9-0.6
				c2.2-1.1,4.5,0,4.2-2.8c-0.3-2.8-3.7-3.9-3.4-5.9c0.3-2,4.2-4.2,8.4-5.3c2-0.6,2.8-2.8,2.5-5.6c-0.3-2.8-0.8-3.1-0.8-4.2
				s2.8-2,2.8-3.1s-3.4-5.1-4.5-7.3c-1.1-2.2-1.4,2.2-1.7,3.9c-0.3,1.7-1.1,3.1-2.8,2.8c-1.7-0.3-3.7-1.7-1.7-5.1
				c2-3.4,3.1-3.7,2.8-8.2c-0.3-4.5,1.1-8.7,0.8-12.1c-0.3-3.4-1.4-8.4-0.6-12.1c0.8-3.7,0.3-4.8-2-4.5c-2.2,0.3-3.1-0.6,0.3-3.4
				c3.4-2.8,3.4-3.1,1.7-5.6c-1.7-2.5,1.4-2.5,1.4-5.1c0-2.5-2.2-3.9-1.4-5.6s2.2,0.6,3.4,1.1c1.1,0.6,1.7-0.6,1.1-2.8
				s-1.7-2.2-2.8-2.5c-1.1-0.3,0-1.7,1.4-2.8c1.4-1.1,2.8-2,3.1-4.2s0.6-3.1-0.3-4.2c-0.8-1.1-2.5-0.8-0.6-2.8c2-2,6.5-3.9,6.7-5.6
				s-0.6-3.1-2.8-3.1c-2.2,0-4.5,0-5.6-1.4c-1.1-1.4-5.6-0.8-7.3,0.3l-104.3,58.2l-1.1,12.9l3.9,12.9l12.7,1.4l-1.4,5.9l7,16.9
				l-6.5,9L117.6,209.6z"/>
			<path class="st3" d="M118.7,212.1c-2-1.3-3.1-2-2.8-7.3c0.3-5.3-2.8-2.8-1.7-8.2s2.8-6.2,3.4-10.4c0.6-4.2-4.2-4.5-5.1-6.7
				c-0.8-2.2,0.3-4.6-3.9-5.3c-1.7-0.3-2.5,0-2.2-1.7s4.5-5.6,6.7-5.3c2.2,0.3,4.5-1.7,4.2,0.8c-0.3,2.5-0.6,5.1,3.7,5.1
				s3.4-2.8,5.1-2.8s3.9,2.8,5.6,3.4c1.7,0.6,2.8,0.3,2.8,3.4s-0.3,11.2-0.3,12.4c0,1.1,1.4,2.8-0.3,4.5c-1.7,1.7-3.4,5.9-4.5,5.3
				s-1.4-2.5-2.2-1.7c-0.8,0.8,0,3.1-1.7,2c-1.7-1.1-2-3.1-3.7-3.1s-2.5,6.2-2.8,9.8C118.7,209.9,119.6,212.7,118.7,212.1z"/>
			<path class="st4" d="M105.5,175c-4.2-0.3-6.5-4.2-5.9-9.6c0.6-5.3,3.7-7.3-7.3-10.7c-11-3.4-19.7-6.5-22.5-9.3
				c-2.8-2.8-3.1-9.6-3.1-12.4s-2-5.1-8.4,0s-9.6,7-12.4,8.4c-2.8,1.4-2.5-2-7.9,0c-5.3,2-5.3-0.6-5.1-4.2s1.1-8.4-2-5.3
				s-6.7,2.8-9,1.1c-2.2-1.7-2.8-2.5-4.8-0.8c-1.4,1.1,0-3.4-0.6-4.8c-0.6-1.4-7.3-5.9-7-9.6c0.3-3.7,1.1-7.3,5.3-5.9
				c-0.3-2.8-0.6-9.6,2-11.5s8.2-2.8,10.4-4.8s4.5-1.7,5.9-0.6c1.4,1.1,2.5,0.6,2.8-2.5c0.3-3.1,2.8-15.5,2.8-18
				c0-2.5-4.5-5.3-4.8-7.6s-0.6-5.6,3.7-6.2c4.2-0.6,0.6-2.2-0.8-2.8c-1.4-0.6-1.4-5.3,2-4.5s9.8,3.1,11.5,1.4
				c1.7-1.7,0.6-3.9,1.7-3.9s0.6,5.1,2.5,6.5c2,1.4,3.4,2.8,7.3,2.8s8.7-2.5,10.4-4.8c1.7-2.2,3.1-2.8,4.8-2.8s0.6-3.4-2-5.6
				c-2.5-2.2-4.8-5.6-5.1-6.7s1.1-2.2,4.2-1.1c3.1,1.1,11.5,0.8,17.1-2.5c5.6-3.4,3.4-2.8,3.9-4.5c0.6-1.7,5.3-2.5,7,0.6
				s2,5.1,1.7,7c1.1,3.7-2.8,3.1-2.2,8.2c1.1,4.5,4.8,9.8,7.3,9.3c2.5-0.6,4.8-3.4,13.8-3.9s5.6-0.8,4.5-1.7s-0.6-2,3.7-2.2
				s5.3,1.4,7.3,2.2c2,0.8,2.8-2.2,3.9-1.7c1.1,0.6,2.2,2.8,4.5,2.5c2.2-0.3,5.3-8.4,7.6-12.9c2.2-4.5,3.1-5.1,4.5,0.3
				c1.4,5.3,4.5,14.6,7.6,14.6s4.2,0.8,2,3.9c-2.2,3.1,1.7,7.6,5.9,8.2c4.2,0.6,3.4,1.1,3.1,2.8s-0.8,5.6,1.4,3.4
				c2.2-2.2,3.7-4.2,6.2-3.7c2.5,0.6,5.3,5.3,9.3,5.1c3.9-0.3,5.9,0,7.3,1.7s5.3,4.8,5.6,6.2c0.3,1.4,1.1,5.9-0.6,5.6
				c-1.7-0.3-3.4,0-4.2,4.2c-0.8,4.2-2.2,4.2-4.2,3.9c-2-0.3-4.2,1.7-3.1,3.1c1.1,1.4,1.4,3.1-2.5,2.2s-9-1.1-10.7-0.3
				s-3.4,1.7-3.4,3.4c0,1.7,1.4,1.4,1.4,3.9c0,5.6-4.5,8.4-4.5,11.2c0,2.8,0.6,2,1.1,4.2c0.6,2.2-0.6,3.1-2,1.1
				c-1.4-2-2-3.9-3.4-3.1c-1.4,0.8-5.6,7.3-6.2,11.5s-3.7,0.6-4.2,0s-2.2-1.1-2.2,1.4c0,2.5-2.2,0.8-2.5,3.4
				c-0.3,2.5,0.6,1.7,1.7,2.8s0.8,1.4-1.1,2.2c-2,0.8-2.8,2.8-2,4.8c0.8,2,1.1,6.7-2.2,6.7c-3.4,0-3.9-1.1-6.7-0.8s-4.2,1.7-7,0.8
				c-2.8-0.8-6.5-2.5-8.4-6.5c-2-3.9-2.8-2.2-3.7-0.3c-0.8,2-3.1,7.3-6.5,7.6s-6.2-7.6-7-9.8c-0.8-2.2-2.8-4.2-5.6-4.2
				c-2.8,0-4.5,2.2-5.1,7.6s0,9.6,3.1,12.9c3.1,3.4,3.1,5.1,5.9,4.8c2.8-0.3,4.2-0.3,4.5-3.9c0.3-3.7,8.2-6.2,7-0.8
				c-1.1,5.3-2,6.7-3.9,7.6s-2,0.8-3.4-0.3c-1.4-1.1-0.6,2.5-3.1,1.7c-2.5-0.8,0.8-2.2-0.3-2.2s-3.1,1.7-4.8,4.5
				C105.8,175.8,105.5,175,105.5,175z"/>
		</g>
		<path class="st5" d="M136.2,249.2c-4.2,3.1-5.6,4.2-6.7,6.2s-5.1,4.8-5.9,6.2c-0.8,1.4-2.2,2.2-2.2,3.7c0,1.4,0.3,3.1,1.4,1.4
			c1.1-1.7,2.5-1.1,3.4-0.3c0.8,0.8,5.6,5.3,8.2,6.7c2.5,1.4,4.8,2.5,6.7,4.5c2,2,2.8,2.2,3.9,3.9c1.1,1.7,0,4.2-0.8,5.1
			c-0.8,0.8-0.6,2,1.7,1.4c2.2-0.6,3.1-1.4,3.7-4.2s0.6-6.2,3.7-6.7s3.7-2.8,5.1-3.9s3.1-1.7,3.9-4.5s0.8-2.2,1.1-6.2l-5.6-8.7
			l-14.3-3.9L136.2,249.2z"/>
	</g>
	<g>
		<path class="st6" d="M826,92.7H340.6c-10.1,0-18.3-8.2-18.3-18.3v0c0-10.1,8.2-18.3,18.3-18.3H826"/>
		<path class="st7" d="M826,130.4H340.6c-10.1,0-18.3-8.2-18.3-18.3v0c0-10.1,8.2-18.3,18.3-18.3H826"/>
		<path class="st8" d="M826,168.1H340.6c-10.1,0-18.3-8.2-18.3-18.3v0c0-10.1,8.2-18.3,18.3-18.3H826"/>
		<path class="st9" d="M826,205.7H340.6c-10.1,0-18.3-8.2-18.3-18.3v0c0-10.1,8.2-18.3,18.3-18.3H826"/>
		<path class="st10" d="M826,243.4H340.6c-10.1,0-18.3-8.2-18.3-18.3v0c0-10.1,8.2-18.3,18.3-18.3H826"/>
		<path class="st11" d="M826,281.1H340.6c-10.1,0-18.3-8.2-18.3-18.3v0c0-10.1,8.2-18.3,18.3-18.3H826"/>
	</g>
	<polygon class="st12" points="588.3,255.1 561.3,276.1 534.3,255.1 534.3,45.1 588.3,45.1 	"/>
	<polygon class="st12" points="660.3,255.1 633.3,276.1 606.3,255.1 606.3,45.1 660.3,45.1 	"/>
	<polygon class="st12" points="733.3,255.1 706.3,276.1 679.3,255.1 679.3,45.1 733.3,45.1 	"/>
	<polygon class="st12" points="807.3,255.1 780.3,276.1 753.3,255.1 753.3,45.1 807.3,45.1 	"/>
	<g>
		<g>
			<path class="st13" d="M560.3,226.8h3.2v1.2H555v-2.5c0-0.5,0.1-1,0.2-1.4c0.1-0.4,0.3-0.7,0.5-1c0.2-0.3,0.5-0.5,0.8-0.6
				s0.7-0.2,1.1-0.2c0.4,0,0.8,0.1,1.1,0.2c0.3,0.1,0.6,0.3,0.9,0.6c0.2,0.3,0.4,0.6,0.6,1c0.1,0.4,0.2,0.9,0.2,1.4V226.8z
				 M559.4,226.8v-1.4c0-0.3,0-0.6-0.1-0.9c-0.1-0.3-0.2-0.5-0.4-0.6c-0.2-0.2-0.3-0.3-0.6-0.4c-0.2-0.1-0.5-0.1-0.7-0.1
				c-0.5,0-1,0.2-1.3,0.5c-0.3,0.3-0.5,0.8-0.5,1.5v1.4H559.4z"/>
			<path class="st13" d="M563.6,214.5v0.9c0,0.1,0,0.2-0.1,0.3c-0.1,0.1-0.1,0.1-0.2,0.1l-2.1,0.8v3.9l2.1,0.8
				c0.1,0,0.1,0.1,0.2,0.1c0.1,0.1,0.1,0.2,0.1,0.3v0.9l-8.6-3.4V218L563.6,214.5z M560.4,220.2V217l-3.5,1.4
				c-0.2,0.1-0.5,0.2-0.8,0.3c0.2,0,0.3,0.1,0.5,0.1c0.1,0,0.3,0.1,0.4,0.1L560.4,220.2z"/>
			<path class="st13" d="M556.3,209c0.1,0,0.1,0.1,0.1,0.1c0,0,0,0.1,0,0.2c0,0.1,0,0.1-0.1,0.2c-0.1,0.1-0.1,0.2-0.2,0.3
				c-0.1,0.1-0.2,0.3-0.2,0.5c-0.1,0.2-0.1,0.4-0.1,0.7c0,0.3,0,0.5,0.1,0.7s0.2,0.4,0.3,0.5c0.1,0.1,0.3,0.2,0.4,0.3
				c0.2,0.1,0.3,0.1,0.5,0.1c0.2,0,0.4-0.1,0.6-0.2c0.2-0.1,0.3-0.3,0.4-0.5c0.1-0.2,0.2-0.4,0.3-0.7c0.1-0.2,0.2-0.5,0.3-0.8
				c0.1-0.3,0.2-0.5,0.3-0.8c0.1-0.2,0.2-0.5,0.4-0.7c0.2-0.2,0.4-0.3,0.6-0.5s0.5-0.2,0.9-0.2c0.4,0,0.7,0.1,1.1,0.2
				c0.3,0.1,0.6,0.3,0.9,0.6c0.2,0.2,0.4,0.5,0.6,0.9c0.1,0.4,0.2,0.8,0.2,1.2c0,0.6-0.1,1.1-0.3,1.5c-0.2,0.5-0.5,0.8-0.8,1.2
				l-0.6-0.3c0,0-0.1-0.1-0.1-0.1s0-0.1,0-0.2c0-0.1,0-0.2,0.1-0.3c0.1-0.1,0.2-0.2,0.3-0.4c0.1-0.2,0.2-0.4,0.3-0.6
				c0.1-0.2,0.1-0.5,0.1-0.8c0-0.3,0-0.5-0.1-0.7c-0.1-0.2-0.2-0.4-0.3-0.5c-0.1-0.1-0.3-0.3-0.5-0.3s-0.4-0.1-0.6-0.1
				c-0.3,0-0.5,0.1-0.6,0.2c-0.2,0.1-0.3,0.3-0.4,0.5c-0.1,0.2-0.2,0.4-0.3,0.7s-0.2,0.5-0.2,0.8c-0.1,0.3-0.2,0.5-0.3,0.8
				c-0.1,0.2-0.2,0.5-0.4,0.7c-0.2,0.2-0.4,0.3-0.6,0.5c-0.3,0.1-0.6,0.2-1,0.2c-0.3,0-0.6-0.1-0.9-0.2c-0.3-0.1-0.5-0.3-0.8-0.5
				c-0.2-0.2-0.4-0.5-0.5-0.8c-0.1-0.3-0.2-0.7-0.2-1.1c0-0.5,0.1-0.9,0.2-1.3c0.2-0.4,0.4-0.7,0.7-1L556.3,209z"/>
			<path class="st13" d="M555,201.2h1v2.8h7.6v1.2h-7.6v2.8h-1V201.2z"/>
			<path class="st13" d="M563.6,193.7v0.9c0,0.1,0,0.2-0.1,0.3c-0.1,0.1-0.1,0.1-0.2,0.1l-2.1,0.8v3.9l2.1,0.8
				c0.1,0,0.1,0.1,0.2,0.1c0.1,0.1,0.1,0.2,0.1,0.3v0.9l-8.6-3.4v-1.2L563.6,193.7z M560.4,199.4v-3.2l-3.5,1.4
				c-0.2,0.1-0.5,0.2-0.8,0.3c0.2,0,0.3,0.1,0.5,0.1c0.1,0,0.3,0.1,0.4,0.1L560.4,199.4z"/>
			<path class="st13" d="M562.7,189.1c0-0.2,0-0.4,0-0.6c0-0.2-0.1-0.4-0.1-0.5c0-0.2-0.1-0.3-0.2-0.5c-0.1-0.2-0.1-0.3-0.2-0.5
				h-1.9v1.3c0,0.1,0,0.1-0.1,0.2s-0.1,0.1-0.2,0.1h-0.7v-2.6h3.3c0.2,0.2,0.3,0.4,0.4,0.7c0.1,0.2,0.2,0.5,0.3,0.8
				c0.1,0.3,0.1,0.6,0.2,0.9c0,0.3,0.1,0.6,0.1,1c0,0.6-0.1,1.2-0.3,1.7c-0.2,0.5-0.5,1-0.9,1.3c-0.4,0.4-0.8,0.7-1.4,0.9
				c-0.5,0.2-1.1,0.3-1.8,0.3c-0.7,0-1.3-0.1-1.8-0.3c-0.5-0.2-1-0.5-1.4-0.9c-0.4-0.4-0.7-0.8-0.9-1.4c-0.2-0.5-0.3-1.1-0.3-1.8
				c0-0.3,0-0.7,0.1-0.9c0-0.3,0.1-0.6,0.2-0.8c0.1-0.2,0.2-0.5,0.3-0.7c0.1-0.2,0.3-0.4,0.5-0.6l0.5,0.3c0.1,0.1,0.2,0.2,0.2,0.3
				c0,0.1,0,0.1-0.1,0.2c-0.1,0.1-0.1,0.2-0.2,0.3c-0.1,0.1-0.2,0.3-0.2,0.5c-0.1,0.2-0.1,0.4-0.2,0.6c-0.1,0.2-0.1,0.5-0.1,0.9
				c0,0.5,0.1,0.9,0.2,1.3s0.4,0.7,0.7,1s0.7,0.5,1.1,0.6c0.4,0.1,0.9,0.2,1.4,0.2c0.5,0,1-0.1,1.5-0.2s0.8-0.4,1.1-0.7
				c0.3-0.3,0.5-0.6,0.7-1C562.6,189.9,562.7,189.5,562.7,189.1z"/>
			<path class="st13" d="M555,178.8h0.9v4.1h2.9v-3.3h0.9v3.3h2.9v-4.1h0.9v5.3H555V178.8z"/>
			<path class="st13" d="M560.7,172.7c0.1,0,0.2-0.1,0.3-0.1c-0.1,0-0.2-0.1-0.3-0.1c-0.1,0-0.2-0.1-0.3-0.2l-5.3-2.9
				c-0.1-0.1-0.1-0.1-0.2-0.2c0-0.1,0-0.1,0-0.2v-0.9h8.6v1h-6.3c-0.1,0-0.2,0-0.3,0s-0.2,0-0.3,0l5.4,2.9c0.2,0.1,0.3,0.2,0.3,0.4
				v0.2c0,0.2-0.1,0.3-0.3,0.4l-5.4,3c0.1,0,0.2,0,0.3,0c0.1,0,0.2,0,0.3,0h6.3v1H555v-0.9c0-0.1,0-0.2,0-0.2c0-0.1,0.1-0.1,0.2-0.2
				l5.3-3C560.5,172.8,560.6,172.8,560.7,172.7z"/>
		</g>
	</g>
	<g>
		<path class="st14" d="M353.4,80.2h-0.9c-0.1,0-0.2,0-0.3-0.1c-0.1-0.1-0.1-0.1-0.1-0.2l-0.8-2.1h-3.9l-0.8,2.1
			c0,0.1-0.1,0.1-0.1,0.2s-0.2,0.1-0.3,0.1h-0.9l3.4-8.6h1.2L353.4,80.2z M347.8,77h3.2l-1.4-3.5c-0.1-0.2-0.2-0.5-0.3-0.8
			c0,0.2-0.1,0.3-0.1,0.5s-0.1,0.3-0.1,0.4L347.8,77z"/>
		<path class="st14" d="M358.9,77.3c0,0.1,0.1,0.2,0.1,0.3c0-0.1,0.1-0.2,0.1-0.3c0-0.1,0.1-0.2,0.2-0.3l2.9-5.3
			c0.1-0.1,0.1-0.1,0.2-0.2c0.1,0,0.1,0,0.2,0h0.9v8.6h-1v-6.3c0-0.1,0-0.2,0-0.3s0-0.2,0-0.3l-2.9,5.4c-0.1,0.2-0.2,0.3-0.4,0.3
			h-0.2c-0.2,0-0.3-0.1-0.4-0.3l-3-5.4c0,0.1,0,0.2,0,0.3c0,0.1,0,0.2,0,0.3v6.3h-1v-8.6h0.9c0.1,0,0.2,0,0.2,0
			c0.1,0,0.1,0.1,0.2,0.2l3,5.3C358.8,77.1,358.9,77.2,358.9,77.3z"/>
		<path class="st14" d="M372.6,80.2h-0.9c-0.1,0-0.2,0-0.3-0.1c-0.1-0.1-0.1-0.1-0.1-0.2l-0.8-2.1h-3.9l-0.8,2.1
			c0,0.1-0.1,0.1-0.1,0.2s-0.2,0.1-0.3,0.1h-0.9l3.4-8.6h1.2L372.6,80.2z M367,77h3.2l-1.4-3.5c-0.1-0.2-0.2-0.5-0.3-0.8
			c0,0.2-0.1,0.3-0.1,0.5s-0.1,0.3-0.1,0.4L367,77z"/>
		<path class="st14" d="M379.7,71.6V72c0,0.1,0,0.3-0.1,0.4l-4.9,6.8h4.9v0.9h-6.4v-0.5c0-0.1,0-0.2,0.1-0.3l4.9-6.9h-4.8v-0.9
			H379.7z"/>
		<path class="st14" d="M388.8,75.9c0,0.6-0.1,1.2-0.3,1.8c-0.2,0.5-0.5,1-0.9,1.4s-0.8,0.7-1.3,0.9c-0.5,0.2-1.1,0.3-1.7,0.3
			s-1.2-0.1-1.7-0.3c-0.5-0.2-1-0.5-1.3-0.9s-0.7-0.9-0.9-1.4c-0.2-0.5-0.3-1.1-0.3-1.8c0-0.6,0.1-1.2,0.3-1.8
			c0.2-0.5,0.5-1,0.9-1.4s0.8-0.7,1.3-0.9c0.5-0.2,1.1-0.3,1.7-0.3s1.2,0.1,1.7,0.3c0.5,0.2,1,0.5,1.3,0.9s0.7,0.9,0.9,1.4
			S388.8,75.2,388.8,75.9z M387.7,75.9c0-0.5-0.1-1-0.2-1.4c-0.1-0.4-0.3-0.8-0.6-1.1c-0.3-0.3-0.6-0.5-1-0.7s-0.8-0.2-1.3-0.2
			c-0.5,0-0.9,0.1-1.3,0.2s-0.7,0.4-1,0.7c-0.3,0.3-0.5,0.6-0.6,1.1c-0.1,0.4-0.2,0.9-0.2,1.4s0.1,1,0.2,1.4
			c0.1,0.4,0.3,0.8,0.6,1.1c0.3,0.3,0.6,0.5,1,0.7c0.4,0.2,0.8,0.2,1.3,0.2c0.5,0,0.9-0.1,1.3-0.2c0.4-0.2,0.7-0.4,1-0.7
			c0.3-0.3,0.5-0.6,0.6-1.1C387.6,76.9,387.7,76.4,387.7,75.9z M386.6,70.9h-0.8c0,0-0.1,0-0.2,0s-0.1,0-0.1-0.1l-0.8-0.6
			c0,0-0.1,0-0.1,0c0,0-0.1,0-0.1,0l-0.8,0.6c0,0-0.1,0-0.1,0.1c-0.1,0-0.1,0-0.2,0h-0.8l1.4-1.3h1.1L386.6,70.9z"/>
		<path class="st14" d="M391.3,71.6c0,0,0.1,0.1,0.2,0.2l5,6.5c0-0.1,0-0.2,0-0.3c0-0.1,0-0.2,0-0.3v-6.1h1v8.6h-0.6
			c-0.1,0-0.2,0-0.2,0c-0.1,0-0.1-0.1-0.2-0.2l-5-6.5c0,0.1,0,0.2,0,0.3c0,0.1,0,0.2,0,0.3v6.1h-1v-8.6h0.6
			C391.1,71.6,391.2,71.6,391.3,71.6z"/>
		<path class="st14" d="M400.9,80.2h-1.2v-8.6h1.2V80.2z"/>
		<path class="st14" d="M410.3,80.2h-0.9c-0.1,0-0.2,0-0.3-0.1c-0.1-0.1-0.1-0.1-0.1-0.2l-0.8-2.1h-3.9l-0.8,2.1
			c0,0.1-0.1,0.1-0.1,0.2s-0.2,0.1-0.3,0.1h-0.9l3.4-8.6h1.2L410.3,80.2z M404.6,77h3.2l-1.4-3.5c-0.1-0.2-0.2-0.5-0.3-0.8
			c0,0.2-0.1,0.3-0.1,0.5s-0.1,0.3-0.1,0.4L404.6,77z"/>
		<path class="st14" d="M352.4,116c0.1,0,0.1,0,0.2,0.1l0.5,0.5c-0.4,0.4-0.8,0.7-1.3,1c-0.5,0.2-1.1,0.3-1.8,0.3
			c-0.6,0-1.2-0.1-1.7-0.3s-0.9-0.5-1.3-0.9c-0.4-0.4-0.6-0.8-0.8-1.4s-0.3-1.1-0.3-1.8c0-0.6,0.1-1.2,0.3-1.8
			c0.2-0.5,0.5-1,0.9-1.4c0.4-0.4,0.8-0.7,1.4-0.9c0.5-0.2,1.1-0.3,1.8-0.3c0.6,0,1.2,0.1,1.6,0.3c0.5,0.2,0.9,0.5,1.2,0.8l-0.4,0.5
			c0,0-0.1,0.1-0.1,0.1c0,0-0.1,0-0.2,0c-0.1,0-0.1,0-0.2-0.1s-0.1-0.1-0.2-0.1s-0.2-0.1-0.3-0.2c-0.1-0.1-0.2-0.1-0.4-0.2
			c-0.1-0.1-0.3-0.1-0.5-0.1c-0.2,0-0.4-0.1-0.7-0.1c-0.5,0-0.9,0.1-1.3,0.2s-0.7,0.4-1,0.7c-0.3,0.3-0.5,0.6-0.6,1.1
			s-0.2,0.9-0.2,1.4c0,0.5,0.1,1,0.2,1.4s0.4,0.8,0.6,1.1s0.6,0.5,0.9,0.7c0.4,0.2,0.8,0.2,1.2,0.2c0.3,0,0.5,0,0.7,0
			c0.2,0,0.4-0.1,0.6-0.1c0.2-0.1,0.3-0.1,0.5-0.2c0.1-0.1,0.3-0.2,0.5-0.4C352.3,116,352.4,116,352.4,116z"/>
		<path class="st14" d="M359.9,109.2v0.9h-4.1v2.9h3.3v0.9h-3.3v2.9h4.1v0.9h-5.3v-8.6H359.9z"/>
		<path class="st14" d="M362.8,114.2v3.6h-1.2v-8.6h2.4c0.5,0,1,0.1,1.4,0.2c0.4,0.1,0.7,0.3,1,0.5c0.3,0.2,0.4,0.5,0.6,0.8
			s0.2,0.6,0.2,1c0,0.3,0,0.6-0.1,0.9c-0.1,0.3-0.2,0.5-0.4,0.7c-0.2,0.2-0.4,0.4-0.7,0.5c-0.3,0.1-0.6,0.3-0.9,0.3
			c0.1,0.1,0.3,0.2,0.4,0.4l2.5,3.4h-1c-0.2,0-0.4-0.1-0.5-0.2l-2.2-3.1c-0.1-0.1-0.1-0.2-0.2-0.2c-0.1,0-0.2-0.1-0.4-0.1H362.8z
			 M362.8,113.3h1.2c0.3,0,0.6,0,0.9-0.1c0.3-0.1,0.5-0.2,0.6-0.3c0.2-0.1,0.3-0.3,0.4-0.5c0.1-0.2,0.1-0.4,0.1-0.7
			c0-0.5-0.2-0.9-0.5-1.2c-0.3-0.3-0.8-0.4-1.5-0.4h-1.3V113.3z"/>
		<path class="st14" d="M370.6,114.2v3.6h-1.2v-8.6h2.4c0.5,0,1,0.1,1.4,0.2c0.4,0.1,0.7,0.3,1,0.5c0.3,0.2,0.4,0.5,0.6,0.8
			s0.2,0.6,0.2,1c0,0.3,0,0.6-0.1,0.9c-0.1,0.3-0.2,0.5-0.4,0.7c-0.2,0.2-0.4,0.4-0.7,0.5c-0.3,0.1-0.6,0.3-0.9,0.3
			c0.1,0.1,0.3,0.2,0.4,0.4l2.5,3.4h-1c-0.2,0-0.4-0.1-0.5-0.2l-2.2-3.1c-0.1-0.1-0.1-0.2-0.2-0.2c-0.1,0-0.2-0.1-0.4-0.1H370.6z
			 M370.6,113.3h1.2c0.3,0,0.6,0,0.9-0.1c0.3-0.1,0.5-0.2,0.6-0.3c0.2-0.1,0.3-0.3,0.4-0.5c0.1-0.2,0.1-0.4,0.1-0.7
			c0-0.5-0.2-0.9-0.5-1.2c-0.3-0.3-0.8-0.4-1.5-0.4h-1.3V113.3z"/>
		<path class="st14" d="M384.1,117.8h-0.9c-0.1,0-0.2,0-0.3-0.1c-0.1-0.1-0.1-0.1-0.1-0.2l-0.8-2.1h-3.9l-0.8,2.1
			c0,0.1-0.1,0.1-0.1,0.2s-0.2,0.1-0.3,0.1H376l3.4-8.6h1.2L384.1,117.8z M378.4,114.6h3.2l-1.4-3.5c-0.1-0.2-0.2-0.5-0.3-0.8
			c0,0.2-0.1,0.3-0.1,0.5s-0.1,0.3-0.1,0.4L378.4,114.6z"/>
		<path class="st14" d="M392.6,113.5c0,0.6-0.1,1.2-0.3,1.8c-0.2,0.5-0.5,1-0.9,1.4s-0.8,0.7-1.3,0.9c-0.5,0.2-1.1,0.3-1.7,0.3h-3.2
			v-8.6h3.2c0.6,0,1.2,0.1,1.7,0.3c0.5,0.2,1,0.5,1.3,0.9s0.7,0.8,0.9,1.4C392.5,112.2,392.6,112.8,392.6,113.5z M391.4,113.5
			c0-0.5-0.1-1-0.2-1.4c-0.1-0.4-0.3-0.8-0.6-1.1c-0.3-0.3-0.6-0.5-1-0.7c-0.4-0.2-0.8-0.2-1.3-0.2h-2v6.7h2c0.5,0,0.9-0.1,1.3-0.2
			s0.7-0.4,1-0.7c0.3-0.3,0.5-0.6,0.6-1.1C391.4,114.5,391.4,114,391.4,113.5z"/>
		<path class="st14" d="M402.2,113.5c0,0.6-0.1,1.2-0.3,1.8c-0.2,0.5-0.5,1-0.9,1.4s-0.8,0.7-1.3,0.9c-0.5,0.2-1.1,0.3-1.7,0.3
			s-1.2-0.1-1.7-0.3c-0.5-0.2-1-0.5-1.3-0.9s-0.7-0.9-0.9-1.4c-0.2-0.5-0.3-1.1-0.3-1.8c0-0.6,0.1-1.2,0.3-1.8
			c0.2-0.5,0.5-1,0.9-1.4s0.8-0.7,1.3-0.9c0.5-0.2,1.1-0.3,1.7-0.3s1.2,0.1,1.7,0.3c0.5,0.2,1,0.5,1.3,0.9s0.7,0.9,0.9,1.4
			S402.2,112.8,402.2,113.5z M401,113.5c0-0.5-0.1-1-0.2-1.4c-0.1-0.4-0.3-0.8-0.6-1.1c-0.3-0.3-0.6-0.5-1-0.7s-0.8-0.2-1.3-0.2
			c-0.5,0-0.9,0.1-1.3,0.2s-0.7,0.4-1,0.7c-0.3,0.3-0.5,0.6-0.6,1.1c-0.1,0.4-0.2,0.9-0.2,1.4s0.1,1,0.2,1.4
			c0.1,0.4,0.3,0.8,0.6,1.1c0.3,0.3,0.6,0.5,1,0.7c0.4,0.2,0.8,0.2,1.3,0.2c0.5,0,0.9-0.1,1.3-0.2c0.4-0.2,0.7-0.4,1-0.7
			c0.3-0.3,0.5-0.6,0.6-1.1C400.9,114.5,401,114,401,113.5z"/>
		<path class="st14" d="M347.6,152.1v3.2h-1.2v-8.6h2.5c0.5,0,1,0.1,1.4,0.2s0.7,0.3,1,0.5c0.3,0.2,0.5,0.5,0.6,0.8s0.2,0.7,0.2,1.1
			c0,0.4-0.1,0.8-0.2,1.1c-0.1,0.3-0.3,0.6-0.6,0.9c-0.3,0.2-0.6,0.4-1,0.6c-0.4,0.1-0.9,0.2-1.4,0.2H347.6z M347.6,151.2h1.4
			c0.3,0,0.6,0,0.9-0.1c0.3-0.1,0.5-0.2,0.6-0.4c0.2-0.2,0.3-0.3,0.4-0.6c0.1-0.2,0.1-0.5,0.1-0.7c0-0.5-0.2-1-0.5-1.3
			c-0.3-0.3-0.8-0.5-1.5-0.5h-1.4V151.2z"/>
		<path class="st14" d="M359.9,155.4H359c-0.1,0-0.2,0-0.3-0.1c-0.1-0.1-0.1-0.1-0.1-0.2l-0.8-2.1H354l-0.8,2.1
			c0,0.1-0.1,0.1-0.1,0.2s-0.2,0.1-0.3,0.1h-0.9l3.4-8.6h1.2L359.9,155.4z M354.3,152.2h3.2l-1.4-3.5c-0.1-0.2-0.2-0.5-0.3-0.8
			c0,0.2-0.1,0.3-0.1,0.5s-0.1,0.3-0.1,0.4L354.3,152.2z"/>
		<path class="st14" d="M361.9,146.8c0,0,0.1,0.1,0.2,0.2l5,6.5c0-0.1,0-0.2,0-0.3c0-0.1,0-0.2,0-0.3v-6.1h1v8.6h-0.6
			c-0.1,0-0.2,0-0.2,0c-0.1,0-0.1-0.1-0.2-0.2l-5-6.5c0,0.1,0,0.2,0,0.3c0,0.1,0,0.2,0,0.3v6.1h-1v-8.6h0.6
			C361.7,146.8,361.8,146.8,361.9,146.8z"/>
		<path class="st14" d="M376,146.8v1h-2.8v7.6H372v-7.6h-2.8v-1H376z"/>
		<path class="st14" d="M383.5,155.4h-0.9c-0.1,0-0.2,0-0.3-0.1c-0.1-0.1-0.1-0.1-0.1-0.2l-0.8-2.1h-3.9l-0.8,2.1
			c0,0.1-0.1,0.1-0.1,0.2s-0.2,0.1-0.3,0.1h-0.9l3.4-8.6h1.2L383.5,155.4z M377.8,152.2h3.2l-1.4-3.5c-0.1-0.2-0.2-0.5-0.3-0.8
			c0,0.2-0.1,0.3-0.1,0.5s-0.1,0.3-0.1,0.4L377.8,152.2z"/>
		<path class="st14" d="M385.4,146.8c0,0,0.1,0.1,0.2,0.2l5,6.5c0-0.1,0-0.2,0-0.3c0-0.1,0-0.2,0-0.3v-6.1h1v8.6h-0.6
			c-0.1,0-0.2,0-0.2,0c-0.1,0-0.1-0.1-0.2-0.2l-5-6.5c0,0.1,0,0.2,0,0.3c0,0.1,0,0.2,0,0.3v6.1h-1v-8.6h0.6
			C385.2,146.8,385.3,146.8,385.4,146.8z"/>
		<path class="st14" d="M400.7,155.4h-0.9c-0.1,0-0.2,0-0.3-0.1c-0.1-0.1-0.1-0.1-0.1-0.2l-0.8-2.1h-3.9l-0.8,2.1
			c0,0.1-0.1,0.1-0.1,0.2s-0.2,0.1-0.3,0.1h-0.9l3.4-8.6h1.2L400.7,155.4z M395.1,152.2h3.2l-1.4-3.5c-0.1-0.2-0.2-0.5-0.3-0.8
			c0,0.2-0.1,0.3-0.1,0.5s-0.1,0.3-0.1,0.4L395.1,152.2z"/>
		<path class="st14" d="M402.9,154.4h3.7v1h-4.9v-8.6h1.2V154.4z"/>
		<path class="st14" d="M352.4,191.2c0.1,0,0.1,0,0.2,0.1l0.5,0.5c-0.4,0.4-0.8,0.7-1.3,1c-0.5,0.2-1.1,0.3-1.8,0.3
			c-0.6,0-1.2-0.1-1.7-0.3s-0.9-0.5-1.3-0.9c-0.4-0.4-0.6-0.8-0.8-1.4s-0.3-1.1-0.3-1.8c0-0.6,0.1-1.2,0.3-1.8
			c0.2-0.5,0.5-1,0.9-1.4c0.4-0.4,0.8-0.7,1.4-0.9c0.5-0.2,1.1-0.3,1.8-0.3c0.6,0,1.2,0.1,1.6,0.3c0.5,0.2,0.9,0.5,1.2,0.8l-0.4,0.5
			c0,0-0.1,0.1-0.1,0.1c0,0-0.1,0-0.2,0c-0.1,0-0.1,0-0.2-0.1s-0.1-0.1-0.2-0.1s-0.2-0.1-0.3-0.2c-0.1-0.1-0.2-0.1-0.4-0.2
			c-0.1-0.1-0.3-0.1-0.5-0.1c-0.2,0-0.4-0.1-0.7-0.1c-0.5,0-0.9,0.1-1.3,0.2s-0.7,0.4-1,0.7c-0.3,0.3-0.5,0.6-0.6,1.1
			s-0.2,0.9-0.2,1.4c0,0.5,0.1,1,0.2,1.4s0.4,0.8,0.6,1.1s0.6,0.5,0.9,0.7c0.4,0.2,0.8,0.2,1.2,0.2c0.3,0,0.5,0,0.7,0
			c0.2,0,0.4-0.1,0.6-0.1c0.2-0.1,0.3-0.1,0.5-0.2c0.1-0.1,0.3-0.2,0.5-0.4C352.3,191.2,352.4,191.2,352.4,191.2z"/>
		<path class="st14" d="M361.7,193h-0.9c-0.1,0-0.2,0-0.3-0.1c-0.1-0.1-0.1-0.1-0.1-0.2l-0.8-2.1h-3.9l-0.8,2.1
			c0,0.1-0.1,0.1-0.1,0.2s-0.2,0.1-0.3,0.1h-0.9l3.4-8.6h1.2L361.7,193z M356,189.8h3.2l-1.4-3.5c-0.1-0.2-0.2-0.5-0.3-0.8
			c0,0.2-0.1,0.3-0.1,0.5s-0.1,0.3-0.1,0.4L356,189.8z"/>
		<path class="st14" d="M369.8,193h-0.9c-0.1,0-0.2,0-0.3-0.1c-0.1-0.1-0.1-0.1-0.1-0.2l-0.8-2.1h-3.9l-0.8,2.1
			c0,0.1-0.1,0.1-0.1,0.2s-0.2,0.1-0.3,0.1h-0.9l3.4-8.6h1.2L369.8,193z M364.2,189.8h3.2l-1.4-3.5c-0.1-0.2-0.2-0.5-0.3-0.8
			c0,0.2-0.1,0.3-0.1,0.5s-0.1,0.3-0.1,0.4L364.2,189.8z"/>
		<path class="st14" d="M376,184.4v1h-2.8v7.6H372v-7.6h-2.8v-1H376z"/>
		<path class="st14" d="M378.6,193h-1.2v-8.6h1.2V193z"/>
		<path class="st14" d="M381.7,184.4c0,0,0.1,0.1,0.2,0.2l5,6.5c0-0.1,0-0.2,0-0.3c0-0.1,0-0.2,0-0.3v-6.1h1v8.6h-0.6
			c-0.1,0-0.2,0-0.2,0c-0.1,0-0.1-0.1-0.2-0.2l-5-6.5c0,0.1,0,0.2,0,0.3c0,0.1,0,0.2,0,0.3v6.1h-1v-8.6h0.6
			C381.6,184.4,381.7,184.4,381.7,184.4z"/>
		<path class="st14" d="M393.8,192.1c0.2,0,0.4,0,0.6,0c0.2,0,0.4-0.1,0.5-0.1c0.2,0,0.3-0.1,0.5-0.2c0.2-0.1,0.3-0.1,0.5-0.2v-1.9
			h-1.3c-0.1,0-0.1,0-0.2-0.1c0,0-0.1-0.1-0.1-0.2v-0.7h2.6v3.3c-0.2,0.2-0.4,0.3-0.7,0.4c-0.2,0.1-0.5,0.2-0.8,0.3
			c-0.3,0.1-0.6,0.1-0.9,0.2c-0.3,0-0.6,0.1-1,0.1c-0.6,0-1.2-0.1-1.7-0.3c-0.5-0.2-1-0.5-1.3-0.9s-0.7-0.8-0.9-1.4
			c-0.2-0.5-0.3-1.1-0.3-1.8c0-0.7,0.1-1.3,0.3-1.8s0.5-1,0.9-1.4c0.4-0.4,0.8-0.7,1.4-0.9s1.1-0.3,1.8-0.3c0.3,0,0.7,0,0.9,0.1
			s0.6,0.1,0.8,0.2c0.2,0.1,0.5,0.2,0.7,0.3c0.2,0.1,0.4,0.3,0.6,0.5l-0.3,0.5c-0.1,0.1-0.2,0.2-0.3,0.2c-0.1,0-0.1,0-0.2-0.1
			c-0.1-0.1-0.2-0.1-0.3-0.2c-0.1-0.1-0.3-0.2-0.5-0.2c-0.2-0.1-0.4-0.1-0.6-0.2c-0.2-0.1-0.5-0.1-0.9-0.1c-0.5,0-0.9,0.1-1.3,0.2
			s-0.7,0.4-1,0.7c-0.3,0.3-0.5,0.7-0.6,1.1c-0.1,0.4-0.2,0.9-0.2,1.4c0,0.5,0.1,1,0.2,1.5s0.4,0.8,0.7,1.1c0.3,0.3,0.6,0.5,1,0.7
			C392.9,192,393.3,192.1,393.8,192.1z"/>
		<path class="st14" d="M405.8,193h-0.9c-0.1,0-0.2,0-0.3-0.1c-0.1-0.1-0.1-0.1-0.1-0.2l-0.8-2.1h-3.9l-0.8,2.1
			c0,0.1-0.1,0.1-0.1,0.2s-0.2,0.1-0.3,0.1h-0.9l3.4-8.6h1.2L405.8,193z M400.2,189.8h3.2l-1.4-3.5c-0.1-0.2-0.2-0.5-0.3-0.8
			c0,0.2-0.1,0.3-0.1,0.5s-0.1,0.3-0.1,0.4L400.2,189.8z"/>
		<path d="M350.7,227.8c0,0.1,0.1,0.2,0.1,0.3c0-0.1,0.1-0.2,0.1-0.3c0-0.1,0.1-0.2,0.2-0.3l2.9-5.3c0.1-0.1,0.1-0.1,0.2-0.2
			c0.1,0,0.1,0,0.2,0h0.9v8.6h-1v-6.3c0-0.1,0-0.2,0-0.3s0-0.2,0-0.3l-2.9,5.4c-0.1,0.2-0.2,0.3-0.4,0.3h-0.2
			c-0.2,0-0.3-0.1-0.4-0.3l-3-5.4c0,0.1,0,0.2,0,0.3c0,0.1,0,0.2,0,0.3v6.3h-1V222h0.9c0.1,0,0.2,0,0.2,0c0.1,0,0.1,0.1,0.2,0.2
			l3,5.3C350.6,227.5,350.7,227.6,350.7,227.8z"/>
		<path d="M364.5,230.6h-0.9c-0.1,0-0.2,0-0.3-0.1c-0.1-0.1-0.1-0.1-0.1-0.2l-0.8-2.1h-3.9l-0.8,2.1c0,0.1-0.1,0.1-0.1,0.2
			s-0.2,0.1-0.3,0.1h-0.9l3.4-8.6h1.2L364.5,230.6z M358.8,227.4h3.2l-1.4-3.5c-0.1-0.2-0.2-0.5-0.3-0.8c0,0.2-0.1,0.3-0.1,0.5
			s-0.1,0.3-0.1,0.4L358.8,227.4z"/>
		<path d="M370.6,222v1h-2.8v7.6h-1.2v-7.6h-2.8v-1H370.6z"/>
		<path d="M378.1,230.6h-0.9c-0.1,0-0.2,0-0.3-0.1c-0.1-0.1-0.1-0.1-0.1-0.2l-0.8-2.1h-3.9l-0.8,2.1c0,0.1-0.1,0.1-0.1,0.2
			s-0.2,0.1-0.3,0.1h-0.9l3.4-8.6h1.2L378.1,230.6z M372.5,227.4h3.2l-1.4-3.5c-0.1-0.2-0.2-0.5-0.3-0.8c0,0.2-0.1,0.3-0.1,0.5
			s-0.1,0.3-0.1,0.4L372.5,227.4z"/>
		<path d="M388.6,230.6h-0.9c-0.1,0-0.2,0-0.3-0.1c-0.1-0.1-0.1-0.1-0.1-0.2l-0.8-2.1h-3.9l-0.8,2.1c0,0.1-0.1,0.1-0.1,0.2
			s-0.2,0.1-0.3,0.1h-0.9l3.4-8.6h1.2L388.6,230.6z M383,227.4h3.2l-1.4-3.5c-0.1-0.2-0.2-0.5-0.3-0.8c0,0.2-0.1,0.3-0.1,0.5
			s-0.1,0.3-0.1,0.4L383,227.4z"/>
		<path d="M394.8,222v1H392v7.6h-1.2v-7.6H388v-1H394.8z"/>
		<path d="M397.1,229.6h3.7v1H396V222h1.2V229.6z"/>
		<path d="M409.2,230.6h-0.9c-0.1,0-0.2,0-0.3-0.1c-0.1-0.1-0.1-0.1-0.1-0.2l-0.8-2.1h-3.9l-0.8,2.1c0,0.1-0.1,0.1-0.1,0.2
			s-0.2,0.1-0.3,0.1h-0.9l3.4-8.6h1.2L409.2,230.6z M407.1,221.3h-0.8c0,0-0.1,0-0.2,0c-0.1,0-0.1,0-0.1-0.1l-0.8-0.6
			c0,0-0.1,0-0.1,0c0,0-0.1,0-0.1,0l-0.8,0.6c0,0-0.1,0-0.1,0.1s-0.1,0-0.2,0h-0.8l1.4-1.3h1.1L407.1,221.3z M403.6,227.4h3.2
			l-1.4-3.5c-0.1-0.2-0.2-0.5-0.3-0.8c0,0.2-0.1,0.3-0.1,0.5s-0.1,0.3-0.1,0.4L403.6,227.4z"/>
		<path d="M411.1,222c0,0,0.1,0.1,0.2,0.2l5,6.5c0-0.1,0-0.2,0-0.3c0-0.1,0-0.2,0-0.3V222h1v8.6h-0.6c-0.1,0-0.2,0-0.2,0
			c-0.1,0-0.1-0.1-0.2-0.2l-5-6.5c0,0.1,0,0.2,0,0.3c0,0.1,0,0.2,0,0.3v6.1h-1V222h0.6C411,222,411.1,222,411.1,222z"/>
		<path d="M425.2,222v1h-2.8v7.6h-1.2v-7.6h-2.8v-1H425.2z"/>
		<path d="M427.8,230.6h-1.2V222h1.2V230.6z"/>
		<path d="M436.2,228.8c0.1,0,0.1,0,0.2,0.1l0.5,0.5c-0.4,0.4-0.8,0.7-1.3,1c-0.5,0.2-1.1,0.3-1.8,0.3c-0.6,0-1.2-0.1-1.7-0.3
			s-0.9-0.5-1.3-0.9c-0.4-0.4-0.6-0.8-0.8-1.4s-0.3-1.1-0.3-1.8c0-0.6,0.1-1.2,0.3-1.8c0.2-0.5,0.5-1,0.9-1.4
			c0.4-0.4,0.8-0.7,1.4-0.9c0.5-0.2,1.1-0.3,1.8-0.3c0.6,0,1.2,0.1,1.6,0.3c0.5,0.2,0.9,0.5,1.2,0.8l-0.4,0.5c0,0-0.1,0.1-0.1,0.1
			c0,0-0.1,0-0.2,0c-0.1,0-0.1,0-0.2-0.1s-0.1-0.1-0.2-0.1s-0.2-0.1-0.3-0.2c-0.1-0.1-0.2-0.1-0.4-0.2c-0.1-0.1-0.3-0.1-0.5-0.1
			c-0.2,0-0.4-0.1-0.7-0.1c-0.5,0-0.9,0.1-1.3,0.2s-0.7,0.4-1,0.7c-0.3,0.3-0.5,0.6-0.6,1.1s-0.2,0.9-0.2,1.4c0,0.5,0.1,1,0.2,1.4
			s0.4,0.8,0.6,1.1s0.6,0.5,0.9,0.7c0.4,0.2,0.8,0.2,1.2,0.2c0.3,0,0.5,0,0.7,0c0.2,0,0.4-0.1,0.6-0.1c0.2-0.1,0.3-0.1,0.5-0.2
			c0.1-0.1,0.3-0.2,0.5-0.4C436.1,228.8,436.1,228.8,436.2,228.8z"/>
		<path d="M445.4,230.6h-0.9c-0.1,0-0.2,0-0.3-0.1c-0.1-0.1-0.1-0.1-0.1-0.2l-0.8-2.1h-3.9l-0.8,2.1c0,0.1-0.1,0.1-0.1,0.2
			s-0.2,0.1-0.3,0.1h-0.9l3.4-8.6h1.2L445.4,230.6z M439.8,227.4h3.2l-1.4-3.5c-0.1-0.2-0.2-0.5-0.3-0.8c0,0.2-0.1,0.3-0.1,0.5
			s-0.1,0.3-0.1,0.4L439.8,227.4z"/>
		<path class="st14" d="M347.6,264.9v3.2h-1.2v-8.6h2.5c0.5,0,1,0.1,1.4,0.2s0.7,0.3,1,0.5c0.3,0.2,0.5,0.5,0.6,0.8s0.2,0.7,0.2,1.1
			c0,0.4-0.1,0.8-0.2,1.1c-0.1,0.3-0.3,0.6-0.6,0.9c-0.3,0.2-0.6,0.4-1,0.6c-0.4,0.1-0.9,0.2-1.4,0.2H347.6z M347.6,264h1.4
			c0.3,0,0.6,0,0.9-0.1c0.3-0.1,0.5-0.2,0.6-0.4c0.2-0.2,0.3-0.3,0.4-0.6c0.1-0.2,0.1-0.5,0.1-0.7c0-0.5-0.2-1-0.5-1.3
			c-0.3-0.3-0.8-0.5-1.5-0.5h-1.4V264z"/>
		<path class="st14" d="M359.9,268.2H359c-0.1,0-0.2,0-0.3-0.1c-0.1-0.1-0.1-0.1-0.1-0.2l-0.8-2.1H354l-0.8,2.1
			c0,0.1-0.1,0.1-0.1,0.2s-0.2,0.1-0.3,0.1h-0.9l3.4-8.6h1.2L359.9,268.2z M354.3,265h3.2l-1.4-3.5c-0.1-0.2-0.2-0.5-0.3-0.8
			c0,0.2-0.1,0.3-0.1,0.5s-0.1,0.3-0.1,0.4L354.3,265z"/>
		<path class="st14" d="M365.4,265.3c0,0.1,0.1,0.2,0.1,0.3c0-0.1,0.1-0.2,0.1-0.3c0-0.1,0.1-0.2,0.2-0.3l2.9-5.3
			c0.1-0.1,0.1-0.1,0.2-0.2c0.1,0,0.1,0,0.2,0h0.9v8.6h-1v-6.3c0-0.1,0-0.2,0-0.3s0-0.2,0-0.3l-2.9,5.4c-0.1,0.2-0.2,0.3-0.4,0.3
			h-0.2c-0.2,0-0.3-0.1-0.4-0.3l-3-5.4c0,0.1,0,0.2,0,0.3c0,0.1,0,0.2,0,0.3v6.3h-1v-8.6h0.9c0.1,0,0.2,0,0.2,0
			c0.1,0,0.1,0.1,0.2,0.2l3,5.3C365.3,265.1,365.4,265.2,365.4,265.3z"/>
		<path class="st14" d="M373.3,264.9v3.2h-1.2v-8.6h2.5c0.5,0,1,0.1,1.4,0.2s0.7,0.3,1,0.5c0.3,0.2,0.5,0.5,0.6,0.8s0.2,0.7,0.2,1.1
			c0,0.4-0.1,0.8-0.2,1.1c-0.1,0.3-0.3,0.6-0.6,0.9c-0.3,0.2-0.6,0.4-1,0.6c-0.4,0.1-0.9,0.2-1.4,0.2H373.3z M373.3,264h1.4
			c0.3,0,0.6,0,0.9-0.1c0.3-0.1,0.5-0.2,0.6-0.4c0.2-0.2,0.3-0.3,0.4-0.6c0.1-0.2,0.1-0.5,0.1-0.7c0-0.5-0.2-1-0.5-1.3
			c-0.3-0.3-0.8-0.5-1.5-0.5h-1.4V264z"/>
		<path class="st14" d="M385.6,268.2h-0.9c-0.1,0-0.2,0-0.3-0.1c-0.1-0.1-0.1-0.1-0.1-0.2l-0.8-2.1h-3.9l-0.8,2.1
			c0,0.1-0.1,0.1-0.1,0.2s-0.2,0.1-0.3,0.1h-0.9l3.4-8.6h1.2L385.6,268.2z M380,265h3.2l-1.4-3.5c-0.1-0.2-0.2-0.5-0.3-0.8
			c0,0.2-0.1,0.3-0.1,0.5s-0.1,0.3-0.1,0.4L380,265z"/>
	</g>
	<g>
		<g>
			<path class="st13" d="M635.6,221v0.9c0,0.1,0,0.2-0.1,0.3c-0.1,0.1-0.1,0.1-0.2,0.1l-2.1,0.8v3.9l2.1,0.8c0.1,0,0.1,0.1,0.2,0.1
				c0.1,0.1,0.1,0.2,0.1,0.3v0.9l-8.6-3.4v-1.2L635.6,221z M632.4,226.7v-3.2l-3.5,1.4c-0.2,0.1-0.5,0.2-0.8,0.3
				c0.2,0,0.3,0.1,0.5,0.1c0.1,0,0.3,0.1,0.4,0.1L632.4,226.7z"/>
			<path class="st13" d="M634.7,216.4c0-0.2,0-0.4,0-0.6c0-0.2-0.1-0.4-0.1-0.5c0-0.2-0.1-0.3-0.2-0.5c-0.1-0.2-0.1-0.3-0.2-0.5
				h-1.9v1.3c0,0.1,0,0.1-0.1,0.2s-0.1,0.1-0.2,0.1h-0.7v-2.6h3.3c0.2,0.2,0.3,0.4,0.4,0.7c0.1,0.2,0.2,0.5,0.3,0.8
				c0.1,0.3,0.1,0.6,0.2,0.9c0,0.3,0.1,0.6,0.1,1c0,0.6-0.1,1.2-0.3,1.7c-0.2,0.5-0.5,1-0.9,1.3c-0.4,0.4-0.8,0.7-1.4,0.9
				c-0.5,0.2-1.1,0.3-1.8,0.3c-0.7,0-1.3-0.1-1.8-0.3c-0.5-0.2-1-0.5-1.4-0.9c-0.4-0.4-0.7-0.8-0.9-1.4c-0.2-0.5-0.3-1.1-0.3-1.8
				c0-0.3,0-0.7,0.1-0.9c0-0.3,0.1-0.6,0.2-0.8c0.1-0.2,0.2-0.5,0.3-0.7c0.1-0.2,0.3-0.4,0.5-0.6l0.5,0.3c0.1,0.1,0.2,0.2,0.2,0.3
				c0,0.1,0,0.1-0.1,0.2c-0.1,0.1-0.1,0.2-0.2,0.3c-0.1,0.1-0.2,0.3-0.2,0.5c-0.1,0.2-0.1,0.4-0.2,0.6c-0.1,0.2-0.1,0.5-0.1,0.9
				c0,0.5,0.1,0.9,0.2,1.3s0.4,0.7,0.7,1s0.7,0.5,1.1,0.6c0.4,0.1,0.9,0.2,1.4,0.2c0.5,0,1-0.1,1.5-0.2s0.8-0.4,1.1-0.7
				c0.3-0.3,0.5-0.6,0.7-1C634.6,217.3,634.7,216.8,634.7,216.4z"/>
			<path class="st13" d="M632,210.1h3.6v1.2H627v-2.4c0-0.5,0.1-1,0.2-1.4c0.1-0.4,0.3-0.7,0.5-1c0.2-0.3,0.5-0.4,0.8-0.6
				c0.3-0.1,0.6-0.2,1-0.2c0.3,0,0.6,0,0.9,0.1c0.3,0.1,0.5,0.2,0.7,0.4c0.2,0.2,0.4,0.4,0.5,0.7c0.1,0.3,0.3,0.6,0.3,0.9
				c0.1-0.1,0.2-0.3,0.4-0.4l3.4-2.5v1c0,0.2-0.1,0.4-0.2,0.5l-3.1,2.2c-0.1,0.1-0.2,0.1-0.2,0.2c0,0.1-0.1,0.2-0.1,0.4V210.1z
				 M631.1,210.1v-1.2c0-0.3,0-0.6-0.1-0.9c-0.1-0.3-0.2-0.5-0.3-0.6c-0.1-0.2-0.3-0.3-0.5-0.4c-0.2-0.1-0.4-0.1-0.7-0.1
				c-0.5,0-0.9,0.2-1.2,0.5c-0.3,0.3-0.4,0.8-0.4,1.5v1.3H631.1z"/>
			<path class="st13" d="M635.6,202.3v1.2H627v-1.2H635.6z"/>
			<path class="st13" d="M633.8,193.9c0-0.1,0-0.1,0.1-0.2l0.5-0.5c0.4,0.4,0.7,0.8,1,1.3s0.3,1.1,0.3,1.8c0,0.6-0.1,1.2-0.3,1.7
				c-0.2,0.5-0.5,0.9-0.9,1.3c-0.4,0.4-0.8,0.6-1.4,0.8c-0.5,0.2-1.1,0.3-1.8,0.3s-1.2-0.1-1.8-0.3c-0.5-0.2-1-0.5-1.4-0.9
				s-0.7-0.8-0.9-1.4c-0.2-0.5-0.3-1.1-0.3-1.8c0-0.6,0.1-1.2,0.3-1.6s0.5-0.9,0.8-1.2l0.5,0.4c0,0,0.1,0.1,0.1,0.1c0,0,0,0.1,0,0.2
				c0,0.1,0,0.1-0.1,0.2c0,0.1-0.1,0.1-0.1,0.2c-0.1,0.1-0.1,0.2-0.2,0.3c-0.1,0.1-0.1,0.2-0.2,0.4c-0.1,0.1-0.1,0.3-0.1,0.5
				c0,0.2-0.1,0.4-0.1,0.7c0,0.5,0.1,0.9,0.2,1.3s0.4,0.7,0.7,1c0.3,0.3,0.6,0.5,1.1,0.6s0.9,0.2,1.4,0.2c0.5,0,1-0.1,1.4-0.2
				s0.8-0.4,1.1-0.6c0.3-0.3,0.5-0.6,0.7-0.9c0.2-0.4,0.2-0.8,0.2-1.2c0-0.3,0-0.5,0-0.7c0-0.2-0.1-0.4-0.1-0.6
				c-0.1-0.2-0.1-0.3-0.2-0.5c-0.1-0.1-0.2-0.3-0.3-0.5C633.8,194.1,633.8,194,633.8,193.9z"/>
			<path class="st13" d="M634.6,188.4c0-0.4-0.1-0.7-0.2-1c-0.1-0.3-0.3-0.5-0.5-0.7c-0.2-0.2-0.5-0.3-0.8-0.4
				c-0.3-0.1-0.6-0.2-1-0.2H627V185h5.2c0.5,0,1,0.1,1.4,0.2c0.4,0.2,0.8,0.4,1.1,0.7c0.3,0.3,0.6,0.7,0.7,1.1
				c0.2,0.4,0.3,0.9,0.3,1.4c0,0.5-0.1,1-0.3,1.4s-0.4,0.8-0.7,1.1c-0.3,0.3-0.7,0.5-1.1,0.7c-0.4,0.2-0.9,0.2-1.4,0.2H627v-1.2h5.2
				c0.4,0,0.7-0.1,1-0.2c0.3-0.1,0.6-0.2,0.8-0.4c0.2-0.2,0.4-0.4,0.5-0.7C634.6,189.1,634.6,188.8,634.6,188.4z"/>
			<path class="st13" d="M634.6,181.8v-3.7h1v4.9H627v-1.2H634.6z"/>
			<path class="st13" d="M627,172h1v2.8h7.6v1.2h-7.6v2.8h-1V172z"/>
			<path class="st13" d="M634.6,167.4c0-0.4-0.1-0.7-0.2-1c-0.1-0.3-0.3-0.5-0.5-0.7c-0.2-0.2-0.5-0.3-0.8-0.4
				c-0.3-0.1-0.6-0.2-1-0.2H627V164h5.2c0.5,0,1,0.1,1.4,0.2c0.4,0.2,0.8,0.4,1.1,0.7c0.3,0.3,0.6,0.7,0.7,1.1
				c0.2,0.4,0.3,0.9,0.3,1.4c0,0.5-0.1,1-0.3,1.4s-0.4,0.8-0.7,1.1c-0.3,0.3-0.7,0.5-1.1,0.7c-0.4,0.2-0.9,0.2-1.4,0.2H627v-1.2h5.2
				c0.4,0,0.7-0.1,1-0.2c0.3-0.1,0.6-0.2,0.8-0.4c0.2-0.2,0.4-0.4,0.5-0.7C634.6,168.1,634.6,167.8,634.6,167.4z"/>
			<path class="st13" d="M632,160.7h3.6v1.2H627v-2.4c0-0.5,0.1-1,0.2-1.4c0.1-0.4,0.3-0.7,0.5-1c0.2-0.3,0.5-0.4,0.8-0.6
				c0.3-0.1,0.6-0.2,1-0.2c0.3,0,0.6,0,0.9,0.1c0.3,0.1,0.5,0.2,0.7,0.4c0.2,0.2,0.4,0.4,0.5,0.7c0.1,0.3,0.3,0.6,0.3,0.9
				c0.1-0.1,0.2-0.3,0.4-0.4l3.4-2.5v1c0,0.2-0.1,0.4-0.2,0.5l-3.1,2.2c-0.1,0.1-0.2,0.1-0.2,0.2c0,0.1-0.1,0.2-0.1,0.4V160.7z
				 M631.1,160.7v-1.2c0-0.3,0-0.6-0.1-0.9c-0.1-0.3-0.2-0.5-0.3-0.6c-0.1-0.2-0.3-0.3-0.5-0.4c-0.2-0.1-0.4-0.1-0.7-0.1
				c-0.5,0-0.9,0.2-1.2,0.5c-0.3,0.3-0.4,0.8-0.4,1.5v1.3H631.1z"/>
			<path class="st13" d="M635.6,147.2v0.9c0,0.1,0,0.2-0.1,0.3c-0.1,0.1-0.1,0.1-0.2,0.1l-2.1,0.8v3.9l2.1,0.8
				c0.1,0,0.1,0.1,0.2,0.1c0.1,0.1,0.1,0.2,0.1,0.3v0.9l-8.6-3.4v-1.2L635.6,147.2z M632.4,152.9v-3.2l-3.5,1.4
				c-0.2,0.1-0.5,0.2-0.8,0.3c0.2,0,0.3,0.1,0.5,0.1c0.1,0,0.3,0.1,0.4,0.1L632.4,152.9z"/>
		</g>
	</g>
	<g>
		<g>
			<path class="st13" d="M703,222.1h0.4c0.1,0,0.3,0,0.4,0.1l6.8,4.9v-4.9h0.9v6.4h-0.5c-0.1,0-0.2,0-0.3-0.1l-6.9-4.9v4.8H703
				V222.1z"/>
			<path class="st13" d="M707.3,213c0.6,0,1.2,0.1,1.8,0.3s1,0.5,1.4,0.9c0.4,0.4,0.7,0.8,0.9,1.3c0.2,0.5,0.3,1.1,0.3,1.7
				s-0.1,1.2-0.3,1.7c-0.2,0.5-0.5,1-0.9,1.3c-0.4,0.4-0.9,0.7-1.4,0.9c-0.5,0.2-1.1,0.3-1.8,0.3s-1.2-0.1-1.8-0.3
				c-0.5-0.2-1-0.5-1.4-0.9c-0.4-0.4-0.7-0.8-0.9-1.3c-0.2-0.5-0.3-1.1-0.3-1.7s0.1-1.2,0.3-1.7c0.2-0.5,0.5-1,0.9-1.3
				c0.4-0.4,0.9-0.7,1.4-0.9C706,213.1,706.6,213,707.3,213z M707.3,214.2c-0.5,0-1,0.1-1.4,0.2c-0.4,0.1-0.8,0.3-1.1,0.6
				c-0.3,0.3-0.5,0.6-0.7,1s-0.2,0.8-0.2,1.3c0,0.5,0.1,0.9,0.2,1.3s0.4,0.7,0.7,1c0.3,0.3,0.6,0.5,1.1,0.6c0.4,0.1,0.9,0.2,1.4,0.2
				c0.5,0,1-0.1,1.4-0.2c0.4-0.1,0.8-0.3,1.1-0.6c0.3-0.3,0.5-0.6,0.7-1c0.2-0.4,0.2-0.8,0.2-1.3c0-0.5-0.1-0.9-0.2-1.3
				c-0.2-0.4-0.4-0.7-0.7-1c-0.3-0.3-0.6-0.5-1.1-0.6C708.3,214.3,707.8,214.2,707.3,214.2z"/>
			<path class="st13" d="M703,210.6c0,0,0.1-0.1,0.2-0.2l6.5-5c-0.1,0-0.2,0-0.3,0c-0.1,0-0.2,0-0.3,0H703v-1h8.6v0.6
				c0,0.1,0,0.2,0,0.2c0,0.1-0.1,0.1-0.2,0.2l-6.5,5c0.1,0,0.2,0,0.3,0s0.2,0,0.3,0h6.1v1H703v-0.6C703,210.7,703,210.6,703,210.6z"
				/>
			<path class="st13" d="M711.6,195.2v0.9c0,0.1,0,0.2-0.1,0.3c-0.1,0.1-0.1,0.1-0.2,0.1l-2.1,0.8v3.9l2.1,0.8
				c0.1,0,0.1,0.1,0.2,0.1c0.1,0.1,0.1,0.2,0.1,0.3v0.9l-8.6-3.4v-1.2L711.6,195.2z M708.4,200.9v-3.2l-3.5,1.4
				c-0.2,0.1-0.5,0.2-0.8,0.3c0.2,0,0.3,0.1,0.5,0.1c0.1,0,0.3,0.1,0.4,0.1L708.4,200.9z"/>
			<path class="st13" d="M709.8,185.8c0-0.1,0-0.1,0.1-0.2l0.5-0.5c0.4,0.4,0.7,0.8,1,1.3s0.3,1.1,0.3,1.8c0,0.6-0.1,1.2-0.3,1.7
				c-0.2,0.5-0.5,0.9-0.9,1.3c-0.4,0.4-0.8,0.6-1.4,0.8c-0.5,0.2-1.1,0.3-1.8,0.3s-1.2-0.1-1.8-0.3c-0.5-0.2-1-0.5-1.4-0.9
				s-0.7-0.8-0.9-1.4c-0.2-0.5-0.3-1.1-0.3-1.8c0-0.6,0.1-1.2,0.3-1.6s0.5-0.9,0.8-1.2l0.5,0.4c0,0,0.1,0.1,0.1,0.1c0,0,0,0.1,0,0.2
				c0,0.1,0,0.1-0.1,0.2c0,0.1-0.1,0.1-0.1,0.2c-0.1,0.1-0.1,0.2-0.2,0.3c-0.1,0.1-0.1,0.2-0.2,0.4c-0.1,0.1-0.1,0.3-0.1,0.5
				c0,0.2-0.1,0.4-0.1,0.7c0,0.5,0.1,0.9,0.2,1.3s0.4,0.7,0.7,1c0.3,0.3,0.6,0.5,1.1,0.6s0.9,0.2,1.4,0.2c0.5,0,1-0.1,1.4-0.2
				s0.8-0.4,1.1-0.6c0.3-0.3,0.5-0.6,0.7-0.9c0.2-0.4,0.2-0.8,0.2-1.2c0-0.3,0-0.5,0-0.7c0-0.2-0.1-0.4-0.1-0.6
				c-0.1-0.2-0.1-0.3-0.2-0.5c-0.1-0.1-0.2-0.3-0.3-0.5C709.8,185.9,709.8,185.9,709.8,185.8z"/>
			<path class="st13" d="M707.3,175.6c0.6,0,1.2,0.1,1.8,0.3s1,0.5,1.4,0.9c0.4,0.4,0.7,0.8,0.9,1.3c0.2,0.5,0.3,1.1,0.3,1.7
				s-0.1,1.2-0.3,1.7c-0.2,0.5-0.5,1-0.9,1.3c-0.4,0.4-0.9,0.7-1.4,0.9c-0.5,0.2-1.1,0.3-1.8,0.3s-1.2-0.1-1.8-0.3
				c-0.5-0.2-1-0.5-1.4-0.9c-0.4-0.4-0.7-0.8-0.9-1.3c-0.2-0.5-0.3-1.1-0.3-1.7s0.1-1.2,0.3-1.7c0.2-0.5,0.5-1,0.9-1.3
				c0.4-0.4,0.9-0.7,1.4-0.9C706,175.7,706.6,175.6,707.3,175.6z M707.3,176.8c-0.5,0-1,0.1-1.4,0.2c-0.4,0.1-0.8,0.3-1.1,0.6
				c-0.3,0.3-0.5,0.6-0.7,1s-0.2,0.8-0.2,1.3c0,0.5,0.1,0.9,0.2,1.3s0.4,0.7,0.7,1c0.3,0.3,0.6,0.5,1.1,0.6c0.4,0.1,0.9,0.2,1.4,0.2
				c0.5,0,1-0.1,1.4-0.2c0.4-0.1,0.8-0.3,1.1-0.6c0.3-0.3,0.5-0.6,0.7-1c0.2-0.4,0.2-0.8,0.2-1.3c0-0.5-0.1-0.9-0.2-1.3
				c-0.2-0.4-0.4-0.7-0.7-1c-0.3-0.3-0.6-0.5-1.1-0.6C708.3,176.9,707.8,176.8,707.3,176.8z"/>
			<path class="st13" d="M704.3,169.6c0.1,0,0.1,0.1,0.1,0.1c0,0,0,0.1,0,0.2c0,0.1,0,0.1-0.1,0.2c-0.1,0.1-0.1,0.2-0.2,0.3
				c-0.1,0.1-0.2,0.3-0.2,0.5c-0.1,0.2-0.1,0.4-0.1,0.7c0,0.3,0,0.5,0.1,0.7s0.2,0.4,0.3,0.5c0.1,0.1,0.3,0.2,0.4,0.3
				c0.2,0.1,0.3,0.1,0.5,0.1c0.2,0,0.4-0.1,0.6-0.2c0.2-0.1,0.3-0.3,0.4-0.5c0.1-0.2,0.2-0.4,0.3-0.7c0.1-0.2,0.2-0.5,0.3-0.8
				c0.1-0.3,0.2-0.5,0.3-0.8c0.1-0.2,0.2-0.5,0.4-0.7c0.2-0.2,0.4-0.3,0.6-0.5s0.5-0.2,0.9-0.2c0.4,0,0.7,0.1,1.1,0.2
				c0.3,0.1,0.6,0.3,0.9,0.6c0.2,0.2,0.4,0.5,0.6,0.9c0.1,0.4,0.2,0.8,0.2,1.2c0,0.6-0.1,1.1-0.3,1.5c-0.2,0.5-0.5,0.8-0.8,1.2
				l-0.6-0.3c0,0-0.1-0.1-0.1-0.1s0-0.1,0-0.2c0-0.1,0-0.2,0.1-0.3c0.1-0.1,0.2-0.2,0.3-0.4c0.1-0.2,0.2-0.4,0.3-0.6
				c0.1-0.2,0.1-0.5,0.1-0.8c0-0.3,0-0.5-0.1-0.7c-0.1-0.2-0.2-0.4-0.3-0.5c-0.1-0.1-0.3-0.3-0.5-0.3s-0.4-0.1-0.6-0.1
				c-0.3,0-0.5,0.1-0.6,0.2c-0.2,0.1-0.3,0.3-0.4,0.5c-0.1,0.2-0.2,0.4-0.3,0.7s-0.2,0.5-0.2,0.8c-0.1,0.3-0.2,0.5-0.3,0.8
				c-0.1,0.2-0.2,0.5-0.4,0.7c-0.2,0.2-0.4,0.3-0.6,0.5c-0.3,0.1-0.6,0.2-1,0.2c-0.3,0-0.6-0.1-0.9-0.2c-0.3-0.1-0.5-0.3-0.8-0.5
				c-0.2-0.2-0.4-0.5-0.5-0.8c-0.1-0.3-0.2-0.7-0.2-1.1c0-0.5,0.1-0.9,0.2-1.3c0.2-0.4,0.4-0.7,0.7-1L704.3,169.6z"/>
			<path class="st13" d="M703,161.8h1v2.8h7.6v1.2h-7.6v2.8h-1V161.8z"/>
			<path class="st13" d="M703,155.3h0.9v4.1h2.9v-3.3h0.9v3.3h2.9v-4.1h0.9v5.3H703V155.3z"/>
			<path class="st13" d="M711.6,152.3v1.2H703v-1.2H711.6z"/>
			<path class="st13" d="M708,148.7h3.6v1.2H703v-2.4c0-0.5,0.1-1,0.2-1.4c0.1-0.4,0.3-0.7,0.5-1c0.2-0.3,0.5-0.4,0.8-0.6
				c0.3-0.1,0.6-0.2,1-0.2c0.3,0,0.6,0,0.9,0.1c0.3,0.1,0.5,0.2,0.7,0.4c0.2,0.2,0.4,0.4,0.5,0.7c0.1,0.3,0.3,0.6,0.3,0.9
				c0.1-0.1,0.2-0.3,0.4-0.4l3.4-2.5v1c0,0.2-0.1,0.4-0.2,0.5l-3.1,2.2c-0.1,0.1-0.2,0.1-0.2,0.2c0,0.1-0.1,0.2-0.1,0.4V148.7z
				 M707.1,148.7v-1.2c0-0.3,0-0.6-0.1-0.9c-0.1-0.3-0.2-0.5-0.3-0.6c-0.1-0.2-0.3-0.3-0.5-0.4c-0.2-0.1-0.4-0.1-0.7-0.1
				c-0.5,0-0.9,0.2-1.2,0.5c-0.3,0.3-0.4,0.8-0.4,1.5v1.3H707.1z"/>
			<path class="st13" d="M711.6,135.2v0.9c0,0.1,0,0.2-0.1,0.3c-0.1,0.1-0.1,0.1-0.2,0.1l-2.1,0.8v3.9l2.1,0.8
				c0.1,0,0.1,0.1,0.2,0.1c0.1,0.1,0.1,0.2,0.1,0.3v0.9l-8.6-3.4v-1.2L711.6,135.2z M708.4,140.8v-3.2l-3.5,1.4
				c-0.2,0.1-0.5,0.2-0.8,0.3c0.2,0,0.3,0.1,0.5,0.1c0.1,0,0.3,0.1,0.4,0.1L708.4,140.8z"/>
		</g>
	</g>
	<g>
		<g>
			<path class="st13" d="M772.9,223l1.3,1.8c0,0.1,0.1,0.1,0.1,0.2c0,0.1,0,0.1,0,0.2v0.8l-1.2-1.3c0,0-0.1-0.1-0.1-0.1
				c0,0,0-0.1-0.1-0.1s0-0.1,0-0.1s0-0.1,0-0.2V223z M783.6,221v0.9c0,0.1,0,0.2-0.1,0.3c-0.1,0.1-0.1,0.1-0.2,0.1l-2.1,0.8v3.9
				l2.1,0.8c0.1,0,0.1,0.1,0.2,0.1c0.1,0.1,0.1,0.2,0.1,0.3v0.9l-8.6-3.4v-1.2L783.6,221z M780.4,226.7v-3.2l-3.5,1.4
				c-0.2,0.1-0.5,0.2-0.8,0.3c0.2,0,0.3,0.1,0.5,0.1c0.1,0,0.3,0.1,0.4,0.1L780.4,226.7z"/>
			<path class="st13" d="M780,218.7h3.6v1.2H775v-2.4c0-0.5,0.1-1,0.2-1.4c0.1-0.4,0.3-0.7,0.5-1c0.2-0.3,0.5-0.4,0.8-0.6
				c0.3-0.1,0.6-0.2,1-0.2c0.3,0,0.6,0,0.9,0.1c0.3,0.1,0.5,0.2,0.7,0.4c0.2,0.2,0.4,0.4,0.5,0.7c0.1,0.3,0.3,0.6,0.3,0.9
				c0.1-0.1,0.2-0.3,0.4-0.4l3.4-2.5v1c0,0.2-0.1,0.4-0.2,0.5l-3.1,2.2c-0.1,0.1-0.2,0.1-0.2,0.2c0,0.1-0.1,0.2-0.1,0.4V218.7z
				 M779.1,218.7v-1.2c0-0.3,0-0.6-0.1-0.9c-0.1-0.3-0.2-0.5-0.3-0.6c-0.1-0.2-0.3-0.3-0.5-0.4c-0.2-0.1-0.4-0.1-0.7-0.1
				c-0.5,0-0.9,0.2-1.2,0.5c-0.3,0.3-0.4,0.8-0.4,1.5v1.3H779.1z"/>
			<path class="st13" d="M775,206.9h0.9v4.1h2.9v-3.3h0.9v3.3h2.9v-4.1h0.9v5.3H775V206.9z"/>
			<path class="st13" d="M783.6,198.2v0.9c0,0.1,0,0.2-0.1,0.3c-0.1,0.1-0.1,0.1-0.2,0.1l-2.1,0.8v3.9l2.1,0.8
				c0.1,0,0.1,0.1,0.2,0.1c0.1,0.1,0.1,0.2,0.1,0.3v0.9l-8.6-3.4v-1.2L783.6,198.2z M780.4,203.8v-3.2l-3.5,1.4
				c-0.2,0.1-0.5,0.2-0.8,0.3c0.2,0,0.3,0.1,0.5,0.1c0.1,0,0.3,0.1,0.4,0.1L780.4,203.8z"/>
			<path class="st13" d="M782.6,191.4c0-0.4-0.1-0.7-0.2-1c-0.1-0.3-0.3-0.5-0.5-0.7c-0.2-0.2-0.5-0.3-0.8-0.4
				c-0.3-0.1-0.6-0.2-1-0.2H775V188h5.2c0.5,0,1,0.1,1.4,0.2c0.4,0.2,0.8,0.4,1.1,0.7c0.3,0.3,0.6,0.7,0.7,1.1
				c0.2,0.4,0.3,0.9,0.3,1.4c0,0.5-0.1,1-0.3,1.4s-0.4,0.8-0.7,1.1c-0.3,0.3-0.7,0.5-1.1,0.7c-0.4,0.2-0.9,0.2-1.4,0.2H775v-1.2h5.2
				c0.4,0,0.7-0.1,1-0.2c0.3-0.1,0.6-0.2,0.8-0.4c0.2-0.2,0.4-0.4,0.5-0.7C782.6,192.1,782.6,191.8,782.6,191.4z"/>
			<path class="st13" d="M780,184.7h3.6v1.2H775v-2.4c0-0.5,0.1-1,0.2-1.4c0.1-0.4,0.3-0.7,0.5-1c0.2-0.3,0.5-0.4,0.8-0.6
				c0.3-0.1,0.6-0.2,1-0.2c0.3,0,0.6,0,0.9,0.1c0.3,0.1,0.5,0.2,0.7,0.4c0.2,0.2,0.4,0.4,0.5,0.7c0.1,0.3,0.3,0.6,0.3,0.9
				c0.1-0.1,0.2-0.3,0.4-0.4l3.4-2.5v1c0,0.2-0.1,0.4-0.2,0.5l-3.1,2.2c-0.1,0.1-0.2,0.1-0.2,0.2c0,0.1-0.1,0.2-0.1,0.4V184.7z
				 M779.1,184.7v-1.2c0-0.3,0-0.6-0.1-0.9c-0.1-0.3-0.2-0.5-0.3-0.6c-0.1-0.2-0.3-0.3-0.5-0.4c-0.2-0.1-0.4-0.1-0.7-0.1
				c-0.5,0-0.9,0.2-1.2,0.5c-0.3,0.3-0.4,0.8-0.4,1.5v1.3H779.1z"/>
			<path class="st13" d="M783.6,178.3H775v-2.7c0-0.5,0.1-1,0.2-1.4c0.1-0.4,0.3-0.7,0.4-0.9c0.2-0.2,0.4-0.4,0.7-0.5
				c0.3-0.1,0.6-0.2,0.9-0.2c0.2,0,0.4,0,0.6,0.1c0.2,0.1,0.4,0.2,0.5,0.3s0.3,0.3,0.5,0.5c0.1,0.2,0.2,0.4,0.3,0.7
				c0.1-0.6,0.3-1.1,0.7-1.4s0.8-0.5,1.3-0.5c0.4,0,0.7,0.1,1,0.2c0.3,0.1,0.6,0.3,0.8,0.6c0.2,0.3,0.4,0.6,0.5,0.9
				c0.1,0.4,0.2,0.8,0.2,1.3V178.3z M778.8,177.1v-1.5c0-0.3,0-0.6-0.1-0.9c-0.1-0.2-0.2-0.4-0.3-0.6c-0.1-0.2-0.3-0.3-0.5-0.4
				s-0.4-0.1-0.6-0.1c-0.5,0-0.9,0.2-1.1,0.5s-0.4,0.8-0.4,1.4v1.6H778.8z M779.6,177.1h3v-1.9c0-0.3,0-0.6-0.1-0.9
				s-0.2-0.4-0.3-0.6c-0.1-0.2-0.3-0.3-0.5-0.3c-0.2-0.1-0.4-0.1-0.6-0.1c-0.4,0-0.8,0.2-1.1,0.5c-0.3,0.3-0.4,0.8-0.4,1.4V177.1z"
				/>
			<path class="st13" d="M783.6,163.4v0.9c0,0.1,0,0.2-0.1,0.3c-0.1,0.1-0.1,0.1-0.2,0.1l-2.1,0.8v3.9l2.1,0.8
				c0.1,0,0.1,0.1,0.2,0.1c0.1,0.1,0.1,0.2,0.1,0.3v0.9l-8.6-3.4v-1.2L783.6,163.4z M780.4,169.1v-3.2l-3.5,1.4
				c-0.2,0.1-0.5,0.2-0.8,0.3c0.2,0,0.3,0.1,0.5,0.1c0.1,0,0.3,0.1,0.4,0.1L780.4,169.1z"/>
			<path class="st13" d="M775,161.5c0,0,0.1-0.1,0.2-0.2l6.5-5c-0.1,0-0.2,0-0.3,0c-0.1,0-0.2,0-0.3,0H775v-1h8.6v0.6
				c0,0.1,0,0.2,0,0.2c0,0.1-0.1,0.1-0.2,0.2l-6.5,5c0.1,0,0.2,0,0.3,0s0.2,0,0.3,0h6.1v1H775v-0.6C775,161.7,775,161.6,775,161.5z"
				/>
			<path class="st13" d="M783.6,146.2v0.9c0,0.1,0,0.2-0.1,0.3c-0.1,0.1-0.1,0.1-0.2,0.1l-2.1,0.8v3.9l2.1,0.8
				c0.1,0,0.1,0.1,0.2,0.1c0.1,0.1,0.1,0.2,0.1,0.3v0.9l-8.6-3.4v-1.2L783.6,146.2z M780.4,151.9v-3.2l-3.5,1.4
				c-0.2,0.1-0.5,0.2-0.8,0.3c0.2,0,0.3,0.1,0.5,0.1c0.1,0,0.3,0.1,0.4,0.1L780.4,151.9z"/>
		</g>
	</g>
	<rect x="534.3" y="10.1" class="st15" width="273" height="30"/>
	<g>
		<g>
			<path class="st13" d="M612.6,20.6v1h-2.8v7.6h-1.2v-7.6h-2.8v-1H612.6z"/>
			<path class="st13" d="M619.1,20.6v0.9H615v2.9h3.3v0.9H615v2.9h4.1v0.9h-5.3v-8.6H619.1z"/>
			<path class="st13" d="M625.1,26.3c0,0.1,0.1,0.2,0.1,0.3c0-0.1,0.1-0.2,0.1-0.3c0-0.1,0.1-0.2,0.2-0.3l2.9-5.3
				c0.1-0.1,0.1-0.1,0.2-0.2c0.1,0,0.1,0,0.2,0h0.9v8.6h-1v-6.3c0-0.1,0-0.2,0-0.3s0-0.2,0-0.3l-2.9,5.4c-0.1,0.2-0.2,0.3-0.4,0.3
				h-0.2c-0.2,0-0.3-0.1-0.4-0.3l-3-5.4c0,0.1,0,0.2,0,0.3c0,0.1,0,0.2,0,0.3v6.3h-1v-8.6h0.9c0.1,0,0.2,0,0.2,0
				c0.1,0,0.1,0.1,0.2,0.2l3,5.3C625.1,26.1,625.1,26.2,625.1,26.3z"/>
			<path class="st13" d="M638.9,29.2H638c-0.1,0-0.2,0-0.3-0.1s-0.1-0.1-0.1-0.2l-0.8-2.1h-3.9l-0.8,2.1c0,0.1-0.1,0.1-0.1,0.2
				s-0.2,0.1-0.3,0.1h-0.9l3.4-8.6h1.2L638.9,29.2z M633.2,26h3.2l-1.4-3.5c-0.1-0.2-0.2-0.5-0.3-0.8c0,0.2-0.1,0.3-0.1,0.5
				c0,0.1-0.1,0.3-0.1,0.4L633.2,26z"/>
			<path class="st13" d="M644.4,21.9c0,0.1-0.1,0.1-0.1,0.1c0,0-0.1,0-0.2,0c-0.1,0-0.1,0-0.2-0.1c-0.1-0.1-0.2-0.1-0.3-0.2
				s-0.3-0.2-0.5-0.2s-0.4-0.1-0.7-0.1c-0.3,0-0.5,0-0.7,0.1c-0.2,0.1-0.4,0.2-0.5,0.3c-0.1,0.1-0.2,0.3-0.3,0.4s-0.1,0.3-0.1,0.5
				c0,0.2,0.1,0.4,0.2,0.6c0.1,0.2,0.3,0.3,0.5,0.4c0.2,0.1,0.4,0.2,0.7,0.3s0.5,0.2,0.8,0.3s0.5,0.2,0.8,0.3s0.5,0.2,0.7,0.4
				s0.3,0.4,0.5,0.6c0.1,0.2,0.2,0.5,0.2,0.9c0,0.4-0.1,0.7-0.2,1.1s-0.3,0.6-0.6,0.9c-0.2,0.2-0.5,0.4-0.9,0.6
				c-0.4,0.1-0.8,0.2-1.2,0.2c-0.6,0-1.1-0.1-1.5-0.3c-0.5-0.2-0.8-0.5-1.2-0.8l0.3-0.6c0,0,0.1-0.1,0.1-0.1c0,0,0.1,0,0.2,0
				c0.1,0,0.2,0,0.3,0.1c0.1,0.1,0.2,0.2,0.4,0.3c0.2,0.1,0.4,0.2,0.6,0.3c0.2,0.1,0.5,0.1,0.8,0.1c0.3,0,0.5,0,0.7-0.1
				c0.2-0.1,0.4-0.2,0.5-0.3c0.2-0.1,0.3-0.3,0.3-0.5c0.1-0.2,0.1-0.4,0.1-0.6c0-0.3-0.1-0.5-0.2-0.6c-0.1-0.2-0.3-0.3-0.5-0.4
				c-0.2-0.1-0.4-0.2-0.7-0.3s-0.5-0.2-0.8-0.2c-0.3-0.1-0.5-0.2-0.8-0.3c-0.2-0.1-0.5-0.2-0.7-0.4c-0.2-0.2-0.3-0.4-0.5-0.6
				c-0.1-0.3-0.2-0.6-0.2-1c0-0.3,0.1-0.6,0.2-0.9c0.1-0.3,0.3-0.5,0.5-0.8s0.5-0.4,0.8-0.5s0.7-0.2,1.1-0.2c0.5,0,0.9,0.1,1.3,0.2
				c0.4,0.2,0.7,0.4,1,0.7L644.4,21.9z"/>
			<path class="st13" d="M654.5,20.6v1h-2.8v7.6h-1.2v-7.6h-2.8v-1H654.5z"/>
			<path class="st13" d="M657,25.6v3.6h-1.2v-8.6h2.4c0.5,0,1,0.1,1.4,0.2c0.4,0.1,0.7,0.3,1,0.5c0.3,0.2,0.4,0.5,0.6,0.8
				c0.1,0.3,0.2,0.6,0.2,1c0,0.3,0,0.6-0.1,0.9c-0.1,0.3-0.2,0.5-0.4,0.7s-0.4,0.4-0.7,0.5c-0.3,0.1-0.6,0.3-0.9,0.3
				c0.1,0.1,0.3,0.2,0.4,0.4l2.5,3.4h-1c-0.2,0-0.4-0.1-0.5-0.2l-2.2-3.1c-0.1-0.1-0.1-0.2-0.2-0.2s-0.2-0.1-0.4-0.1H657z M657,24.7
				h1.2c0.3,0,0.6,0,0.9-0.1s0.5-0.2,0.6-0.3c0.2-0.1,0.3-0.3,0.4-0.5s0.1-0.4,0.1-0.7c0-0.5-0.2-0.9-0.5-1.2s-0.8-0.4-1.5-0.4H657
				V24.7z"/>
			<path class="st13" d="M670.5,29.2h-0.9c-0.1,0-0.2,0-0.3-0.1c-0.1-0.1-0.1-0.1-0.1-0.2l-0.8-2.1h-3.9l-0.8,2.1
				c0,0.1-0.1,0.1-0.1,0.2s-0.2,0.1-0.3,0.1h-0.9l3.4-8.6h1.2L670.5,29.2z M664.9,26h3.2l-1.3-3.5c-0.1-0.2-0.2-0.5-0.3-0.8
				c0,0.2-0.1,0.3-0.1,0.5c0,0.1-0.1,0.3-0.1,0.4L664.9,26z"/>
			<path class="st13" d="M672.4,20.6c0,0,0.1,0.1,0.2,0.2l5,6.5c0-0.1,0-0.2,0-0.3c0-0.1,0-0.2,0-0.3v-6.1h1v8.6H678
				c-0.1,0-0.2,0-0.2,0c-0.1,0-0.1-0.1-0.2-0.2l-5-6.5c0,0.1,0,0.2,0,0.3c0,0.1,0,0.2,0,0.3v6.1h-1v-8.6h0.6
				C672.3,20.6,672.4,20.6,672.4,20.6z"/>
			<path class="st13" d="M685.1,21.9c0,0.1-0.1,0.1-0.1,0.1c0,0-0.1,0-0.2,0c-0.1,0-0.1,0-0.2-0.1c-0.1-0.1-0.2-0.1-0.3-0.2
				c-0.1-0.1-0.3-0.2-0.5-0.2c-0.2-0.1-0.4-0.1-0.7-0.1c-0.3,0-0.5,0-0.7,0.1c-0.2,0.1-0.4,0.2-0.5,0.3c-0.1,0.1-0.2,0.3-0.3,0.4
				c-0.1,0.2-0.1,0.3-0.1,0.5c0,0.2,0.1,0.4,0.2,0.6s0.3,0.3,0.5,0.4c0.2,0.1,0.4,0.2,0.7,0.3c0.2,0.1,0.5,0.2,0.8,0.3
				c0.3,0.1,0.5,0.2,0.8,0.3s0.5,0.2,0.7,0.4c0.2,0.2,0.3,0.4,0.5,0.6c0.1,0.2,0.2,0.5,0.2,0.9c0,0.4-0.1,0.7-0.2,1.1
				c-0.1,0.3-0.3,0.6-0.6,0.9c-0.2,0.2-0.5,0.4-0.9,0.6c-0.4,0.1-0.8,0.2-1.2,0.2c-0.6,0-1.1-0.1-1.5-0.3c-0.5-0.2-0.8-0.5-1.2-0.8
				l0.3-0.6c0,0,0.1-0.1,0.1-0.1c0,0,0.1,0,0.2,0c0.1,0,0.2,0,0.3,0.1c0.1,0.1,0.2,0.2,0.4,0.3c0.2,0.1,0.4,0.2,0.6,0.3
				s0.5,0.1,0.8,0.1c0.3,0,0.5,0,0.7-0.1c0.2-0.1,0.4-0.2,0.5-0.3c0.1-0.1,0.3-0.3,0.3-0.5c0.1-0.2,0.1-0.4,0.1-0.6
				c0-0.3-0.1-0.5-0.2-0.6s-0.3-0.3-0.5-0.4s-0.4-0.2-0.7-0.3s-0.5-0.2-0.8-0.2c-0.3-0.1-0.5-0.2-0.8-0.3c-0.2-0.1-0.5-0.2-0.7-0.4
				c-0.2-0.2-0.3-0.4-0.5-0.6s-0.2-0.6-0.2-1c0-0.3,0.1-0.6,0.2-0.9s0.3-0.5,0.5-0.8c0.2-0.2,0.5-0.4,0.8-0.5s0.7-0.2,1.1-0.2
				c0.5,0,0.9,0.1,1.3,0.2s0.7,0.4,1,0.7L685.1,21.9z"/>
			<path class="st13" d="M686,20.6h0.9c0.1,0,0.2,0,0.3,0.1c0.1,0.1,0.1,0.1,0.1,0.2l2.4,6.1c0.1,0.1,0.1,0.3,0.2,0.4
				c0,0.2,0.1,0.3,0.1,0.5c0-0.2,0.1-0.3,0.1-0.5c0-0.2,0.1-0.3,0.1-0.4l2.4-6.1c0-0.1,0.1-0.1,0.1-0.2c0.1-0.1,0.2-0.1,0.3-0.1h0.9
				l-3.5,8.6h-1.1L686,20.6z"/>
			<path class="st13" d="M700.5,20.6v0.9h-4.1v2.9h3.3v0.9h-3.3v2.9h4.1v0.9h-5.3v-8.6H700.5z"/>
			<path class="st13" d="M703.5,25.6v3.6h-1.2v-8.6h2.4c0.5,0,1,0.1,1.4,0.2c0.4,0.1,0.7,0.3,1,0.5c0.3,0.2,0.4,0.5,0.6,0.8
				c0.1,0.3,0.2,0.6,0.2,1c0,0.3,0,0.6-0.1,0.9c-0.1,0.3-0.2,0.5-0.4,0.7s-0.4,0.4-0.7,0.5c-0.3,0.1-0.6,0.3-0.9,0.3
				c0.1,0.1,0.3,0.2,0.4,0.4l2.5,3.4h-1c-0.2,0-0.4-0.1-0.5-0.2l-2.2-3.1c-0.1-0.1-0.1-0.2-0.2-0.2s-0.2-0.1-0.4-0.1H703.5z
				 M703.5,24.7h1.2c0.3,0,0.6,0,0.9-0.1s0.5-0.2,0.6-0.3c0.2-0.1,0.3-0.3,0.4-0.5s0.1-0.4,0.1-0.7c0-0.5-0.2-0.9-0.5-1.2
				s-0.8-0.4-1.5-0.4h-1.3V24.7z"/>
			<path class="st13" d="M714.3,21.9c0,0.1-0.1,0.1-0.1,0.1c0,0-0.1,0-0.2,0c-0.1,0-0.1,0-0.2-0.1c-0.1-0.1-0.2-0.1-0.3-0.2
				s-0.3-0.2-0.5-0.2s-0.4-0.1-0.7-0.1c-0.3,0-0.5,0-0.7,0.1c-0.2,0.1-0.4,0.2-0.5,0.3c-0.1,0.1-0.2,0.3-0.3,0.4s-0.1,0.3-0.1,0.5
				c0,0.2,0.1,0.4,0.2,0.6c0.1,0.2,0.3,0.3,0.5,0.4c0.2,0.1,0.4,0.2,0.7,0.3s0.5,0.2,0.8,0.3s0.5,0.2,0.8,0.3s0.5,0.2,0.7,0.4
				s0.3,0.4,0.5,0.6c0.1,0.2,0.2,0.5,0.2,0.9c0,0.4-0.1,0.7-0.2,1.1s-0.3,0.6-0.6,0.9c-0.2,0.2-0.5,0.4-0.9,0.6
				c-0.4,0.1-0.8,0.2-1.2,0.2c-0.6,0-1.1-0.1-1.5-0.3c-0.5-0.2-0.8-0.5-1.2-0.8l0.3-0.6c0,0,0.1-0.1,0.1-0.1c0,0,0.1,0,0.2,0
				c0.1,0,0.2,0,0.3,0.1c0.1,0.1,0.2,0.2,0.4,0.3c0.2,0.1,0.4,0.2,0.6,0.3c0.2,0.1,0.5,0.1,0.8,0.1c0.3,0,0.5,0,0.7-0.1
				c0.2-0.1,0.4-0.2,0.5-0.3c0.2-0.1,0.3-0.3,0.3-0.5c0.1-0.2,0.1-0.4,0.1-0.6c0-0.3-0.1-0.5-0.2-0.6c-0.1-0.2-0.3-0.3-0.5-0.4
				c-0.2-0.1-0.4-0.2-0.7-0.3s-0.5-0.2-0.8-0.2c-0.3-0.1-0.5-0.2-0.8-0.3c-0.2-0.1-0.5-0.2-0.7-0.4c-0.2-0.2-0.3-0.4-0.5-0.6
				c-0.1-0.3-0.2-0.6-0.2-1c0-0.3,0.1-0.6,0.2-0.9c0.1-0.3,0.3-0.5,0.5-0.8s0.5-0.4,0.8-0.5s0.7-0.2,1.1-0.2c0.5,0,0.9,0.1,1.3,0.2
				c0.4,0.2,0.7,0.4,1,0.7L714.3,21.9z"/>
			<path class="st13" d="M723.3,29.2h-0.9c-0.1,0-0.2,0-0.3-0.1s-0.1-0.1-0.1-0.2l-0.8-2.1h-3.9l-0.8,2.1c0,0.1-0.1,0.1-0.1,0.2
				s-0.2,0.1-0.3,0.1h-0.9l3.4-8.6h1.2L723.3,29.2z M717.7,26h3.2l-1.4-3.5c-0.1-0.2-0.2-0.5-0.3-0.8c0,0.2-0.1,0.3-0.1,0.5
				c0,0.1-0.1,0.3-0.1,0.4L717.7,26z"/>
			<path class="st13" d="M725.8,29.2h-1.2v-8.6h1.2V29.2z"/>
			<path class="st13" d="M732.5,21.9c0,0.1-0.1,0.1-0.1,0.1c0,0-0.1,0-0.2,0c-0.1,0-0.1,0-0.2-0.1c-0.1-0.1-0.2-0.1-0.3-0.2
				s-0.3-0.2-0.5-0.2s-0.4-0.1-0.7-0.1c-0.3,0-0.5,0-0.7,0.1c-0.2,0.1-0.4,0.2-0.5,0.3c-0.1,0.1-0.2,0.3-0.3,0.4s-0.1,0.3-0.1,0.5
				c0,0.2,0.1,0.4,0.2,0.6c0.1,0.2,0.3,0.3,0.5,0.4c0.2,0.1,0.4,0.2,0.7,0.3s0.5,0.2,0.8,0.3s0.5,0.2,0.8,0.3s0.5,0.2,0.7,0.4
				s0.3,0.4,0.5,0.6c0.1,0.2,0.2,0.5,0.2,0.9c0,0.4-0.1,0.7-0.2,1.1s-0.3,0.6-0.6,0.9c-0.2,0.2-0.5,0.4-0.9,0.6
				c-0.4,0.1-0.8,0.2-1.2,0.2c-0.6,0-1.1-0.1-1.5-0.3c-0.5-0.2-0.8-0.5-1.2-0.8l0.3-0.6c0,0,0.1-0.1,0.1-0.1c0,0,0.1,0,0.2,0
				c0.1,0,0.2,0,0.3,0.1c0.1,0.1,0.2,0.2,0.4,0.3c0.2,0.1,0.4,0.2,0.6,0.3c0.2,0.1,0.5,0.1,0.8,0.1c0.3,0,0.5,0,0.7-0.1
				c0.2-0.1,0.4-0.2,0.5-0.3c0.2-0.1,0.3-0.3,0.3-0.5c0.1-0.2,0.1-0.4,0.1-0.6c0-0.3-0.1-0.5-0.2-0.6c-0.1-0.2-0.3-0.3-0.5-0.4
				c-0.2-0.1-0.4-0.2-0.7-0.3s-0.5-0.2-0.8-0.2c-0.3-0.1-0.5-0.2-0.8-0.3c-0.2-0.1-0.5-0.2-0.7-0.4c-0.2-0.2-0.3-0.4-0.5-0.6
				c-0.1-0.3-0.2-0.6-0.2-1c0-0.3,0.1-0.6,0.2-0.9c0.1-0.3,0.3-0.5,0.5-0.8s0.5-0.4,0.8-0.5s0.7-0.2,1.1-0.2c0.5,0,0.9,0.1,1.3,0.2
				c0.4,0.2,0.7,0.4,1,0.7L732.5,21.9z"/>
		</g>
	</g>
</g>
</svg>
