<?xml version="1.0" encoding="utf-8"?>
<!-- Generator: Adobe Illustrator 22.0.1, SVG Export Plug-In . SVG Version: 6.00 Build 0)  -->
<svg version="1.1" id="Layer_1" xmlns="http://www.w3.org/2000/svg" xmlns:xlink="http://www.w3.org/1999/xlink" x="0px" y="0px"
	 viewBox="0 0 92.3 69.9" style="enable-background:new 0 0 92.3 69.9;" xml:space="preserve">
<style type="text/css">
	.st0{fill:#84CAA0;}
	.st1{fill:#77B893;}
	.st2{fill:#75C7E0;}
	.st3{fill:#62A5BB;}
	.st4{fill:#DCDB77;}
	.st5{fill:#C5C56C;}
	.st6{fill:#F7963F;}
	.st7{fill:#E18837;}
</style>
<g>
	<g>
		<polygon class="st0" points="34.6,34 23.9,23.3 34.6,12.5 		"/>
		<polygon class="st1" points="34.6,34 45.4,23.3 34.6,12.5 		"/>
		<polygon class="st2" points="35.4,11.8 46.1,1 56.8,11.8 		"/>
		<polygon class="st3" points="35.4,11.8 46.1,22.6 56.8,11.8 		"/>
		<polygon class="st2" points="23.2,22.6 12.4,11.8 23.2,1 		"/>
		<polygon class="st3" points="23.2,22.6 34,11.8 23.2,1 		"/>
		<polygon class="st4" points="57.6,57 46.8,46.2 57.6,35.5 		"/>
		<polygon class="st5" points="57.6,57 68.3,46.2 57.6,35.5 		"/>
		<polygon class="st0" points="46.1,45.5 35.4,34.8 46.1,24 		"/>
		<polygon class="st1" points="46.1,45.5 56.8,34.8 46.1,24 		"/>
		<polygon class="st0" points="69,22.6 58.3,11.8 69,1 		"/>
		<polygon class="st1" points="69,22.6 79.9,11.8 69,1 		"/>
		<polygon class="st4" points="46.8,23.3 57.6,12.5 68.3,23.3 		"/>
		<polygon class="st5" points="46.8,23.3 57.6,34 68.3,23.3 		"/>
		<polygon class="st2" points="12.4,34.7 23.2,23.9 34,34.7 		"/>
		<polygon class="st3" points="12.4,34.7 23.2,45.5 34,34.7 		"/>
		<polygon class="st2" points="23.9,46.2 34.7,35.4 45.4,46.2 		"/>
		<polygon class="st3" points="23.9,46.2 34.7,57 45.4,46.2 		"/>
		<polygon class="st0" points="35.4,57.7 46.2,46.8 56.9,57.7 		"/>
		<polygon class="st1" points="35.4,57.7 46.2,68.4 56.9,57.7 		"/>
		<polygon class="st0" points="69,68.4 58.3,57.7 69,46.8 		"/>
		<polygon class="st1" points="69,68.4 79.9,57.7 69,46.8 		"/>
		<polygon class="st2" points="11.7,57 1,46.2 11.7,35.4 		"/>
		<polygon class="st3" points="11.7,57 22.6,46.2 11.7,35.4 		"/>
		<polygon class="st2" points="1,23.3 11.7,12.5 22.6,23.3 		"/>
		<polygon class="st3" points="1,23.3 11.7,34 22.6,23.3 		"/>
		<polygon class="st2" points="23.2,68.4 12.4,57.7 23.2,46.8 		"/>
		<polygon class="st3" points="23.2,68.4 34,57.7 23.2,46.8 		"/>
		<polygon class="st6" points="58.3,34.8 69,24 79.9,34.8 		"/>
		<polygon class="st7" points="58.3,34.8 69,45.5 79.9,34.8 		"/>
		<polygon class="st4" points="69.8,46.2 80.5,35.5 91.4,46.2 		"/>
		<polygon class="st5" points="69.8,46.2 80.5,57 91.4,46.2 		"/>
		<polygon class="st4" points="80.5,34 69.8,23.3 80.5,12.5 		"/>
		<polygon class="st5" points="80.5,34 91.4,23.3 80.5,12.5 		"/>
	</g>
</g>
</svg>
