<?xml version="1.0" encoding="utf-8"?>
<!-- Generator: Adobe Illustrator 19.0.0, SVG Export Plug-In . SVG Version: 6.00 Build 0)  -->
<svg version="1.1" id="Layer_1" xmlns="http://www.w3.org/2000/svg" xmlns:xlink="http://www.w3.org/1999/xlink" x="0px" y="0px"
	 width="123.6px" height="93.2px" viewBox="-235 374.7 123.6 93.2" style="enable-background:new -235 374.7 123.6 93.2;"
	 xml:space="preserve">
<style type="text/css">
	.st0{fill:#84CAA0;}
	.st1{fill:#77B893;}
	.st2{fill:#75C7E0;}
	.st3{fill:#62A5BB;}
	.st4{fill:#DCDB77;}
	.st5{fill:#C5C56C;}
	.st6{fill:#F7963F;}
	.st7{fill:#E18837;}
	.st8{fill:#FFFFFF;}
</style>
<g>
	<g>
		<polygon class="st0" points="-184.7,408.7 -195.4,398 -184.7,387.2 		"/>
		<polygon class="st1" points="-184.7,408.7 -173.9,398 -184.7,387.2 		"/>
		<polygon class="st2" points="-183.9,386.5 -173.2,375.7 -162.5,386.5 		"/>
		<polygon class="st3" points="-183.9,386.5 -173.2,397.3 -162.5,386.5 		"/>
		<polygon class="st2" points="-196.1,397.3 -206.9,386.5 -196.1,375.7 		"/>
		<polygon class="st3" points="-196.1,397.3 -185.3,386.5 -196.1,375.7 		"/>
		<polygon class="st4" points="-161.7,431.7 -172.5,420.9 -161.7,410.2 		"/>
		<polygon class="st5" points="-161.7,431.7 -151,420.9 -161.7,410.2 		"/>
		<polygon class="st0" points="-173.2,420.2 -183.9,409.5 -173.2,398.7 		"/>
		<polygon class="st1" points="-173.2,420.2 -162.5,409.5 -173.2,398.7 		"/>
		<polygon class="st0" points="-150.3,397.3 -161,386.5 -150.3,375.7 		"/>
		<polygon class="st1" points="-150.3,397.3 -139.4,386.5 -150.3,375.7 		"/>
		<polygon class="st4" points="-172.5,398 -161.7,387.2 -151,398 		"/>
		<polygon class="st5" points="-172.5,398 -161.7,408.7 -151,398 		"/>
		<polygon class="st2" points="-206.9,409.4 -196.1,398.6 -185.3,409.4 		"/>
		<polygon class="st3" points="-206.9,409.4 -196.1,420.2 -185.3,409.4 		"/>
		<polygon class="st2" points="-195.4,420.9 -184.6,410.1 -173.9,420.9 		"/>
		<polygon class="st3" points="-195.4,420.9 -184.6,431.7 -173.9,420.9 		"/>
		<polygon class="st0" points="-183.9,432.4 -173.1,421.5 -162.4,432.4 		"/>
		<polygon class="st1" points="-183.9,432.4 -173.1,443.1 -162.4,432.4 		"/>
		<polygon class="st0" points="-150.3,443.1 -161,432.4 -150.3,421.5 		"/>
		<polygon class="st1" points="-150.3,443.1 -139.4,432.4 -150.3,421.5 		"/>
		<polygon class="st2" points="-207.6,431.7 -218.3,420.9 -207.6,410.1 		"/>
		<polygon class="st3" points="-207.6,431.7 -196.7,420.9 -207.6,410.1 		"/>
		<polygon class="st2" points="-218.3,398 -207.6,387.2 -196.7,398 		"/>
		<polygon class="st3" points="-218.3,398 -207.6,408.7 -196.7,398 		"/>
		<polygon class="st2" points="-196.1,443.1 -206.9,432.4 -196.1,421.5 		"/>
		<polygon class="st3" points="-196.1,443.1 -185.3,432.4 -196.1,421.5 		"/>
		<polygon class="st6" points="-161,409.5 -150.3,398.7 -139.4,409.5 		"/>
		<polygon class="st7" points="-161,409.5 -150.3,420.2 -139.4,409.5 		"/>
		<polygon class="st4" points="-149.5,420.9 -138.8,410.2 -127.9,420.9 		"/>
		<polygon class="st5" points="-149.5,420.9 -138.8,431.7 -127.9,420.9 		"/>
		<polygon class="st4" points="-138.8,408.7 -149.5,398 -138.8,387.2 		"/>
		<polygon class="st5" points="-138.8,408.7 -127.9,398 -138.8,387.2 		"/>
	</g>
</g>
<g>
	<g>
		<path class="st8" d="M-219.1,451v14.5h-0.8v-13.7l-5.6,7.4l-5.7-7.4v13.7h-0.8V451h1.2l5.3,6.9l5.3-6.9H-219.1L-219.1,451z"/>
		<path class="st8" d="M-210.5,451l5.3,14.5h-0.9l-2.3-6.4h-5l-2.4,6.4h-0.9l5.4-14.5H-210.5L-210.5,451z M-208.7,458.3l-2.2-6.1
			l-2.2,6.1H-208.7z"/>
		<path class="st8" d="M-201.7,460.5v5h-0.8V451h3.8c1.1,0.2,2.1,0.6,2.8,1.4c0.9,0.9,1.4,2.1,1.4,3.3c0,1.3-0.5,2.4-1.4,3.4
			c-0.9,0.9-2,1.4-3.3,1.4L-201.7,460.5L-201.7,460.5z M-201.7,451.8v7.8h2.5c1.1,0,2-0.4,2.8-1.2c0.8-0.8,1.2-1.7,1.2-2.8
			c0-1.1-0.4-2-1.2-2.8s-1.7-1.2-2.8-1.2L-201.7,451.8L-201.7,451.8z"/>
		<path class="st0" d="M-183,457.1c1,1,1.5,2.1,1.5,3.5s-0.5,2.5-1.5,3.5c-0.8,0.8-1.8,1.3-3,1.5h-5.1v-14.9h4.7c1,0,1.8,0.3,2.4,1
			c0.7,0.7,1,1.4,1,2.3s-0.3,1.7-1,2.3C-183.8,456.3-183.5,456.6-183,457.1z M-189.4,452.3v3.2h3c0.4-0.1,0.7-0.2,1-0.4
			c0.3-0.3,0.5-0.7,0.5-1.2s-0.2-0.9-0.5-1.2c-0.3-0.3-0.7-0.5-1.1-0.5h-2.9V452.3z M-186.6,463.9c0.9,0,1.6-0.3,2.3-1s1-1.5,1-2.4
			c0-1-0.3-1.8-1-2.4c-0.7-0.7-1.4-1-2.3-1h-2.7v6.7L-186.6,463.9L-186.6,463.9z"/>
		<path class="st0" d="M-176.4,450.7v14.8h-1.9v-14.8C-178.3,450.7-176.4,450.7-176.4,450.7z"/>
		<path class="st0" d="M-159.9,452.7c1.5,1.5,2.2,3.3,2.2,5.4s-0.8,3.9-2.2,5.4c-1.5,1.5-3.3,2.2-5.5,2.2s-4-0.8-5.5-2.2
			c-1.5-1.5-2.2-3.3-2.2-5.4s0.8-3.8,2.2-5.4c1.5-1.5,3.3-2.2,5.5-2.2S-161.4,451.2-159.9,452.7z M-165.4,452.1
			c-1.6,0-2.9,0.6-4.1,1.7c-1.2,1.2-1.7,2.6-1.7,4.2s0.6,3.1,1.7,4.2c1.2,1.2,2.5,1.7,4.1,1.7s2.9-0.6,4.1-1.7
			c1.2-1.2,1.7-2.6,1.7-4.2c0-1.7-0.6-3.1-1.7-4.2C-162.4,452.7-163.7,452.1-165.4,452.1z"/>
		<path class="st0" d="M-141.1,450.7v14.8h-1.9v-12l-4.8,6.4l-4.9-6.4v12h-1.9v-14.8h2l4.7,6.2l4.7-6.2
			C-143,450.7-141.1,450.7-141.1,450.7z"/>
		<path class="st0" d="M-131.6,450.7l5.4,14.8h-1.9l-2.2-6.2h-4l-2.3,6.2h-1.9l5.5-14.8C-133.1,450.7-131.6,450.7-131.6,450.7z
			 M-131,457.7l-1.4-3.9l-1.4,3.9H-131z"/>
		<path class="st0" d="M-118.9,457.7c-1.1-0.4-1.9-0.9-2.6-1.5c-0.7-0.7-1-1.4-1-2.3s0.4-1.7,1-2.4c0.7-0.7,1.5-1,2.5-1
			s1.8,0.4,2.5,1.1c0.4,0.4,0.7,0.9,0.9,1.5l-1.7,0.7c-0.2-0.6-0.4-0.9-0.6-1.1c-0.4-0.4-0.7-0.5-1.2-0.5c-0.4,0-0.8,0.2-1.2,0.5
			c-0.4,0.4-0.5,0.8-0.5,1.3s0.2,1,0.5,1.3s0.9,0.7,1.5,1c1.2,0.4,2.2,1,3,1.8c0.9,0.9,1.4,2,1.4,3.2s-0.5,2.3-1.4,3.2
			c-0.9,0.9-2,1.4-3.3,1.4s-2.4-0.5-3.3-1.4c-0.7-0.7-1.2-1.6-1.3-2.7l1.8-0.7c0.1,1.1,0.4,1.9,0.9,2.4c0.6,0.6,1.2,0.8,2,0.8
			s1.4-0.3,2-0.9s0.9-1.3,0.9-2.1c0-0.9-0.3-1.5-0.8-2.1C-117.5,458.5-118.1,458-118.9,457.7z"/>
	</g>
</g>
</svg>
