<?xml version="1.0" encoding="utf-8"?>
<!-- Generator: Adobe Illustrator 19.0.0, SVG Export Plug-In . SVG Version: 6.00 Build 0)  -->
<svg version="1.1" id="Layer_1" xmlns="http://www.w3.org/2000/svg" xmlns:xlink="http://www.w3.org/1999/xlink" x="0px" y="0px"
	 width="123.6px" height="93.2px" viewBox="-235 374.7 123.6 93.2" style="enable-background:new -235 374.7 123.6 93.2;"
	 xml:space="preserve">
<style type="text/css">
	.st0{fill:#84CAA0;}
	.st1{fill:#77B893;}
	.st2{fill:#75C7E0;}
	.st3{fill:#62A5BB;}
	.st4{fill:#DCDB77;}
	.st5{fill:#C5C56C;}
	.st6{fill:#F7963F;}
	.st7{fill:#E18837;}
	.st8{fill:#808283;}
</style>
<g>
	<g>
		<polygon class="st0" points="-185,409 -195.7,398.3 -185,387.5 		"/>
		<polygon class="st1" points="-185,409 -174.2,398.3 -185,387.5 		"/>
		<polygon class="st2" points="-184.2,386.8 -173.5,376 -162.8,386.8 		"/>
		<polygon class="st3" points="-184.2,386.8 -173.5,397.6 -162.8,386.8 		"/>
		<polygon class="st2" points="-196.4,397.6 -207.2,386.8 -196.4,376 		"/>
		<polygon class="st3" points="-196.4,397.6 -185.6,386.8 -196.4,376 		"/>
		<polygon class="st4" points="-162,432 -172.8,421.2 -162,410.5 		"/>
		<polygon class="st5" points="-162,432 -151.3,421.2 -162,410.5 		"/>
		<polygon class="st0" points="-173.5,420.5 -184.2,409.8 -173.5,399 		"/>
		<polygon class="st1" points="-173.5,420.5 -162.8,409.8 -173.5,399 		"/>
		<polygon class="st0" points="-150.6,397.6 -161.3,386.8 -150.6,376 		"/>
		<polygon class="st1" points="-150.6,397.6 -139.7,386.8 -150.6,376 		"/>
		<polygon class="st4" points="-172.8,398.3 -162,387.5 -151.3,398.3 		"/>
		<polygon class="st5" points="-172.8,398.3 -162,409 -151.3,398.3 		"/>
		<polygon class="st2" points="-207.2,409.7 -196.4,398.9 -185.6,409.7 		"/>
		<polygon class="st3" points="-207.2,409.7 -196.4,420.5 -185.6,409.7 		"/>
		<polygon class="st2" points="-195.7,421.2 -184.9,410.4 -174.2,421.2 		"/>
		<polygon class="st3" points="-195.7,421.2 -184.9,432 -174.2,421.2 		"/>
		<polygon class="st0" points="-184.2,432.7 -173.4,421.8 -162.7,432.7 		"/>
		<polygon class="st1" points="-184.2,432.7 -173.4,443.4 -162.7,432.7 		"/>
		<polygon class="st0" points="-150.6,443.4 -161.3,432.7 -150.6,421.8 		"/>
		<polygon class="st1" points="-150.6,443.4 -139.7,432.7 -150.6,421.8 		"/>
		<polygon class="st2" points="-207.9,432 -218.6,421.2 -207.9,410.4 		"/>
		<polygon class="st3" points="-207.9,432 -197,421.2 -207.9,410.4 		"/>
		<polygon class="st2" points="-218.6,398.3 -207.9,387.5 -197,398.3 		"/>
		<polygon class="st3" points="-218.6,398.3 -207.9,409 -197,398.3 		"/>
		<polygon class="st2" points="-196.4,443.4 -207.2,432.7 -196.4,421.8 		"/>
		<polygon class="st3" points="-196.4,443.4 -185.6,432.7 -196.4,421.8 		"/>
		<polygon class="st6" points="-161.3,409.8 -150.6,399 -139.7,409.8 		"/>
		<polygon class="st7" points="-161.3,409.8 -150.6,420.5 -139.7,409.8 		"/>
		<polygon class="st4" points="-149.8,421.2 -139.1,410.5 -128.2,421.2 		"/>
		<polygon class="st5" points="-149.8,421.2 -139.1,432 -128.2,421.2 		"/>
		<polygon class="st4" points="-139.1,409 -149.8,398.3 -139.1,387.5 		"/>
		<polygon class="st5" points="-139.1,409 -128.2,398.3 -139.1,387.5 		"/>
	</g>
</g>
<g>
	<g>
		<path class="st8" d="M-219.4,451.3v14.5h-0.8v-13.7l-5.6,7.4l-5.7-7.4v13.7h-0.8v-14.5h1.2l5.3,6.9l5.3-6.9H-219.4L-219.4,451.3z"
			/>
		<path class="st8" d="M-210.8,451.3l5.3,14.5h-0.9l-2.3-6.4h-5l-2.4,6.4h-0.9l5.4-14.5H-210.8L-210.8,451.3z M-209,458.6l-2.2-6.1
			l-2.2,6.1H-209z"/>
		<path class="st8" d="M-202,460.8v5h-0.8v-14.5h3.8c1.1,0.2,2.1,0.6,2.8,1.4c0.9,0.9,1.4,2.1,1.4,3.3c0,1.3-0.5,2.4-1.4,3.4
			c-0.9,0.9-2,1.4-3.3,1.4L-202,460.8L-202,460.8z M-202,452.1v7.8h2.5c1.1,0,2-0.4,2.8-1.2c0.8-0.8,1.2-1.7,1.2-2.8
			c0-1.1-0.4-2-1.2-2.8s-1.7-1.2-2.8-1.2L-202,452.1L-202,452.1z"/>
		<path class="st0" d="M-183.3,457.4c1,1,1.5,2.1,1.5,3.5s-0.5,2.5-1.5,3.5c-0.8,0.8-1.8,1.3-3,1.5h-5.1V451h4.7c1,0,1.8,0.3,2.4,1
			c0.7,0.7,1,1.4,1,2.3s-0.3,1.7-1,2.3C-184.1,456.6-183.8,456.9-183.3,457.4z M-189.7,452.6v3.2h3c0.4-0.1,0.7-0.2,1-0.4
			c0.3-0.3,0.5-0.7,0.5-1.2c0-0.5-0.2-0.9-0.5-1.2c-0.3-0.3-0.7-0.5-1.1-0.5H-189.7L-189.7,452.6z M-186.9,464.2
			c0.9,0,1.6-0.3,2.3-1c0.7-0.7,1-1.5,1-2.4c0-1-0.3-1.8-1-2.4c-0.7-0.7-1.4-1-2.3-1h-2.7v6.7L-186.9,464.2L-186.9,464.2z"/>
		<path class="st0" d="M-176.7,451v14.8h-1.9V451C-178.6,451-176.7,451-176.7,451z"/>
		<path class="st0" d="M-160.2,453c1.5,1.5,2.2,3.3,2.2,5.4c0,2.1-0.8,3.9-2.2,5.4c-1.5,1.5-3.3,2.2-5.5,2.2c-2.2,0-4-0.8-5.5-2.2
			c-1.5-1.5-2.2-3.3-2.2-5.4c0-2.1,0.8-3.8,2.2-5.4c1.5-1.5,3.3-2.2,5.5-2.2S-161.7,451.5-160.2,453z M-165.7,452.4
			c-1.6,0-2.9,0.6-4.1,1.7c-1.2,1.2-1.7,2.6-1.7,4.2s0.6,3.1,1.7,4.2c1.2,1.2,2.5,1.7,4.1,1.7s2.9-0.6,4.1-1.7
			c1.2-1.2,1.7-2.6,1.7-4.2c0-1.7-0.6-3.1-1.7-4.2C-162.7,453-164,452.4-165.7,452.4z"/>
		<path class="st0" d="M-141.4,451v14.8h-1.9v-12l-4.8,6.4l-4.9-6.4v12h-1.9V451h2l4.7,6.2l4.7-6.2C-143.3,451-141.4,451-141.4,451z
			"/>
		<path class="st0" d="M-131.9,451l5.4,14.8h-1.9l-2.2-6.2h-4l-2.3,6.2h-1.9l5.5-14.8C-133.4,451-131.9,451-131.9,451z M-131.3,458
			l-1.4-3.9l-1.4,3.9H-131.3z"/>
		<path class="st0" d="M-119.2,458c-1.1-0.4-1.9-0.9-2.6-1.5c-0.7-0.7-1-1.4-1-2.3c0-0.9,0.4-1.7,1-2.4c0.7-0.7,1.5-1,2.5-1
			s1.8,0.4,2.5,1.1c0.4,0.4,0.7,0.9,0.9,1.5l-1.7,0.7c-0.2-0.6-0.4-0.9-0.6-1.1c-0.4-0.4-0.7-0.5-1.2-0.5c-0.4,0-0.8,0.2-1.2,0.5
			c-0.4,0.4-0.5,0.8-0.5,1.3c0,0.5,0.2,1,0.5,1.3s0.9,0.7,1.5,1c1.2,0.4,2.2,1,3,1.8c0.9,0.9,1.4,2,1.4,3.2c0,1.2-0.5,2.3-1.4,3.2
			c-0.9,0.9-2,1.4-3.3,1.4c-1.3,0-2.4-0.5-3.3-1.4c-0.7-0.7-1.2-1.6-1.3-2.7l1.8-0.7c0.1,1.1,0.4,1.9,0.9,2.4c0.6,0.6,1.2,0.8,2,0.8
			c0.8,0,1.4-0.3,2-0.9c0.6-0.6,0.9-1.3,0.9-2.1c0-0.9-0.3-1.5-0.8-2.1C-117.8,458.8-118.4,458.3-119.2,458z"/>
	</g>
</g>
</svg>
