<?xml version="1.0" encoding="utf-8"?>
<!-- Generator: Adobe Illustrator 19.0.0, SVG Export Plug-In . SVG Version: 6.00 Build 0)  -->
<svg version="1.1" id="Layer_1" xmlns="http://www.w3.org/2000/svg" xmlns:xlink="http://www.w3.org/1999/xlink" x="0px" y="0px"
	 width="123.6px" height="93.2px" viewBox="-111 383.2 123.6 93.2" style="enable-background:new -111 383.2 123.6 93.2;"
	 xml:space="preserve">
<style type="text/css">
	.st0{fill:#84CAA0;}
	.st1{fill:#77B893;}
	.st2{fill:#75C7E0;}
	.st3{fill:#62A5BB;}
	.st4{fill:#DCDB77;}
	.st5{fill:#C5C56C;}
	.st6{fill:#F7963F;}
	.st7{fill:#E18837;}
</style>
<g>
	<g>
		<polygon class="st0" points="-65.1,428.2 -79.4,413.9 -65.1,399.6 		"/>
		<polygon class="st1" points="-65.1,428.2 -50.8,413.9 -65.1,399.6 		"/>
		<polygon class="st2" points="-64.1,398.6 -49.8,384.2 -35.5,398.6 		"/>
		<polygon class="st3" points="-64.1,398.6 -49.8,413 -35.5,398.6 		"/>
		<polygon class="st2" points="-80.4,413 -94.7,398.6 -80.4,384.2 		"/>
		<polygon class="st3" points="-80.4,413 -66,398.6 -80.4,384.2 		"/>
		<polygon class="st4" points="-34.5,458.8 -48.9,444.5 -34.5,430.2 		"/>
		<polygon class="st5" points="-34.5,458.8 -20.2,444.5 -34.5,430.2 		"/>
		<polygon class="st0" points="-49.8,443.5 -64.1,429.2 -49.8,414.9 		"/>
		<polygon class="st1" points="-49.8,443.5 -35.5,429.2 -49.8,414.9 		"/>
		<polygon class="st0" points="-19.3,413 -33.6,398.6 -19.3,384.2 		"/>
		<polygon class="st1" points="-19.3,413 -4.8,398.6 -19.3,384.2 		"/>
		<polygon class="st4" points="-48.9,413.9 -34.5,399.6 -20.2,413.9 		"/>
		<polygon class="st5" points="-48.9,413.9 -34.5,428.2 -20.2,413.9 		"/>
		<polygon class="st2" points="-94.7,429.1 -80.4,414.8 -66,429.1 		"/>
		<polygon class="st3" points="-94.7,429.1 -80.4,443.5 -66,429.1 		"/>
		<polygon class="st2" points="-79.4,444.5 -65,430 -50.7,444.5 		"/>
		<polygon class="st3" points="-79.4,444.4 -65,458.8 -50.7,444.4 		"/>
		<polygon class="st0" points="-64.1,459.8 -49.7,445.3 -35.4,459.8 		"/>
		<polygon class="st1" points="-64.1,459.8 -49.7,474.1 -35.4,459.8 		"/>
		<polygon class="st0" points="-19.3,474.1 -33.6,459.8 -19.3,445.3 		"/>
		<polygon class="st1" points="-19.3,474.1 -4.8,459.8 -19.3,445.3 		"/>
		<polygon class="st2" points="-95.7,458.8 -110,444.4 -95.7,430 		"/>
		<polygon class="st3" points="-95.7,458.8 -81.2,444.4 -95.7,430 		"/>
		<polygon class="st2" points="-110,413.9 -95.7,399.6 -81.2,413.9 		"/>
		<polygon class="st3" points="-110,413.9 -95.7,428.2 -81.2,413.9 		"/>
		<polygon class="st2" points="-80.3,474.1 -94.7,459.8 -80.3,445.3 		"/>
		<polygon class="st3" points="-80.4,474.1 -66,459.8 -80.4,445.3 		"/>
		<polygon class="st6" points="-33.6,429.2 -19.3,414.9 -4.8,429.2 		"/>
		<polygon class="st7" points="-33.6,429.2 -19.3,443.5 -4.8,429.2 		"/>
		<polygon class="st4" points="-18.3,444.5 -4,430.2 10.5,444.5 		"/>
		<polygon class="st5" points="-18.3,444.5 -4,458.8 10.5,444.5 		"/>
		<polygon class="st4" points="-4,428.2 -18.3,413.9 -4,399.6 		"/>
		<polygon class="st5" points="-4,428.2 10.5,413.9 -4,399.6 		"/>
	</g>
</g>
</svg>
