<?xml version="1.0" encoding="utf-8"?>
<!-- Generator: Adobe Illustrator 19.1.0, SVG Export Plug-In . SVG Version: 6.00 Build 0)  -->
<svg version="1.1" id="Camada_1" xmlns="http://www.w3.org/2000/svg" xmlns:xlink="http://www.w3.org/1999/xlink" x="0px" y="0px"
	 viewBox="0 0 612 141.3" style="enable-background:new 0 0 612 141.3;" xml:space="preserve">
<style type="text/css">
	.st0{fill:#9AC332;}
	.st1{fill:#EFEFEF;}
</style>
<g>
	<g>
		<g>
			<path class="st0" d="M174.7,38.5h35.7c0.5,0,1,0.2,1.4,0.6c0.4,0.4,0.6,0.9,0.6,1.4v0.9c0,0.6-0.2,1.1-0.6,1.5
				c-0.4,0.4-0.9,0.6-1.4,0.6h-34.7v61.6h34.7c0.5,0,1,0.2,1.4,0.6c0.4,0.4,0.6,0.9,0.6,1.5v0.9c0,0.5-0.2,1-0.6,1.4
				c-0.4,0.4-0.9,0.6-1.4,0.6h-35.8c-1.6,0-2.7-0.4-3.2-1.1c-0.5-0.7-0.8-1.7-0.8-3V42.5c0-1.4,0.3-2.4,0.9-3
				C172.1,38.9,173.2,38.5,174.7,38.5z M181.9,70.5h21.9c0.6,0,1.1,0.2,1.5,0.6c0.4,0.4,0.6,0.9,0.6,1.4v0.9c0,1.4-0.7,2-2,2h-21.9
				c-1.4,0-2-0.7-2-2v-0.9c0-0.5,0.2-1,0.6-1.4C180.7,70.7,181.2,70.5,181.9,70.5z"/>
			<path class="st0" d="M210.4,111.3h-35.8c-2,0-3.4-0.5-4.1-1.5c-0.6-0.9-1-2.1-1-3.7V42.5c0-1.6,0.4-2.9,1.2-3.8
				c0.8-0.9,2.1-1.3,4-1.3h35.7c0.8,0,1.6,0.3,2.2,0.9c0.6,0.6,0.9,1.4,0.9,2.2v0.9c0,0.9-0.3,1.7-1,2.3c-0.6,0.6-1.4,0.9-2.2,0.9
				h-33.6v59.4h33.6c0.8,0,1.6,0.3,2.2,0.9c0.6,0.6,1,1.4,1,2.3v0.9c0,0.8-0.3,1.6-0.9,2.2C212,111,211.2,111.3,210.4,111.3z
				 M174.7,39.7c-1.2,0-2,0.2-2.4,0.6c-0.4,0.4-0.6,1.2-0.6,2.3v63.6c0,1.1,0.2,1.9,0.6,2.4c0.3,0.4,1.1,0.6,2.3,0.6h35.8
				c0.2,0,0.5-0.1,0.7-0.3c0.2-0.2,0.3-0.4,0.3-0.7v-0.9c0-0.4-0.1-0.6-0.3-0.7c-0.2-0.2-0.4-0.3-0.7-0.3h-35.8V42.5h35.8
				c0.3,0,0.5-0.1,0.7-0.3c0.1-0.1,0.3-0.3,0.3-0.7v-0.9c0-0.3-0.1-0.5-0.3-0.7c-0.2-0.2-0.4-0.3-0.7-0.3H174.7z M203.8,76.6h-21.9
				c-2,0-3.1-1.2-3.1-3.2v-0.9c0-0.8,0.3-1.6,0.9-2.2c0.6-0.6,1.4-1,2.3-1h21.9c0.9,0,1.7,0.3,2.3,1c0.6,0.6,0.9,1.4,0.9,2.2v0.9
				C206.9,75.4,205.7,76.6,203.8,76.6z M181.9,71.6c-0.4,0-0.6,0.1-0.7,0.3c-0.2,0.2-0.3,0.4-0.3,0.7v0.9c0,0.8,0.2,0.9,0.9,0.9
				h21.9c0.8,0,0.9-0.2,0.9-0.9v-0.9c0-0.3-0.1-0.5-0.3-0.7c-0.1-0.1-0.3-0.3-0.7-0.3H181.9z"/>
		</g>
		<g>
			<path class="st0" d="M227.5,63.2c3.3-2.9,7.5-4.4,12.8-4.4c5.3,0,9.5,1.5,12.7,4.5c3.2,3,4.8,7.1,4.8,12.4c0,1.3-0.7,1.9-2,1.9
				h-0.8c-1.3,0-1.9-0.6-1.9-1.9c0-3.9-1.2-6.9-3.6-8.9c-2.4-2-5.4-3.1-9.1-3.1c-3.7,0-6.7,1-9.2,3.1c-2.4,2.1-3.6,5.1-3.6,9v17.6
				c0,3.9,1.2,6.9,3.6,9c2.4,2.1,5.5,3.1,9.2,3.1c3.7,0,6.7-1,9.1-3c2.4-2,3.6-4.9,3.6-8.6c0-0.5,0.2-1,0.6-1.4
				c0.4-0.4,0.8-0.6,1.4-0.6h0.8c0.6,0,1.1,0.2,1.5,0.6c0.4,0.4,0.6,0.9,0.6,1.4c-0.1,5.2-1.8,9.2-5,12.2c-3.2,2.9-7.4,4.4-12.5,4.4
				c-5.2,0-9.4-1.5-12.7-4.5c-3.3-3-5-7.1-5-12.4V75.7C222.6,70.3,224.2,66.1,227.5,63.2z"/>
			<path class="st0" d="M240.2,111.5c-5.4,0-9.9-1.6-13.4-4.7c-3.5-3.2-5.3-7.6-5.3-13.3V75.7c0-5.7,1.8-10.2,5.3-13.3
				c3.5-3.1,8-4.7,13.5-4.7c5.5,0,10,1.6,13.4,4.7c3.4,3.2,5.2,7.6,5.2,13.2c0,1.9-1.2,3-3.1,3h-0.8c-1.9,0-3-1.1-3-3
				c0-3.6-1-6.2-3.2-8.1c-2.2-1.9-4.9-2.8-8.4-2.8c-3.4,0-6.2,1-8.4,2.9c-2.2,1.9-3.2,4.5-3.2,8.1v17.6c0,3.6,1.1,6.2,3.2,8.1
				c2.2,1.9,5,2.9,8.4,2.9c3.4,0,6.2-0.9,8.3-2.8c2.1-1.8,3.2-4.4,3.2-7.8c0-0.8,0.3-1.6,0.9-2.2c0.6-0.6,1.3-1,2.2-1h0.8
				c0.9,0,1.7,0.3,2.3,1c0.6,0.6,0.9,1.4,0.9,2.2c-0.1,5.5-2,9.9-5.4,13C250.1,109.9,245.7,111.5,240.2,111.5z M240.3,59.9
				c-4.9,0-9,1.4-12.1,4.1c-3.1,2.7-4.5,6.6-4.5,11.7v17.8c0,5,1.5,8.8,4.6,11.6c3.1,2.8,7.1,4.2,12,4.2c4.8,0,8.8-1.4,11.8-4.1
				c3-2.7,4.5-6.5,4.7-11.4c0-0.2-0.1-0.5-0.3-0.7c-0.1-0.1-0.3-0.3-0.7-0.3h-0.8c-0.2,0-0.4,0.1-0.6,0.3c-0.2,0.2-0.3,0.4-0.3,0.7
				c-0.1,4.1-1.4,7.3-4,9.5c-2.5,2.2-5.8,3.3-9.8,3.3c-3.9,0-7.3-1.1-9.9-3.4c-2.7-2.3-4-5.6-4-9.8V75.8c0-4.2,1.4-7.5,4-9.8
				c2.6-2.2,5.9-3.4,9.9-3.4c3.9,0,7.2,1.1,9.8,3.3c2.6,2.3,4,5.5,4,9.7c0,0.7,0.2,0.8,0.8,0.8h0.8c0.9,0,0.9-0.3,0.9-0.8
				c0-5-1.5-8.9-4.5-11.6C249.3,61.3,245.2,59.9,240.3,59.9z"/>
		</g>
		<g>
			<path class="st0" d="M279.2,63.2c3.3-2.9,7.5-4.4,12.8-4.4c5.3,0,9.5,1.5,12.7,4.5c3.2,3,4.8,7.1,4.8,12.4v17.8
				c0,5.3-1.6,9.5-4.8,12.4c-3.2,3-7.4,4.5-12.6,4.5c-5.2,0-9.5-1.5-12.8-4.5c-3.3-3-5-7.1-5-12.4V75.7
				C274.3,70.3,275.9,66.1,279.2,63.2z M301.1,66.7c-2.4-2.1-5.4-3.1-9.1-3.1c-3.7,0-6.8,1-9.2,3.1c-2.5,2.1-3.7,5.1-3.7,9v17.8
				c0,3.9,1.2,6.9,3.7,9c2.5,2.1,5.5,3.1,9.2,3.1c3.7,0,6.7-1,9.1-3.1c2.4-2.1,3.6-5.1,3.6-9V75.7C304.7,71.8,303.5,68.8,301.1,66.7
				z"/>
			<path class="st0" d="M292,111.5c-5.5,0-10-1.6-13.5-4.7c-3.5-3.2-5.3-7.6-5.3-13.3V75.7c0-5.7,1.8-10.2,5.3-13.3
				c3.5-3.1,8-4.7,13.5-4.7c5.5,0,10,1.6,13.4,4.7c3.4,3.2,5.2,7.6,5.2,13.2v17.8c0,5.6-1.7,10.1-5.2,13.2
				C302,109.9,297.5,111.5,292,111.5z M292,59.9c-4.9,0-9,1.4-12.1,4.1c-3.1,2.7-4.5,6.6-4.5,11.7v17.8c0,5,1.5,8.8,4.6,11.6
				c3.1,2.8,7.1,4.2,12.1,4.2c4.9,0,8.9-1.4,11.9-4.2c3-2.7,4.5-6.6,4.5-11.6V75.7c0-5-1.5-8.9-4.5-11.6
				C300.9,61.3,296.9,59.9,292,59.9z M292,106.7c-3.9,0-7.3-1.1-9.9-3.4c-2.7-2.3-4.1-5.6-4.1-9.8V75.7c0-4.2,1.4-7.5,4.1-9.8
				c2.6-2.2,6-3.4,9.9-3.4c3.9,0,7.2,1.1,9.8,3.4c2.6,2.3,4,5.6,4,9.8v17.8c0,4.2-1.3,7.5-4,9.8C299.2,105.5,295.9,106.7,292,106.7z
				 M292,64.7c-3.4,0-6.3,1-8.5,2.9c-2.2,1.9-3.3,4.5-3.3,8.1v17.8c0,3.6,1.1,6.2,3.3,8.1c2.2,1.9,5.1,2.9,8.5,2.9
				c3.4,0,6.2-0.9,8.4-2.8c2.2-1.9,3.2-4.5,3.2-8.1V75.7c0-3.6-1-6.2-3.2-8.1C298.2,65.7,295.4,64.7,292,64.7z"/>
		</g>
		<g>
			<path class="st1" d="M327.4,54.8c0-4.4,1.8-8.2,5.4-11.5c3.6-3.3,8.5-4.9,14.8-4.9c6.2,0,11.5,1.7,15.8,5
				c4.3,3.3,6.5,8.2,6.8,14.8c0,0.5-0.2,1-0.6,1.5c-0.4,0.4-0.9,0.7-1.4,0.7h-1c-0.5,0-0.9-0.2-1.3-0.6c-0.4-0.4-0.6-0.8-0.7-1.4
				c-0.2-5.2-1.9-9-5.2-11.3c-3.3-2.4-7.2-3.5-11.8-3.5c-4.9,0-8.7,1.1-11.5,3.4c-2.7,2.3-4.1,5-4.1,8.3c0,3.3,1,6,2.9,7.9
				c2.7,2.7,7.6,5.4,14.8,8.2c8.6,3.4,14.3,6.8,17.2,10.2c2.2,2.6,3.3,6.3,3.3,11.2c0,4.8-2,9-5.9,12.4c-3.9,3.4-9.5,5.2-16.7,5.2
				c-5.4,0-10.5-1.5-15.2-4.4c-2.5-1.6-4.6-3.8-6.2-6.6c-1.6-2.8-2.5-6.1-2.6-9.8c0-1.4,0.7-2.1,2-2.1h0.9c1.2,0,1.9,0.6,2,1.9
				c0.1,3,0.9,5.6,2.3,7.8c1.4,2.2,3.1,3.9,5.1,5c4,2.1,8.3,3.2,13,3.2c4.7,0,8.6-1.2,11.7-3.7c3-2.5,4.6-5.6,4.6-9.4
				c0-3.8-1.2-6.8-3.7-8.8c-2-1.6-4.1-3-6.4-4.2c-3-1.4-7.7-3.4-14.1-6c-4.9-2.2-8.5-4.7-10.7-7.5C328.5,62.8,327.4,59.2,327.4,54.8
				z"/>
		</g>
		<g>
			<path class="st1" d="M379.4,59h2.5c0.6,0,1.1,0.2,1.5,0.6c0.4,0.4,0.6,0.9,0.6,1.4v0.6c0,0.5-0.2,1-0.6,1.4
				c-0.4,0.4-0.9,0.6-1.5,0.6h-2.5c-0.6,0-1.1-0.2-1.5-0.6c-0.4-0.4-0.6-0.9-0.6-1.4v-0.6c0-0.5,0.2-1,0.6-1.4
				C378.3,59.2,378.8,59,379.4,59z M387.3,35.5h0.8c1.3,0,1.9,0.7,1.9,1.9l-0.3,57c0.1,3.5,1,6.2,2.9,8.1c1.9,1.9,4.3,2.9,7.4,2.9
				h2.6c0.5,0,1,0.2,1.4,0.6c0.4,0.4,0.6,0.9,0.6,1.3v0.8c0,1.4-1.5,2-4.6,2c-4.5,0-8.1-1.4-10.8-4.1c-2.7-2.8-4.1-6.6-4.2-11.5
				l0.3-57.1C385.4,36.1,386,35.5,387.3,35.5z M393.1,59h7.6c0.5,0,1,0.2,1.4,0.6s0.6,0.9,0.6,1.4v0.6c0,0.5-0.2,1-0.6,1.4
				c-0.4,0.4-0.8,0.6-1.4,0.6h-7.6c-0.5,0-1-0.2-1.4-0.6c-0.4-0.4-0.6-0.9-0.6-1.4v-0.6c0-0.5,0.2-1,0.6-1.4
				C392.1,59.2,392.6,59,393.1,59z"/>
		</g>
		<g>
			<path class="st1" d="M422.5,63.2c3.3-2.9,7.5-4.4,12.8-4.4c5.3,0,9.5,1.5,12.7,4.5c3.2,3,4.8,7.1,4.8,12.4v22.5
				c0,2.7,0.2,4.5,0.7,5.5c0.4,1,1.3,1.7,2.6,2l1.1,0.3c1,0.2,1.5,0.7,1.5,1.3v1.1c0,1.2-0.7,1.7-2,1.7c-3.3,0-5.6-1-6.9-3
				c-1.2-2-1.8-5-1.8-9.1V75.7c0-3.9-1.2-6.9-3.6-9c-2.4-2.1-5.4-3.1-9.1-3.1c-3.7,0-6.8,1-9.2,3.1c-2.5,2.1-3.7,5.1-3.7,9v17.5
				c0,4,1,7.1,3,9.1c2,2,4.9,3.1,8.7,3.1c3.8,0,6.9-1.5,9.4-4.6c0.5-0.6,1.1-0.9,2-0.9c0.9,0,1.4,0.5,1.8,1.5
				c0.2,0.8,0.1,1.5-0.3,2.1c-2.9,4.4-7.1,6.7-12.6,6.7c-5.5,0-9.7-1.5-12.5-4.4c-2.8-2.9-4.2-7.1-4.2-12.5V75.7
				C417.6,70.3,419.2,66.1,422.5,63.2z"/>
		</g>
		<g>
			<path class="st1" d="M473.8,63.3c3.3-2.9,7.6-4.4,12.8-4.4c5.3,0,9.5,1.5,12.7,4.4c3.2,2.9,4.8,7.1,4.8,12.5V118
				c0,5.8-1.5,10.2-4.6,13.3c-3.1,3-7.2,4.6-12.3,4.6c-5.2,0-9.3-1.4-12.4-4.3c-3.1-2.9-4.7-6.9-4.8-12.1c0-1.2,0.6-1.8,1.9-1.8h0.8
				c1.4,0,2,0.6,2,1.8c0.1,3.8,1.3,6.6,3.6,8.6c2.3,2,5.2,3,8.9,3c3.6,0,6.5-1.1,8.8-3.3c2.2-2.2,3.3-5.5,3.3-9.8v-11.4
				c-3.7,2.7-8,4-13,4c-5,0-9.2-1.5-12.4-4.4c-3.3-2.9-4.9-7.1-4.9-12.5V75.8C468.8,70.4,470.5,66.3,473.8,63.3z M495.7,66.8
				c-2.4-2.1-5.4-3.1-9.2-3.1c-3.7,0-6.8,1-9.2,3.1c-2.4,2.1-3.6,5.1-3.6,9.1v17.6c0,3.9,1.2,6.9,3.7,9c2.5,2.1,5.5,3.1,8.9,3.1
				s6.3-0.6,8.5-1.7c2.2-1.1,3.7-2.4,4.3-3.7V75.8C499.2,71.9,498,68.9,495.7,66.8z"/>
		</g>
		<g>
			<path class="st1" d="M526.8,63.2c3.3-2.9,7.5-4.4,12.8-4.4c5.3,0,9.5,1.5,12.7,4.5c3.2,3,4.8,7.1,4.8,12.4v6.1
				c0,2.9-1.4,4.4-4.2,4.4h-22.1c-0.6,0-1.1-0.2-1.5-0.6c-0.4-0.4-0.6-0.9-0.6-1.4v-0.8c0-0.5,0.2-1,0.6-1.4s0.9-0.6,1.5-0.6h21.5
				v-5.5c0-3.9-1.2-6.9-3.6-9c-2.4-2.1-5.4-3.1-9.1-3.1c-3.7,0-6.7,1-9.2,3.1c-2.4,2.1-3.6,5.1-3.6,9v17.6c0,3.9,1.2,6.9,3.6,9
				c2.4,2.1,5.5,3.1,9.1,3.1c3.6,0,6.7-1,9.1-3c2.4-2,3.6-4.9,3.6-8.6c0-0.5,0.2-1,0.6-1.4c0.4-0.4,0.8-0.6,1.4-0.6h0.8
				c0.6,0,1.1,0.2,1.5,0.6c0.4,0.4,0.6,0.9,0.6,1.4c-0.1,5.3-1.7,9.3-4.9,12.2c-3.2,2.9-7.4,4.3-12.6,4.3s-9.4-1.5-12.7-4.5
				c-3.3-3-5-7.1-5-12.4V75.7C521.9,70.3,523.5,66.1,526.8,63.2z"/>
		</g>
	</g>
	<path class="st1" d="M583.4,103.3c0,3.1-2.5,5.6-5.6,5.6c-3.1,0-5.6-2.5-5.6-5.6c0-3.1,2.5-5.6,5.6-5.6
		C580.8,97.7,583.4,100.2,583.4,103.3z"/>
	<g>
		<g>
			<circle class="st0" cx="81.7" cy="32.2" r="4.2"/>
		</g>
		<g>
			<circle class="st0" cx="64.6" cy="52.6" r="4.2"/>
		</g>
		<g>
			<path class="st0" d="M94.3,42.3c0,2.3,1.9,4.2,4.2,4.2c2.3,0,4.2-1.9,4.2-4.2c0-2.3-1.9-4.2-4.2-4.2C96.2,38,94.3,39.9,94.3,42.3
				z"/>
		</g>
		<g>
			<path class="st0" d="M94.3,87.9c0,2.3,1.9,4.2,4.2,4.2c2.3,0,4.2-1.9,4.2-4.2c0-2.3-1.9-4.2-4.2-4.2
				C96.2,83.7,94.3,85.6,94.3,87.9z"/>
		</g>
		<g>
			<circle class="st1" cx="81.7" cy="16.5" r="4.2"/>
		</g>
		<g>
			<circle class="st0" cx="64.6" cy="36.9" r="4.2"/>
		</g>
		<g>
			<circle class="st1" cx="48.9" cy="52.6" r="4.2"/>
		</g>
		<g>
			<circle class="st0" cx="48.9" cy="68.3" r="4.2"/>
		</g>
		<g>
			<circle class="st0" cx="33.4" cy="52.6" r="4.2"/>
		</g>
		<g>
			<circle class="st0" cx="33.4" cy="68.3" r="4.2"/>
		</g>
		<g>
			<circle class="st1" cx="48.9" cy="84" r="4.2"/>
		</g>
		<g>
			<circle class="st0" cx="48.9" cy="36.9" r="4.2"/>
		</g>
		<g>
			<path class="st0" d="M94.3,26.5c0,2.3,1.9,4.2,4.2,4.2c2.3,0,4.2-1.9,4.2-4.2c0-2.3-1.9-4.2-4.2-4.2
				C96.2,22.3,94.3,24.2,94.3,26.5z"/>
		</g>
		<g>
			<path class="st0" d="M60.4,21.2c0,2.3,1.9,4.2,4.2,4.2c2.3,0,4.2-1.9,4.2-4.2c0-2.3-1.9-4.2-4.2-4.2C62.2,17,60.4,18.9,60.4,21.2
				z"/>
		</g>
		<g>
			<path class="st0" d="M94.3,10.8c0,2.3,1.9,4.2,4.2,4.2c2.3,0,4.2-1.9,4.2-4.2c0-2.3-1.9-4.2-4.2-4.2C96.2,6.6,94.3,8.5,94.3,10.8
				z"/>
		</g>
		<g>
			<circle class="st0" cx="114.2" cy="42.3" r="4.2"/>
		</g>
		<g>
			<circle class="st1" cx="114.2" cy="58" r="4.2"/>
		</g>
		<g>
			<path class="st1" d="M123.5,42.3c0,2.3,1.9,4.2,4.2,4.2c2.3,0,4.2-1.9,4.2-4.2c0-2.3-1.9-4.2-4.2-4.2
				C125.4,38,123.5,39.9,123.5,42.3z"/>
		</g>
		<g>
			<path class="st0" d="M123.5,58c0,2.3,1.9,4.2,4.2,4.2c2.3,0,4.2-1.9,4.2-4.2c0-2.3-1.9-4.2-4.2-4.2
				C125.4,53.7,123.5,55.6,123.5,58z"/>
		</g>
		<g>
			<circle class="st0" cx="114.2" cy="73.7" r="4.2"/>
		</g>
		<g>
			<circle class="st1" cx="114.2" cy="26.5" r="4.2"/>
		</g>
		<g>
			<path class="st1" d="M81.7,119.8c-1,0-1.8-0.8-1.8-1.8V52.2c0-1,0.8-1.8,1.8-1.8c1,0,1.8,0.8,1.8,1.8V118
				C83.5,119,82.7,119.8,81.7,119.8z"/>
		</g>
		<g>
			<path class="st1" d="M81.7,53.2c-2.4,0-4.4-2-4.4-4.4c0-2.4,2-4.4,4.4-4.4c2.4,0,4.4,2,4.4,4.4C86,51.3,84.1,53.2,81.7,53.2z
				 M81.7,47.7c-0.7,0-1.2,0.5-1.2,1.2c0,0.7,0.5,1.2,1.2,1.2c0.7,0,1.2-0.5,1.2-1.2C82.9,48.2,82.3,47.7,81.7,47.7z"/>
		</g>
		<g>
			<path class="st1" d="M81.6,86.4c-1,0-1.8-0.8-1.8-1.8c0-6.6,5.1-8.8,11.8-11.1c5.1-1.7,5.1-4.1,5-9.8c0-0.6,0-1.1,0-1.7
				c0-1,0.8-1.8,1.8-1.8c1,0,1.8,0.8,1.8,1.8c0,0.6,0,1.2,0,1.7c0.1,6,0.1,10.7-7.5,13.3c-7.4,2.5-9.4,4.1-9.4,7.6
				C83.4,85.6,82.6,86.4,81.6,86.4z"/>
		</g>
		<g>
			<path class="st1" d="M81.6,94.7c-1,0-1.8-0.8-1.8-1.8c0-3.6-1.9-5.2-9.4-7.6c-7.6-2.5-7.6-7.3-7.5-13.3c0-0.5,0-1.1,0-1.7
				c0-1,0.8-0.7,1.8-0.7c1,0,1.8-0.3,1.8,0.7c0,0.6,0,1.2,0,1.7c-0.1,5.7-0.1,8.1,5,9.8c6.7,2.2,11.8,4.5,11.8,11.1
				C83.4,93.9,82.6,94.7,81.6,94.7z"/>
		</g>
		<g>
			<path class="st1" d="M81.7,125.1c-2.4,0-4.4-2-4.4-4.4c0-2.4,2-4.4,4.4-4.4c2.4,0,4.4,2,4.4,4.4C86,123.2,84.1,125.1,81.7,125.1z
				 M81.7,119.6c-0.7,0-1.2,0.5-1.2,1.2c0,0.7,0.5,1.2,1.2,1.2c0.7,0,1.2-0.5,1.2-1.2C82.9,120.1,82.3,119.6,81.7,119.6z"/>
		</g>
		<g>
			<path class="st1" d="M64.7,72.7c-2.4,0-4.4-2-4.4-4.4c0-2.4,2-4.4,4.4-4.4c2.4,0,4.4,2,4.4,4.4C69.1,70.8,67.1,72.7,64.7,72.7z
				 M64.7,67.2c-0.7,0-1.2,0.5-1.2,1.2c0,0.7,0.5,1.2,1.2,1.2c0.7,0,1.2-0.5,1.2-1.2C65.9,67.7,65.4,67.2,64.7,67.2z"/>
		</g>
		<g>
			<path class="st1" d="M98.4,62.4c-2.4,0-4.4-2-4.4-4.4c0-2.4,2-4.4,4.4-4.4c2.4,0,4.4,2,4.4,4.4C102.8,60.4,100.8,62.4,98.4,62.4z
				 M98.4,56.8c-0.7,0-1.2,0.5-1.2,1.2s0.5,1.2,1.2,1.2c0.7,0,1.2-0.5,1.2-1.2S99.1,56.8,98.4,56.8z"/>
		</g>
	</g>
</g>
</svg>
