<?xml version="1.0" encoding="utf-8"?>
<!-- Generator: Adobe Illustrator 19.0.0, SVG Export Plug-In . SVG Version: 6.00 Build 0)  -->
<svg version="1.1" id="Camada_1" xmlns="http://www.w3.org/2000/svg" xmlns:xlink="http://www.w3.org/1999/xlink" x="0px" y="0px"
	 viewBox="29.2 333.3 554.2 129.3" style="enable-background:new 29.2 333.3 554.2 129.3;" xml:space="preserve">
<style type="text/css">
	.st0{fill:#9AC332;}
	.st1{fill:#EFEFEF;}
</style>
<g>
	<g>
		<g>
			<path class="st0" d="M174.7,365.2h35.7c0.5,0,1,0.2,1.4,0.6s0.6,0.9,0.6,1.4v0.9c0,0.6-0.2,1.1-0.6,1.5c-0.4,0.4-0.9,0.6-1.4,0.6
				h-34.7v61.6h34.7c0.5,0,1,0.2,1.4,0.6c0.4,0.4,0.6,0.9,0.6,1.5v0.9c0,0.5-0.2,1-0.6,1.4c-0.4,0.4-0.9,0.6-1.4,0.6h-35.8
				c-1.6,0-2.7-0.4-3.2-1.1c-0.5-0.7-0.8-1.7-0.8-3v-63.5c0-1.4,0.3-2.4,0.9-3C172.1,365.6,173.2,365.2,174.7,365.2z M181.9,397.2
				h21.9c0.6,0,1.1,0.2,1.5,0.6s0.6,0.9,0.6,1.4v0.9c0,1.4-0.7,2-2,2H182c-1.4,0-2-0.7-2-2v-0.9c0-0.5,0.2-1,0.6-1.4
				C180.7,397.4,181.2,397.2,181.9,397.2z"/>
			<path class="st0" d="M210.4,438h-35.8c-2,0-3.4-0.5-4.1-1.5c-0.6-0.9-1-2.1-1-3.7v-63.6c0-1.6,0.4-2.9,1.2-3.8s2.1-1.3,4-1.3
				h35.7c0.8,0,1.6,0.3,2.2,0.9c0.6,0.6,0.9,1.4,0.9,2.2v0.9c0,0.9-0.3,1.7-1,2.3c-0.6,0.6-1.4,0.9-2.2,0.9h-33.6v59.4h33.6
				c0.8,0,1.6,0.3,2.2,0.9c0.6,0.6,1,1.4,1,2.3v0.9c0,0.8-0.3,1.6-0.9,2.2C212,437.7,211.2,438,210.4,438z M174.7,366.4
				c-1.2,0-2,0.2-2.4,0.6c-0.4,0.4-0.6,1.2-0.6,2.3v63.6c0,1.1,0.2,1.9,0.6,2.4c0.3,0.4,1.1,0.6,2.3,0.6h35.8c0.2,0,0.5-0.1,0.7-0.3
				c0.2-0.2,0.3-0.4,0.3-0.7V434c0-0.4-0.1-0.6-0.3-0.7c-0.2-0.2-0.4-0.3-0.7-0.3h-35.8v-63.8h35.8c0.3,0,0.5-0.1,0.7-0.3
				c0.1-0.1,0.3-0.3,0.3-0.7v-0.9c0-0.3-0.1-0.5-0.3-0.7c-0.2-0.2-0.4-0.3-0.7-0.3h-35.7V366.4z M203.8,403.3h-21.9
				c-2,0-3.1-1.2-3.1-3.2v-0.9c0-0.8,0.3-1.6,0.9-2.2c0.6-0.6,1.4-1,2.3-1h21.9c0.9,0,1.7,0.3,2.3,1c0.6,0.6,0.9,1.4,0.9,2.2v0.9
				C206.9,402.1,205.7,403.3,203.8,403.3z M181.9,398.3c-0.4,0-0.6,0.1-0.7,0.3c-0.2,0.2-0.3,0.4-0.3,0.7v0.9c0,0.8,0.2,0.9,0.9,0.9
				h21.9c0.8,0,0.9-0.2,0.9-0.9v-0.9c0-0.3-0.1-0.5-0.3-0.7c-0.1-0.1-0.3-0.3-0.7-0.3H181.9z"/>
		</g>
		<g>
			<path class="st0" d="M227.5,389.9c3.3-2.9,7.5-4.4,12.8-4.4s9.5,1.5,12.7,4.5c3.2,3,4.8,7.1,4.8,12.4c0,1.3-0.7,1.9-2,1.9H255
				c-1.3,0-1.9-0.6-1.9-1.9c0-3.9-1.2-6.9-3.6-8.9c-2.4-2-5.4-3.1-9.1-3.1c-3.7,0-6.7,1-9.2,3.1c-2.4,2.1-3.6,5.1-3.6,9v17.6
				c0,3.9,1.2,6.9,3.6,9c2.4,2.1,5.5,3.1,9.2,3.1s6.7-1,9.1-3c2.4-2,3.6-4.9,3.6-8.6c0-0.5,0.2-1,0.6-1.4c0.4-0.4,0.8-0.6,1.4-0.6
				h0.8c0.6,0,1.1,0.2,1.5,0.6s0.6,0.9,0.6,1.4c-0.1,5.2-1.8,9.2-5,12.2c-3.2,2.9-7.4,4.4-12.5,4.4c-5.2,0-9.4-1.5-12.7-4.5
				s-5-7.1-5-12.4v-17.9C222.6,397,224.2,392.8,227.5,389.9z"/>
			<path class="st0" d="M240.2,438.2c-5.4,0-9.9-1.6-13.4-4.7c-3.5-3.2-5.3-7.6-5.3-13.3v-17.8c0-5.7,1.8-10.2,5.3-13.3
				c3.5-3.1,8-4.7,13.5-4.7s10,1.6,13.4,4.7c3.4,3.2,5.2,7.6,5.2,13.2c0,1.9-1.2,3-3.1,3H255c-1.9,0-3-1.1-3-3c0-3.6-1-6.2-3.2-8.1
				s-4.9-2.8-8.4-2.8c-3.4,0-6.2,1-8.4,2.9s-3.2,4.5-3.2,8.1V420c0,3.6,1.1,6.2,3.2,8.1c2.2,1.9,5,2.9,8.4,2.9s6.2-0.9,8.3-2.8
				c2.1-1.8,3.2-4.4,3.2-7.8c0-0.8,0.3-1.6,0.9-2.2c0.6-0.6,1.3-1,2.2-1h0.8c0.9,0,1.7,0.3,2.3,1c0.6,0.6,0.9,1.4,0.9,2.2
				c-0.1,5.5-2,9.9-5.4,13C250.1,436.6,245.7,438.2,240.2,438.2z M240.3,386.6c-4.9,0-9,1.4-12.1,4.1c-3.1,2.7-4.5,6.6-4.5,11.7
				v17.8c0,5,1.5,8.8,4.6,11.6s7.1,4.2,12,4.2c4.8,0,8.8-1.4,11.8-4.1c3-2.7,4.5-6.5,4.7-11.4c0-0.2-0.1-0.5-0.3-0.7
				c-0.1-0.1-0.3-0.3-0.7-0.3H255c-0.2,0-0.4,0.1-0.6,0.3c-0.2,0.2-0.3,0.4-0.3,0.7c-0.1,4.1-1.4,7.3-4,9.5
				c-2.5,2.2-5.8,3.3-9.8,3.3c-3.9,0-7.3-1.1-9.9-3.4c-2.7-2.3-4-5.6-4-9.8v-17.6c0-4.2,1.4-7.5,4-9.8c2.6-2.2,5.9-3.4,9.9-3.4
				c3.9,0,7.2,1.1,9.8,3.3c2.6,2.3,4,5.5,4,9.7c0,0.7,0.2,0.8,0.8,0.8h0.8c0.9,0,0.9-0.3,0.9-0.8c0-5-1.5-8.9-4.5-11.6
				C249.3,388,245.2,386.6,240.3,386.6z"/>
		</g>
		<g>
			<path class="st0" d="M279.2,389.9c3.3-2.9,7.5-4.4,12.8-4.4s9.5,1.5,12.7,4.5s4.8,7.1,4.8,12.4v17.8c0,5.3-1.6,9.5-4.8,12.4
				c-3.2,3-7.4,4.5-12.6,4.5s-9.5-1.5-12.8-4.5s-5-7.1-5-12.4v-17.8C274.3,397,275.9,392.8,279.2,389.9z M301.1,393.4
				c-2.4-2.1-5.4-3.1-9.1-3.1s-6.8,1-9.2,3.1c-2.5,2.1-3.7,5.1-3.7,9v17.8c0,3.9,1.2,6.9,3.7,9s5.5,3.1,9.2,3.1s6.7-1,9.1-3.1
				s3.6-5.1,3.6-9v-17.8C304.7,398.5,303.5,395.5,301.1,393.4z"/>
			<path class="st0" d="M292,438.2c-5.5,0-10-1.6-13.5-4.7c-3.5-3.2-5.3-7.6-5.3-13.3v-17.8c0-5.7,1.8-10.2,5.3-13.3
				c3.5-3.1,8-4.7,13.5-4.7s10,1.6,13.4,4.7c3.4,3.2,5.2,7.6,5.2,13.2v17.8c0,5.6-1.7,10.1-5.2,13.2
				C302,436.6,297.5,438.2,292,438.2z M292,386.6c-4.9,0-9,1.4-12.1,4.1c-3.1,2.7-4.5,6.6-4.5,11.7v17.8c0,5,1.5,8.8,4.6,11.6
				s7.1,4.2,12.1,4.2c4.9,0,8.9-1.4,11.9-4.2c3-2.7,4.5-6.6,4.5-11.6v-17.8c0-5-1.5-8.9-4.5-11.6C300.9,388,296.9,386.6,292,386.6z
				 M292,433.4c-3.9,0-7.3-1.1-9.9-3.4c-2.7-2.3-4.1-5.6-4.1-9.8v-17.8c0-4.2,1.4-7.5,4.1-9.8c2.6-2.2,6-3.4,9.9-3.4
				s7.2,1.1,9.8,3.4c2.6,2.3,4,5.6,4,9.8v17.8c0,4.2-1.3,7.5-4,9.8C299.2,432.2,295.9,433.4,292,433.4z M292,391.4
				c-3.4,0-6.3,1-8.5,2.9s-3.3,4.5-3.3,8.1v17.8c0,3.6,1.1,6.2,3.3,8.1c2.2,1.9,5.1,2.9,8.5,2.9s6.2-0.9,8.4-2.8
				c2.2-1.9,3.2-4.5,3.2-8.1v-17.9c0-3.6-1-6.2-3.2-8.1C298.2,392.4,295.4,391.4,292,391.4z"/>
		</g>
		<g>
			<path class="st1" d="M327.4,381.5c0-4.4,1.8-8.2,5.4-11.5c3.6-3.3,8.5-4.9,14.8-4.9c6.2,0,11.5,1.7,15.8,5
				c4.3,3.3,6.5,8.2,6.8,14.8c0,0.5-0.2,1-0.6,1.5c-0.4,0.4-0.9,0.7-1.4,0.7h-1c-0.5,0-0.9-0.2-1.3-0.6c-0.4-0.4-0.6-0.8-0.7-1.4
				c-0.2-5.2-1.9-9-5.2-11.3c-3.3-2.4-7.2-3.5-11.8-3.5c-4.9,0-8.7,1.1-11.5,3.4c-2.7,2.3-4.1,5-4.1,8.3c0,3.3,1,6,2.9,7.9
				c2.7,2.7,7.6,5.4,14.8,8.2c8.6,3.4,14.3,6.8,17.2,10.2c2.2,2.6,3.3,6.3,3.3,11.2c0,4.8-2,9-5.9,12.4c-3.9,3.4-9.5,5.2-16.7,5.2
				c-5.4,0-10.5-1.5-15.2-4.4c-2.5-1.6-4.6-3.8-6.2-6.6s-2.5-6.1-2.6-9.8c0-1.4,0.7-2.1,2-2.1h0.9c1.2,0,1.9,0.6,2,1.9
				c0.1,3,0.9,5.6,2.3,7.8c1.4,2.2,3.1,3.9,5.1,5c4,2.1,8.3,3.2,13,3.2s8.6-1.2,11.7-3.7c3-2.5,4.6-5.6,4.6-9.4
				c0-3.8-1.2-6.8-3.7-8.8c-2-1.6-4.1-3-6.4-4.2c-3-1.4-7.7-3.4-14.1-6c-4.9-2.2-8.5-4.7-10.7-7.5
				C328.5,389.5,327.4,385.9,327.4,381.5z"/>
		</g>
		<g>
			<path class="st1" d="M379.4,385.7h2.5c0.6,0,1.1,0.2,1.5,0.6s0.6,0.9,0.6,1.4v0.6c0,0.5-0.2,1-0.6,1.4s-0.9,0.6-1.5,0.6h-2.5
				c-0.6,0-1.1-0.2-1.5-0.6s-0.6-0.9-0.6-1.4v-0.6c0-0.5,0.2-1,0.6-1.4S378.8,385.7,379.4,385.7z M387.3,362.2h0.8
				c1.3,0,1.9,0.7,1.9,1.9l-0.3,57c0.1,3.5,1,6.2,2.9,8.1s4.3,2.9,7.4,2.9h2.6c0.5,0,1,0.2,1.4,0.6s0.6,0.9,0.6,1.3v0.8
				c0,1.4-1.5,2-4.6,2c-4.5,0-8.1-1.4-10.8-4.1c-2.7-2.8-4.1-6.6-4.2-11.5l0.3-57.1C385.4,362.8,386,362.2,387.3,362.2z
				 M393.1,385.7h7.6c0.5,0,1,0.2,1.4,0.6s0.6,0.9,0.6,1.4v0.6c0,0.5-0.2,1-0.6,1.4s-0.8,0.6-1.4,0.6h-7.6c-0.5,0-1-0.2-1.4-0.6
				s-0.6-0.9-0.6-1.4v-0.6c0-0.5,0.2-1,0.6-1.4S392.6,385.7,393.1,385.7z"/>
		</g>
		<g>
			<path class="st1" d="M422.5,389.9c3.3-2.9,7.5-4.4,12.8-4.4s9.5,1.5,12.7,4.5s4.8,7.1,4.8,12.4v22.5c0,2.7,0.2,4.5,0.7,5.5
				c0.4,1,1.3,1.7,2.6,2l1.1,0.3c1,0.2,1.5,0.7,1.5,1.3v1.1c0,1.2-0.7,1.7-2,1.7c-3.3,0-5.6-1-6.9-3c-1.2-2-1.8-5-1.8-9.1v-22.3
				c0-3.9-1.2-6.9-3.6-9c-2.4-2.1-5.4-3.1-9.1-3.1s-6.8,1-9.2,3.1c-2.5,2.1-3.7,5.1-3.7,9v17.5c0,4,1,7.1,3,9.1s4.9,3.1,8.7,3.1
				c3.8,0,6.9-1.5,9.4-4.6c0.5-0.6,1.1-0.9,2-0.9s1.4,0.5,1.8,1.5c0.2,0.8,0.1,1.5-0.3,2.1c-2.9,4.4-7.1,6.7-12.6,6.7
				s-9.7-1.5-12.5-4.4s-4.2-7.1-4.2-12.5v-17.6C417.6,397,419.2,392.8,422.5,389.9z"/>
		</g>
		<g>
			<path class="st1" d="M473.8,390c3.3-2.9,7.6-4.4,12.8-4.4c5.3,0,9.5,1.5,12.7,4.4c3.2,2.9,4.8,7.1,4.8,12.5v42.2
				c0,5.8-1.5,10.2-4.6,13.3c-3.1,3-7.2,4.6-12.3,4.6c-5.2,0-9.3-1.4-12.4-4.3c-3.1-2.9-4.7-6.9-4.8-12.1c0-1.2,0.6-1.8,1.9-1.8h0.8
				c1.4,0,2,0.6,2,1.8c0.1,3.8,1.3,6.6,3.6,8.6c2.3,2,5.2,3,8.9,3c3.6,0,6.5-1.1,8.8-3.3c2.2-2.2,3.3-5.5,3.3-9.8v-11.4
				c-3.7,2.7-8,4-13,4s-9.2-1.5-12.4-4.4c-3.3-2.9-4.9-7.1-4.9-12.5v-17.9C468.8,397.1,470.5,393,473.8,390z M495.7,393.5
				c-2.4-2.1-5.4-3.1-9.2-3.1c-3.7,0-6.8,1-9.2,3.1c-2.4,2.1-3.6,5.1-3.6,9.1v17.6c0,3.9,1.2,6.9,3.7,9s5.5,3.1,8.9,3.1
				s6.3-0.6,8.5-1.7c2.2-1.1,3.7-2.4,4.3-3.7v-24.4C499.2,398.6,498,395.6,495.7,393.5z"/>
		</g>
		<g>
			<path class="st1" d="M526.8,389.9c3.3-2.9,7.5-4.4,12.8-4.4s9.5,1.5,12.7,4.5s4.8,7.1,4.8,12.4v6.1c0,2.9-1.4,4.4-4.2,4.4h-22.1
				c-0.6,0-1.1-0.2-1.5-0.6s-0.6-0.9-0.6-1.4v-0.8c0-0.5,0.2-1,0.6-1.4s0.9-0.6,1.5-0.6h21.5v-5.5c0-3.9-1.2-6.9-3.6-9
				c-2.4-2.1-5.4-3.1-9.1-3.1c-3.7,0-6.7,1-9.2,3.1c-2.4,2.1-3.6,5.1-3.6,9v17.6c0,3.9,1.2,6.9,3.6,9c2.4,2.1,5.5,3.1,9.1,3.1
				s6.7-1,9.1-3c2.4-2,3.6-4.9,3.6-8.6c0-0.5,0.2-1,0.6-1.4c0.4-0.4,0.8-0.6,1.4-0.6h0.8c0.6,0,1.1,0.2,1.5,0.6
				c0.4,0.4,0.6,0.9,0.6,1.4c-0.1,5.3-1.7,9.3-4.9,12.2c-3.2,2.9-7.4,4.3-12.6,4.3s-9.4-1.5-12.7-4.5s-5-7.1-5-12.4v-17.9
				C521.9,397,523.5,392.8,526.8,389.9z"/>
		</g>
	</g>
	<path class="st1" d="M583.4,430c0,3.1-2.5,5.6-5.6,5.6s-5.6-2.5-5.6-5.6c0-3.1,2.5-5.6,5.6-5.6C580.8,424.4,583.4,426.9,583.4,430z
		"/>
	<g>
		<g>
			<circle class="st0" cx="81.7" cy="358.9" r="4.2"/>
		</g>
		<g>
			<circle class="st0" cx="64.6" cy="379.3" r="4.2"/>
		</g>
		<g>
			<path class="st0" d="M94.3,369c0,2.3,1.9,4.2,4.2,4.2c2.3,0,4.2-1.9,4.2-4.2c0-2.3-1.9-4.2-4.2-4.2
				C96.2,364.7,94.3,366.6,94.3,369z"/>
		</g>
		<g>
			<path class="st0" d="M94.3,414.6c0,2.3,1.9,4.2,4.2,4.2c2.3,0,4.2-1.9,4.2-4.2c0-2.3-1.9-4.2-4.2-4.2
				C96.2,410.4,94.3,412.3,94.3,414.6z"/>
		</g>
		<g>
			<circle class="st1" cx="81.7" cy="343.2" r="4.2"/>
		</g>
		<g>
			<circle class="st0" cx="64.6" cy="363.6" r="4.2"/>
		</g>
		<g>
			<circle class="st1" cx="48.9" cy="379.3" r="4.2"/>
		</g>
		<g>
			<circle class="st0" cx="48.9" cy="395" r="4.2"/>
		</g>
		<g>
			<circle class="st0" cx="33.4" cy="379.3" r="4.2"/>
		</g>
		<g>
			<circle class="st0" cx="33.4" cy="395" r="4.2"/>
		</g>
		<g>
			<circle class="st1" cx="48.9" cy="410.7" r="4.2"/>
		</g>
		<g>
			<circle class="st0" cx="48.9" cy="363.6" r="4.2"/>
		</g>
		<g>
			<path class="st0" d="M94.3,353.2c0,2.3,1.9,4.2,4.2,4.2c2.3,0,4.2-1.9,4.2-4.2c0-2.3-1.9-4.2-4.2-4.2
				C96.2,349,94.3,350.9,94.3,353.2z"/>
		</g>
		<g>
			<path class="st0" d="M60.4,347.9c0,2.3,1.9,4.2,4.2,4.2c2.3,0,4.2-1.9,4.2-4.2c0-2.3-1.9-4.2-4.2-4.2
				C62.2,343.7,60.4,345.6,60.4,347.9z"/>
		</g>
		<g>
			<path class="st0" d="M94.3,337.5c0,2.3,1.9,4.2,4.2,4.2c2.3,0,4.2-1.9,4.2-4.2c0-2.3-1.9-4.2-4.2-4.2
				C96.2,333.3,94.3,335.2,94.3,337.5z"/>
		</g>
		<g>
			<circle class="st0" cx="114.2" cy="369" r="4.2"/>
		</g>
		<g>
			<circle class="st1" cx="114.2" cy="384.7" r="4.2"/>
		</g>
		<g>
			<path class="st1" d="M123.5,369c0,2.3,1.9,4.2,4.2,4.2c2.3,0,4.2-1.9,4.2-4.2c0-2.3-1.9-4.2-4.2-4.2
				C125.4,364.7,123.5,366.6,123.5,369z"/>
		</g>
		<g>
			<path class="st0" d="M123.5,384.7c0,2.3,1.9,4.2,4.2,4.2c2.3,0,4.2-1.9,4.2-4.2c0-2.3-1.9-4.2-4.2-4.2
				C125.4,380.4,123.5,382.3,123.5,384.7z"/>
		</g>
		<g>
			<circle class="st0" cx="114.2" cy="400.4" r="4.2"/>
		</g>
		<g>
			<circle class="st1" cx="114.2" cy="353.2" r="4.2"/>
		</g>
		<g>
			<path class="st1" d="M81.7,446.5c-1,0-1.8-0.8-1.8-1.8v-65.8c0-1,0.8-1.8,1.8-1.8s1.8,0.8,1.8,1.8v65.8
				C83.5,445.7,82.7,446.5,81.7,446.5z"/>
		</g>
		<g>
			<path class="st1" d="M81.7,379.9c-2.4,0-4.4-2-4.4-4.4c0-2.4,2-4.4,4.4-4.4s4.4,2,4.4,4.4C86,378,84.1,379.9,81.7,379.9z
				 M81.7,374.4c-0.7,0-1.2,0.5-1.2,1.2c0,0.7,0.5,1.2,1.2,1.2s1.2-0.5,1.2-1.2C82.9,374.9,82.3,374.4,81.7,374.4z"/>
		</g>
		<g>
			<path class="st1" d="M81.6,413.1c-1,0-1.8-0.8-1.8-1.8c0-6.6,5.1-8.8,11.8-11.1c5.1-1.7,5.1-4.1,5-9.8c0-0.6,0-1.1,0-1.7
				c0-1,0.8-1.8,1.8-1.8s1.8,0.8,1.8,1.8c0,0.6,0,1.2,0,1.7c0.1,6,0.1,10.7-7.5,13.3c-7.4,2.5-9.4,4.1-9.4,7.6
				C83.4,412.3,82.6,413.1,81.6,413.1z"/>
		</g>
		<g>
			<path class="st1" d="M81.6,421.4c-1,0-1.8-0.8-1.8-1.8c0-3.6-1.9-5.2-9.4-7.6c-7.6-2.5-7.6-7.3-7.5-13.3c0-0.5,0-1.1,0-1.7
				c0-1,0.8-0.7,1.8-0.7c1,0,1.8-0.3,1.8,0.7c0,0.6,0,1.2,0,1.7c-0.1,5.7-0.1,8.1,5,9.8c6.7,2.2,11.8,4.5,11.8,11.1
				C83.4,420.6,82.6,421.4,81.6,421.4z"/>
		</g>
		<g>
			<path class="st1" d="M81.7,451.8c-2.4,0-4.4-2-4.4-4.4c0-2.4,2-4.4,4.4-4.4s4.4,2,4.4,4.4C86,449.9,84.1,451.8,81.7,451.8z
				 M81.7,446.3c-0.7,0-1.2,0.5-1.2,1.2c0,0.7,0.5,1.2,1.2,1.2s1.2-0.5,1.2-1.2C82.9,446.8,82.3,446.3,81.7,446.3z"/>
		</g>
		<g>
			<path class="st1" d="M64.7,399.4c-2.4,0-4.4-2-4.4-4.4c0-2.4,2-4.4,4.4-4.4s4.4,2,4.4,4.4C69.1,397.5,67.1,399.4,64.7,399.4z
				 M64.7,393.9c-0.7,0-1.2,0.5-1.2,1.2c0,0.7,0.5,1.2,1.2,1.2c0.7,0,1.2-0.5,1.2-1.2C65.9,394.4,65.4,393.9,64.7,393.9z"/>
		</g>
		<g>
			<path class="st1" d="M98.4,389.1c-2.4,0-4.4-2-4.4-4.4s2-4.4,4.4-4.4s4.4,2,4.4,4.4S100.8,389.1,98.4,389.1z M98.4,383.5
				c-0.7,0-1.2,0.5-1.2,1.2c0,0.7,0.5,1.2,1.2,1.2s1.2-0.5,1.2-1.2C99.6,384,99.1,383.5,98.4,383.5z"/>
		</g>
	</g>
</g>
</svg>
