<?xml version="1.0" encoding="utf-8"?>
<!-- Generator: Adobe Illustrator 22.0.1, SVG Export Plug-In . SVG Version: 6.00 Build 0)  -->
<svg version="1.1" id="Camada_1" xmlns="http://www.w3.org/2000/svg" xmlns:xlink="http://www.w3.org/1999/xlink" x="0px" y="0px"
	 viewBox="0 0 102.9 91.6" style="enable-background:new 0 0 102.9 91.6;" xml:space="preserve">
<style type="text/css">
	.st0{fill:#7FB790;}
</style>
<path class="st0" d="M94.4,19.6c0-1.1-0.9-1.9-1.9-1.9h-12c-1.1,0-1.9,0.9-1.9,1.9v54.9h-5V25c0-1.1-0.9-1.9-1.9-1.9h-12
	c-1.1,0-1.9,0.9-1.9,1.9v49.5h-5v-59c0-1.1-0.9-1.9-1.9-1.9h-12c-1.1,0-1.9,0.9-1.9,1.9v59h-5V31.6c0-1.1-0.9-1.9-1.9-1.9h-12
	c-1.1,0-1.9,0.9-1.9,1.9v42.9h-5V15c0-1.1-0.9-1.9-1.9-1.9S6.9,13.9,6.9,15v2.5H4.9c-1.1,0-1.9,0.9-1.9,1.9c0,1.1,0.9,1.9,1.9,1.9
	h1.9V26H4.9C3.9,26,3,26.8,3,27.9c0,1.1,0.9,1.9,1.9,1.9h1.9v4.7H4.9c-1.1,0-1.9,0.9-1.9,1.9s0.9,1.9,1.9,1.9h1.9V43H4.9
	C3.9,43,3,43.9,3,44.9s0.9,1.9,1.9,1.9h1.9v4.7H4.9c-1.1,0-1.9,0.9-1.9,1.9s0.9,1.9,1.9,1.9h1.9v4.7H4.9C3.9,60.1,3,60.9,3,62
	s0.9,1.9,1.9,1.9h1.9v4.7H4.9c-1.1,0-1.9,0.9-1.9,1.9s0.9,1.9,1.9,1.9h1.9v4c0,1.1,0.9,1.9,1.9,1.9h89.3c1.1,0,1.9-0.9,1.9-1.9
	s-0.9-1.9-1.9-1.9h-3.7V19.6z M82.4,21.5h8.2V36h-8.2V21.5z M61.5,26.9h8.2v18.6h-8.2V26.9z M40.6,17.4h8.2v12.8h-8.2V17.4z
	 M19.7,33.5h8.2v4.8h-8.2L19.7,33.5z M19.7,74.5V42.2h8.2v32.3H19.7z M40.6,74.5V34.1h8.2v40.4H40.6z M61.5,74.5V49.4h8.2v25.1H61.5
	z M82.4,74.5V39.9h8.2v34.6H82.4z"/>
</svg>
