<?xml version="1.0" encoding="utf-8"?>
<!-- Generator: Adobe Illustrator 22.0.1, SVG Export Plug-In . SVG Version: 6.00 Build 0)  -->
<svg version="1.1" id="Camada_1" xmlns="http://www.w3.org/2000/svg" xmlns:xlink="http://www.w3.org/1999/xlink" x="0px" y="0px"
	 viewBox="0 0 102.9 91.6" style="enable-background:new 0 0 102.9 91.6;" xml:space="preserve">
<style type="text/css">
	.st0{fill:#7FB790;}
</style>
<g>
	<path class="st0" d="M93.9,69c-0.9,0-1.6,0.7-1.6,1.6c0,8.6-7,15.7-15.7,15.7c-0.9,0-1.6,0.7-1.6,1.6c0,0.9,0.7,1.6,1.6,1.6
		c10.4,0,18.9-8.5,18.9-18.9C95.5,69.7,94.8,69,93.9,69L93.9,69z M93.9,69"/>
	<path class="st0" d="M76.6,83.7c7.2,0,13.1-5.9,13.1-13.1c0-0.9-0.7-1.6-1.6-1.6c-0.9,0-1.6,0.7-1.6,1.6c0,5.5-4.4,9.9-9.9,9.9
		c-0.9,0-1.6,0.7-1.6,1.6C75,83,75.7,83.7,76.6,83.7L76.6,83.7z M76.6,83.7"/>
	<g>
		<path class="st0" d="M76.6,77.9c4.1,0,7.4-3.3,7.4-7.4c0-0.9-0.7-1.6-1.6-1.6c-0.9,0-1.6,0.7-1.6,1.6c0,2.3-1.9,4.2-4.2,4.2
			c-0.9,0-1.6,0.7-1.6,1.6C75,77.2,75.7,77.9,76.6,77.9L76.6,77.9z M76.6,77.9"/>
		<path class="st0" d="M75.7,71.9c0.3,0.3,0.7,0.5,1.1,0.5c0.4,0,0.8-0.2,1.1-0.5c0.6-0.6,0.6-1.6,0-2.3l-0.6-0.6l8.4-8.4
			c0.3-0.3,0.5-0.7,0.5-1.1c0-0.4-0.2-0.8-0.5-1.1c-4.1-4.1-10.1-5.4-15.3-3.6l-2.5-2.5l4-4c0.6-0.6,0.6-1.6,0-2.3L61.6,35.7
			l4.1-4.1l5.1,5.1c0.3,0.3,0.7,0.5,1.1,0.5c0.4,0,0.8-0.2,1.1-0.5l20.8-20.8c0.3-0.3,0.5-0.7,0.5-1.1c0-0.4-0.2-0.8-0.5-1.1
			L81.4,1.2c-0.3-0.3-0.7-0.5-1.1-0.5c-0.4,0-0.8,0.2-1.1,0.5L58.4,22c-0.3,0.3-0.5,0.7-0.5,1.1c0,0.4,0.2,0.8,0.5,1.1l5.1,5.1
			l-4.1,4.1l-7.8-7.8c-3.1-3.1-7.9-3.4-11.3-1L36.6,21c-0.6-0.6-1.6-0.6-2.3,0l-7.3,7.3c-0.3,0.3-0.5,0.7-0.5,1.1
			c0,0.4,0.2,0.8,0.5,1.1l3.6,3.6c-1,1.5-1.6,3.2-1.6,5.1c0,2.4,0.9,4.6,2.6,6.3l7.8,7.8l-4.1,4.1l-5.1-5.1c-0.6-0.6-1.6-0.6-2.3,0
			L7.3,73.1c-0.6,0.6-0.6,1.6,0,2.3l12.4,12.4c0.3,0.3,0.7,0.5,1.1,0.5c0.4,0,0.8-0.2,1.1-0.5l20.8-20.8c0.6-0.6,0.6-1.6,0-2.3
			l-5.1-5.1l4.1-4.1L52,65.9c0.3,0.3,0.7,0.5,1.1,0.5c0.4,0,0.8-0.2,1.1-0.5l4-4l2.5,2.5c-1.7,5.2-0.5,11.2,3.6,15.3
			c0.3,0.3,0.7,0.5,1.1,0.5c0.4,0,0.8-0.2,1.1-0.5l8.4-8.4L75.7,71.9z M78.8,26.4L68.7,16.2l4.7-4.7l10.1,10.1L78.8,26.4z M80.3,4.6
			l10.1,10.1l-4.7,4.7L75.6,9.3L80.3,4.6z M66.4,18.5l10.1,10.1l-4.7,4.7L61.8,23.2L66.4,18.5z M22.3,62.6l10.1,10.1l-4.7,4.7
			L17.6,67.3L22.3,62.6z M20.8,84.4L10.7,74.3l4.7-4.7l10.1,10.1L20.8,84.4z M34.7,70.5L24.6,60.4l4.7-4.7l10.1,10.1L34.7,70.5z
			 M50.7,29.3l13.6,13.6L48.9,58.2L35.3,44.6L50.7,29.3z M45.3,26.3c1,0,2.1,0.3,3,0.9L33.2,42.3c-0.6-0.9-0.9-1.9-0.9-3
			c0-1.5,0.6-2.9,1.7-4l7.3-7.3C42.4,26.8,43.8,26.3,45.3,26.3L45.3,26.3z M35.5,24.4l2.4,2.4l-2.5,2.5l-2.5,2.5l-2.4-2.4L35.5,24.4
			z M53.2,62.5l-2-2l15.4-15.4l2,2L53.2,62.5z M60.6,59.6l5-5l1.7,1.7c-1,0.6-2,1.3-2.8,2.2c-0.9,0.9-1.6,1.8-2.2,2.8L60.6,59.6z
			 M65.7,76.2c-3.5-4.6-3.2-11.3,1.1-15.5c2.3-2.3,5.3-3.5,8.4-3.5c2.5,0,5.1,0.8,7.2,2.4L65.7,76.2z M65.7,76.2"/>
	</g>
</g>
</svg>
