<?xml version="1.0" encoding="utf-8"?>
<!-- Generator: Adobe Illustrator 22.0.1, SVG Export Plug-In . SVG Version: 6.00 Build 0)  -->
<svg version="1.1" id="Camada_1" xmlns="http://www.w3.org/2000/svg" xmlns:xlink="http://www.w3.org/1999/xlink" x="0px" y="0px"
	 viewBox="0 0 102.9 91.6" style="enable-background:new 0 0 102.9 91.6;" xml:space="preserve">
<style type="text/css">
	.st0{fill:#7FB790;}
</style>
<g>
	<path class="st0" d="M50.6,22.6c-1,0-1.8,0.8-1.8,1.8c0,1,0.8,1.8,1.8,1.8c1,0,1.8-0.8,1.8-1.8C52.3,23.4,51.5,22.6,50.6,22.6
		L50.6,22.6z M50.6,22.6"/>
	<path class="st0" d="M21,54.7c1,0,1.8-0.8,1.8-1.8c0-1-0.8-1.8-1.8-1.8c-1,0-1.8,0.8-1.8,1.8C19.2,53.9,20,54.7,21,54.7L21,54.7z
		 M21,54.7"/>
	<path class="st0" d="M64.8,4.8c-16,0-29.2,11.1-30.2,25C19.3,30.5,4.9,41.5,4.9,56.5c0,6.2,2.5,12.3,7,17c0.9,3.7-0.2,7.5-2.9,10.2
		c-0.5,0.5-0.7,1.3-0.4,1.9c0.3,0.7,0.9,1.1,1.6,1.1c5.1,0,10-2,13.6-5.5c3.5,1.2,8.2,1.9,12.4,1.9c16,0,29.2-11.1,30.2-25
		c3.7-0.2,7.6-0.9,10.7-1.9c3.6,3.5,8.5,5.5,13.6,5.5c0.7,0,1.4-0.4,1.6-1.1c0.3-0.7,0.1-1.4-0.4-1.9c-2.7-2.7-3.8-6.6-2.9-10.2
		c4.5-4.8,7-10.8,7-17C96.2,16,80.7,4.8,64.8,4.8L64.8,4.8z M36.3,79.6c-4.2,0-9-0.8-12.2-2.1c-0.7-0.3-1.5-0.1-2,0.5
		c-2.2,2.4-5,4-8,4.7c1.7-3.2,2.1-7,1.1-10.6c-0.1-0.3-0.2-0.5-0.4-0.8c-4-4.2-6.3-9.5-6.3-14.9c0-12.6,12.7-23.2,27.8-23.2
		c14.2,0,26.7,9.9,26.7,23.2C63,69.2,51,79.6,36.3,79.6L36.3,79.6z M86.3,46.4c-0.2,0.2-0.4,0.5-0.4,0.8c-1,3.6-0.6,7.4,1.1,10.6
		c-3-0.8-5.8-2.4-8-4.7c-0.5-0.5-1.3-0.7-2-0.5c-2.8,1.1-6.8,1.9-10.5,2.1c-0.5-6.7-3.9-13.1-9.6-17.8h23.3c1,0,1.8-0.8,1.8-1.8
		c0-1-0.8-1.8-1.8-1.8H51.4c-4-2.1-8.6-3.3-13.3-3.5c1-12,12.6-21.4,26.7-21.4c15.1,0,27.8,10.6,27.8,23.2
		C92.6,36.9,90.4,42.2,86.3,46.4L86.3,46.4z M86.3,46.4"/>
	<path class="st0" d="M50.6,51.1H28.1c-1,0-1.8,0.8-1.8,1.8c0,1,0.8,1.8,1.8,1.8h22.5c1,0,1.8-0.8,1.8-1.8
		C52.3,51.9,51.5,51.1,50.6,51.1L50.6,51.1z M50.6,51.1"/>
	<path class="st0" d="M50.6,61.8H21c-1,0-1.8,0.8-1.8,1.8c0,1,0.8,1.8,1.8,1.8h29.6c1,0,1.8-0.8,1.8-1.8
		C52.3,62.6,51.5,61.8,50.6,61.8L50.6,61.8z M50.6,61.8"/>
	<path class="st0" d="M80.1,22.6H57.7c-1,0-1.8,0.8-1.8,1.8c0,1,0.8,1.8,1.8,1.8h22.5c1,0,1.8-0.8,1.8-1.8
		C81.9,23.4,81.1,22.6,80.1,22.6L80.1,22.6z M80.1,22.6"/>
</g>
</svg>
