<?xml version="1.0" encoding="utf-8"?>
<!-- Generator: Adobe Illustrator 22.0.1, SVG Export Plug-In . SVG Version: 6.00 Build 0)  -->
<svg version="1.1" id="Camada_1" xmlns="http://www.w3.org/2000/svg" xmlns:xlink="http://www.w3.org/1999/xlink" x="0px" y="0px"
	 viewBox="0 0 102.9 91.6" style="enable-background:new 0 0 102.9 91.6;" xml:space="preserve">
<style type="text/css">
	.st0{fill:#7FB790;}
</style>
<g>
	<path class="st0" d="M46.5,82.2c-20.1,0-36.5-16.4-36.5-36.4S26.4,9.3,46.5,9.3c8,0,15.5,2.5,21.9,7.3c1,0.7,1.2,2.1,0.4,3.1
		c-0.7,1-2.1,1.2-3.1,0.4c-5.6-4.2-12.2-6.4-19.2-6.4c-17.7,0-32,14.4-32,32s14.4,32,32,32c17.7,0,32-14.4,32-32
		c0-0.8,0-1.5-0.1-2.3c-0.1-1.2,0.8-2.3,2-2.4c1.2-0.1,2.3,0.8,2.4,2c0.1,0.9,0.1,1.7,0.1,2.6C83,65.8,66.6,82.2,46.5,82.2z"/>
	<path class="st0" d="M46.3,68.2c-1.5,0-2.9-0.6-4-1.7L22.8,47.1c-3.4-3.4-3.4-8.9,0-12.2c3.4-3.4,8.9-3.4,12.2,0l11.3,11.3
		l31.9-31.9l0,0c3.4-3.4,8.9-3.4,12.2,0c3.4,3.4,3.4,8.8,0,12.2L50.3,66.6C49.2,67.7,47.8,68.2,46.3,68.2z M28.9,36.8
		c-1.1,0-2.2,0.4-3,1.2c-1.6,1.6-1.6,4.3,0,6l19.5,19.5c0.5,0.5,1.3,0.5,1.8,0l40.1-40.1c1.6-1.6,1.6-4.3,0-6c-1.6-1.6-4.3-1.6-6,0
		L49.1,49.6c-0.7,0.7-1.7,1.2-2.8,1.2c-1.1,0-2.1-0.4-2.8-1.2L31.9,38C31,37.2,30,36.8,28.9,36.8z"/>
</g>
</svg>
