<?xml version="1.0" encoding="utf-8"?>
<!-- Generator: Adobe Illustrator 22.0.1, SVG Export Plug-In . SVG Version: 6.00 Build 0)  -->
<svg version="1.1" id="Camada_1" xmlns="http://www.w3.org/2000/svg" xmlns:xlink="http://www.w3.org/1999/xlink" x="0px" y="0px"
	 viewBox="0 0 102.9 91.6" style="enable-background:new 0 0 102.9 91.6;" xml:space="preserve">
<style type="text/css">
	.st0{fill:#7FB790;}
</style>
<g>
	<path class="st0" d="M77.8,32.1c2.1-2.5,3.2-5.7,3.3-8.9c0.1-7.8-6.2-14.3-14-14.5c-2,0-3.9,0.3-5.7,1C58.2,5.6,53.3,3.3,48,3.3
		c-3.7,0-7.3,1.2-10.2,3.4c-2.6,1.9-4.5,4.5-5.7,7.4C25.9,14.3,21,19.4,21,25.7c0,1.5,0.3,2.9,0.8,4.3c1.2,3,4,4.9,7.3,4.9h15.3v5
		h-4.2c-0.7,0-1.4,0.4-1.7,1.1c-0.3,0.7-0.2,1.4,0.2,2l9,11.3c0.8,1,2.1,1.6,3.4,1.6s2.6-0.6,3.4-1.6l8.9-11.3
		c0.5-0.6,0.5-1.3,0.2-2s-1-1.1-1.7-1.1h-4.2v-5h14.1C74.1,34.8,76.3,33.8,77.8,32.1z M59,43.2l-7.1,9c-0.3,0.3-0.6,0.4-0.8,0.4
		c-0.2,0-0.5-0.1-0.8-0.4l-7.1-9h1.8c1.5,0,2.7-1.2,2.7-2.7v-5.6v-3.3v-1h6.8v1v3.3v5.6c0,1.5,1.2,2.7,2.7,2.7H59L59,43.2z
		 M57.7,30.5h2c0.9,0,1.7-0.7,1.7-1.7s-0.7-1.7-1.7-1.7h-3.7H46h-3.7c-0.9,0-1.7,0.7-1.7,1.7s0.7,1.7,1.7,1.7h2v1H29
		c-1.9,0-3.5-1.1-4.2-2.8c-0.4-1-0.6-2-0.6-3.1c0-4.6,3.7-8.3,8.3-8.3c0.2,0,0.4,0,0.6,0c0,0,0,0,0,0c0,0,0,0,0,0
		c0,0,2.3,0.1,3.8,1.4c0.3,0.3,0.7,0.5,1.1,0.5c0.4,0,0.9-0.2,1.2-0.5c0.6-0.7,0.6-1.7,0-2.3c-1.2-1.1-2.6-1.7-3.7-2
		c2.3-4.8,7.1-7.9,12.5-7.9c4.1,0,7.9,1.8,10.5,4.9c-0.5,0.5-1,1.1-1.6,2c-0.5,0.8-0.3,1.8,0.4,2.3c0.3,0.2,0.6,0.3,0.9,0.3
		c0.5,0,1.1-0.3,1.4-0.7c1-1.5,1.7-2,1.8-2c0,0,0,0,0,0c0,0,0,0,0.1,0c0,0,0.1,0,0.1,0c0,0,0,0,0,0c1.6-0.9,3.5-1.3,5.4-1.3
		c6,0.1,10.8,5.1,10.7,11.1c0,2.5-0.9,4.9-2.5,6.8c-0.8,1-2.1,1.6-3.4,1.6H57.7V30.5z"/>
	<path class="st0" d="M55.4,22.5h-8.8c-0.9,0-1.7,0.7-1.7,1.7s0.7,1.7,1.7,1.7h8.8c0.9,0,1.7-0.7,1.7-1.7S56.3,22.5,55.4,22.5z"/>
	<path class="st0" d="M56.3,56.2H44.8c-3.6,0-6.6,2.9-6.6,6.6v19.8c0,1.8,1.4,3.2,3.2,3.2h2.5c0.4,1.4,1.6,2.4,3.1,2.4h14.8
		c1.8,0,3.2-1.4,3.2-3.2V64.9c0-1.8-1.4-3.2-3.2-3.2h-2.4v-2.2C59.5,57.7,58,56.2,56.3,56.2z M45.5,67.4c0.9,0,1.7-0.7,1.7-1.7V65h9
		h3.3h2.3v19.9h-3.2H47.1v-2.4V79c0-0.9-0.7-1.7-1.7-1.7S43.8,78,43.8,79v3.5h-2.3V62.8c0-1.8,1.5-3.2,3.2-3.2h11.4v2.1H47
		c-1.8,0-3.2,1.4-3.2,3.2v0.8C43.8,66.6,44.6,67.4,45.5,67.4z"/>
	<path class="st0" d="M50.7,72.9h5.4h2.7c0.2,0,0.4,0,0.6-0.1c0.6-0.2,1.1-0.8,1.1-1.5s-0.4-1.3-1.1-1.5c-0.2-0.1-0.4-0.1-0.6-0.1
		h-2.7h-5.4c-0.9,0-1.7,0.7-1.7,1.7S49.8,72.9,50.7,72.9z"/>
	<path class="st0" d="M50.7,80h5.4h2.7c0.2,0,0.4,0,0.6-0.1c0.6-0.2,1.1-0.8,1.1-1.5s-0.4-1.3-1.1-1.5c-0.2-0.1-0.4-0.1-0.6-0.1
		h-2.7h-5.4c-0.9,0-1.7,0.7-1.7,1.7S49.8,80,50.7,80z"/>
	<path class="st0" d="M43.8,72.7c0,0.1,0.1,0.2,0.1,0.3c0,0.1,0.1,0.2,0.2,0.3c0.1,0.1,0.1,0.2,0.2,0.3c0.1,0.1,0.2,0.1,0.3,0.2
		c0.1,0.1,0.2,0.1,0.3,0.2c0.1,0,0.2,0.1,0.3,0.1c0.1,0,0.2,0,0.3,0c0.1,0,0.2,0,0.3,0c0.1,0,0.2-0.1,0.3-0.1c0.1,0,0.2-0.1,0.3-0.2
		c0.1-0.1,0.2-0.1,0.3-0.2c0.1-0.1,0.1-0.2,0.2-0.3c0.1-0.1,0.1-0.2,0.2-0.3c0-0.1,0.1-0.2,0.1-0.3c0-0.1,0-0.2,0-0.3
		c0-0.1,0-0.2,0-0.3c0-0.1-0.1-0.2-0.1-0.3c0-0.1-0.1-0.2-0.2-0.3c-0.1-0.1-0.1-0.2-0.2-0.3c-0.1-0.1-0.2-0.1-0.3-0.2
		c-0.1-0.1-0.2-0.1-0.3-0.2c-0.1,0-0.2-0.1-0.3-0.1c-0.2,0-0.4,0-0.6,0c-0.1,0-0.2,0.1-0.3,0.1c-0.1,0-0.2,0.1-0.3,0.2
		c-0.1,0.1-0.2,0.1-0.3,0.2c-0.1,0.1-0.1,0.2-0.2,0.3c-0.1,0.1-0.1,0.2-0.2,0.3c0,0.1-0.1,0.2-0.1,0.3c0,0.1,0,0.2,0,0.3
		S43.8,72.5,43.8,72.7z"/>
</g>
</svg>
