<?xml version="1.0" encoding="utf-8"?>
<!-- Generator: Adobe Illustrator 22.0.1, SVG Export Plug-In . SVG Version: 6.00 Build 0)  -->
<svg version="1.1" id="Camada_1" xmlns="http://www.w3.org/2000/svg" xmlns:xlink="http://www.w3.org/1999/xlink" x="0px" y="0px"
	 viewBox="0 0 102.9 91.6" style="enable-background:new 0 0 102.9 91.6;" xml:space="preserve">
<style type="text/css">
	.st0{fill:#7FB790;}
</style>
<g>
	<path class="st0" d="M72.7,73.7c0,0.8,0.7,1.5,1.5,1.5c0.8,0,1.5-0.7,1.5-1.5V51.2c0-0.8-0.7-1.5-1.5-1.5h-45
		c-0.8,0-1.5,0.7-1.5,1.5v22.5c0,0.8,0.7,1.5,1.5,1.5s1.5-0.7,1.5-1.5v-21h42.1L72.7,73.7L72.7,73.7z"/>
	<path class="st0" d="M84.9,79h-2.7V47.8c0-2.5-2-4.5-4.5-4.5h-52c-2.5,0-4.5,2-4.5,4.5V79h-2.7c-0.7,0-1.3,0.6-1.3,1.3V83
		c0,3.6,3,6.6,6.6,6.6h55.9c3.6,0,6.6-3,6.6-6.6v-2.6C86.2,79.6,85.6,79,84.9,79z M24.1,47.8c0-0.8,0.7-1.5,1.5-1.5h52
		c0.8,0,1.5,0.7,1.5,1.5V79H59c-0.1,0-0.2,0-0.3,0c-0.6,0.1-1.1,0.7-1.1,1.3c0,1.1-0.9,2-2,2h-7.9c-1.1,0-2-0.9-2-2
		c0-0.7-0.6-1.4-1.4-1.3H24.1V47.8z M83.5,83c0,2.2-1.8,3.9-3.9,3.9H23.7c-2.2,0-3.9-1.8-3.9-3.9v-1.3h23.4c0.6,2,2.4,3.4,4.5,3.4
		h7.9c2.1,0,4-1.4,4.5-3.4h23.4V83L83.5,83z"/>
	<path class="st0" d="M22.7,57.4c-7.1-2.8-12.2-9.8-12.2-17.9c0-10.6,8.6-19.2,19.2-19.2c0.1,0,0.1,0,0.2,0c1-4.8,3.5-9.1,7.2-12.4
		c4.1-3.6,9.4-5.6,14.9-5.6c12.4,0,22.5,10,22.7,22.3c9.3,0.1,16.8,7.7,16.8,17c0,7.3-4.6,13.5-11,15.9L80.3,54
		c4.6-2.2,7.7-6.9,7.7-12.3c0-7.5-6.1-13.6-13.6-13.6c-0.5,0-0.9,0-1.4,0.1c-0.5,0.1-1-0.1-1.4-0.5c-0.4-0.4-0.6-0.9-0.5-1.4
		c0,0,0.1-1,0.1-1.4c0-10.6-8.6-19.2-19.2-19.2c-4.7,0-9.2,1.7-12.7,4.8c-3.5,3.1-5.7,7.2-6.3,11.8c-0.1,0.9-1,1.6-1.9,1.5
		c-0.5-0.1-1-0.1-1.5-0.1C21,23.8,14,30.9,14,39.5c0,6.2,3.6,11.6,8.9,14.2L22.7,57.4z"/>
	<path class="st0" d="M51.9,16.4c0.8,0,1.5-0.7,1.5-1.5c0-0.8-0.7-1.5-1.5-1.5c-6.2,0-11.4,4.6-12.3,10.7c-0.1,0.8,0.5,1.5,1.3,1.7
		c0.9,0.1,1.6-0.5,1.7-1.3C43.2,19.9,47.2,16.4,51.9,16.4z"/>
	<path class="st0" d="M56.7,67.8L53.1,71V59.6c0-0.8-0.7-1.5-1.5-1.5c-0.8,0-1.5,0.7-1.5,1.5V71l-3.5-3.2c-0.6-0.5-1.5-0.5-2.1,0.1
		c-0.5,0.6-0.5,1.5,0.1,2.1l5.4,4.8c0.5,0.4,1,0.6,1.6,0.6c0.6,0,1.2-0.2,1.6-0.6l5.4-4.8c0.6-0.5,0.7-1.5,0.1-2.1
		C58.2,67.3,57.3,67.3,56.7,67.8z"/>
</g>
</svg>
