<?xml version="1.0" encoding="utf-8"?>
<!-- Generator: Adobe Illustrator 22.0.1, SVG Export Plug-In . SVG Version: 6.00 Build 0)  -->
<svg version="1.1" id="Camada_1" xmlns="http://www.w3.org/2000/svg" xmlns:xlink="http://www.w3.org/1999/xlink" x="0px" y="0px"
	 viewBox="0 0 102.9 91.6" style="enable-background:new 0 0 102.9 91.6;" xml:space="preserve">
<style type="text/css">
	.st0{fill:#7FB790;}
</style>
<g>
	<g>
		<g>
			<path class="st0" d="M67.2,2.6H35.8c-8.4,0-15.2,6.8-15.2,15.2v31.4c0,8.4,6.8,15.2,15.2,15.2h8.3l6.1,10.9
				c0.3,0.6,0.9,0.9,1.6,0.9c0.6,0,1.2-0.3,1.5-0.9l6-10.9h7.9c8.4,0,15.2-6.8,15.2-15.2V17.8C82.4,9.5,75.6,2.6,67.2,2.6z
				 M78.9,49.2c0,6.4-5.2,11.7-11.7,11.7h-8.9c-0.6,0-1.2,0.3-1.6,0.9l-5,9l-5-9c-0.3-0.6-0.9-0.9-1.5-0.9h-9.3
				c-6.4,0-11.7-5.2-11.7-11.7V17.8c0-6.4,5.2-11.7,11.7-11.7h31.4c6.4,0,11.7,5.2,11.7,11.7V49.2z"/>
			<path class="st0" d="M65.1,69.6c-1-0.2-1.9,0.4-2.1,1.3c-0.2,1,0.4,1.9,1.3,2.1c6.8,1.5,9.2,3.8,9.2,4.9c0,1-1.8,2.6-5.7,4
				c-4.3,1.4-10,2.2-16.1,2.2c-6.1,0-11.9-0.8-16.1-2.2c-3.9-1.3-5.7-3-5.7-4c0-1.3,2.6-3.3,8.2-4.7c1-0.2,1.5-1.2,1.3-2.2
				c-0.2-1-1.2-1.5-2.2-1.3c-7,1.8-10.9,4.6-10.9,8.1c0,6.4,12.8,9.8,25.4,9.8c12.6,0,25.4-3.4,25.4-9.8
				C77.1,74.4,72.8,71.4,65.1,69.6z"/>
			<path class="st0" d="M67,27l-9.6-1.4L53.1,17c-0.3-0.6-0.9-1-1.6-1c0,0,0,0,0,0c-0.7,0-1.3,0.4-1.6,1l-4.3,8.7L36,27.1
				c-0.7,0.1-1.2,0.6-1.4,1.2c-0.2,0.6,0,1.3,0.5,1.8l7,6.8l-1.6,9.6c-0.1,0.7,0.2,1.3,0.7,1.7c0.3,0.2,0.7,0.3,1,0.3
				c0.3,0,0.6-0.1,0.8-0.2l8.6-4.6l8.6,4.5c0.3,0.1,0.5,0.2,0.8,0.2c0,0,0,0,0,0c1,0,1.8-0.8,1.8-1.8c0-0.1,0-0.3-0.1-0.4l-1.7-9.5
				L68,30c0.5-0.5,0.7-1.2,0.4-1.8C68.2,27.6,67.7,27.1,67,27z M57.9,35c-0.4,0.4-0.6,1-0.5,1.6l1.2,7l-6.3-3.3
				c-0.5-0.3-1.1-0.3-1.7,0l-6.2,3.3l1.2-7c0.1-0.6-0.1-1.2-0.5-1.6l-5.1-4.9l7-1c0.6-0.1,1.1-0.5,1.3-1l3.1-6.3l3.1,6.3
				c0.3,0.5,0.8,0.9,1.3,1l7,1L57.9,35z"/>
		</g>
	</g>
</g>
</svg>
