<?xml version="1.0" encoding="utf-8"?>
<!-- Generator: Adobe Illustrator 22.0.1, SVG Export Plug-In . SVG Version: 6.00 Build 0)  -->
<svg version="1.1" id="Camada_1" xmlns="http://www.w3.org/2000/svg" xmlns:xlink="http://www.w3.org/1999/xlink" x="0px" y="0px"
	 viewBox="0 0 102.9 91.6" style="enable-background:new 0 0 102.9 91.6;" xml:space="preserve">
<style type="text/css">
	.st0{fill:#7FB790;}
</style>
<g>
	<path class="st0" d="M39,86.7c-0.4,0-0.8-0.2-1.1-0.5l-6.6-6.6h-9.6c-6.2,0-11.2-5-11.2-11.2V43.8c0-6.2,5-11.2,11.2-11.2h16.2
		c0.9,0,1.6,0.7,1.6,1.6c0,0.9-0.7,1.6-1.6,1.6H21.7c-4.4,0-8,3.6-8,8v24.7c0,4.4,3.6,8,8,8h10.4c0.7,0,1.2,0.4,1.5,1l3.8,3.8l0-3.2
		c0-0.9,0.7-1.6,1.6-1.6h17.3c4.4,0,8-3.6,8-8V57.4c0-0.9,0.7-1.6,1.6-1.6s1.6,0.7,1.6,1.6v11.1c0,6.2-5,11.2-11.2,11.2H40.6l0,5.4
		c0,0.6-0.4,1.2-1,1.5C39.4,86.7,39.2,86.7,39,86.7z"/>
	<path class="st0" d="M82.3,57c-0.4,0-0.8-0.2-1.1-0.5l-6-6c-1.9,0.5-3.9,0.8-5.9,0.8h-4.1c-12.8,0-23.3-10.4-23.3-23.3
		S52.3,4.7,65.2,4.7h4.1c12.8,0,23.3,10.4,23.3,23.3c0,3.7-0.9,7.3-2.5,10.6c-1.5,2.9-3.6,5.5-6.1,7.5v9.3c0,0.6-0.4,1.2-1,1.5
		C82.7,56.9,82.5,57,82.3,57z M75.6,47.1c0.4,0,0.8,0.2,1.1,0.5l3.9,3.9v-6.2c0-0.5,0.2-1,0.6-1.3c5.1-3.8,8-9.7,8-16
		c0-11.1-9-20.1-20.1-20.1h-4.1c-11.1,0-20.1,9-20.1,20.1s9,20.1,20.1,20.1h4.1c2,0,4-0.3,5.9-0.9C75.3,47.1,75.5,47.1,75.6,47.1z"
		/>
	<path class="st0" d="M67.7,34.6c-0.9,0-1.6-0.7-1.6-1.6v-3.8c0-1.4,1-2.7,2.4-3c1.7-0.4,2.9-2,2.8-3.7c-0.1-1.8-1.5-3.2-3.3-3.3
		c-1-0.1-2,0.3-2.7,1c-0.7,0.7-1.1,1.6-1.1,2.6c0,0.9-0.7,1.6-1.6,1.6s-1.6-0.7-1.6-1.6c0-1.9,0.8-3.7,2.2-5
		c1.4-1.3,3.2-1.9,5.1-1.8c3.4,0.2,6.1,2.9,6.3,6.3c0.2,3.3-1.9,6.3-5.2,7.1V33C69.3,33.9,68.5,34.6,67.7,34.6z"/>
	<path class="st0" d="M67.7,41c-0.4,0-0.8-0.2-1.1-0.5c-0.3-0.3-0.5-0.7-0.5-1.1c0-0.4,0.2-0.8,0.5-1.1c0.3-0.3,0.7-0.5,1.1-0.5
		s0.8,0.2,1.1,0.5c0.3,0.3,0.5,0.7,0.5,1.1c0,0.4-0.2,0.8-0.5,1.1C68.5,40.8,68.1,41,67.7,41z"/>
</g>
</svg>
