<?xml version="1.0" encoding="utf-8"?>
<!-- Generator: Adobe Illustrator 22.0.1, SVG Export Plug-In . SVG Version: 6.00 Build 0)  -->
<svg version="1.1" id="Camada_1" xmlns="http://www.w3.org/2000/svg" xmlns:xlink="http://www.w3.org/1999/xlink" x="0px" y="0px"
	 viewBox="0 0 102.9 91.6" style="enable-background:new 0 0 102.9 91.6;" xml:space="preserve">
<style type="text/css">
	.st0{fill:#7FB790;}
</style>
<path class="st0" d="M98.7,45.7c0-2-1.1-3.8-2.9-4.7l-7-3.5l7-3.5c0,0,0,0,0,0c1.8-0.9,2.9-2.7,2.9-4.7c0-2-1.1-3.8-2.9-4.7
	L56.1,4.8c-2.9-1.4-6.4-1.4-9.3,0L7.2,24.6c-1.8,0.9-2.9,2.7-2.9,4.7c0,2,1.1,3.8,2.9,4.7l7,3.5l-7,3.5c-1.8,0.9-2.9,2.7-2.9,4.7
	c0,2,1.1,3.8,2.9,4.7l7,3.5l-7,3.5c-1.8,0.9-2.9,2.7-2.9,4.7c0,2,1.1,3.8,2.9,4.7l39.7,19.8c1.4,0.7,3,1.1,4.6,1.1
	c1.6,0,3.2-0.4,4.6-1.1l39.7-19.8c1.8-0.9,2.9-2.7,2.9-4.7c0-2-1.1-3.8-2.9-4.7l-7-3.5l7-3.5C97.6,49.5,98.7,47.7,98.7,45.7z
	 M9.1,30.1c-0.4-0.2-0.5-0.6-0.5-0.8s0.1-0.6,0.5-0.8L48.8,8.7C49.7,8.3,50.6,8,51.5,8c0.9,0,1.8,0.2,2.7,0.6l39.7,19.8
	c0.4,0.2,0.5,0.6,0.5,0.8s-0.1,0.6-0.5,0.8L54.2,50c-1.7,0.8-3.7,0.8-5.4,0L9.1,30.1z M93.9,61.3c0.4,0.2,0.5,0.6,0.5,0.8
	c0,0.2-0.1,0.6-0.5,0.8L54.2,82.7c-1.7,0.8-3.7,0.8-5.4,0L9.1,62.9c-0.4-0.2-0.5-0.6-0.5-0.8c0-0.2,0.1-0.6,0.5-0.8l9.9-5l27.8,13.9
	c1.4,0.7,3,1.1,4.6,1.1s3.2-0.4,4.6-1.1l27.8-13.9L93.9,61.3z M93.9,46.5L54.2,66.4c-1.7,0.8-3.7,0.8-5.4,0L9.1,46.5
	c-0.4-0.2-0.5-0.6-0.5-0.8c0-0.2,0.1-0.6,0.5-0.8l9.9-5l27.8,13.9c1.4,0.7,3,1.1,4.6,1.1c1.6,0,3.2-0.4,4.6-1.1l27.8-13.9l9.9,5
	c0.4,0.2,0.5,0.6,0.5,0.8C94.4,45.9,94.3,46.3,93.9,46.5z"/>
</svg>
