<?xml version="1.0" encoding="utf-8"?>
<!-- Generator: Adobe Illustrator 22.0.1, SVG Export Plug-In . SVG Version: 6.00 Build 0)  -->
<svg version="1.1" id="Camada_1" xmlns="http://www.w3.org/2000/svg" xmlns:xlink="http://www.w3.org/1999/xlink" x="0px" y="0px"
	 viewBox="0 0 102.9 91.6" style="enable-background:new 0 0 102.9 91.6;" xml:space="preserve">
<style type="text/css">
	.st0{fill:#7FB790;}
</style>
<g>
	<path class="st0" d="M10.5,6.1h11.2c1,0,1.7-0.8,1.7-1.7s-0.8-1.7-1.7-1.7H10.5c-1,0-1.7,0.8-1.7,1.7S9.6,6.1,10.5,6.1z"/>
	<path class="st0" d="M92,79.8h-11l-4.2-4.2c2-1.4,3.9-2.9,5.7-4.7c7.6-7.6,11.8-17.7,11.8-28.5c0-10.7-4.2-20.8-11.8-28.4
		C74.9,6.4,64.8,2.2,54.1,2.2C43.9,2.2,34.3,6,26.8,12.9L23,9c-0.3-0.3-0.8-0.5-1.2-0.5H10.5c-1,0-1.7,0.8-1.7,1.7S9.6,12,10.5,12
		H21l3.3,3.3c-6.8,7.4-10.5,16.9-10.5,27.1c0,10.7,4.2,20.7,11.7,28.3c7.6,7.6,17.7,11.8,28.5,11.8c7,0,13.7-1.8,19.6-5.1l5.3,5.3
		c0.3,0.3,0.8,0.5,1.2,0.5H92c1,0,1.7-0.8,1.7-1.7S92.9,79.8,92,79.8z M81.1,67.2l-22.9-23h32.5C90.3,52.7,87,60.8,81.1,67.2z
		 M90.7,40.6H55.8V5.7C74.7,6.6,89.8,21.8,90.7,40.6z M26.8,17.8l3.4,3.4c0.3,0.3,0.8,0.5,1.2,0.5c0.4,0,0.9-0.2,1.2-0.5
		c0.7-0.7,0.7-1.8,0-2.5l-3.4-3.4c6.1-5.6,14.2-9.2,23-9.6v35.9L30.1,63.7L26.8,67c-6.1-6.8-9.5-15.4-9.5-24.6
		C17.4,32.9,21,24.3,26.8,17.8z M54.1,79.1c-9.3,0-18-3.4-24.8-9.6L54,44.8l24.6,24.8c-1.4,1.3-2.9,2.4-4.5,3.5L72.1,71
		c-0.7-0.7-1.8-0.7-2.5,0c-0.7,0.7-0.7,1.8,0,2.5l1.4,1.4C65.9,77.6,60.1,79.1,54.1,79.1z"/>
	<path class="st0" d="M92,85.7H80.2c-1,0-1.7,0.8-1.7,1.7c0,1,0.8,1.7,1.7,1.7H92c1,0,1.7-0.8,1.7-1.7C93.7,86.5,92.9,85.7,92,85.7z
		"/>
</g>
</svg>
