<?xml version="1.0" encoding="utf-8"?>
<!-- Generator: Adobe Illustrator 22.0.1, SVG Export Plug-In . SVG Version: 6.00 Build 0)  -->
<svg version="1.1" id="Camada_1" xmlns="http://www.w3.org/2000/svg" xmlns:xlink="http://www.w3.org/1999/xlink" x="0px" y="0px"
	 viewBox="0 0 102.9 91.6" style="enable-background:new 0 0 102.9 91.6;" xml:space="preserve">
<style type="text/css">
	.st0{fill:#7FB790;}
</style>
<g>
	<path class="st0" d="M76.6,9.1L76.6,9.1l-1.9-1.3c-0.1-0.1-0.2-0.1-0.4-0.2c-0.6-0.4-1.3-0.8-2-1.1c-0.3-0.2-0.7-0.4-1-0.5
		c-0.5-0.3-1-0.5-1.5-0.7C69.6,5.2,69.3,5,69,4.9c-0.8-0.3-1.6-0.7-2.4-1c-0.2-0.1-0.3-0.1-0.5-0.2c-0.7-0.2-1.4-0.5-2.2-0.7
		c-0.2-0.1-0.5-0.1-0.7-0.2c-0.8-0.2-1.6-0.4-2.4-0.6c-0.1,0-0.2,0-0.2-0.1c-0.9-0.2-1.8-0.3-2.8-0.5c-0.2,0-0.4,0-0.6-0.1
		c-0.7-0.1-1.5-0.2-2.2-0.2c-0.2,0-0.5,0-0.7-0.1c-0.9-0.1-1.8-0.1-2.8-0.1c-1,0-2,0-3,0.1c-0.3,0-0.5,0-0.8,0.1
		c-0.9,0.1-1.9,0.2-2.8,0.3c-0.1,0-0.2,0-0.3,0c-0.9,0.1-1.8,0.3-2.7,0.5c-0.3,0.1-0.6,0.1-0.9,0.2c-0.8,0.2-1.7,0.4-2.5,0.7
		c-0.3,0.1-0.5,0.2-0.8,0.2c-0.7,0.2-1.5,0.5-2.2,0.8c-0.3,0.1-0.7,0.3-1,0.4c-0.8,0.3-1.6,0.7-2.4,1.1c-0.3,0.1-0.5,0.3-0.8,0.4
		c-0.6,0.3-1.2,0.6-1.8,1c-0.3,0.2-0.6,0.3-0.9,0.5C28,8,27.2,8.5,26.5,9c-0.1,0.1-0.2,0.1-0.3,0.2l-0.8,0.6l0,0
		C14.3,17.8,7.1,30.9,7.1,45.7c0,24.5,19.9,44.4,44.4,44.4c24.5,0,44.4-19.9,44.4-44.4C95.9,30.5,88.2,17.1,76.6,9.1L76.6,9.1z
		 M29.4,10.6c0.5-0.3,1-0.6,1.5-0.9c0.3-0.2,0.5-0.3,0.8-0.5c0.7-0.4,1.4-0.7,2.1-1.1c0.3-0.1,0.6-0.3,0.9-0.4
		c0.5-0.2,1-0.4,1.6-0.6c0.3-0.1,0.6-0.2,0.9-0.3c0.8-0.3,1.5-0.5,2.3-0.8c0.3-0.1,0.6-0.2,0.9-0.2c0.6-0.2,1.2-0.3,1.8-0.5
		c0.3-0.1,0.5-0.1,0.8-0.2c0.8-0.2,1.7-0.3,2.5-0.5c0.2,0,0.4-0.1,0.6-0.1c0.7-0.1,1.4-0.2,2.1-0.2c0.2,0,0.5,0,0.7-0.1
		c0.9-0.1,1.8-0.1,2.7-0.1c0.8,0,1.6,0,2.3,0.1c0.2,0,0.4,0,0.7,0.1c0.6,0,1.1,0.1,1.7,0.2c0.2,0,0.5,0.1,0.7,0.1
		c0.5,0.1,1.1,0.1,1.6,0.2c0.2,0,0.5,0.1,0.7,0.1c0.6,0.1,1.1,0.2,1.7,0.4c0.2,0.1,0.4,0.1,0.6,0.1c0.7,0.2,1.4,0.4,2,0.6
		c0.1,0,0.1,0,0.2,0.1c0.7,0.2,1.4,0.5,2.1,0.7c0.3,0.1,0.6,0.2,0.8,0.3c0.4,0.2,0.8,0.3,1.2,0.5c0.4,0.2,0.7,0.3,1,0.5
		c0.3,0.1,0.6,0.3,0.9,0.4c0.2,0.1,0.4,0.2,0.7,0.3c-5.7,2.3-9.2,5.1-13.1,10.2c-0.6,0.7-0.8,1.6-0.8,2.5c-0.3-0.8-0.8-1.4-1.5-1.9
		c-1.4-0.9-3.2-0.8-5.5,0.2l-0.4,0c-3,0.3-4.6,0.5-4.8,3.7c-0.1,1.6,0.8,3.3,2.2,4.1c0.4,0.2,0.7,0.4,1.1,0.5c0,0.1,0.1,0.3,0.2,0.4
		l0.6,0.8l1-0.2c0.8-0.1,1.5-0.2,2-0.2c-0.1,0.7,0,1.3,0.3,1.9c0.4,0.8,1.1,1.4,2,1.7c0.8,0.3,0.9,0.5,1,0.9c0.5,1.6,1.6,2.8,3,3.3
		c1.3,0.5,2.8,0.2,4.1-0.8c0.8-0.6,1.2-0.5,2.9,0.3c1.1,0.5,2.4,1.2,4.2,1.4c0.3,0,0.4,0.1,0.5,0.2c1.2,1.3,2.1,2.8,3,4.4
		c1.4,2.3,2.7,4.5,4.9,5.7c1.7,0.9-0.2,6-1.1,8.5c-0.2,0.5-0.4,1-0.5,1.4c-2.3,1.7-3.6,3.7-5,5.6c-1.2,1.7-2.4,3.5-4.3,5.1
		c-2.9,2.5-5.3,4-8.2,5c-0.5,0.2-0.8-0.1-0.9-0.2c-0.1-0.1-0.3-0.4-0.1-0.9c2.9-5.2,6.3-12.6,1.9-16.2c-4.3-3.5-5.9-8.7-4.1-13.1
		c0.8-1.9-0.1-4-2-5c-0.2-0.2-0.3-1.1-0.4-1.6c-0.2-1.2-0.4-2.8-1.3-4.2c-0.4-0.6-1.1-1.1-1.5-1.3c-1.8-0.9-3.5-1.1-5.2-1.4
		c-1.3-0.2-2.6-0.4-3.9-0.9c-4.9-1.9-8.4-9.8-10.9-15.6c-0.4-0.8-0.7-1.6-1.1-2.4C29.1,10.8,29.2,10.7,29.4,10.6L29.4,10.6z
		 M51.5,87.1C28.6,87.1,10,68.5,10,45.7c0-13.4,6.4-25.4,16.4-33c0.3,0.6,0.5,1.2,0.8,1.8c2.9,6.6,6.5,14.9,12.6,17.2
		c1.6,0.6,3.1,0.8,4.5,1c1.5,0.2,3,0.4,4.3,1.1c0.1,0.1,0.3,0.2,0.4,0.3c0.5,0.8,0.7,1.8,0.8,2.9c0.2,1.4,0.4,3.1,1.8,3.8
		c0.5,0.3,0.9,0.8,0.7,1.3c-2.3,5.6-0.4,12.1,4.9,16.5c1.4,1.1,2,4.2-2.6,12.5c-0.8,1.4-0.6,3,0.4,4.2c0.7,0.9,1.8,1.3,2.9,1.3
		c0.4,0,0.9-0.1,1.3-0.2c3.2-1.1,5.9-2.8,9.1-5.5c2.2-1.9,3.5-3.8,4.8-5.7c1.3-1.9,2.6-3.6,4.6-5.1c0.3-0.2,0.5-0.5,0.6-0.9
		c0.2-0.5,0.4-1,0.6-1.6c1.5-4,3.8-10-0.3-12.1c-1.5-0.8-2.5-2.5-3.7-4.6c-0.9-1.6-2-3.4-3.4-4.9c-0.6-0.6-1.3-1-2.3-1.1
		c-1.3-0.2-2.3-0.7-3.3-1.1c-1.6-0.8-3.6-1.8-5.9-0.1c-0.3,0.3-0.9,0.5-1.4,0.4c-0.5-0.2-0.9-0.6-1.1-1.3c-0.3-1-0.9-2.2-3-2.9
		c-0.1,0-0.2-0.1-0.2-0.2c-0.1-0.1-0.1-0.3,0-0.5c0.3-0.8,0.2-1.5-0.3-2.1c-0.5-0.6-1.5-1-2.8-1c-0.1-0.2-0.2-0.5-0.4-0.7l-0.9-0.8
		l-1,0.6c-0.3,0.2-0.6,0.1-0.9-0.1c-0.5-0.3-0.8-0.9-0.8-1.4c0-0.3,0-0.5,0.1-0.6c0.4-0.1,1.2-0.2,2.1-0.3l0.9-0.1l0.2-0.1
		c1.3-0.6,2.4-0.8,2.8-0.5c0.2,0.1,0.8,0.7,0.7,3.1l0,1.3l1.3,0.2c1.7,0.3,2.9-0.1,3.7-1c0.8-0.9,1-2.3,0.4-4.1
		c-0.1-0.3,0-0.6,0.2-0.8c4.1-5.3,7.5-7.8,14.1-10c11.4,7.4,19,20.2,19,34.8C92.9,68.5,74.3,87.1,51.5,87.1L51.5,87.1z M51.5,87.1"
		/>
</g>
</svg>
