<?xml version="1.0" encoding="utf-8"?>
<!-- Generator: Adobe Illustrator 19.0.0, SVG Export Plug-In . SVG Version: 6.00 Build 0)  -->
<svg version="1.1" id="Layer_1" xmlns="http://www.w3.org/2000/svg" xmlns:xlink="http://www.w3.org/1999/xlink" x="0px" y="0px"
	 width="283px" height="282.7px" viewBox="-334 560.4 283 282.7" style="enable-background:new -334 560.4 283 282.7;"
	 xml:space="preserve">
<style type="text/css">
	.st0{clip-path:url(#SVGID_2_);}
</style>
<g>
	<defs>
		<polygon id="SVGID_1_" points="-325.4,662.7 -325.4,642.4 -315.9,642.4 -315.9,629.7 -296,629.7 -296,590 -286.2,590 
			-286.2,583.4 -266.7,583.4 -266.7,569.7 -237.1,569.7 -237.1,563.9 -217.6,563.9 -217.6,583.4 -177.7,583.4 -177.7,569.9 
			-167.6,569.9 -167.6,576.5 -158,576.5 -158,597.1 -147.9,597.1 -147.9,603.1 -128.4,603.1 -128.4,609.5 -118.6,609.5 
			-118.6,616.8 -89.3,616.8 -89.3,622.5 -79.1,622.5 -79.1,630.2 -69.2,630.2 -69.2,636 -59.8,636 -59.8,669.2 -69.1,669.2 
			-69.1,683.2 -79.2,683.2 -79.2,730.7 -88.8,730.7 -88.8,744.6 -98.5,744.6 -98.5,766.1 -128,766.1 -128,773.3 -137.9,773.3 
			-137.9,781 -147.9,781 -147.9,810.3 -157.6,810.3 -157.6,826.1 -167.7,826.1 -167.7,833.2 -177.2,833.2 -177.2,841.7 
			-187.2,841.7 -187.2,825.9 -207.6,825.9 -207.6,817.6 -217.4,817.6 -217.4,802.6 -207.5,802.6 -207.5,795.5 -197.4,795.5 
			-197.4,787.2 -187.5,787.2 -187.5,780.4 -197.3,780.4 -197.3,765.7 -207.5,765.7 -207.5,758.7 -217.6,758.7 -217.6,716.5 
			-227.4,716.5 -227.4,709.2 -237,709.2 -237,696.3 -247.2,696.3 -247.2,689.1 -266.3,689.1 -266.3,676.2 -276.2,676.2 
			-276.2,682.8 -296.1,682.8 -296.1,676.2 -315.5,676.2 -315.5,662.7 		"/>
	</defs>
	<clipPath id="SVGID_2_">
		<use xlink:href="#SVGID_1_"  style="overflow:visible;"/>
	</clipPath>
	<g id="cCC5eq_1_" class="st0">
		
			<image style="overflow:visible;" width="1026" height="990" id="cCC5eq_2_" xlink:href="42ABAF1C76BB4357.png"  transform="matrix(0.2891 0 0 0.2891 -339.3954 556.8967)">
		</image>
	</g>
</g>
</svg>
