<?xml version="1.0" encoding="utf-8"?>
<!-- Generator: Adobe Illustrator 19.0.0, SVG Export Plug-In . SVG Version: 6.00 Build 0)  -->
<svg version="1.1" id="Layer_1" xmlns="http://www.w3.org/2000/svg" xmlns:xlink="http://www.w3.org/1999/xlink" x="0px" y="0px"
	 width="394px" height="230.9px" viewBox="-334 569.1 394 230.9" style="enable-background:new -334 569.1 394 230.9;"
	 xml:space="preserve">
<style type="text/css">
	.st0{fill:#999999;}
	.st1{fill:#DCDB77;}
	.st2{fill:#F7963F;}
	.st3{fill:#77B893;}
</style>
<g>
	<rect x="-322.1" y="579.7" class="st0" width="1.9" height="222.3"/>
</g>
<g>
	<rect x="-328" y="798.8" class="st0" width="379.5" height="1.9"/>
</g>
<g>
	<g>
		<rect x="-321.8" y="782.9" class="st0" width="2.5" height="0.6"/>
	</g>
	<g>
		<path class="st0" d="M45.2,783.5h-5.1v-0.6h5.1V783.5z M35.1,783.5H30v-0.6h5.1V783.5z M25,783.5h-5.1v-0.6H25V783.5z M14.8,783.5
			H9.8v-0.6h5.1V783.5z M4.7,783.5h-5.1v-0.6h5.1V783.5z M-5.4,783.5h-5.1v-0.6h5.1V783.5z M-15.5,783.5h-5.1v-0.6h5.1V783.5z
			 M-25.7,783.5h-5.1v-0.6h5.1V783.5z M-35.8,783.5h-5.1v-0.6h5.1V783.5z M-45.9,783.5H-51v-0.6h5.1V783.5z M-56,783.5h-5.1v-0.6
			h5.1V783.5z M-66.2,783.5h-5.1v-0.6h5.1V783.5z M-76.3,783.5h-5.1v-0.6h5.1V783.5z M-86.4,783.5h-5.1v-0.6h5.1V783.5z
			 M-96.5,783.5h-5.1v-0.6h5.1V783.5z M-106.7,783.5h-5.1v-0.6h5.1V783.5z M-116.8,783.5h-5.1v-0.6h5.1V783.5z M-126.9,783.5h-5.1
			v-0.6h5.1V783.5z M-137,783.5h-5.1v-0.6h5.1V783.5z M-147.1,783.5h-5.1v-0.6h5.1V783.5z M-157.3,783.5h-5.1v-0.6h5.1V783.5z
			 M-167.4,783.5h-5.1v-0.6h5.1V783.5z M-177.5,783.5h-5.1v-0.6h5.1V783.5z M-187.6,783.5h-5.1v-0.6h5.1V783.5z M-197.8,783.5h-5.1
			v-0.6h5.1V783.5z M-207.9,783.5h-5.1v-0.6h5.1V783.5z M-218,783.5h-5.1v-0.6h5.1V783.5z M-228.1,783.5h-5.1v-0.6h5.1V783.5z
			 M-238.3,783.5h-5.1v-0.6h5.1V783.5z M-248.4,783.5h-5.1v-0.6h5.1V783.5z M-258.5,783.5h-5.1v-0.6h5.1V783.5z M-268.6,783.5h-5.1
			v-0.6h5.1V783.5z M-278.8,783.5h-5.1v-0.6h5.1V783.5z M-288.9,783.5h-5.1v-0.6h5.1V783.5z M-299,783.5h-5.1v-0.6h5.1V783.5z
			 M-309.1,783.5h-5.1v-0.6h5.1V783.5z"/>
	</g>
	<g>
		<rect x="50.3" y="782.9" class="st0" width="2.5" height="0.6"/>
	</g>
</g>
<g>
	<g>
		<rect x="-321.8" y="762.5" class="st0" width="2.5" height="0.6"/>
	</g>
	<g>
		<path class="st0" d="M45.2,763.1h-5.1v-0.6h5.1V763.1z M35.1,763.1H30v-0.6h5.1V763.1z M25,763.1h-5.1v-0.6H25V763.1z M14.8,763.1
			H9.8v-0.6h5.1V763.1z M4.7,763.1h-5.1v-0.6h5.1V763.1z M-5.4,763.1h-5.1v-0.6h5.1V763.1z M-15.5,763.1h-5.1v-0.6h5.1V763.1z
			 M-25.7,763.1h-5.1v-0.6h5.1V763.1z M-35.8,763.1h-5.1v-0.6h5.1V763.1z M-45.9,763.1H-51v-0.6h5.1V763.1z M-56,763.1h-5.1v-0.6
			h5.1V763.1z M-66.2,763.1h-5.1v-0.6h5.1V763.1z M-76.3,763.1h-5.1v-0.6h5.1V763.1z M-86.4,763.1h-5.1v-0.6h5.1V763.1z
			 M-96.5,763.1h-5.1v-0.6h5.1V763.1z M-106.7,763.1h-5.1v-0.6h5.1V763.1z M-116.8,763.1h-5.1v-0.6h5.1V763.1z M-126.9,763.1h-5.1
			v-0.6h5.1V763.1z M-137,763.1h-5.1v-0.6h5.1V763.1z M-147.1,763.1h-5.1v-0.6h5.1V763.1z M-157.3,763.1h-5.1v-0.6h5.1V763.1z
			 M-167.4,763.1h-5.1v-0.6h5.1V763.1z M-177.5,763.1h-5.1v-0.6h5.1V763.1z M-187.6,763.1h-5.1v-0.6h5.1V763.1z M-197.8,763.1h-5.1
			v-0.6h5.1V763.1z M-207.9,763.1h-5.1v-0.6h5.1V763.1z M-218,763.1h-5.1v-0.6h5.1V763.1z M-228.1,763.1h-5.1v-0.6h5.1V763.1z
			 M-238.3,763.1h-5.1v-0.6h5.1V763.1z M-248.4,763.1h-5.1v-0.6h5.1V763.1z M-258.5,763.1h-5.1v-0.6h5.1V763.1z M-268.6,763.1h-5.1
			v-0.6h5.1V763.1z M-278.8,763.1h-5.1v-0.6h5.1V763.1z M-288.9,763.1h-5.1v-0.6h5.1V763.1z M-299,763.1h-5.1v-0.6h5.1V763.1z
			 M-309.1,763.1h-5.1v-0.6h5.1V763.1z"/>
	</g>
	<g>
		<rect x="50.3" y="762.5" class="st0" width="2.5" height="0.6"/>
	</g>
</g>
<g>
	<g>
		<rect x="-321.8" y="742.1" class="st0" width="2.5" height="0.6"/>
	</g>
	<g>
		<path class="st0" d="M45.2,742.7h-5.1v-0.6h5.1V742.7z M35.1,742.7H30v-0.6h5.1V742.7z M25,742.7h-5.1v-0.6H25V742.7z M14.8,742.7
			H9.8v-0.6h5.1V742.7z M4.7,742.7h-5.1v-0.6h5.1V742.7z M-5.4,742.7h-5.1v-0.6h5.1V742.7z M-15.5,742.7h-5.1v-0.6h5.1V742.7z
			 M-25.7,742.7h-5.1v-0.6h5.1V742.7z M-35.8,742.7h-5.1v-0.6h5.1V742.7z M-45.9,742.7H-51v-0.6h5.1V742.7z M-56,742.7h-5.1v-0.6
			h5.1V742.7z M-66.2,742.7h-5.1v-0.6h5.1V742.7z M-76.3,742.7h-5.1v-0.6h5.1V742.7z M-86.4,742.7h-5.1v-0.6h5.1V742.7z
			 M-96.5,742.7h-5.1v-0.6h5.1V742.7z M-106.7,742.7h-5.1v-0.6h5.1V742.7z M-116.8,742.7h-5.1v-0.6h5.1V742.7z M-126.9,742.7h-5.1
			v-0.6h5.1V742.7z M-137,742.7h-5.1v-0.6h5.1V742.7z M-147.1,742.7h-5.1v-0.6h5.1V742.7z M-157.3,742.7h-5.1v-0.6h5.1V742.7z
			 M-167.4,742.7h-5.1v-0.6h5.1V742.7z M-177.5,742.7h-5.1v-0.6h5.1V742.7z M-187.6,742.7h-5.1v-0.6h5.1V742.7z M-197.8,742.7h-5.1
			v-0.6h5.1V742.7z M-207.9,742.7h-5.1v-0.6h5.1V742.7z M-218,742.7h-5.1v-0.6h5.1V742.7z M-228.1,742.7h-5.1v-0.6h5.1V742.7z
			 M-238.3,742.7h-5.1v-0.6h5.1V742.7z M-248.4,742.7h-5.1v-0.6h5.1V742.7z M-258.5,742.7h-5.1v-0.6h5.1V742.7z M-268.6,742.7h-5.1
			v-0.6h5.1V742.7z M-278.8,742.7h-5.1v-0.6h5.1V742.7z M-288.9,742.7h-5.1v-0.6h5.1V742.7z M-299,742.7h-5.1v-0.6h5.1V742.7z
			 M-309.1,742.7h-5.1v-0.6h5.1V742.7z"/>
	</g>
	<g>
		<rect x="50.3" y="742.1" class="st0" width="2.5" height="0.6"/>
	</g>
</g>
<g>
	<g>
		<rect x="-321.8" y="721.7" class="st0" width="2.5" height="0.6"/>
	</g>
	<g>
		<path class="st0" d="M45.2,722.3h-5.1v-0.6h5.1V722.3z M35.1,722.3H30v-0.6h5.1V722.3z M25,722.3h-5.1v-0.6H25V722.3z M14.8,722.3
			H9.8v-0.6h5.1V722.3z M4.7,722.3h-5.1v-0.6h5.1V722.3z M-5.4,722.3h-5.1v-0.6h5.1V722.3z M-15.5,722.3h-5.1v-0.6h5.1V722.3z
			 M-25.7,722.3h-5.1v-0.6h5.1V722.3z M-35.8,722.3h-5.1v-0.6h5.1V722.3z M-45.9,722.3H-51v-0.6h5.1V722.3z M-56,722.3h-5.1v-0.6
			h5.1V722.3z M-66.2,722.3h-5.1v-0.6h5.1V722.3z M-76.3,722.3h-5.1v-0.6h5.1V722.3z M-86.4,722.3h-5.1v-0.6h5.1V722.3z
			 M-96.5,722.3h-5.1v-0.6h5.1V722.3z M-106.7,722.3h-5.1v-0.6h5.1V722.3z M-116.8,722.3h-5.1v-0.6h5.1V722.3z M-126.9,722.3h-5.1
			v-0.6h5.1V722.3z M-137,722.3h-5.1v-0.6h5.1V722.3z M-147.1,722.3h-5.1v-0.6h5.1V722.3z M-157.3,722.3h-5.1v-0.6h5.1V722.3z
			 M-167.4,722.3h-5.1v-0.6h5.1V722.3z M-177.5,722.3h-5.1v-0.6h5.1V722.3z M-187.6,722.3h-5.1v-0.6h5.1V722.3z M-197.8,722.3h-5.1
			v-0.6h5.1V722.3z M-207.9,722.3h-5.1v-0.6h5.1V722.3z M-218,722.3h-5.1v-0.6h5.1V722.3z M-228.1,722.3h-5.1v-0.6h5.1V722.3z
			 M-238.3,722.3h-5.1v-0.6h5.1V722.3z M-248.4,722.3h-5.1v-0.6h5.1V722.3z M-258.5,722.3h-5.1v-0.6h5.1V722.3z M-268.6,722.3h-5.1
			v-0.6h5.1V722.3z M-278.8,722.3h-5.1v-0.6h5.1V722.3z M-288.9,722.3h-5.1v-0.6h5.1V722.3z M-299,722.3h-5.1v-0.6h5.1V722.3z
			 M-309.1,722.3h-5.1v-0.6h5.1V722.3z"/>
	</g>
	<g>
		<rect x="50.3" y="721.7" class="st0" width="2.5" height="0.6"/>
	</g>
</g>
<g>
	<g>
		<rect x="-321.8" y="701.3" class="st0" width="2.5" height="0.6"/>
	</g>
	<g>
		<path class="st0" d="M45.2,701.9h-5.1v-0.6h5.1V701.9z M35.1,701.9H30v-0.6h5.1V701.9z M25,701.9h-5.1v-0.6H25V701.9z M14.8,701.9
			H9.8v-0.6h5.1V701.9z M4.7,701.9h-5.1v-0.6h5.1V701.9z M-5.4,701.9h-5.1v-0.6h5.1V701.9z M-15.5,701.9h-5.1v-0.6h5.1V701.9z
			 M-25.7,701.9h-5.1v-0.6h5.1V701.9z M-35.8,701.9h-5.1v-0.6h5.1V701.9z M-45.9,701.9H-51v-0.6h5.1V701.9z M-56,701.9h-5.1v-0.6
			h5.1V701.9z M-66.2,701.9h-5.1v-0.6h5.1V701.9z M-76.3,701.9h-5.1v-0.6h5.1V701.9z M-86.4,701.9h-5.1v-0.6h5.1V701.9z
			 M-96.5,701.9h-5.1v-0.6h5.1V701.9z M-106.7,701.9h-5.1v-0.6h5.1V701.9z M-116.8,701.9h-5.1v-0.6h5.1V701.9z M-126.9,701.9h-5.1
			v-0.6h5.1V701.9z M-137,701.9h-5.1v-0.6h5.1V701.9z M-147.1,701.9h-5.1v-0.6h5.1V701.9z M-157.3,701.9h-5.1v-0.6h5.1V701.9z
			 M-167.4,701.9h-5.1v-0.6h5.1V701.9z M-177.5,701.9h-5.1v-0.6h5.1V701.9z M-187.6,701.9h-5.1v-0.6h5.1V701.9z M-197.8,701.9h-5.1
			v-0.6h5.1V701.9z M-207.9,701.9h-5.1v-0.6h5.1V701.9z M-218,701.9h-5.1v-0.6h5.1V701.9z M-228.1,701.9h-5.1v-0.6h5.1V701.9z
			 M-238.3,701.9h-5.1v-0.6h5.1V701.9z M-248.4,701.9h-5.1v-0.6h5.1V701.9z M-258.5,701.9h-5.1v-0.6h5.1V701.9z M-268.6,701.9h-5.1
			v-0.6h5.1V701.9z M-278.8,701.9h-5.1v-0.6h5.1V701.9z M-288.9,701.9h-5.1v-0.6h5.1V701.9z M-299,701.9h-5.1v-0.6h5.1V701.9z
			 M-309.1,701.9h-5.1v-0.6h5.1V701.9z"/>
	</g>
	<g>
		<rect x="50.3" y="701.3" class="st0" width="2.5" height="0.6"/>
	</g>
</g>
<g>
	<g>
		<rect x="-321.8" y="680.9" class="st0" width="2.5" height="0.6"/>
	</g>
	<g>
		<path class="st0" d="M45.2,681.5h-5.1v-0.6h5.1V681.5z M35.1,681.5H30v-0.6h5.1V681.5z M25,681.5h-5.1v-0.6H25V681.5z M14.8,681.5
			H9.8v-0.6h5.1V681.5z M4.7,681.5h-5.1v-0.6h5.1V681.5z M-5.4,681.5h-5.1v-0.6h5.1V681.5z M-15.5,681.5h-5.1v-0.6h5.1V681.5z
			 M-25.7,681.5h-5.1v-0.6h5.1V681.5z M-35.8,681.5h-5.1v-0.6h5.1V681.5z M-45.9,681.5H-51v-0.6h5.1V681.5z M-56,681.5h-5.1v-0.6
			h5.1V681.5z M-66.2,681.5h-5.1v-0.6h5.1V681.5z M-76.3,681.5h-5.1v-0.6h5.1V681.5z M-86.4,681.5h-5.1v-0.6h5.1V681.5z
			 M-96.5,681.5h-5.1v-0.6h5.1V681.5z M-106.7,681.5h-5.1v-0.6h5.1V681.5z M-116.8,681.5h-5.1v-0.6h5.1V681.5z M-126.9,681.5h-5.1
			v-0.6h5.1V681.5z M-137,681.5h-5.1v-0.6h5.1V681.5z M-147.1,681.5h-5.1v-0.6h5.1V681.5z M-157.3,681.5h-5.1v-0.6h5.1V681.5z
			 M-167.4,681.5h-5.1v-0.6h5.1V681.5z M-177.5,681.5h-5.1v-0.6h5.1V681.5z M-187.6,681.5h-5.1v-0.6h5.1V681.5z M-197.8,681.5h-5.1
			v-0.6h5.1V681.5z M-207.9,681.5h-5.1v-0.6h5.1V681.5z M-218,681.5h-5.1v-0.6h5.1V681.5z M-228.1,681.5h-5.1v-0.6h5.1V681.5z
			 M-238.3,681.5h-5.1v-0.6h5.1V681.5z M-248.4,681.5h-5.1v-0.6h5.1V681.5z M-258.5,681.5h-5.1v-0.6h5.1V681.5z M-268.6,681.5h-5.1
			v-0.6h5.1V681.5z M-278.8,681.5h-5.1v-0.6h5.1V681.5z M-288.9,681.5h-5.1v-0.6h5.1V681.5z M-299,681.5h-5.1v-0.6h5.1V681.5z
			 M-309.1,681.5h-5.1v-0.6h5.1V681.5z"/>
	</g>
	<g>
		<rect x="50.3" y="680.9" class="st0" width="2.5" height="0.6"/>
	</g>
</g>
<g>
	<g>
		<rect x="-321.8" y="660.5" class="st0" width="2.5" height="0.6"/>
	</g>
	<g>
		<path class="st0" d="M45.2,661.1h-5.1v-0.6h5.1V661.1z M35.1,661.1H30v-0.6h5.1V661.1z M25,661.1h-5.1v-0.6H25V661.1z M14.8,661.1
			H9.8v-0.6h5.1V661.1z M4.7,661.1h-5.1v-0.6h5.1V661.1z M-5.4,661.1h-5.1v-0.6h5.1V661.1z M-15.5,661.1h-5.1v-0.6h5.1V661.1z
			 M-25.7,661.1h-5.1v-0.6h5.1V661.1z M-35.8,661.1h-5.1v-0.6h5.1V661.1z M-45.9,661.1H-51v-0.6h5.1V661.1z M-56,661.1h-5.1v-0.6
			h5.1V661.1z M-66.2,661.1h-5.1v-0.6h5.1V661.1z M-76.3,661.1h-5.1v-0.6h5.1V661.1z M-86.4,661.1h-5.1v-0.6h5.1V661.1z
			 M-96.5,661.1h-5.1v-0.6h5.1V661.1z M-106.7,661.1h-5.1v-0.6h5.1V661.1z M-116.8,661.1h-5.1v-0.6h5.1V661.1z M-126.9,661.1h-5.1
			v-0.6h5.1V661.1z M-137,661.1h-5.1v-0.6h5.1V661.1z M-147.1,661.1h-5.1v-0.6h5.1V661.1z M-157.3,661.1h-5.1v-0.6h5.1V661.1z
			 M-167.4,661.1h-5.1v-0.6h5.1V661.1z M-177.5,661.1h-5.1v-0.6h5.1V661.1z M-187.6,661.1h-5.1v-0.6h5.1V661.1z M-197.8,661.1h-5.1
			v-0.6h5.1V661.1z M-207.9,661.1h-5.1v-0.6h5.1V661.1z M-218,661.1h-5.1v-0.6h5.1V661.1z M-228.1,661.1h-5.1v-0.6h5.1V661.1z
			 M-238.3,661.1h-5.1v-0.6h5.1V661.1z M-248.4,661.1h-5.1v-0.6h5.1V661.1z M-258.5,661.1h-5.1v-0.6h5.1V661.1z M-268.6,661.1h-5.1
			v-0.6h5.1V661.1z M-278.8,661.1h-5.1v-0.6h5.1V661.1z M-288.9,661.1h-5.1v-0.6h5.1V661.1z M-299,661.1h-5.1v-0.6h5.1V661.1z
			 M-309.1,661.1h-5.1v-0.6h5.1V661.1z"/>
	</g>
	<g>
		<rect x="50.3" y="660.5" class="st0" width="2.5" height="0.6"/>
	</g>
</g>
<g>
	<g>
		<rect x="-321.8" y="640.1" class="st0" width="2.5" height="0.6"/>
	</g>
	<g>
		<path class="st0" d="M45.2,640.7h-5.1v-0.6h5.1V640.7z M35.1,640.7H30v-0.6h5.1V640.7z M25,640.7h-5.1v-0.6H25V640.7z M14.8,640.7
			H9.8v-0.6h5.1V640.7z M4.7,640.7h-5.1v-0.6h5.1V640.7z M-5.4,640.7h-5.1v-0.6h5.1V640.7z M-15.5,640.7h-5.1v-0.6h5.1V640.7z
			 M-25.7,640.7h-5.1v-0.6h5.1V640.7z M-35.8,640.7h-5.1v-0.6h5.1V640.7z M-45.9,640.7H-51v-0.6h5.1V640.7z M-56,640.7h-5.1v-0.6
			h5.1V640.7z M-66.2,640.7h-5.1v-0.6h5.1V640.7z M-76.3,640.7h-5.1v-0.6h5.1V640.7z M-86.4,640.7h-5.1v-0.6h5.1V640.7z
			 M-96.5,640.7h-5.1v-0.6h5.1V640.7z M-106.7,640.7h-5.1v-0.6h5.1V640.7z M-116.8,640.7h-5.1v-0.6h5.1V640.7z M-126.9,640.7h-5.1
			v-0.6h5.1V640.7z M-137,640.7h-5.1v-0.6h5.1V640.7z M-147.1,640.7h-5.1v-0.6h5.1V640.7z M-157.3,640.7h-5.1v-0.6h5.1V640.7z
			 M-167.4,640.7h-5.1v-0.6h5.1V640.7z M-177.5,640.7h-5.1v-0.6h5.1V640.7z M-187.6,640.7h-5.1v-0.6h5.1V640.7z M-197.8,640.7h-5.1
			v-0.6h5.1V640.7z M-207.9,640.7h-5.1v-0.6h5.1V640.7z M-218,640.7h-5.1v-0.6h5.1V640.7z M-228.1,640.7h-5.1v-0.6h5.1V640.7z
			 M-238.3,640.7h-5.1v-0.6h5.1V640.7z M-248.4,640.7h-5.1v-0.6h5.1V640.7z M-258.5,640.7h-5.1v-0.6h5.1V640.7z M-268.6,640.7h-5.1
			v-0.6h5.1V640.7z M-278.8,640.7h-5.1v-0.6h5.1V640.7z M-288.9,640.7h-5.1v-0.6h5.1V640.7z M-299,640.7h-5.1v-0.6h5.1V640.7z
			 M-309.1,640.7h-5.1v-0.6h5.1V640.7z"/>
	</g>
	<g>
		<rect x="50.3" y="640.1" class="st0" width="2.5" height="0.6"/>
	</g>
</g>
<g>
	<g>
		<rect x="-321.8" y="619.7" class="st0" width="2.5" height="0.6"/>
	</g>
	<g>
		<path class="st0" d="M45.2,620.3h-5.1v-0.6h5.1V620.3z M35.1,620.3H30v-0.6h5.1V620.3z M25,620.3h-5.1v-0.6H25V620.3z M14.8,620.3
			H9.8v-0.6h5.1V620.3z M4.7,620.3h-5.1v-0.6h5.1V620.3z M-5.4,620.3h-5.1v-0.6h5.1V620.3z M-15.5,620.3h-5.1v-0.6h5.1V620.3z
			 M-25.7,620.3h-5.1v-0.6h5.1V620.3z M-35.8,620.3h-5.1v-0.6h5.1V620.3z M-45.9,620.3H-51v-0.6h5.1V620.3z M-56,620.3h-5.1v-0.6
			h5.1V620.3z M-66.2,620.3h-5.1v-0.6h5.1V620.3z M-76.3,620.3h-5.1v-0.6h5.1V620.3z M-86.4,620.3h-5.1v-0.6h5.1V620.3z
			 M-96.5,620.3h-5.1v-0.6h5.1V620.3z M-106.7,620.3h-5.1v-0.6h5.1V620.3z M-116.8,620.3h-5.1v-0.6h5.1V620.3z M-126.9,620.3h-5.1
			v-0.6h5.1V620.3z M-137,620.3h-5.1v-0.6h5.1V620.3z M-147.1,620.3h-5.1v-0.6h5.1V620.3z M-157.3,620.3h-5.1v-0.6h5.1V620.3z
			 M-167.4,620.3h-5.1v-0.6h5.1V620.3z M-177.5,620.3h-5.1v-0.6h5.1V620.3z M-187.6,620.3h-5.1v-0.6h5.1V620.3z M-197.8,620.3h-5.1
			v-0.6h5.1V620.3z M-207.9,620.3h-5.1v-0.6h5.1V620.3z M-218,620.3h-5.1v-0.6h5.1V620.3z M-228.1,620.3h-5.1v-0.6h5.1V620.3z
			 M-238.3,620.3h-5.1v-0.6h5.1V620.3z M-248.4,620.3h-5.1v-0.6h5.1V620.3z M-258.5,620.3h-5.1v-0.6h5.1V620.3z M-268.6,620.3h-5.1
			v-0.6h5.1V620.3z M-278.8,620.3h-5.1v-0.6h5.1V620.3z M-288.9,620.3h-5.1v-0.6h5.1V620.3z M-299,620.3h-5.1v-0.6h5.1V620.3z
			 M-309.1,620.3h-5.1v-0.6h5.1V620.3z"/>
	</g>
	<g>
		<rect x="50.3" y="619.7" class="st0" width="2.5" height="0.6"/>
	</g>
</g>
<g>
	<g>
		<rect x="-280.4" y="799.5" class="st0" width="0.5" height="1.9"/>
	</g>
	<g>
		<path class="st0" d="M-280,795.6h-0.5v-3.9h0.5V795.6z M-280,787.7h-0.5v-3.9h0.5V787.7z M-280,779.9h-0.5V776h0.5V779.9z
			 M-280,772h-0.5v-3.9h0.5V772z M-280,764.2h-0.5v-3.9h0.5V764.2z M-280,756.3h-0.5v-3.9h0.5V756.3z M-280,748.5h-0.5v-3.9h0.5
			V748.5z M-280,740.6h-0.5v-3.9h0.5V740.6z M-280,732.8h-0.5v-3.9h0.5V732.8z M-280,724.9h-0.5V721h0.5V724.9z M-280,717.1h-0.5
			v-3.9h0.5V717.1z M-280,709.2h-0.5v-3.9h0.5V709.2z M-280,701.3h-0.5v-3.9h0.5V701.3z M-280,693.5h-0.5v-3.9h0.5V693.5z
			 M-280,685.6h-0.5v-3.9h0.5V685.6z M-280,677.8h-0.5v-3.9h0.5V677.8z M-280,669.9h-0.5V666h0.5V669.9z M-280,662.1h-0.5v-3.9h0.5
			V662.1z M-280,654.2h-0.5v-3.9h0.5V654.2z M-280,646.4h-0.5v-3.9h0.5V646.4z M-280,638.5h-0.5v-3.9h0.5V638.5z M-280,630.7h-0.5
			v-3.9h0.5V630.7z M-280,622.8h-0.5v-3.9h0.5V622.8z M-280,614.9h-0.5V611h0.5V614.9z M-280,607.1h-0.5v-3.9h0.5V607.1z
			 M-280,599.2h-0.5v-3.9h0.5V599.2z M-280,591.4h-0.5v-3.9h0.5V591.4z"/>
	</g>
	<g>
		<rect x="-280.4" y="581.6" class="st0" width="0.5" height="1.9"/>
	</g>
</g>
<g>
	<g>
		<rect x="-208.9" y="799.5" class="st0" width="0.5" height="1.9"/>
	</g>
	<g>
		<path class="st0" d="M-208.4,795.6h-0.5v-3.9h0.5V795.6z M-208.4,787.7h-0.5v-3.9h0.5V787.7z M-208.4,779.9h-0.5V776h0.5V779.9z
			 M-208.4,772h-0.5v-3.9h0.5V772z M-208.4,764.2h-0.5v-3.9h0.5V764.2z M-208.4,756.3h-0.5v-3.9h0.5V756.3z M-208.4,748.5h-0.5v-3.9
			h0.5V748.5z M-208.4,740.6h-0.5v-3.9h0.5V740.6z M-208.4,732.8h-0.5v-3.9h0.5V732.8z M-208.4,724.9h-0.5V721h0.5V724.9z
			 M-208.4,717.1h-0.5v-3.9h0.5V717.1z M-208.4,709.2h-0.5v-3.9h0.5V709.2z M-208.4,701.3h-0.5v-3.9h0.5V701.3z M-208.4,693.5h-0.5
			v-3.9h0.5V693.5z M-208.4,685.6h-0.5v-3.9h0.5V685.6z M-208.4,677.8h-0.5v-3.9h0.5V677.8z M-208.4,669.9h-0.5V666h0.5V669.9z
			 M-208.4,662.1h-0.5v-3.9h0.5V662.1z M-208.4,654.2h-0.5v-3.9h0.5V654.2z M-208.4,646.4h-0.5v-3.9h0.5V646.4z M-208.4,638.5h-0.5
			v-3.9h0.5V638.5z M-208.4,630.7h-0.5v-3.9h0.5V630.7z M-208.4,622.8h-0.5v-3.9h0.5V622.8z M-208.4,614.9h-0.5V611h0.5V614.9z
			 M-208.4,607.1h-0.5v-3.9h0.5V607.1z M-208.4,599.2h-0.5v-3.9h0.5V599.2z M-208.4,591.4h-0.5v-3.9h0.5V591.4z"/>
	</g>
	<g>
		<rect x="-208.9" y="581.6" class="st0" width="0.5" height="1.9"/>
	</g>
</g>
<g>
	<g>
		<rect x="-137.4" y="799.5" class="st0" width="0.5" height="1.9"/>
	</g>
	<g>
		<path class="st0" d="M-136.9,795.6h-0.5v-3.9h0.5V795.6z M-136.9,787.7h-0.5v-3.9h0.5V787.7z M-136.9,779.9h-0.5V776h0.5V779.9z
			 M-136.9,772h-0.5v-3.9h0.5V772z M-136.9,764.2h-0.5v-3.9h0.5V764.2z M-136.9,756.3h-0.5v-3.9h0.5V756.3z M-136.9,748.5h-0.5v-3.9
			h0.5V748.5z M-136.9,740.6h-0.5v-3.9h0.5V740.6z M-136.9,732.8h-0.5v-3.9h0.5V732.8z M-136.9,724.9h-0.5V721h0.5V724.9z
			 M-136.9,717.1h-0.5v-3.9h0.5V717.1z M-136.9,709.2h-0.5v-3.9h0.5V709.2z M-136.9,701.3h-0.5v-3.9h0.5V701.3z M-136.9,693.5h-0.5
			v-3.9h0.5V693.5z M-136.9,685.6h-0.5v-3.9h0.5V685.6z M-136.9,677.8h-0.5v-3.9h0.5V677.8z M-136.9,669.9h-0.5V666h0.5V669.9z
			 M-136.9,662.1h-0.5v-3.9h0.5V662.1z M-136.9,654.2h-0.5v-3.9h0.5V654.2z M-136.9,646.4h-0.5v-3.9h0.5V646.4z M-136.9,638.5h-0.5
			v-3.9h0.5V638.5z M-136.9,630.7h-0.5v-3.9h0.5V630.7z M-136.9,622.8h-0.5v-3.9h0.5V622.8z M-136.9,614.9h-0.5V611h0.5V614.9z
			 M-136.9,607.1h-0.5v-3.9h0.5V607.1z M-136.9,599.2h-0.5v-3.9h0.5V599.2z M-136.9,591.4h-0.5v-3.9h0.5V591.4z"/>
	</g>
	<g>
		<rect x="-137.4" y="581.6" class="st0" width="0.5" height="1.9"/>
	</g>
</g>
<g>
	<g>
		<rect x="-65.8" y="799.5" class="st0" width="0.5" height="1.9"/>
	</g>
	<g>
		<path class="st0" d="M-65.4,795.6h-0.5v-3.9h0.5V795.6z M-65.4,787.7h-0.5v-3.9h0.5V787.7z M-65.4,779.9h-0.5V776h0.5V779.9z
			 M-65.4,772h-0.5v-3.9h0.5V772z M-65.4,764.2h-0.5v-3.9h0.5V764.2z M-65.4,756.3h-0.5v-3.9h0.5V756.3z M-65.4,748.5h-0.5v-3.9h0.5
			V748.5z M-65.4,740.6h-0.5v-3.9h0.5V740.6z M-65.4,732.8h-0.5v-3.9h0.5V732.8z M-65.4,724.9h-0.5V721h0.5V724.9z M-65.4,717.1
			h-0.5v-3.9h0.5V717.1z M-65.4,709.2h-0.5v-3.9h0.5V709.2z M-65.4,701.3h-0.5v-3.9h0.5V701.3z M-65.4,693.5h-0.5v-3.9h0.5V693.5z
			 M-65.4,685.6h-0.5v-3.9h0.5V685.6z M-65.4,677.8h-0.5v-3.9h0.5V677.8z M-65.4,669.9h-0.5V666h0.5V669.9z M-65.4,662.1h-0.5v-3.9
			h0.5V662.1z M-65.4,654.2h-0.5v-3.9h0.5V654.2z M-65.4,646.4h-0.5v-3.9h0.5V646.4z M-65.4,638.5h-0.5v-3.9h0.5V638.5z
			 M-65.4,630.7h-0.5v-3.9h0.5V630.7z M-65.4,622.8h-0.5v-3.9h0.5V622.8z M-65.4,614.9h-0.5V611h0.5V614.9z M-65.4,607.1h-0.5v-3.9
			h0.5V607.1z M-65.4,599.2h-0.5v-3.9h0.5V599.2z M-65.4,591.4h-0.5v-3.9h0.5V591.4z"/>
	</g>
	<g>
		<rect x="-65.8" y="581.6" class="st0" width="0.5" height="1.9"/>
	</g>
</g>
<g>
	<g>
		<rect x="5.7" y="799.5" class="st0" width="0.5" height="1.9"/>
	</g>
	<g>
		<path class="st0" d="M6.2,795.6H5.7v-3.9h0.5V795.6z M6.2,787.7H5.7v-3.9h0.5V787.7z M6.2,779.9H5.7V776h0.5V779.9z M6.2,772H5.7
			v-3.9h0.5V772z M6.2,764.2H5.7v-3.9h0.5V764.2z M6.2,756.3H5.7v-3.9h0.5V756.3z M6.2,748.5H5.7v-3.9h0.5V748.5z M6.2,740.6H5.7
			v-3.9h0.5V740.6z M6.2,732.8H5.7v-3.9h0.5V732.8z M6.2,724.9H5.7V721h0.5V724.9z M6.2,717.1H5.7v-3.9h0.5V717.1z M6.2,709.2H5.7
			v-3.9h0.5V709.2z M6.2,701.3H5.7v-3.9h0.5V701.3z M6.2,693.5H5.7v-3.9h0.5V693.5z M6.2,685.6H5.7v-3.9h0.5V685.6z M6.2,677.8H5.7
			v-3.9h0.5V677.8z M6.2,669.9H5.7V666h0.5V669.9z M6.2,662.1H5.7v-3.9h0.5V662.1z M6.2,654.2H5.7v-3.9h0.5V654.2z M6.2,646.4H5.7
			v-3.9h0.5V646.4z M6.2,638.5H5.7v-3.9h0.5V638.5z M6.2,630.7H5.7v-3.9h0.5V630.7z M6.2,622.8H5.7v-3.9h0.5V622.8z M6.2,614.9H5.7
			V611h0.5V614.9z M6.2,607.1H5.7v-3.9h0.5V607.1z M6.2,599.2H5.7v-3.9h0.5V599.2z M6.2,591.4H5.7v-3.9h0.5V591.4z"/>
	</g>
	<g>
		<rect x="5.7" y="581.6" class="st0" width="0.5" height="1.9"/>
	</g>
</g>
<g>
	<g>
		<rect x="-321.8" y="599.3" class="st0" width="2.5" height="0.6"/>
	</g>
	<g>
		<path class="st0" d="M45.2,599.9h-5.1v-0.6h5.1V599.9z M35.1,599.9H30v-0.6h5.1V599.9z M25,599.9h-5.1v-0.6H25V599.9z M14.8,599.9
			H9.8v-0.6h5.1V599.9z M4.7,599.9h-5.1v-0.6h5.1V599.9z M-5.4,599.9h-5.1v-0.6h5.1V599.9z M-15.5,599.9h-5.1v-0.6h5.1V599.9z
			 M-25.7,599.9h-5.1v-0.6h5.1V599.9z M-35.8,599.9h-5.1v-0.6h5.1V599.9z M-45.9,599.9H-51v-0.6h5.1V599.9z M-56,599.9h-5.1v-0.6
			h5.1V599.9z M-66.2,599.9h-5.1v-0.6h5.1V599.9z M-76.3,599.9h-5.1v-0.6h5.1V599.9z M-86.4,599.9h-5.1v-0.6h5.1V599.9z
			 M-96.5,599.9h-5.1v-0.6h5.1V599.9z M-106.7,599.9h-5.1v-0.6h5.1V599.9z M-116.8,599.9h-5.1v-0.6h5.1V599.9z M-126.9,599.9h-5.1
			v-0.6h5.1V599.9z M-137,599.9h-5.1v-0.6h5.1V599.9z M-147.1,599.9h-5.1v-0.6h5.1V599.9z M-157.3,599.9h-5.1v-0.6h5.1V599.9z
			 M-167.4,599.9h-5.1v-0.6h5.1V599.9z M-177.5,599.9h-5.1v-0.6h5.1V599.9z M-187.6,599.9h-5.1v-0.6h5.1V599.9z M-197.8,599.9h-5.1
			v-0.6h5.1V599.9z M-207.9,599.9h-5.1v-0.6h5.1V599.9z M-218,599.9h-5.1v-0.6h5.1V599.9z M-228.1,599.9h-5.1v-0.6h5.1V599.9z
			 M-238.3,599.9h-5.1v-0.6h5.1V599.9z M-248.4,599.9h-5.1v-0.6h5.1V599.9z M-258.5,599.9h-5.1v-0.6h5.1V599.9z M-268.6,599.9h-5.1
			v-0.6h5.1V599.9z M-278.8,599.9h-5.1v-0.6h5.1V599.9z M-288.9,599.9h-5.1v-0.6h5.1V599.9z M-299,599.9h-5.1v-0.6h5.1V599.9z
			 M-309.1,599.9h-5.1v-0.6h5.1V599.9z"/>
	</g>
	<g>
		<rect x="50.3" y="599.3" class="st0" width="2.5" height="0.6"/>
	</g>
</g>
<g>
	<rect x="-311.3" y="752" class="st1" width="16.1" height="47.6"/>
</g>
<g>
	<rect x="-291.5" y="692.2" class="st2" width="16.1" height="107.3"/>
</g>
<g>
	<rect x="-271.7" y="717.2" class="st3" width="16.1" height="82.4"/>
</g>
<g>
	<rect x="-238.9" y="759.8" class="st1" width="16.1" height="39.7"/>
</g>
<g>
	<rect x="-219.2" y="724.7" class="st2" width="16.1" height="74.8"/>
</g>
<g>
	<rect x="-199.4" y="717.2" class="st3" width="16.1" height="82.4"/>
</g>
<g>
	<rect x="-165.4" y="779.7" class="st1" width="16.1" height="19.9"/>
</g>
<g>
	<rect x="-145.6" y="715.3" class="st2" width="16.1" height="84.2"/>
</g>
<g>
	<rect x="-125.8" y="761.5" class="st3" width="16.1" height="38.1"/>
</g>
<g>
	<rect x="-93.7" y="734.2" class="st1" width="16.1" height="65.3"/>
</g>
<g>
	<rect x="-73.9" y="582.6" class="st2" width="16.1" height="217"/>
</g>
<g>
	<rect x="-54.1" y="761.5" class="st3" width="16.1" height="38.1"/>
</g>
<g>
	<rect x="-20.1" y="778.6" class="st1" width="16.1" height="20.9"/>
</g>
<g>
	<rect x="-0.4" y="771.9" class="st2" width="16.1" height="27.6"/>
</g>
<g>
	<rect x="19.4" y="627" class="st3" width="15.8" height="172.5"/>
</g>
</svg>
