<?xml version="1.0" encoding="utf-8"?>
<!-- Generator: Adobe Illustrator 19.0.0, SVG Export Plug-In . SVG Version: 6.00 Build 0)  -->
<svg version="1.1" id="Layer_1" xmlns="http://www.w3.org/2000/svg" xmlns:xlink="http://www.w3.org/1999/xlink" x="0px" y="0px"
	 width="371.7px" height="74.7px" viewBox="79 94.3 371.7 74.7" style="enable-background:new 79 94.3 371.7 74.7;"
	 xml:space="preserve">
<style type="text/css">
	.st0{fill:#808283;}
	.st1{fill:#84CAA0;}
	.st2{fill:#77B893;}
	.st3{fill:#75C7E0;}
	.st4{fill:#62A5BB;}
	.st5{fill:#DCDB77;}
	.st6{fill:#C5C56C;}
	.st7{fill:#F7963F;}
	.st8{fill:#E18837;}
</style>
<g>
	<g>
		<g>
			<path class="st0" d="M236.6,118.4v28.8H235v-27.1l-11.1,14.6l-11.2-14.6v27.1h-1.6v-28.8h2.4l10.4,13.7l10.4-13.7L236.6,118.4
				L236.6,118.4z"/>
			<path class="st0" d="M253.7,118.4l10.4,28.8h-1.7l-4.6-12.7h-10l-4.7,12.7h-1.7l10.6-28.8H253.7L253.7,118.4z M257.1,132.9
				l-4.4-12.1l-4.4,12.1H257.1z"/>
			<path class="st0" d="M271.1,137.2v10h-1.6v-28.8h7.6c2.2,0.3,4.1,1.2,5.6,2.8c1.8,1.8,2.7,4.1,2.7,6.6c0,2.6-0.9,4.8-2.7,6.7
				c-1.8,1.8-4,2.8-6.6,2.8L271.1,137.2L271.1,137.2z M271.1,120v15.5h4.9c2.1,0,4-0.8,5.5-2.3s2.3-3.3,2.3-5.5c0-2.1-0.8-4-2.3-5.5
				s-3.3-2.3-5.5-2.3L271.1,120L271.1,120z"/>
			<path class="st1" d="M308.1,130.5c1.9,1.9,2.9,4.2,2.9,6.9c0,2.7-1,5-3,6.9c-1.6,1.6-3.6,2.6-6,2.9h-10.1v-29.3h9.3
				c1.9,0,3.5,0.6,4.8,1.9s1.9,2.8,1.9,4.5s-0.6,3.3-1.9,4.5C306.4,129,307.1,129.5,308.1,130.5z M295.5,121.1v6.4h5.9
				c0.8-0.1,1.4-0.3,1.9-0.8c0.6-0.6,0.9-1.4,0.9-2.3c0-1-0.3-1.7-0.9-2.4c-0.6-0.6-1.3-0.9-2.1-0.9L295.5,121.1L295.5,121.1z
				 M300.9,144c1.7,0,3.2-0.6,4.5-1.9s1.9-2.9,1.9-4.7c0-1.9-0.6-3.5-1.9-4.7c-1.3-1.3-2.8-1.9-4.5-1.9h-5.3v13.3L300.9,144
				L300.9,144z"/>
			<path class="st1" d="M321.1,117.9v29.3h-3.7v-29.3H321.1z"/>
			<path class="st1" d="M353.9,121.9c3,3,4.4,6.5,4.4,10.6s-1.5,7.7-4.4,10.6c-3,3-6.6,4.4-10.8,4.4c-4.3,0-7.9-1.5-10.8-4.4
				c-3-3-4.4-6.5-4.4-10.6s1.5-7.6,4.4-10.6c3-3,6.6-4.4,10.8-4.4S350.9,118.9,353.9,121.9z M343,120.7c-3.1,0-5.8,1.1-8.1,3.4
				c-2.3,2.3-3.4,5.1-3.4,8.4s1.1,6.1,3.4,8.4s5,3.4,8.1,3.4s5.8-1.1,8.1-3.4c2.3-2.3,3.4-5.1,3.4-8.4s-1.1-6.1-3.4-8.4
				C348.9,121.8,346.3,120.7,343,120.7z"/>
			<path class="st1" d="M391.1,117.9v29.3h-3.7v-23.8l-9.5,12.6l-9.7-12.6v23.8h-3.7v-29.3h3.9l9.4,12.3l9.4-12.3H391.1z"/>
			<path class="st1" d="M409.9,117.9l10.6,29.3h-3.8l-4.4-12.2h-8l-4.5,12.2H396l10.8-29.3C406.8,117.9,409.9,117.9,409.9,117.9z
				 M411.1,131.8l-2.8-7.8l-2.8,7.8H411.1z"/>
			<path class="st1" d="M435,131.8c-2.1-0.7-3.8-1.7-5.1-3c-1.3-1.3-1.9-2.8-1.9-4.6c0-1.8,0.7-3.3,2-4.7c1.3-1.3,3-2,4.9-2
				s3.6,0.7,5,2.1c0.7,0.7,1.3,1.7,1.7,3l-3.3,1.3c-0.4-1.1-0.8-1.8-1.1-2.1c-0.7-0.7-1.4-1-2.3-1c-0.8,0-1.6,0.3-2.3,1
				c-0.7,0.7-1,1.5-1,2.5s0.3,1.9,1,2.6s1.7,1.3,2.9,1.9c2.3,0.8,4.3,1.9,5.9,3.5c1.8,1.8,2.7,3.9,2.7,6.4c0,2.4-0.9,4.6-2.7,6.4
				c-1.8,1.8-4,2.7-6.6,2.7s-4.8-0.9-6.6-2.7c-1.4-1.4-2.3-3.2-2.6-5.4l3.5-1.3c0.2,2.1,0.8,3.7,1.8,4.7c1.1,1.1,2.4,1.6,3.9,1.6
				s2.8-0.6,3.9-1.7s1.7-2.5,1.7-4.2s-0.5-3-1.6-4.1C437.8,133.3,436.5,132.4,435,131.8z"/>
		</g>
	</g>
	<g>
		<polygon class="st1" points="116.3,130.9 104.4,119 116.3,107.1 		"/>
		<polygon class="st2" points="116.3,130.9 128.2,119 116.3,107.1 		"/>
		<polygon class="st3" points="117.1,106.3 129,94.3 140.9,106.3 		"/>
		<polygon class="st4" points="117.1,106.3 129,118.2 140.9,106.3 		"/>
		<polygon class="st3" points="103.6,118.2 91.7,106.3 103.6,94.3 		"/>
		<polygon class="st4" points="103.6,118.2 115.6,106.3 103.6,94.3 		"/>
		<polygon class="st5" points="141.7,156.3 129.8,144.4 141.7,132.5 		"/>
		<polygon class="st6" points="141.7,156.3 153.6,144.4 141.7,132.5 		"/>
		<polygon class="st1" points="129,143.6 117.1,131.7 129,119.8 		"/>
		<polygon class="st2" points="129,143.6 140.9,131.7 129,119.8 		"/>
		<polygon class="st1" points="154.4,118.2 142.5,106.3 154.4,94.3 		"/>
		<polygon class="st2" points="154.4,118.2 166.4,106.3 154.4,94.3 		"/>
		<polygon class="st5" points="129.8,119 141.7,107.1 153.6,119 		"/>
		<polygon class="st6" points="129.8,119 141.7,130.9 153.6,119 		"/>
		<polygon class="st3" points="91.7,131.6 103.6,119.7 115.6,131.6 		"/>
		<polygon class="st4" points="91.7,131.6 103.6,143.6 115.6,131.6 		"/>
		<polygon class="st3" points="104.4,144.4 116.4,132.4 128.3,144.4 		"/>
		<polygon class="st4" points="104.4,144.3 116.4,156.3 128.3,144.3 		"/>
		<polygon class="st1" points="117.1,157.1 129.1,145.1 141,157.1 		"/>
		<polygon class="st2" points="117.1,157.1 129.1,169 141,157.1 		"/>
		<polygon class="st1" points="154.4,169 142.5,157.1 154.4,145.1 		"/>
		<polygon class="st2" points="154.4,169 166.4,157.1 154.4,145.1 		"/>
		<polygon class="st3" points="90.9,156.3 79,144.3 90.9,132.4 		"/>
		<polygon class="st4" points="90.9,156.3 102.9,144.3 90.9,132.4 		"/>
		<polygon class="st3" points="79,119 90.9,107.1 102.9,119 		"/>
		<polygon class="st4" points="79,119 90.9,130.9 102.9,119 		"/>
		<polygon class="st3" points="103.7,169 91.7,157.1 103.7,145.1 		"/>
		<polygon class="st4" points="103.6,169 115.6,157.1 103.6,145.1 		"/>
		<polygon class="st7" points="142.5,131.7 154.4,119.8 166.4,131.7 		"/>
		<polygon class="st8" points="142.5,131.7 154.4,143.6 166.4,131.7 		"/>
		<polygon class="st5" points="155.2,144.4 167.1,132.5 179.1,144.4 		"/>
		<polygon class="st6" points="155.2,144.4 167.1,156.3 179.1,144.4 		"/>
		<polygon class="st5" points="167.1,130.9 155.2,119 167.1,107.1 		"/>
		<polygon class="st6" points="167.1,130.9 179.1,119 167.1,107.1 		"/>
	</g>
</g>
</svg>

