<?xml version="1.0" encoding="utf-8"?>
<!-- Generator: Adobe Illustrator 19.0.0, SVG Export Plug-In . SVG Version: 6.00 Build 0)  -->
<svg version="1.1" id="Layer_1" xmlns="http://www.w3.org/2000/svg" xmlns:xlink="http://www.w3.org/1999/xlink" x="0px" y="0px"
	 viewBox="-60.1 359.2 422 74.7" style="enable-background:new -60.1 359.2 422 74.7;" xml:space="preserve">
<style type="text/css">
	.st0{fill:#808283;}
	.st1{fill:#84CAA0;}
	.st2{fill:#77B893;}
	.st3{fill:#75C7E0;}
	.st4{fill:#62A5BB;}
	.st5{fill:#DCDB77;}
	.st6{fill:#C5C56C;}
	.st7{fill:#F7963F;}
	.st8{fill:#E18837;}
</style>
<g>
	<g>
		<g>
			<path class="st0" d="M97.5,383.3v28.8h-1.6V385l-11.1,14.6L73.6,385v27.1h-1.6v-28.8h2.4l10.4,13.7l10.4-13.7H97.5z"/>
			<path class="st0" d="M114.6,383.3l10.4,28.8h-1.7l-4.6-12.7h-10l-4.7,12.7h-1.7l10.6-28.8L114.6,383.3L114.6,383.3z M118.1,397.8
				l-4.4-12.1l-4.4,12.1H118.1z"/>
			<path class="st0" d="M132,402.1v10h-1.6v-28.8h7.6c2.2,0.3,4.1,1.2,5.6,2.8c1.8,1.8,2.7,4.1,2.7,6.6c0,2.6-0.9,4.8-2.7,6.7
				c-1.8,1.8-4,2.8-6.6,2.8L132,402.1L132,402.1z M132,384.9v15.5h4.9c2.1,0,4-0.8,5.5-2.3c1.5-1.5,2.3-3.3,2.3-5.5
				c0-2.1-0.8-4-2.3-5.5c-1.5-1.5-3.3-2.3-5.5-2.3L132,384.9L132,384.9z"/>
			<path class="st1" d="M169.1,395.4c1.9,1.9,2.9,4.2,2.9,6.9c0,2.7-1,5-3,6.9c-1.6,1.6-3.6,2.6-6,2.9h-10.1v-29.3h9.3
				c1.9,0,3.5,0.6,4.8,1.9c1.3,1.3,1.9,2.8,1.9,4.5c0,1.7-0.6,3.3-1.9,4.5C167.4,393.9,168.1,394.4,169.1,395.4z M156.5,386v6.4h5.9
				c0.8-0.1,1.4-0.3,1.9-0.8c0.6-0.6,0.9-1.4,0.9-2.3c0-1-0.3-1.7-0.9-2.4c-0.6-0.6-1.3-0.9-2.1-0.9H156.5z M161.8,408.9
				c1.7,0,3.2-0.6,4.5-1.9c1.3-1.3,1.9-2.9,1.9-4.7c0-1.9-0.6-3.5-1.9-4.7c-1.3-1.3-2.8-1.9-4.5-1.9h-5.3v13.3L161.8,408.9
				L161.8,408.9z"/>
			<path class="st1" d="M182.1,382.8v29.3h-3.7v-29.3H182.1z"/>
			<path class="st1" d="M214.9,386.8c3,3,4.4,6.5,4.4,10.6c0,4.1-1.5,7.7-4.4,10.6c-3,3-6.6,4.4-10.8,4.4c-4.3,0-7.9-1.5-10.8-4.4
				c-3-3-4.4-6.5-4.4-10.6c0-4.1,1.5-7.6,4.4-10.6c3-3,6.6-4.4,10.8-4.4C208.3,382.4,211.9,383.8,214.9,386.8z M204,385.6
				c-3.1,0-5.8,1.1-8.1,3.4c-2.3,2.3-3.4,5.1-3.4,8.4c0,3.3,1.1,6.1,3.4,8.4c2.3,2.3,5,3.4,8.1,3.4c3.1,0,5.8-1.1,8.1-3.4
				c2.3-2.3,3.4-5.1,3.4-8.4c0-3.3-1.1-6.1-3.4-8.4C209.9,386.7,207.2,385.6,204,385.6z"/>
			<path class="st1" d="M252.1,382.8v29.3h-3.7v-23.8l-9.6,12.6l-9.7-12.6v23.8h-3.7v-29.3h3.9l9.4,12.3l9.4-12.3H252.1z"/>
			<path class="st1" d="M270.9,382.8l10.6,29.3h-3.8l-4.4-12.2h-8l-4.5,12.2h-3.8l10.8-29.3C267.7,382.8,270.9,382.8,270.9,382.8z
				 M272.1,396.7l-2.8-7.8l-2.8,7.8H272.1z"/>
			<path class="st1" d="M296,396.7c-2.1-0.7-3.8-1.7-5.1-3c-1.3-1.3-1.9-2.8-1.9-4.6c0-1.8,0.7-3.3,2-4.7c1.3-1.3,3-2,4.9-2
				c1.9,0,3.6,0.7,5,2.1c0.7,0.7,1.3,1.7,1.7,3l-3.3,1.3c-0.4-1.1-0.8-1.8-1.1-2.1c-0.7-0.7-1.4-1-2.3-1c-0.8,0-1.6,0.3-2.3,1
				c-0.7,0.7-1,1.5-1,2.5c0,1,0.3,1.9,1,2.6c0.7,0.7,1.7,1.3,2.9,1.9c2.3,0.8,4.3,1.9,5.9,3.5c1.8,1.8,2.7,3.9,2.7,6.4
				c0,2.4-0.9,4.6-2.7,6.4c-1.8,1.8-4,2.7-6.6,2.7c-2.6,0-4.8-0.9-6.6-2.7c-1.4-1.4-2.3-3.2-2.6-5.4l3.5-1.3
				c0.2,2.1,0.8,3.7,1.8,4.7c1.1,1.1,2.4,1.6,3.9,1.6c1.5,0,2.8-0.6,3.9-1.7c1.1-1.1,1.7-2.5,1.7-4.2c0-1.7-0.5-3-1.6-4.1
				C298.8,398.2,297.5,397.3,296,396.7z"/>
		</g>
	</g>
	<g>
		<polygon class="st1" points="-22.8,395.8 -34.7,383.9 -22.8,372 		"/>
		<polygon class="st2" points="-22.8,395.8 -10.9,383.9 -22.8,372 		"/>
		<polygon class="st3" points="-22,371.2 -10.1,359.2 1.8,371.2 		"/>
		<polygon class="st4" points="-22,371.2 -10.1,383.1 1.8,371.2 		"/>
		<polygon class="st3" points="-35.5,383.1 -47.4,371.2 -35.5,359.2 		"/>
		<polygon class="st4" points="-35.5,383.1 -23.5,371.2 -35.5,359.2 		"/>
		<polygon class="st5" points="2.6,421.2 -9.3,409.3 2.6,397.4 		"/>
		<polygon class="st6" points="2.6,421.2 14.5,409.3 2.6,397.4 		"/>
		<polygon class="st1" points="-10.1,408.5 -22,396.6 -10.1,384.7 		"/>
		<polygon class="st2" points="-10.1,408.5 1.8,396.6 -10.1,384.7 		"/>
		<polygon class="st1" points="15.3,383.1 3.4,371.2 15.3,359.2 		"/>
		<polygon class="st2" points="15.3,383.1 27.3,371.2 15.3,359.2 		"/>
		<polygon class="st5" points="-9.3,383.9 2.6,372 14.5,383.9 		"/>
		<polygon class="st6" points="-9.3,383.9 2.6,395.8 14.5,383.9 		"/>
		<polygon class="st3" points="-47.4,396.5 -35.5,384.6 -23.5,396.5 		"/>
		<polygon class="st4" points="-47.4,396.5 -35.5,408.5 -23.5,396.5 		"/>
		<polygon class="st3" points="-34.7,409.3 -22.7,397.3 -10.8,409.3 		"/>
		<polygon class="st4" points="-34.7,409.2 -22.7,421.2 -10.8,409.2 		"/>
		<polygon class="st1" points="-22,422 -10,410 1.9,422 		"/>
		<polygon class="st2" points="-22,422 -10,433.9 1.9,422 		"/>
		<polygon class="st1" points="15.3,433.9 3.4,422 15.3,410 		"/>
		<polygon class="st2" points="15.3,433.9 27.3,422 15.3,410 		"/>
		<polygon class="st3" points="-48.2,421.2 -60.1,409.2 -48.2,397.3 		"/>
		<polygon class="st4" points="-48.2,421.2 -36.2,409.2 -48.2,397.3 		"/>
		<polygon class="st3" points="-60.1,383.9 -48.2,372 -36.2,383.9 		"/>
		<polygon class="st4" points="-60.1,383.9 -48.2,395.8 -36.2,383.9 		"/>
		<polygon class="st3" points="-35.4,433.9 -47.4,422 -35.4,410 		"/>
		<polygon class="st4" points="-35.5,433.9 -23.5,422 -35.5,410 		"/>
		<polygon class="st7" points="3.4,396.6 15.3,384.7 27.3,396.6 		"/>
		<polygon class="st8" points="3.4,396.6 15.3,408.5 27.3,396.6 		"/>
		<polygon class="st5" points="16.1,409.3 28,397.4 40,409.3 		"/>
		<polygon class="st6" points="16.1,409.3 28,421.2 40,409.3 		"/>
		<polygon class="st5" points="28,395.8 16.1,383.9 28,372 		"/>
		<polygon class="st6" points="28,395.8 40,383.9 28,372 		"/>
	</g>
</g>
<g>
	<path class="st0" d="M324.9,410.1h2.5v2.1h-4.8V390h4.8v2.1h-2.5V410.1z"/>
	<path class="st0" d="M340,399.8c1.2,1.2,1.8,2.7,1.8,4.5c0,1.7-0.6,3.2-1.9,4.5c-1,1-2.3,1.7-3.9,1.9h-6.6v-19h6
		c1.2,0,2.3,0.4,3.1,1.3c0.8,0.8,1.3,1.8,1.3,2.9c0,1.1-0.4,2.1-1.2,2.9C339,398.8,339.4,399.2,340,399.8z M331.9,393.7v4.2h3.8
		c0.5-0.1,0.9-0.2,1.2-0.5c0.4-0.4,0.6-0.9,0.6-1.5c0-0.6-0.2-1.1-0.6-1.5c-0.4-0.4-0.9-0.6-1.4-0.6
		C335.5,393.7,331.9,393.7,331.9,393.7z M335.4,408.6c1.1,0,2.1-0.4,2.9-1.2c0.8-0.8,1.2-1.8,1.2-3.1c0-1.2-0.4-2.2-1.2-3.1
		c-0.8-0.8-1.8-1.2-2.9-1.2h-3.5v8.6L335.4,408.6L335.4,408.6z"/>
	<path class="st0" d="M348.7,404.4h-2.2v6.2h-2.4v-19h5.4c1.6,0.2,2.9,0.9,4,1.9c1.2,1.2,1.9,2.7,1.9,4.4c0,1.7-0.6,3.2-1.9,4.5
		c-0.8,0.9-1.6,1.4-2.2,1.5l4.3,6.6h-2.8L348.7,404.4z M346.4,393.7v8.6h2.3c1.1,0,2.1-0.4,2.9-1.2c0.8-0.8,1.2-1.8,1.2-3.1
		c0-1.2-0.4-2.2-1.2-3.1s-1.8-1.2-2.9-1.2H346.4z"/>
	<path class="st0" d="M359.5,392H357V390h4.8v22.1H357v-2.1h2.5V392z"/>
</g>
</svg>
