<?xml version="1.0" encoding="utf-8"?>
<!-- Generator: Adobe Illustrator 16.0.0, SVG Export Plug-In . SVG Version: 6.00 Build 0)  -->
<!DOCTYPE svg PUBLIC "-//W3C//DTD SVG 1.1//EN" "http://www.w3.org/Graphics/SVG/1.1/DTD/svg11.dtd">
<svg version="1.1" id="Layer_1" xmlns="http://www.w3.org/2000/svg" xmlns:xlink="http://www.w3.org/1999/xlink" x="0px" y="0px"
	 width="455.891px" height="110.611px" viewBox="0 0 455.891 110.611" enable-background="new 0 0 455.891 110.611"
	 xml:space="preserve">
<g>
	<g>
		<g>
			<path fill="#808283" d="M174.513,41.896V70.7h-1.627V43.644l-11.144,14.608l-11.168-14.608V70.7h-1.627V41.896h2.361
				l10.435,13.651l10.41-13.651H174.513z"/>
			<path fill="#808283" d="M191.585,41.896L202.034,70.7h-1.712l-4.605-12.672h-9.964l-4.68,12.672h-1.734l10.569-28.805H191.585z
				 M195.127,56.422l-4.383-12.083l-4.403,12.083H195.127z"/>
			<path fill="#808283" d="M208.952,60.716V70.7h-1.628V41.896h7.56c2.198,0.298,4.063,1.217,5.599,2.752
				c1.837,1.84,2.748,4.06,2.748,6.637c0,2.606-0.911,4.833-2.748,6.677c-1.837,1.837-4.049,2.755-6.641,2.755H208.952z
				 M208.952,43.545v15.522h4.89c2.127,0,3.957-0.752,5.474-2.272c1.528-1.515,2.287-3.348,2.287-5.511
				c0-2.145-0.759-3.967-2.287-5.478c-1.517-1.507-3.347-2.262-5.474-2.262H208.952z"/>
			<path fill="#84CAA0" d="M246.063,53.976c1.904,1.9,2.851,4.198,2.851,6.89c0,2.655-0.981,4.974-2.96,6.941
				c-1.581,1.604-3.592,2.563-6.021,2.894h-10.13V41.385h9.314c1.914,0,3.514,0.646,4.804,1.937
				c1.298,1.287,1.937,2.801,1.937,4.545c0,1.748-0.628,3.252-1.894,4.496C244.412,52.479,245.113,53.012,246.063,53.976z
				 M233.495,44.565v6.436h5.906c0.802-0.082,1.415-0.348,1.854-0.791c0.596-0.592,0.894-1.368,0.894-2.344
				c0-0.953-0.309-1.744-0.933-2.364c-0.627-0.628-1.336-0.937-2.12-0.937H233.495z M238.831,67.502c1.698,0,3.177-0.638,4.453-1.9
				c1.263-1.276,1.9-2.854,1.9-4.736c0-1.891-0.638-3.472-1.9-4.748c-1.276-1.28-2.755-1.918-4.453-1.918h-5.336v13.303H238.831z"/>
			<path fill="#84CAA0" d="M259.093,41.385V70.7h-3.69V41.385H259.093z"/>
			<path fill="#84CAA0" d="M291.851,45.417c2.957,2.96,4.436,6.488,4.436,10.569c0,4.12-1.479,7.658-4.436,10.611
				c-2.953,2.954-6.56,4.429-10.824,4.429c-4.252,0-7.854-1.475-10.808-4.429c-2.957-2.953-4.428-6.491-4.428-10.611
				c0-4.081,1.471-7.609,4.428-10.569c2.954-2.957,6.556-4.439,10.808-4.439C285.292,40.978,288.898,42.46,291.851,45.417z
				 M281.027,44.193c-3.128,0-5.829,1.148-8.112,3.439c-2.273,2.283-3.418,5.066-3.418,8.354c0,3.325,1.145,6.116,3.418,8.402
				c2.283,2.276,4.984,3.418,8.112,3.418c3.138,0,5.847-1.142,8.13-3.418c2.279-2.286,3.418-5.077,3.418-8.402
				c0-3.287-1.139-6.07-3.418-8.354C286.874,45.342,284.165,44.193,281.027,44.193z"/>
			<path fill="#84CAA0" d="M329.077,41.385V70.7h-3.684V46.867l-9.641,12.65l-9.658-12.65V70.7h-3.685V41.385h3.933l9.41,12.325
				l9.396-12.325H329.077z"/>
			<path fill="#84CAA0" d="M347.858,41.385L358.466,70.7h-3.833l-4.421-12.183h-7.96L337.746,70.7h-3.847l10.757-29.315H347.858z
				 M349.06,55.344l-2.815-7.785l-2.837,7.785H349.06z"/>
			<path fill="#84CAA0" d="M373.049,55.28c-2.109-0.694-3.801-1.677-5.07-2.953c-1.28-1.28-1.922-2.819-1.922-4.627
				c0-1.766,0.663-3.319,1.985-4.655c1.33-1.341,2.975-2.007,4.946-2.007c1.939,0,3.603,0.684,4.985,2.06
				c0.716,0.706,1.287,1.695,1.694,2.972l-3.304,1.283c-0.404-1.096-0.773-1.812-1.1-2.142c-0.667-0.674-1.426-1.018-2.276-1.018
				c-0.844,0-1.599,0.333-2.255,0.993c-0.659,0.655-0.985,1.496-0.985,2.514c0,1.007,0.337,1.857,1.01,2.566
				c0.713,0.678,1.681,1.306,2.9,1.872c2.337,0.763,4.29,1.933,5.864,3.507c1.805,1.794,2.713,3.911,2.713,6.354
				c0,2.446-0.894,4.56-2.681,6.351c-1.787,1.783-3.975,2.677-6.566,2.677c-2.609,0-4.822-0.918-6.619-2.748
				c-1.415-1.4-2.287-3.212-2.617-5.438l3.55-1.283c0.216,2.131,0.822,3.684,1.812,4.662c1.088,1.081,2.379,1.631,3.875,1.631
				c1.504,0,2.815-0.563,3.939-1.685c1.116-1.12,1.677-2.51,1.677-4.166c0-1.655-0.546-3.031-1.645-4.13
				C375.843,56.766,374.542,55.908,373.049,55.28z"/>
		</g>
	</g>
	<g>
		<polygon fill="#84CAA0" points="54.191,54.439 42.253,42.504 54.191,30.568 		"/>
		<polygon fill="#77B893" points="54.175,54.439 66.111,42.504 54.175,30.568 		"/>
		<polygon fill="#75C7E0" points="54.962,29.797 66.9,17.857 78.837,29.795 		"/>
		<polygon fill="#62A5BB" points="54.962,29.779 66.9,41.715 78.837,29.779 		"/>
		<polygon fill="#75C7E0" points="41.546,41.725 29.609,29.789 41.546,17.85 		"/>
		<polygon fill="#62A5BB" points="41.529,41.725 53.466,29.789 41.529,17.85 		"/>
		<polygon fill="#DCDB77" points="79.617,79.859 67.679,67.922 79.617,55.986 		"/>
		<polygon fill="#C5C56C" points="79.601,79.859 91.537,67.922 79.599,55.986 		"/>
		<polygon fill="#84CAA0" points="66.9,67.15 54.962,55.213 66.9,43.277 		"/>
		<polygon fill="#77B893" points="66.884,67.15 78.82,55.213 66.884,43.277 		"/>
		<polygon fill="#84CAA0" points="92.333,41.725 80.398,29.789 92.333,17.85 		"/>
		<polygon fill="#77B893" points="92.318,41.725 104.255,29.789 92.318,17.85 		"/>
		<polygon fill="#DCDB77" points="67.671,42.504 79.607,30.568 91.544,42.504 		"/>
		<polygon fill="#C5C56C" points="67.671,42.488 79.607,54.426 91.544,42.488 		"/>
		<polygon fill="#75C7E0" points="29.601,55.15 41.539,43.213 53.476,55.15 		"/>
		<polygon fill="#62A5BB" points="29.601,55.135 41.539,67.07 53.476,55.133 		"/>
		<polygon fill="#75C7E0" points="42.318,67.867 54.255,55.932 66.191,67.867 		"/>
		<polygon fill="#62A5BB" points="42.318,67.852 54.253,79.789 66.191,67.852 		"/>
		<polygon fill="#84CAA0" points="55.027,80.576 66.962,68.639 78.9,80.576 		"/>
		<polygon fill="#77B893" points="55.027,80.561 66.962,92.496 78.9,80.561 		"/>
		<polygon fill="#84CAA0" points="92.343,92.504 80.404,80.566 92.341,68.631 		"/>
		<polygon fill="#77B893" points="92.326,92.504 104.261,80.566 92.326,68.631 		"/>
		<polygon fill="#75C7E0" points="28.837,79.787 16.9,67.852 28.837,55.914 		"/>
		<polygon fill="#62A5BB" points="28.822,79.787 40.757,67.852 28.822,55.914 		"/>
		<polygon fill="#75C7E0" points="16.892,42.512 28.828,30.574 40.765,42.512 		"/>
		<polygon fill="#62A5BB" points="16.892,42.496 28.828,54.434 40.765,42.496 		"/>
		<polygon fill="#75C7E0" points="41.554,92.504 29.617,80.566 41.554,68.631 		"/>
		<polygon fill="#62A5BB" points="41.539,92.504 53.474,80.566 41.537,68.631 		"/>
		<polygon fill="#F7963F" points="80.38,55.223 92.316,43.285 104.253,55.223 		"/>
		<polygon fill="#E18837" points="80.38,55.205 92.316,67.143 104.253,55.205 		"/>
		<polygon fill="#DCDB77" points="93.087,67.932 105.025,55.994 116.96,67.932 		"/>
		<polygon fill="#C5C56C" points="93.087,67.914 105.025,79.852 116.96,67.914 		"/>
		<polygon fill="#DCDB77" points="105.035,54.441 93.097,42.504 105.035,30.568 		"/>
		<polygon fill="#C5C56C" points="105.017,54.439 116.955,42.504 105.017,30.568 		"/>
	</g>
</g>
<g>
	<path fill="#808283" d="M401.871,68.686h2.452v2.057h-4.839V48.594h4.839v2.057h-2.452V68.686z"/>
	<path fill="#808283" d="M417.044,58.415c1.23,1.231,1.846,2.717,1.846,4.457c0,1.723-0.638,3.221-1.911,4.495
		c-1.029,1.037-2.33,1.661-3.902,1.872h-6.553V50.269h6.025c1.238,0,2.275,0.417,3.111,1.252c0.834,0.835,1.252,1.815,1.252,2.939
		c0,1.135-0.408,2.105-1.227,2.914C415.977,57.444,416.429,57.792,417.044,58.415z M408.911,52.325v4.166h3.822
		c0.519-0.053,0.919-0.225,1.2-0.515c0.387-0.378,0.58-0.884,0.58-1.517c0-0.614-0.202-1.124-0.606-1.529
		c-0.404-0.403-0.861-0.605-1.371-0.605H408.911z M412.364,67.169c1.099,0,2.06-0.41,2.881-1.232
		c0.822-0.821,1.232-1.843,1.232-3.064s-0.41-2.246-1.232-3.072c-0.821-0.826-1.782-1.239-2.881-1.239h-3.453v8.608H412.364z"/>
	<path fill="#808283" d="M425.667,63.03h-2.228v6.209h-2.387V50.269h5.432c1.582,0.211,2.904,0.853,3.969,1.924
		c1.238,1.24,1.858,2.721,1.858,4.443c0,1.731-0.638,3.234-1.911,4.509c-0.844,0.853-1.592,1.358-2.242,1.517l4.259,6.578h-2.755
		L425.667,63.03z M423.44,52.351v8.596h2.346c1.107,0,2.074-0.41,2.9-1.232c0.826-0.821,1.24-1.848,1.24-3.078
		c0-1.222-0.414-2.241-1.24-3.059s-1.793-1.227-2.9-1.227H423.44z"/>
	<path fill="#808283" d="M436.478,50.65h-2.453v-2.057h4.839v22.148h-4.839v-2.057h2.453V50.65z"/>
</g>
</svg>
