<?xml version="1.0" encoding="utf-8"?>
<!-- Generator: Adobe Illustrator 19.0.0, SVG Export Plug-In . SVG Version: 6.00 Build 0)  -->
<svg version="1.1" id="Layer_1" xmlns="http://www.w3.org/2000/svg" xmlns:xlink="http://www.w3.org/1999/xlink" x="0px" y="0px"
	 viewBox="51 363.3 422 74.7" style="enable-background:new 51 363.3 422 74.7;" xml:space="preserve">
<style type="text/css">
	.st0{fill:#808283;}
	.st1{fill:#84CAA0;}
	.st2{fill:#77B893;}
	.st3{fill:#75C7E0;}
	.st4{fill:#62A5BB;}
	.st5{fill:#DCDB77;}
	.st6{fill:#C5C56C;}
	.st7{fill:#F7963F;}
	.st8{fill:#E18837;}
	.st9{font-family:'Lato-Regular';}
	.st10{font-size:14.5171px;}
</style>
<g>
	<g>
		<g>
			<path class="st0" d="M208.7,387.4v28.8h-1.6v-27.1L196,403.7l-11.2-14.6v27.1h-1.6v-28.8h2.4l10.4,13.7l10.4-13.7L208.7,387.4
				L208.7,387.4z"/>
			<path class="st0" d="M225.8,387.4l10.4,28.8h-1.7l-4.6-12.7h-10l-4.7,12.7h-1.7l10.6-28.8H225.8L225.8,387.4z M229.2,401.9
				l-4.4-12.1l-4.4,12.1H229.2z"/>
			<path class="st0" d="M243.2,406.2v10h-1.6v-28.8h7.6c2.2,0.3,4.1,1.2,5.6,2.8c1.8,1.8,2.7,4.1,2.7,6.6c0,2.6-0.9,4.8-2.7,6.7
				c-1.8,1.8-4,2.8-6.6,2.8L243.2,406.2L243.2,406.2z M243.2,389v15.5h4.9c2.1,0,4-0.8,5.5-2.3s2.3-3.3,2.3-5.5c0-2.1-0.8-4-2.3-5.5
				s-3.3-2.3-5.5-2.3L243.2,389L243.2,389z"/>
			<path class="st1" d="M280.2,399.5c1.9,1.9,2.9,4.2,2.9,6.9c0,2.7-1,5-3,6.9c-1.6,1.6-3.6,2.6-6,2.9H264v-29.3h9.3
				c1.9,0,3.5,0.6,4.8,1.9s1.9,2.8,1.9,4.5s-0.6,3.3-1.9,4.5C278.5,398,279.2,398.5,280.2,399.5z M267.6,390.1v6.4h5.9
				c0.8-0.1,1.4-0.3,1.9-0.8c0.6-0.6,0.9-1.4,0.9-2.3c0-1-0.3-1.7-0.9-2.4c-0.6-0.6-1.3-0.9-2.1-0.9L267.6,390.1L267.6,390.1z
				 M273,413c1.7,0,3.2-0.6,4.5-1.9s1.9-2.9,1.9-4.7c0-1.9-0.6-3.5-1.9-4.7c-1.3-1.3-2.8-1.9-4.5-1.9h-5.3v13.3L273,413L273,413z"/>
			<path class="st1" d="M293.2,386.9v29.3h-3.7v-29.3H293.2z"/>
			<path class="st1" d="M326,390.9c3,3,4.4,6.5,4.4,10.6s-1.5,7.7-4.4,10.6c-3,3-6.6,4.4-10.8,4.4c-4.3,0-7.9-1.5-10.8-4.4
				c-3-3-4.4-6.5-4.4-10.6s1.5-7.6,4.4-10.6c3-3,6.6-4.4,10.8-4.4S323,387.9,326,390.9z M315.1,389.7c-3.1,0-5.8,1.1-8.1,3.4
				c-2.3,2.3-3.4,5.1-3.4,8.4s1.1,6.1,3.4,8.4s5,3.4,8.1,3.4s5.8-1.1,8.1-3.4c2.3-2.3,3.4-5.1,3.4-8.4s-1.1-6.1-3.4-8.4
				C321,390.8,318.4,389.7,315.1,389.7z"/>
			<path class="st1" d="M363.2,386.9v29.3h-3.7v-23.8L350,405l-9.7-12.6v23.8h-3.7v-29.3h3.9l9.4,12.3l9.4-12.3H363.2z"/>
			<path class="st1" d="M382,386.9l10.6,29.3h-3.8l-4.4-12.2h-8l-4.5,12.2h-3.8l10.8-29.3C378.9,386.9,382,386.9,382,386.9z
				 M383.2,400.8l-2.8-7.8l-2.8,7.8H383.2z"/>
			<path class="st1" d="M407.1,400.8c-2.1-0.7-3.8-1.7-5.1-3c-1.3-1.3-1.9-2.8-1.9-4.6c0-1.8,0.7-3.3,2-4.7c1.3-1.3,3-2,4.9-2
				s3.6,0.7,5,2.1c0.7,0.7,1.3,1.7,1.7,3l-3.3,1.3c-0.4-1.1-0.8-1.8-1.1-2.1c-0.7-0.7-1.4-1-2.3-1c-0.8,0-1.6,0.3-2.3,1
				c-0.7,0.7-1,1.5-1,2.5s0.3,1.9,1,2.6s1.7,1.3,2.9,1.9c2.3,0.8,4.3,1.9,5.9,3.5c1.8,1.8,2.7,3.9,2.7,6.4c0,2.4-0.9,4.6-2.7,6.4
				c-1.8,1.8-4,2.7-6.6,2.7s-4.8-0.9-6.6-2.7c-1.4-1.4-2.3-3.2-2.6-5.4l3.5-1.3c0.2,2.1,0.8,3.7,1.8,4.7c1.1,1.1,2.4,1.6,3.9,1.6
				s2.8-0.6,3.9-1.7s1.7-2.5,1.7-4.2s-0.5-3-1.6-4.1C409.9,402.3,408.6,401.4,407.1,400.8z"/>
		</g>
	</g>
	<g>
		<polygon class="st1" points="88.4,399.9 76.5,388 88.4,376.1 		"/>
		<polygon class="st2" points="88.4,399.9 100.3,388 88.4,376.1 		"/>
		<polygon class="st3" points="89.2,375.3 101.1,363.3 113,375.3 		"/>
		<polygon class="st4" points="89.2,375.3 101.1,387.2 113,375.3 		"/>
		<polygon class="st3" points="75.7,387.2 63.8,375.3 75.7,363.3 		"/>
		<polygon class="st4" points="75.7,387.2 87.7,375.3 75.7,363.3 		"/>
		<polygon class="st5" points="113.8,425.3 101.9,413.4 113.8,401.5 		"/>
		<polygon class="st6" points="113.8,425.3 125.7,413.4 113.8,401.5 		"/>
		<polygon class="st1" points="101.1,412.6 89.2,400.7 101.1,388.8 		"/>
		<polygon class="st2" points="101.1,412.6 113,400.7 101.1,388.8 		"/>
		<polygon class="st1" points="126.5,387.2 114.6,375.3 126.5,363.3 		"/>
		<polygon class="st2" points="126.5,387.2 138.5,375.3 126.5,363.3 		"/>
		<polygon class="st5" points="101.9,388 113.8,376.1 125.7,388 		"/>
		<polygon class="st6" points="101.9,388 113.8,399.9 125.7,388 		"/>
		<polygon class="st3" points="63.8,400.6 75.7,388.7 87.7,400.6 		"/>
		<polygon class="st4" points="63.8,400.6 75.7,412.6 87.7,400.6 		"/>
		<polygon class="st3" points="76.5,413.4 88.5,401.4 100.4,413.4 		"/>
		<polygon class="st4" points="76.5,413.3 88.5,425.3 100.4,413.3 		"/>
		<polygon class="st1" points="89.2,426.1 101.2,414.1 113.1,426.1 		"/>
		<polygon class="st2" points="89.2,426.1 101.2,438 113.1,426.1 		"/>
		<polygon class="st1" points="126.5,438 114.6,426.1 126.5,414.1 		"/>
		<polygon class="st2" points="126.5,438 138.5,426.1 126.5,414.1 		"/>
		<polygon class="st3" points="63,425.3 51.1,413.3 63,401.4 		"/>
		<polygon class="st4" points="63,425.3 75,413.3 63,401.4 		"/>
		<polygon class="st3" points="51.1,388 63,376.1 75,388 		"/>
		<polygon class="st4" points="51.1,388 63,399.9 75,388 		"/>
		<polygon class="st3" points="75.8,438 63.8,426.1 75.8,414.1 		"/>
		<polygon class="st4" points="75.7,438 87.7,426.1 75.7,414.1 		"/>
		<polygon class="st7" points="114.6,400.7 126.5,388.8 138.5,400.7 		"/>
		<polygon class="st8" points="114.6,400.7 126.5,412.6 138.5,400.7 		"/>
		<polygon class="st5" points="127.3,413.4 139.2,401.5 151.2,413.4 		"/>
		<polygon class="st6" points="127.3,413.4 139.2,425.3 151.2,413.4 		"/>
		<polygon class="st5" points="139.2,399.9 127.3,388 139.2,376.1 		"/>
		<polygon class="st6" points="139.2,399.9 151.2,388 139.2,376.1 		"/>
	</g>
</g>
<g>
	<path class="st0" d="M429.7,414.8h1.8v1.5H428v-16.1h3.5v1.5h-1.8V414.8z"/>
	<path class="st0" d="M470.2,401.7h-1.8v-1.4h3.5v16h-3.5v-1.5h1.8V401.7z"/>
</g>
<text transform="matrix(1 0 0 1 432.4981 413.2844)" class="st0 st9 st10">BETA</text>
</svg>
