<?xml version="1.0" encoding="utf-8"?>
<!-- Generator: Adobe Illustrator 22.0.1, SVG Export Plug-In . SVG Version: 6.00 Build 0)  -->
<svg version="1.1" id="Camada_1" xmlns="http://www.w3.org/2000/svg" xmlns:xlink="http://www.w3.org/1999/xlink" x="0px" y="0px"
	 viewBox="0 0 1147.1 313.1" style="enable-background:new 0 0 1147.1 313.1;" xml:space="preserve">
<style type="text/css">
	.st0{fill:none;stroke:#28818D;stroke-width:2;stroke-linecap:round;stroke-linejoin:round;stroke-miterlimit:10;}
	.st1{fill:#333333;}
	.st2{fill:#989899;}
</style>
<g>
	<g>
		<path class="st0" d="M423.8,99.9L423.8,99.9l-39.4-25c-0.9-0.5-1.9-0.8-3-0.8c-1.1,0-2.1,0.3-3,0.8L338.8,100
			c-0.8,0.6-1.3,1.4-1.3,2.3c0,0.9,0.5,1.8,1.4,2.4l39.9,25.3c0.8,0.4,1.7,0.6,2.6,0.6c0.9,0,1.8-0.2,2.6-0.6l0,0l39.6-25.1
			c1-0.7,1.7-1.6,1.7-2.6C425.3,101.4,424.7,100.5,423.8,99.9z"/>
		<path class="st0" d="M337.6,110.3c0,0.9,0.5,1.8,1.4,2.4l39.9,25.3c0.8,0.4,1.7,0.6,2.6,0.6c0.9,0,1.8-0.2,2.6-0.6l0,0l39.6-25.1
			c1-0.7,1.7-1.6,1.7-2.6"/>
		<g>
			<path class="st0" d="M337.6,117.9c0,0.9,0.5,1.8,1.4,2.4l39.9,25.3c0.8,0.4,1.7,0.6,2.6,0.6c0.9,0,1.8-0.2,2.6-0.6l0,0l39.6-25.1
				c1-0.7,1.7-1.6,1.7-2.6"/>
		</g>
		<g>
			<path class="st0" d="M337.6,125.5c0,0.9,0.5,1.8,1.4,2.4l39.9,25.3c0.8,0.4,1.7,0.6,2.6,0.6c0.9,0,1.8-0.2,2.6-0.6l0,0l39.6-25.1
				c1-0.7,1.7-1.6,1.7-2.6"/>
		</g>
	</g>
	<g>
		<path class="st0" d="M268.8,99.9L268.8,99.9l-39.4-25c-0.9-0.5-1.9-0.8-3-0.8c-1.1,0-2.1,0.3-3,0.8L183.8,100
			c-0.8,0.6-1.3,1.4-1.3,2.3c0,0.9,0.5,1.8,1.4,2.4l39.9,25.3c0.8,0.4,1.7,0.6,2.6,0.6s1.8-0.2,2.6-0.6l0,0l39.6-25.1
			c1-0.7,1.7-1.6,1.7-2.6C270.3,101.4,269.7,100.5,268.8,99.9z"/>
		<path class="st0" d="M182.6,110.3c0,0.9,0.5,1.8,1.4,2.4l39.9,25.3c0.8,0.4,1.7,0.6,2.6,0.6s1.8-0.2,2.6-0.6l0,0l39.6-25.1
			c1-0.7,1.7-1.6,1.7-2.6"/>
		<g>
			<path class="st0" d="M182.6,117.9c0,0.9,0.5,1.8,1.4,2.4l39.9,25.3c0.8,0.4,1.7,0.6,2.6,0.6s1.8-0.2,2.6-0.6l0,0l39.6-25.1
				c1-0.7,1.7-1.6,1.7-2.6"/>
		</g>
		<g>
			<path class="st0" d="M182.6,125.5c0,0.9,0.5,1.8,1.4,2.4l39.9,25.3c0.8,0.4,1.7,0.6,2.6,0.6s1.8-0.2,2.6-0.6l0,0l39.6-25.1
				c1-0.7,1.7-1.6,1.7-2.6"/>
		</g>
	</g>
	<g>
		<path class="st0" d="M99.8,116.9L99.8,116.9l-39.4-25c-0.9-0.5-1.9-0.8-3-0.8c-1.1,0-2.1,0.3-3,0.8L14.8,117
			c-0.8,0.6-1.3,1.4-1.3,2.3c0,0.9,0.5,1.8,1.4,2.4L54.8,147c0.8,0.4,1.7,0.6,2.6,0.6c0.9,0,1.8-0.2,2.6-0.6l0,0l39.6-25.1
			c1-0.7,1.7-1.6,1.7-2.6C101.3,118.4,100.7,117.5,99.8,116.9z"/>
	</g>
	<g>
		<path class="st0" d="M593.8,116.9L593.8,116.9l-39.4-25c-0.9-0.5-1.9-0.8-3-0.8c-1.1,0-2.1,0.3-3,0.8L508.8,117
			c-0.8,0.6-1.3,1.4-1.3,2.3c0,0.9,0.5,1.8,1.4,2.4l39.9,25.3c0.8,0.4,1.7,0.6,2.6,0.6c0.9,0,1.8-0.2,2.6-0.6l0,0l39.6-25.1
			c1-0.7,1.7-1.6,1.7-2.6C595.3,118.4,594.7,117.5,593.8,116.9z"/>
	</g>
	<g>
		<path class="st0" d="M757.8,116.9L757.8,116.9l-39.4-25c-0.9-0.5-1.9-0.8-3-0.8c-1.1,0-2.1,0.3-3,0.8L672.8,117
			c-0.8,0.6-1.3,1.4-1.3,2.3c0,0.9,0.5,1.8,1.4,2.4l39.9,25.3c0.8,0.4,1.7,0.6,2.6,0.6c0.9,0,1.8-0.2,2.6-0.6l0,0l39.6-25.1
			c1-0.7,1.7-1.6,1.7-2.6C759.3,118.4,758.7,117.5,757.8,116.9z"/>
	</g>
	<g>
		<path class="st0" d="M921.8,116.9L921.8,116.9l-39.4-25c-0.9-0.5-1.9-0.8-3-0.8c-1.1,0-2.1,0.3-3,0.8L836.8,117
			c-0.8,0.6-1.3,1.4-1.3,2.3c0,0.9,0.5,1.8,1.4,2.4l39.9,25.3c0.8,0.4,1.7,0.6,2.6,0.6c0.9,0,1.8-0.2,2.6-0.6l0,0l39.6-25.1
			c1-0.7,1.7-1.6,1.7-2.6C923.3,118.4,922.7,117.5,921.8,116.9z"/>
	</g>
	<g>
		<path class="st0" d="M1116.8,26.9L1116.8,26.9l-39.4-25c-0.9-0.5-1.9-0.8-3-0.8c-1.1,0-2.1,0.3-3,0.8L1031.8,27
			c-0.8,0.6-1.3,1.4-1.3,2.3c0,0.9,0.5,1.8,1.4,2.4l39.9,25.3c0.8,0.4,1.7,0.6,2.6,0.6s1.8-0.2,2.6-0.6l0,0l39.6-25.1
			c1-0.7,1.7-1.6,1.7-2.6C1118.3,28.4,1117.7,27.5,1116.8,26.9z"/>
	</g>
	<g>
		<path class="st0" d="M1116.8,221.9L1116.8,221.9l-39.4-25c-0.9-0.5-1.9-0.8-3-0.8c-1.1,0-2.1,0.3-3,0.8l-39.6,25.1
			c-0.8,0.6-1.3,1.4-1.3,2.3c0,0.9,0.5,1.8,1.4,2.4l39.9,25.3c0.8,0.4,1.7,0.6,2.6,0.6s1.8-0.2,2.6-0.6l0,0l39.6-25.1
			c1-0.7,1.7-1.6,1.7-2.6C1118.3,223.4,1117.7,222.5,1116.8,221.9z"/>
	</g>
	<g>
		<g>
			<path class="st1" d="M19.1,196.9c0.1,0.2,0.1,0.4,0.2,0.5c0.1-0.2,0.1-0.4,0.2-0.5c0.1-0.2,0.2-0.3,0.2-0.5l4.8-8.8
				c0.1-0.2,0.2-0.2,0.3-0.3c0.1,0,0.2,0,0.4,0h1.4v14.3H25V191c0-0.1,0-0.3,0-0.5s0-0.3,0-0.5l-4.9,9c-0.2,0.3-0.4,0.4-0.7,0.4
				h-0.3c-0.3,0-0.5-0.2-0.7-0.4l-5-9c0,0.2,0,0.3,0,0.5c0,0.2,0,0.3,0,0.5v10.5h-1.7v-14.3h1.4c0.2,0,0.3,0,0.4,0
				c0.1,0,0.2,0.1,0.3,0.3l5,8.8C19,196.5,19,196.7,19.1,196.9z"/>
			<path class="st1" d="M43.5,194.4c0,1.1-0.2,2.1-0.5,3s-0.8,1.7-1.4,2.3s-1.4,1.1-2.2,1.5c-0.9,0.4-1.8,0.5-2.9,0.5
				s-2-0.2-2.9-0.5c-0.9-0.4-1.6-0.9-2.2-1.5s-1.1-1.4-1.4-2.3c-0.3-0.9-0.5-1.9-0.5-3c0-1.1,0.2-2.1,0.5-3c0.3-0.9,0.8-1.7,1.4-2.3
				s1.4-1.2,2.2-1.5c0.9-0.4,1.8-0.5,2.9-0.5s2,0.2,2.9,0.5c0.9,0.4,1.6,0.9,2.2,1.5s1.1,1.4,1.4,2.3S43.5,193.3,43.5,194.4z
				 M41.5,194.4c0-0.9-0.1-1.7-0.4-2.4c-0.2-0.7-0.6-1.3-1-1.8s-1-0.9-1.6-1.1c-0.6-0.3-1.3-0.4-2.1-0.4c-0.8,0-1.5,0.1-2.1,0.4
				c-0.6,0.3-1.2,0.6-1.6,1.1s-0.8,1.1-1,1.8c-0.2,0.7-0.4,1.5-0.4,2.4c0,0.9,0.1,1.7,0.4,2.4c0.2,0.7,0.6,1.3,1,1.8s1,0.9,1.6,1.1
				c0.6,0.3,1.3,0.4,2.1,0.4c0.8,0,1.5-0.1,2.1-0.4c0.6-0.3,1.2-0.6,1.6-1.1s0.8-1.1,1-1.8C41.4,196.1,41.5,195.3,41.5,194.4z"/>
			<path class="st1" d="M53.5,189.5c-0.1,0.1-0.1,0.2-0.2,0.2c-0.1,0-0.2,0.1-0.3,0.1c-0.1,0-0.2-0.1-0.4-0.2s-0.3-0.2-0.6-0.4
				s-0.5-0.3-0.8-0.4s-0.7-0.2-1.2-0.2c-0.4,0-0.8,0.1-1.2,0.2c-0.3,0.1-0.6,0.3-0.8,0.5c-0.2,0.2-0.4,0.4-0.5,0.7s-0.2,0.6-0.2,0.9
				c0,0.4,0.1,0.7,0.3,1c0.2,0.3,0.5,0.5,0.8,0.7c0.3,0.2,0.7,0.3,1.1,0.5c0.4,0.1,0.8,0.3,1.3,0.4s0.9,0.3,1.3,0.5
				c0.4,0.2,0.8,0.4,1.1,0.7c0.3,0.3,0.6,0.6,0.8,1c0.2,0.4,0.3,0.9,0.3,1.5c0,0.6-0.1,1.2-0.3,1.8c-0.2,0.6-0.5,1-0.9,1.4
				c-0.4,0.4-0.9,0.7-1.5,1s-1.3,0.4-2,0.4c-0.9,0-1.8-0.2-2.5-0.5c-0.8-0.3-1.4-0.8-2-1.4l0.6-0.9c0.1-0.1,0.1-0.1,0.2-0.2
				s0.2-0.1,0.3-0.1c0.1,0,0.3,0.1,0.5,0.2c0.2,0.2,0.4,0.3,0.7,0.5c0.3,0.2,0.6,0.3,1,0.5s0.9,0.2,1.4,0.2c0.5,0,0.9-0.1,1.2-0.2
				c0.4-0.1,0.7-0.3,0.9-0.5c0.2-0.2,0.4-0.5,0.6-0.8c0.1-0.3,0.2-0.7,0.2-1.1c0-0.4-0.1-0.8-0.3-1.1c-0.2-0.3-0.5-0.5-0.8-0.7
				c-0.3-0.2-0.7-0.3-1.1-0.5c-0.4-0.1-0.8-0.3-1.3-0.4s-0.9-0.3-1.3-0.5c-0.4-0.2-0.8-0.4-1.1-0.7c-0.3-0.3-0.6-0.6-0.8-1.1
				c-0.2-0.4-0.3-1-0.3-1.6c0-0.5,0.1-1,0.3-1.5c0.2-0.5,0.5-0.9,0.9-1.3c0.4-0.4,0.8-0.7,1.4-0.9c0.6-0.2,1.2-0.3,1.9-0.3
				c0.8,0,1.5,0.1,2.2,0.4c0.7,0.3,1.2,0.6,1.7,1.1L53.5,189.5z"/>
			<path class="st1" d="M68.6,201.5h-1.5c-0.2,0-0.3,0-0.4-0.1c-0.1-0.1-0.2-0.2-0.2-0.3l-1.3-3.5h-6.4l-1.3,3.5
				c0,0.1-0.1,0.2-0.2,0.3s-0.3,0.1-0.4,0.1h-1.5l5.7-14.3h2L68.6,201.5z M59.2,196.2h5.4l-2.2-5.8c-0.1-0.4-0.3-0.8-0.4-1.3
				c-0.1,0.3-0.1,0.5-0.2,0.8c-0.1,0.2-0.1,0.4-0.2,0.6L59.2,196.2z"/>
			<path class="st1" d="M72.7,201.5h-1.9v-14.3h1.9V201.5z"/>
			<path class="st1" d="M86.6,198.6c0.1,0,0.2,0,0.3,0.1l0.8,0.8c-0.6,0.7-1.3,1.2-2.1,1.6c-0.8,0.4-1.8,0.6-3,0.6
				c-1,0-2-0.2-2.8-0.5c-0.8-0.4-1.6-0.9-2.1-1.5c-0.6-0.6-1.1-1.4-1.4-2.3s-0.5-1.9-0.5-3s0.2-2.1,0.5-3c0.4-0.9,0.8-1.7,1.5-2.3
				c0.6-0.6,1.4-1.1,2.3-1.5c0.9-0.4,1.9-0.5,2.9-0.5c1.1,0,2,0.2,2.7,0.5c0.8,0.3,1.4,0.8,2,1.3l-0.6,0.9c0,0.1-0.1,0.1-0.2,0.2
				s-0.1,0.1-0.3,0.1c-0.1,0-0.2,0-0.3-0.1c-0.1-0.1-0.2-0.1-0.3-0.2c-0.1-0.1-0.3-0.2-0.5-0.3c-0.2-0.1-0.4-0.2-0.6-0.3
				s-0.5-0.2-0.9-0.2c-0.3-0.1-0.7-0.1-1.1-0.1c-0.8,0-1.5,0.1-2.1,0.4c-0.6,0.3-1.2,0.6-1.6,1.1c-0.5,0.5-0.8,1.1-1.1,1.8
				c-0.3,0.7-0.4,1.5-0.4,2.3c0,0.9,0.1,1.7,0.4,2.4c0.3,0.7,0.6,1.3,1,1.8c0.4,0.5,1,0.9,1.6,1.1c0.6,0.3,1.3,0.4,2,0.4
				c0.4,0,0.8,0,1.1-0.1c0.3,0,0.7-0.1,0.9-0.2c0.3-0.1,0.6-0.2,0.8-0.4s0.5-0.4,0.8-0.6C86.4,198.6,86.5,198.6,86.6,198.6z"/>
			<path class="st1" d="M103.5,194.4c0,1.1-0.2,2.1-0.5,3s-0.8,1.7-1.4,2.3s-1.4,1.1-2.2,1.5c-0.9,0.4-1.8,0.5-2.9,0.5
				s-2-0.2-2.9-0.5c-0.9-0.4-1.6-0.9-2.2-1.5s-1.1-1.4-1.4-2.3c-0.3-0.9-0.5-1.9-0.5-3c0-1.1,0.2-2.1,0.5-3c0.3-0.9,0.8-1.7,1.4-2.3
				s1.4-1.2,2.2-1.5c0.9-0.4,1.8-0.5,2.9-0.5s2,0.2,2.9,0.5c0.9,0.4,1.6,0.9,2.2,1.5s1.1,1.4,1.4,2.3S103.5,193.3,103.5,194.4z
				 M101.5,194.4c0-0.9-0.1-1.7-0.4-2.4c-0.2-0.7-0.6-1.3-1-1.8s-1-0.9-1.6-1.1c-0.6-0.3-1.3-0.4-2.1-0.4c-0.8,0-1.5,0.1-2.1,0.4
				c-0.6,0.3-1.2,0.6-1.6,1.1s-0.8,1.1-1,1.8c-0.2,0.7-0.4,1.5-0.4,2.4c0,0.9,0.1,1.7,0.4,2.4c0.2,0.7,0.6,1.3,1,1.8s1,0.9,1.6,1.1
				c0.6,0.3,1.3,0.4,2.1,0.4c0.8,0,1.5-0.1,2.1-0.4c0.6-0.3,1.2-0.6,1.6-1.1s0.8-1.1,1-1.8C101.4,196.1,101.5,195.3,101.5,194.4z"/>
			<path class="st1" d="M7.3,224.5c0.1,0.2,0.1,0.4,0.2,0.5c0.1-0.2,0.1-0.4,0.2-0.5c0.1-0.2,0.2-0.3,0.2-0.5l4.8-8.8
				c0.1-0.2,0.2-0.2,0.3-0.3c0.1,0,0.2-0.1,0.4-0.1h1.4v14.3h-1.7v-10.5c0-0.1,0-0.3,0-0.5s0-0.3,0-0.5l-4.9,9
				c-0.2,0.3-0.4,0.4-0.7,0.4H7.4c-0.3,0-0.5-0.1-0.7-0.4l-5-9c0,0.2,0,0.3,0,0.5c0,0.2,0,0.3,0,0.5v10.5H0v-14.3h1.4
				c0.2,0,0.3,0,0.4,0.1c0.1,0,0.2,0.1,0.3,0.3l5,8.8C7.1,224.1,7.2,224.3,7.3,224.5z"/>
			<path class="st1" d="M30.2,229.1h-1.5c-0.2,0-0.3,0-0.4-0.1c-0.1-0.1-0.2-0.2-0.2-0.3l-1.3-3.5h-6.4l-1.3,3.5
				c0,0.1-0.1,0.2-0.2,0.3c-0.1,0.1-0.3,0.1-0.4,0.1h-1.5l5.7-14.3h2L30.2,229.1z M20.8,223.8h5.4l-2.2-5.8
				c-0.1-0.4-0.3-0.8-0.4-1.3c-0.1,0.3-0.1,0.5-0.2,0.8c-0.1,0.2-0.1,0.4-0.2,0.6L20.8,223.8z"/>
			<path class="st1" d="M34.1,223.8v5.4h-1.9v-14.3h4.2c0.9,0,1.7,0.1,2.4,0.3c0.7,0.2,1.2,0.5,1.7,0.9c0.4,0.4,0.8,0.9,1,1.4
				c0.2,0.5,0.3,1.2,0.3,1.8c0,0.7-0.1,1.3-0.3,1.8c-0.2,0.6-0.6,1-1,1.4c-0.4,0.4-1,0.7-1.7,0.9c-0.7,0.2-1.4,0.3-2.3,0.3H34.1z
				 M34.1,222.2h2.3c0.6,0,1-0.1,1.5-0.2c0.4-0.1,0.8-0.4,1.1-0.6c0.3-0.3,0.5-0.6,0.6-0.9c0.1-0.4,0.2-0.8,0.2-1.2
				c0-0.9-0.3-1.6-0.8-2.1c-0.6-0.5-1.4-0.8-2.6-0.8h-2.3V222.2z"/>
			<path class="st1" d="M44.2,229.1v-14.3h4.6c0.9,0,1.6,0.1,2.3,0.3c0.6,0.2,1.2,0.4,1.6,0.7c0.4,0.3,0.7,0.7,0.9,1.2
				c0.2,0.5,0.3,1,0.3,1.6c0,0.4-0.1,0.7-0.2,1c-0.1,0.3-0.3,0.6-0.5,0.9c-0.2,0.3-0.5,0.5-0.8,0.8c-0.3,0.2-0.7,0.4-1.2,0.5
				c1,0.2,1.8,0.6,2.4,1.1c0.5,0.5,0.8,1.3,0.8,2.2c0,0.6-0.1,1.2-0.3,1.7c-0.2,0.5-0.5,0.9-1,1.3c-0.4,0.4-1,0.6-1.6,0.8
				c-0.6,0.2-1.3,0.3-2.1,0.3H44.2z M46.2,221.2h2.6c0.5,0,1-0.1,1.4-0.2c0.4-0.1,0.7-0.3,1-0.5c0.3-0.2,0.5-0.5,0.6-0.8
				c0.1-0.3,0.2-0.6,0.2-1c0-0.8-0.3-1.5-0.8-1.9s-1.3-0.6-2.4-0.6h-2.6V221.2z M46.2,222.6v5h3.1c0.6,0,1-0.1,1.4-0.2
				c0.4-0.1,0.7-0.3,1-0.5c0.3-0.2,0.4-0.5,0.6-0.8c0.1-0.3,0.2-0.7,0.2-1c0-0.7-0.3-1.3-0.8-1.8s-1.3-0.6-2.4-0.6H46.2z"/>
			<path class="st1" d="M59.5,229.1h-1.9v-14.3h1.9V229.1z"/>
			<path class="st1" d="M76.6,222c0,1.1-0.2,2.1-0.5,3s-0.8,1.7-1.4,2.3c-0.6,0.6-1.4,1.1-2.2,1.5c-0.9,0.4-1.8,0.5-2.9,0.5
				s-2-0.2-2.9-0.5c-0.9-0.4-1.6-0.9-2.2-1.5c-0.6-0.6-1.1-1.4-1.4-2.3c-0.3-0.9-0.5-1.9-0.5-3c0-1.1,0.2-2.1,0.5-3
				c0.3-0.9,0.8-1.7,1.4-2.3c0.6-0.6,1.4-1.2,2.2-1.5s1.8-0.5,2.9-0.5s2,0.2,2.9,0.5c0.9,0.4,1.6,0.9,2.2,1.5
				c0.6,0.7,1.1,1.4,1.4,2.3S76.6,220.9,76.6,222z M74.6,222c0-0.9-0.1-1.7-0.4-2.4c-0.2-0.7-0.6-1.3-1-1.8c-0.4-0.5-1-0.9-1.6-1.1
				c-0.6-0.3-1.3-0.4-2.1-0.4c-0.8,0-1.5,0.1-2.1,0.4c-0.6,0.3-1.2,0.6-1.6,1.1c-0.4,0.5-0.8,1.1-1,1.8c-0.2,0.7-0.4,1.5-0.4,2.4
				c0,0.9,0.1,1.7,0.4,2.4c0.2,0.7,0.6,1.3,1,1.8c0.4,0.5,1,0.9,1.6,1.1c0.6,0.3,1.3,0.4,2.1,0.4c0.8,0,1.5-0.1,2.1-0.4
				c0.6-0.3,1.2-0.6,1.6-1.1c0.4-0.5,0.8-1.1,1-1.8C74.5,223.7,74.6,222.9,74.6,222z"/>
			<path class="st1" d="M86.6,224.5c0.1,0.2,0.1,0.4,0.2,0.5c0.1-0.2,0.1-0.4,0.2-0.5c0.1-0.2,0.2-0.3,0.2-0.5l4.8-8.8
				c0.1-0.2,0.2-0.2,0.3-0.3c0.1,0,0.2-0.1,0.4-0.1h1.4v14.3h-1.7v-10.5c0-0.1,0-0.3,0-0.5s0-0.3,0-0.5l-4.9,9
				c-0.2,0.3-0.4,0.4-0.7,0.4h-0.3c-0.3,0-0.5-0.1-0.7-0.4l-5-9c0,0.2,0,0.3,0,0.5c0,0.2,0,0.3,0,0.5v10.5h-1.7v-14.3h1.4
				c0.2,0,0.3,0,0.4,0.1c0.1,0,0.2,0.1,0.3,0.3l5,8.8C86.4,224.1,86.5,224.3,86.6,224.5z"/>
			<path class="st1" d="M109.4,229.1h-1.5c-0.2,0-0.3,0-0.4-0.1c-0.1-0.1-0.2-0.2-0.2-0.3l-1.3-3.5h-6.4l-1.3,3.5
				c0,0.1-0.1,0.2-0.2,0.3c-0.1,0.1-0.3,0.1-0.4,0.1H96l5.7-14.3h2L109.4,229.1z M100.1,223.8h5.4l-2.2-5.8
				c-0.1-0.4-0.3-0.8-0.4-1.3c-0.1,0.3-0.1,0.5-0.2,0.8c-0.1,0.2-0.1,0.4-0.2,0.6L100.1,223.8z"/>
			<path class="st1" d="M118.6,217.1c-0.1,0.1-0.1,0.2-0.2,0.2c-0.1,0.1-0.2,0.1-0.3,0.1c-0.1,0-0.2-0.1-0.4-0.2s-0.3-0.2-0.6-0.4
				s-0.5-0.3-0.8-0.4s-0.7-0.2-1.2-0.2c-0.4,0-0.8,0.1-1.2,0.2c-0.3,0.1-0.6,0.3-0.8,0.5c-0.2,0.2-0.4,0.4-0.5,0.7
				c-0.1,0.3-0.2,0.6-0.2,0.9c0,0.4,0.1,0.7,0.3,1c0.2,0.3,0.5,0.5,0.8,0.7c0.3,0.2,0.7,0.3,1.1,0.5c0.4,0.1,0.8,0.3,1.3,0.4
				s0.9,0.3,1.3,0.5c0.4,0.2,0.8,0.4,1.1,0.7s0.6,0.6,0.8,1c0.2,0.4,0.3,0.9,0.3,1.5c0,0.6-0.1,1.2-0.3,1.8s-0.5,1-0.9,1.4
				c-0.4,0.4-0.9,0.7-1.5,1c-0.6,0.2-1.3,0.3-2,0.3c-0.9,0-1.8-0.2-2.5-0.5c-0.8-0.3-1.4-0.8-2-1.4l0.6-0.9c0.1-0.1,0.1-0.1,0.2-0.2
				c0.1-0.1,0.2-0.1,0.3-0.1c0.1,0,0.3,0.1,0.5,0.2c0.2,0.1,0.4,0.3,0.7,0.5s0.6,0.3,1,0.5c0.4,0.1,0.9,0.2,1.4,0.2
				c0.5,0,0.9-0.1,1.2-0.2c0.4-0.1,0.7-0.3,0.9-0.5s0.4-0.5,0.6-0.8s0.2-0.7,0.2-1.1c0-0.4-0.1-0.8-0.3-1.1
				c-0.2-0.3-0.5-0.5-0.8-0.7c-0.3-0.2-0.7-0.3-1.1-0.5c-0.4-0.1-0.8-0.3-1.3-0.4s-0.9-0.3-1.3-0.5c-0.4-0.2-0.8-0.4-1.1-0.7
				s-0.6-0.6-0.8-1.1c-0.2-0.4-0.3-1-0.3-1.6c0-0.5,0.1-1,0.3-1.5c0.2-0.5,0.5-0.9,0.9-1.3c0.4-0.4,0.8-0.7,1.4-0.9
				c0.6-0.2,1.2-0.3,1.9-0.3c0.8,0,1.5,0.1,2.2,0.4c0.7,0.3,1.2,0.6,1.7,1.1L118.6,217.1z"/>
		</g>
	</g>
	<g>
		<g>
			<path class="st1" d="M155,208.2c0.1,0,0.2,0,0.3,0.1l0.8,0.8c-0.6,0.7-1.3,1.2-2.1,1.6c-0.8,0.4-1.8,0.6-3,0.6
				c-1,0-2-0.2-2.8-0.5c-0.8-0.4-1.6-0.9-2.2-1.5c-0.6-0.6-1.1-1.4-1.4-2.3c-0.3-0.9-0.5-1.9-0.5-3s0.2-2.1,0.5-3s0.8-1.7,1.5-2.3
				c0.6-0.6,1.4-1.1,2.3-1.5c0.9-0.4,1.9-0.5,2.9-0.5c1.1,0,2,0.2,2.7,0.5c0.8,0.3,1.4,0.8,2,1.3l-0.6,0.9c0,0.1-0.1,0.1-0.2,0.2
				c-0.1,0-0.1,0.1-0.3,0.1c-0.1,0-0.2,0-0.3-0.1c-0.1-0.1-0.2-0.1-0.3-0.2c-0.1-0.1-0.3-0.2-0.5-0.3c-0.2-0.1-0.4-0.2-0.6-0.3
				c-0.2-0.1-0.5-0.2-0.9-0.2c-0.3-0.1-0.7-0.1-1.1-0.1c-0.8,0-1.5,0.1-2.1,0.4c-0.6,0.3-1.2,0.6-1.6,1.1c-0.5,0.5-0.8,1.1-1.1,1.8
				c-0.3,0.7-0.4,1.5-0.4,2.3c0,0.9,0.1,1.7,0.4,2.4c0.3,0.7,0.6,1.3,1,1.8s1,0.9,1.6,1.1c0.6,0.3,1.3,0.4,2,0.4
				c0.4,0,0.8,0,1.2-0.1s0.7-0.1,0.9-0.2c0.3-0.1,0.6-0.2,0.8-0.4c0.2-0.2,0.5-0.4,0.8-0.6C154.8,208.2,154.9,208.2,155,208.2z"/>
			<path class="st1" d="M160.6,209.5h6.2v1.6h-8.1v-14.3h1.9V209.5z"/>
			<path class="st1" d="M180.7,211.1h-1.5c-0.2,0-0.3,0-0.4-0.1s-0.2-0.2-0.2-0.3l-1.3-3.5h-6.4l-1.3,3.5c0,0.1-0.1,0.2-0.2,0.3
				c-0.1,0.1-0.3,0.1-0.4,0.1h-1.5l5.7-14.3h2L180.7,211.1z M171.3,205.8h5.3l-2.2-5.8c-0.1-0.4-0.3-0.8-0.4-1.3
				c-0.1,0.3-0.1,0.5-0.2,0.8c-0.1,0.2-0.1,0.4-0.2,0.6L171.3,205.8z"/>
			<path class="st1" d="M189.8,199.1c-0.1,0.1-0.1,0.2-0.2,0.2c-0.1,0.1-0.2,0.1-0.3,0.1c-0.1,0-0.2-0.1-0.4-0.2
				c-0.2-0.1-0.3-0.2-0.6-0.4c-0.2-0.1-0.5-0.3-0.8-0.4s-0.7-0.2-1.2-0.2c-0.4,0-0.8,0.1-1.2,0.2c-0.3,0.1-0.6,0.3-0.8,0.5
				c-0.2,0.2-0.4,0.4-0.5,0.7c-0.1,0.3-0.2,0.6-0.2,0.9c0,0.4,0.1,0.7,0.3,1c0.2,0.3,0.5,0.5,0.8,0.7c0.3,0.2,0.7,0.3,1.1,0.5
				c0.4,0.1,0.8,0.3,1.3,0.4c0.4,0.1,0.8,0.3,1.3,0.5c0.4,0.2,0.8,0.4,1.1,0.7s0.6,0.6,0.8,1s0.3,0.9,0.3,1.5c0,0.6-0.1,1.2-0.3,1.8
				c-0.2,0.5-0.5,1-0.9,1.4c-0.4,0.4-0.9,0.7-1.5,1c-0.6,0.2-1.3,0.3-2,0.3c-0.9,0-1.8-0.2-2.5-0.5c-0.8-0.3-1.4-0.8-2-1.4l0.6-0.9
				c0.1-0.1,0.1-0.1,0.2-0.2c0.1-0.1,0.2-0.1,0.3-0.1c0.1,0,0.3,0.1,0.5,0.2s0.4,0.3,0.7,0.5c0.3,0.2,0.6,0.3,1,0.5
				c0.4,0.1,0.9,0.2,1.4,0.2c0.5,0,0.9-0.1,1.2-0.2c0.4-0.1,0.7-0.3,0.9-0.5s0.4-0.5,0.6-0.8c0.1-0.3,0.2-0.7,0.2-1.1
				c0-0.4-0.1-0.8-0.3-1.1c-0.2-0.3-0.5-0.5-0.8-0.7c-0.3-0.2-0.7-0.3-1.1-0.5c-0.4-0.1-0.8-0.3-1.3-0.4c-0.4-0.1-0.8-0.3-1.3-0.5
				s-0.8-0.4-1.1-0.7c-0.3-0.3-0.6-0.6-0.8-1.1s-0.3-1-0.3-1.6c0-0.5,0.1-1,0.3-1.5c0.2-0.5,0.5-0.9,0.9-1.3
				c0.4-0.4,0.8-0.7,1.4-0.9c0.5-0.2,1.2-0.3,1.9-0.3c0.8,0,1.5,0.1,2.2,0.4c0.7,0.3,1.2,0.6,1.7,1.1L189.8,199.1z"/>
			<path class="st1" d="M200.4,199.1c-0.1,0.1-0.1,0.2-0.2,0.2c-0.1,0.1-0.2,0.1-0.3,0.1c-0.1,0-0.2-0.1-0.4-0.2
				c-0.1-0.1-0.3-0.2-0.6-0.4c-0.2-0.1-0.5-0.3-0.8-0.4s-0.7-0.2-1.2-0.2c-0.4,0-0.8,0.1-1.2,0.2s-0.6,0.3-0.8,0.5
				c-0.2,0.2-0.4,0.4-0.5,0.7c-0.1,0.3-0.2,0.6-0.2,0.9c0,0.4,0.1,0.7,0.3,1c0.2,0.3,0.5,0.5,0.8,0.7c0.3,0.2,0.7,0.3,1.1,0.5
				c0.4,0.1,0.8,0.3,1.3,0.4c0.4,0.1,0.9,0.3,1.3,0.5c0.4,0.2,0.8,0.4,1.1,0.7s0.6,0.6,0.8,1c0.2,0.4,0.3,0.9,0.3,1.5
				c0,0.6-0.1,1.2-0.3,1.8c-0.2,0.5-0.5,1-0.9,1.4c-0.4,0.4-0.9,0.7-1.5,1c-0.6,0.2-1.3,0.3-2,0.3c-0.9,0-1.8-0.2-2.5-0.5
				c-0.8-0.3-1.4-0.8-2-1.4l0.6-0.9c0.1-0.1,0.1-0.1,0.2-0.2c0.1-0.1,0.2-0.1,0.3-0.1c0.1,0,0.3,0.1,0.5,0.2
				c0.2,0.1,0.4,0.3,0.7,0.5c0.3,0.2,0.6,0.3,1,0.5c0.4,0.1,0.9,0.2,1.4,0.2c0.5,0,0.9-0.1,1.2-0.2c0.4-0.1,0.7-0.3,0.9-0.5
				s0.4-0.5,0.6-0.8c0.1-0.3,0.2-0.7,0.2-1.1c0-0.4-0.1-0.8-0.3-1.1c-0.2-0.3-0.5-0.5-0.8-0.7c-0.3-0.2-0.7-0.3-1.1-0.5
				c-0.4-0.1-0.8-0.3-1.3-0.4c-0.4-0.1-0.9-0.3-1.3-0.5c-0.4-0.2-0.8-0.4-1.1-0.7c-0.3-0.3-0.6-0.6-0.8-1.1c-0.2-0.4-0.3-1-0.3-1.6
				c0-0.5,0.1-1,0.3-1.5c0.2-0.5,0.5-0.9,0.9-1.3c0.4-0.4,0.8-0.7,1.4-0.9c0.6-0.2,1.2-0.3,1.9-0.3c0.8,0,1.5,0.1,2.2,0.4
				c0.7,0.3,1.2,0.6,1.7,1.1L200.4,199.1z"/>
			<path class="st1" d="M206,211.1h-1.9v-14.3h1.9V211.1z"/>
			<path class="st1" d="M218.7,196.8v1.6h-6.9v5h5.9v1.6h-5.9v6.2h-2v-14.3H218.7z"/>
			<path class="st1" d="M223.4,211.1h-1.9v-14.3h1.9V211.1z"/>
			<path class="st1" d="M237.4,208.2c0.1,0,0.2,0,0.3,0.1l0.8,0.8c-0.6,0.7-1.3,1.2-2.1,1.6c-0.8,0.4-1.8,0.6-3,0.6
				c-1,0-2-0.2-2.8-0.5c-0.8-0.4-1.6-0.9-2.2-1.5c-0.6-0.6-1.1-1.4-1.4-2.3c-0.3-0.9-0.5-1.9-0.5-3s0.2-2.1,0.5-3s0.8-1.7,1.5-2.3
				c0.6-0.6,1.4-1.1,2.3-1.5c0.9-0.4,1.9-0.5,2.9-0.5c1.1,0,2,0.2,2.7,0.5c0.8,0.3,1.4,0.8,2,1.3l-0.6,0.9c0,0.1-0.1,0.1-0.2,0.2
				c-0.1,0-0.1,0.1-0.3,0.1c-0.1,0-0.2,0-0.3-0.1c-0.1-0.1-0.2-0.1-0.3-0.2c-0.1-0.1-0.3-0.2-0.5-0.3c-0.2-0.1-0.4-0.2-0.6-0.3
				c-0.2-0.1-0.5-0.2-0.9-0.2c-0.3-0.1-0.7-0.1-1.1-0.1c-0.8,0-1.5,0.1-2.1,0.4c-0.6,0.3-1.2,0.6-1.6,1.1c-0.5,0.5-0.8,1.1-1.1,1.8
				c-0.3,0.7-0.4,1.5-0.4,2.3c0,0.9,0.1,1.7,0.4,2.4c0.3,0.7,0.6,1.3,1,1.8s1,0.9,1.6,1.1c0.6,0.3,1.3,0.4,2,0.4
				c0.4,0,0.8,0,1.2-0.1s0.7-0.1,0.9-0.2c0.3-0.1,0.6-0.2,0.8-0.4c0.2-0.2,0.5-0.4,0.8-0.6C237.2,208.2,237.3,208.2,237.4,208.2z"/>
			<path class="st1" d="M252.8,211.1h-1.5c-0.2,0-0.3,0-0.4-0.1c-0.1-0.1-0.2-0.2-0.2-0.3l-1.3-3.5h-6.4l-1.3,3.5
				c0,0.1-0.1,0.2-0.2,0.3c-0.1,0.1-0.3,0.1-0.4,0.1h-1.5l5.7-14.3h2L252.8,211.1z M243.4,205.8h5.4l-2.2-5.8
				c-0.1-0.4-0.3-0.8-0.4-1.3c-0.1,0.3-0.1,0.5-0.2,0.8s-0.1,0.4-0.2,0.6L243.4,205.8z"/>
			<path class="st1" d="M263,196.8v1.6h-4.6v12.7h-1.9v-12.7h-4.7v-1.6H263z"/>
			<path class="st1" d="M267.4,211.1h-1.9v-14.3h1.9V211.1z"/>
			<path class="st1" d="M284.5,204c0,1.1-0.2,2.1-0.5,3s-0.8,1.7-1.4,2.3c-0.6,0.6-1.4,1.1-2.2,1.5c-0.9,0.4-1.8,0.5-2.9,0.5
				c-1.1,0-2-0.2-2.9-0.5c-0.9-0.4-1.6-0.9-2.2-1.5c-0.6-0.6-1.1-1.4-1.4-2.3s-0.5-1.9-0.5-3c0-1.1,0.2-2.1,0.5-3s0.8-1.7,1.4-2.3
				c0.6-0.6,1.4-1.2,2.2-1.5c0.9-0.4,1.8-0.5,2.9-0.5c1.1,0,2,0.2,2.9,0.5c0.9,0.4,1.6,0.9,2.2,1.5c0.6,0.7,1.1,1.4,1.4,2.3
				S284.5,202.9,284.5,204z M282.5,204c0-0.9-0.1-1.7-0.4-2.4c-0.2-0.7-0.6-1.3-1-1.8c-0.4-0.5-1-0.9-1.6-1.1
				c-0.6-0.3-1.3-0.4-2.1-0.4c-0.8,0-1.5,0.1-2.1,0.4s-1.2,0.6-1.6,1.1c-0.4,0.5-0.8,1.1-1,1.8c-0.2,0.7-0.4,1.5-0.4,2.4
				c0,0.9,0.1,1.7,0.4,2.4s0.6,1.3,1,1.8c0.4,0.5,1,0.9,1.6,1.1s1.3,0.4,2.1,0.4c0.8,0,1.5-0.1,2.1-0.4c0.6-0.3,1.2-0.6,1.6-1.1
				c0.4-0.5,0.8-1.1,1-1.8C282.4,205.7,282.5,204.9,282.5,204z"/>
			<path class="st1" d="M288.6,196.9c0.1,0,0.2,0.1,0.3,0.3l8.3,10.8c0-0.2,0-0.3,0-0.5c0-0.2,0-0.3,0-0.5v-10.2h1.7v14.3h-1
				c-0.2,0-0.3,0-0.4-0.1c-0.1-0.1-0.2-0.1-0.3-0.3l-8.3-10.8c0,0.2,0,0.3,0,0.5s0,0.3,0,0.4v10.2h-1.7v-14.3h1
				C288.3,196.8,288.5,196.8,288.6,196.9z"/>
		</g>
	</g>
	<g>
		<g>
			<path class="st1" d="M348.8,179.9c-0.1,0.1-0.1,0.2-0.2,0.2c-0.1,0-0.2,0.1-0.3,0.1c-0.1,0-0.2-0.1-0.4-0.2s-0.3-0.2-0.6-0.4
				s-0.5-0.3-0.8-0.4s-0.7-0.2-1.2-0.2c-0.4,0-0.8,0.1-1.2,0.2c-0.3,0.1-0.6,0.3-0.8,0.5c-0.2,0.2-0.4,0.4-0.5,0.7
				c-0.1,0.3-0.2,0.6-0.2,0.9c0,0.4,0.1,0.7,0.3,1s0.5,0.5,0.8,0.7c0.3,0.2,0.7,0.3,1.1,0.5c0.4,0.1,0.8,0.3,1.3,0.4
				c0.4,0.1,0.9,0.3,1.3,0.5c0.4,0.2,0.8,0.4,1.1,0.7c0.3,0.3,0.6,0.6,0.8,1c0.2,0.4,0.3,0.9,0.3,1.5c0,0.6-0.1,1.2-0.3,1.8
				s-0.5,1-0.9,1.4c-0.4,0.4-0.9,0.7-1.5,1c-0.6,0.2-1.3,0.4-2,0.4c-0.9,0-1.8-0.2-2.5-0.5c-0.8-0.3-1.4-0.8-2-1.4l0.6-0.9
				c0.1-0.1,0.1-0.1,0.2-0.2c0.1,0,0.2-0.1,0.3-0.1c0.1,0,0.3,0.1,0.5,0.2c0.2,0.2,0.4,0.3,0.7,0.5c0.3,0.2,0.6,0.3,1,0.5
				s0.9,0.2,1.4,0.2c0.5,0,0.9-0.1,1.2-0.2c0.4-0.1,0.7-0.3,0.9-0.5s0.4-0.5,0.6-0.8s0.2-0.7,0.2-1.1c0-0.4-0.1-0.8-0.3-1.1
				s-0.5-0.5-0.8-0.7s-0.7-0.3-1.1-0.5c-0.4-0.1-0.8-0.3-1.3-0.4s-0.9-0.3-1.3-0.5c-0.4-0.2-0.8-0.4-1.1-0.7s-0.6-0.6-0.8-1.1
				c-0.2-0.4-0.3-1-0.3-1.6c0-0.5,0.1-1,0.3-1.5c0.2-0.5,0.5-0.9,0.9-1.3c0.4-0.4,0.8-0.7,1.4-0.9c0.6-0.2,1.2-0.3,1.9-0.3
				c0.8,0,1.5,0.1,2.2,0.4c0.7,0.3,1.2,0.6,1.7,1.1L348.8,179.9z"/>
			<path class="st1" d="M354.2,186.6v5.4h-1.9v-14.3h4.2c0.9,0,1.7,0.1,2.4,0.3c0.7,0.2,1.2,0.5,1.7,0.9c0.4,0.4,0.8,0.9,1,1.4
				c0.2,0.5,0.3,1.2,0.3,1.8c0,0.7-0.1,1.3-0.3,1.8c-0.2,0.6-0.6,1-1,1.4c-0.4,0.4-1,0.7-1.7,0.9c-0.7,0.2-1.4,0.3-2.3,0.3H354.2z
				 M354.2,185h2.3c0.6,0,1-0.1,1.5-0.2s0.8-0.4,1.1-0.6c0.3-0.3,0.5-0.6,0.6-0.9c0.1-0.4,0.2-0.8,0.2-1.2c0-0.9-0.3-1.6-0.8-2.1
				c-0.6-0.5-1.4-0.8-2.6-0.8h-2.3V185z"/>
			<path class="st1" d="M374.7,191.9h-1.5c-0.2,0-0.3,0-0.4-0.1c-0.1-0.1-0.2-0.2-0.2-0.3l-1.3-3.5h-6.4l-1.3,3.5
				c0,0.1-0.1,0.2-0.2,0.3s-0.3,0.1-0.4,0.1h-1.5l5.7-14.3h2L374.7,191.9z M365.3,186.6h5.4l-2.2-5.8c-0.1-0.4-0.3-0.8-0.4-1.4
				c-0.1,0.3-0.1,0.5-0.2,0.8c-0.1,0.2-0.1,0.4-0.2,0.6L365.3,186.6z"/>
			<path class="st1" d="M384.9,177.6v1.6h-4.6v12.7h-1.9v-12.7h-4.7v-1.6H384.9z"/>
			<path class="st1" d="M389.3,191.9h-1.9v-14.3h1.9V191.9z"/>
			<path class="st1" d="M404.9,191.9h-1.5c-0.2,0-0.3,0-0.4-0.1c-0.1-0.1-0.2-0.2-0.2-0.3l-1.3-3.5H395l-1.3,3.5
				c0,0.1-0.1,0.2-0.2,0.3s-0.3,0.1-0.4,0.1h-1.5l5.7-14.3h2L404.9,191.9z M395.5,186.6h5.4l-2.2-5.8c-0.1-0.4-0.3-0.8-0.4-1.4
				c-0.1,0.3-0.1,0.5-0.2,0.8c-0.1,0.2-0.1,0.4-0.2,0.6L395.5,186.6z"/>
			<path class="st1" d="M408.7,190.3h6.2v1.6h-8.1v-14.3h1.9V190.3z"/>
			<path class="st1" d="M425.7,177.5c0.5,0,1,0.1,1.4,0.3c0.4,0.2,0.8,0.4,1.1,0.7c0.3,0.3,0.6,0.6,0.8,1c0.2,0.4,0.3,0.8,0.3,1.2
				l-1.1,0.2c0,0-0.1,0-0.1,0c-0.1,0-0.2,0-0.2-0.1c-0.1,0-0.1-0.1-0.2-0.2c0-0.2-0.1-0.4-0.2-0.5c-0.1-0.2-0.2-0.4-0.4-0.5
				c-0.2-0.2-0.4-0.3-0.6-0.4s-0.5-0.2-0.8-0.2c-0.3,0-0.6,0.1-0.9,0.2c-0.3,0.1-0.5,0.3-0.7,0.4s-0.3,0.4-0.4,0.7
				c-0.1,0.3-0.2,0.5-0.2,0.8c0,0.2,0,0.5,0.1,0.7c0.1,0.2,0.1,0.4,0.3,0.6s0.3,0.4,0.4,0.7c0.2,0.2,0.4,0.5,0.6,0.7l4.1,4.2
				c0.3-0.4,0.5-0.9,0.6-1.4c0.1-0.5,0.3-1,0.3-1.5c0-0.1,0.1-0.2,0.1-0.3c0.1-0.1,0.2-0.1,0.3-0.1h1.1c0,0.8-0.1,1.5-0.4,2.3
				s-0.6,1.4-1,2.1l3,3h-1.7c-0.2,0-0.3,0-0.5-0.1c-0.1,0-0.3-0.1-0.4-0.3l-1.4-1.4c-0.6,0.6-1.3,1.1-2.2,1.4
				c-0.8,0.4-1.7,0.5-2.7,0.5c-0.5,0-1.1-0.1-1.6-0.3c-0.5-0.2-1-0.4-1.4-0.8c-0.4-0.3-0.7-0.8-1-1.3c-0.2-0.5-0.4-1.1-0.4-1.7
				c0-0.5,0.1-0.9,0.2-1.3c0.2-0.4,0.4-0.8,0.6-1.2c0.3-0.4,0.6-0.7,1-1s0.8-0.5,1.2-0.7c-0.4-0.5-0.7-1-0.9-1.5s-0.3-1-0.3-1.5
				c0-0.5,0.1-0.9,0.3-1.4c0.2-0.4,0.4-0.8,0.8-1.1c0.3-0.3,0.7-0.6,1.2-0.8C424.6,177.5,425.1,177.5,425.7,177.5z M421.8,188
				c0,0.4,0.1,0.8,0.2,1.1c0.2,0.3,0.4,0.6,0.6,0.8s0.6,0.4,0.9,0.5c0.3,0.1,0.7,0.2,1,0.2c0.7,0,1.4-0.1,2-0.4s1.1-0.6,1.6-1.1
				l-4.2-4.3c-0.7,0.4-1.2,0.8-1.6,1.4C421.9,186.8,421.8,187.4,421.8,188z"/>
			<path class="st1" d="M344.6,205.2v1.6h-4.6v12.7H338v-12.7h-4.7v-1.6H344.6z"/>
			<path class="st1" d="M355.4,205.2v1.6h-6.9v4.8h5.6v1.5h-5.6v4.9h6.9v1.6h-8.8v-14.3H355.4z"/>
			<path class="st1" d="M365.5,214.9c0.1,0.2,0.1,0.4,0.2,0.5c0.1-0.2,0.1-0.4,0.2-0.5c0.1-0.2,0.2-0.3,0.2-0.5l4.8-8.8
				c0.1-0.2,0.2-0.2,0.3-0.3c0.1,0,0.2,0,0.4,0h1.4v14.3h-1.7V209c0-0.1,0-0.3,0-0.5s0-0.3,0-0.5l-4.9,9c-0.2,0.3-0.4,0.4-0.7,0.4
				h-0.3c-0.3,0-0.5-0.2-0.7-0.4l-5-9c0,0.2,0,0.3,0,0.5c0,0.2,0,0.3,0,0.5v10.5h-1.7v-14.3h1.4c0.2,0,0.3,0,0.4,0
				c0.1,0,0.2,0.1,0.3,0.3l5,8.8C365.4,214.5,365.5,214.7,365.5,214.9z"/>
			<path class="st1" d="M378.8,214.2v5.4h-1.9v-14.3h4.2c0.9,0,1.7,0.1,2.4,0.3s1.2,0.5,1.7,0.9c0.4,0.4,0.8,0.9,1,1.4
				c0.2,0.5,0.3,1.2,0.3,1.8c0,0.7-0.1,1.3-0.3,1.8c-0.2,0.6-0.6,1-1,1.4c-0.4,0.4-1,0.7-1.7,0.9c-0.7,0.2-1.4,0.3-2.3,0.3H378.8z
				 M378.8,212.6h2.3c0.6,0,1-0.1,1.5-0.2c0.4-0.1,0.8-0.4,1.1-0.6c0.3-0.3,0.5-0.6,0.6-0.9c0.1-0.4,0.2-0.8,0.2-1.2
				c0-0.9-0.3-1.6-0.8-2.1c-0.6-0.5-1.4-0.8-2.6-0.8h-2.3V212.6z"/>
			<path class="st1" d="M402.2,212.4c0,1.1-0.2,2.1-0.5,3s-0.8,1.7-1.4,2.3s-1.4,1.1-2.2,1.5c-0.9,0.4-1.8,0.5-2.9,0.5
				s-2-0.2-2.9-0.5c-0.9-0.4-1.6-0.9-2.2-1.5s-1.1-1.4-1.4-2.3c-0.3-0.9-0.5-1.9-0.5-3c0-1.1,0.2-2.1,0.5-3c0.3-0.9,0.8-1.7,1.4-2.3
				s1.4-1.2,2.2-1.5c0.9-0.4,1.8-0.5,2.9-0.5s2,0.2,2.9,0.5c0.9,0.4,1.6,0.9,2.2,1.5s1.1,1.4,1.4,2.3S402.2,211.3,402.2,212.4z
				 M400.2,212.4c0-0.9-0.1-1.7-0.4-2.4c-0.2-0.7-0.6-1.3-1-1.8s-1-0.9-1.6-1.1c-0.6-0.3-1.3-0.4-2.1-0.4c-0.8,0-1.5,0.1-2.1,0.4
				c-0.6,0.3-1.2,0.6-1.6,1.1s-0.8,1.1-1,1.8c-0.2,0.7-0.4,1.5-0.4,2.4c0,0.9,0.1,1.7,0.4,2.4c0.2,0.7,0.6,1.3,1,1.8s1,0.9,1.6,1.1
				c0.6,0.3,1.3,0.4,2.1,0.4c0.8,0,1.5-0.1,2.1-0.4c0.6-0.3,1.2-0.6,1.6-1.1s0.8-1.1,1-1.8C400.1,214.1,400.2,213.3,400.2,212.4z"/>
			<path class="st1" d="M406.9,213.6v6H405v-14.3h4.1c0.9,0,1.7,0.1,2.3,0.3c0.7,0.2,1.2,0.4,1.6,0.8c0.4,0.3,0.7,0.8,1,1.3
				c0.2,0.5,0.3,1,0.3,1.6c0,0.5-0.1,1-0.2,1.4s-0.4,0.8-0.7,1.2c-0.3,0.4-0.7,0.6-1.1,0.9s-0.9,0.4-1.5,0.6
				c0.2,0.1,0.5,0.3,0.6,0.6l4.2,5.7h-1.7c-0.4,0-0.6-0.1-0.8-0.4l-3.7-5.1c-0.1-0.2-0.2-0.3-0.4-0.3c-0.1-0.1-0.3-0.1-0.6-0.1
				H406.9z M406.9,212.2h2c0.6,0,1.1-0.1,1.5-0.2s0.8-0.3,1.1-0.6s0.5-0.5,0.7-0.9s0.2-0.7,0.2-1.2c0-0.9-0.3-1.5-0.8-1.9
				s-1.4-0.7-2.5-0.7h-2.1V212.2z"/>
			<path class="st1" d="M429.5,219.5H428c-0.2,0-0.3,0-0.4-0.1c-0.1-0.1-0.2-0.2-0.2-0.3l-1.3-3.5h-6.4l-1.3,3.5
				c0,0.1-0.1,0.2-0.2,0.3s-0.3,0.1-0.4,0.1h-1.5l5.7-14.3h2L429.5,219.5z M420.1,214.2h5.4l-2.2-5.8c-0.1-0.4-0.3-0.8-0.4-1.3
				c-0.1,0.3-0.1,0.5-0.2,0.8c-0.1,0.2-0.1,0.4-0.2,0.6L420.1,214.2z"/>
			<path class="st1" d="M433.2,217.9h6.2v1.6h-8.1v-14.3h1.9V217.9z"/>
			<path class="st1" d="M365.9,232.8v1.6H359v5h5.9v1.6H359v6.2H357v-14.3H365.9z"/>
			<path class="st1" d="M370.7,247.1h-1.9v-14.3h1.9V247.1z"/>
			<path class="st1" d="M376.4,245.5h6.2v1.6h-8.1v-14.3h1.9V245.5z"/>
			<path class="st1" d="M392.8,232.8v1.6h-4.6v12.7h-1.9v-12.7h-4.7v-1.6H392.8z"/>
			<path class="st1" d="M403.7,232.8v1.6h-6.9v4.8h5.6v1.5h-5.6v4.9h6.9v1.6h-8.8v-14.3H403.7z"/>
			<path class="st1" d="M408.6,241.2v6h-1.9v-14.3h4.1c0.9,0,1.7,0.1,2.3,0.3c0.7,0.2,1.2,0.4,1.6,0.8c0.4,0.3,0.7,0.8,1,1.3
				c0.2,0.5,0.3,1,0.3,1.6c0,0.5-0.1,1-0.2,1.4c-0.2,0.4-0.4,0.8-0.7,1.2c-0.3,0.4-0.7,0.6-1.1,0.9c-0.4,0.2-0.9,0.4-1.5,0.6
				c0.2,0.1,0.5,0.3,0.6,0.6l4.2,5.7h-1.7c-0.4,0-0.6-0.1-0.8-0.4l-3.7-5.1c-0.1-0.2-0.2-0.3-0.4-0.3s-0.3-0.1-0.6-0.1H408.6z
				 M408.6,239.8h2c0.6,0,1.1-0.1,1.5-0.2c0.4-0.1,0.8-0.3,1.1-0.6s0.5-0.5,0.7-0.9c0.1-0.3,0.2-0.7,0.2-1.2c0-0.9-0.3-1.5-0.8-1.9
				s-1.4-0.6-2.5-0.6h-2.1V239.8z"/>
		</g>
	</g>
	<g>
		<g>
			<path class="st1" d="M488.3,211.1h-1.9v-14.3h1.9V211.1z"/>
			<path class="st1" d="M493.6,196.9c0.1,0,0.2,0.1,0.3,0.3l8.3,10.8c0-0.2,0-0.3,0-0.5c0-0.2,0-0.3,0-0.5v-10.1h1.7v14.3h-1
				c-0.2,0-0.3,0-0.4-0.1c-0.1-0.1-0.2-0.1-0.3-0.3l-8.3-10.8c0,0.2,0,0.3,0,0.5c0,0.2,0,0.3,0,0.4v10.2h-1.7v-14.3h1
				C493.3,196.8,493.5,196.8,493.6,196.9z"/>
			<path class="st1" d="M517,196.8v1.6h-4.6v12.7h-1.9v-12.7h-4.7v-1.6H517z"/>
			<path class="st1" d="M527.9,196.8v1.6H521v4.8h5.6v1.5H521v4.9h6.9v1.6h-8.8v-14.3H527.9z"/>
			<path class="st1" d="M537.1,209.7c0.4,0,0.7,0,1.1-0.1c0.3,0,0.6-0.1,0.9-0.2c0.3-0.1,0.6-0.2,0.8-0.3c0.3-0.1,0.5-0.2,0.8-0.4
				v-3.2h-2.2c-0.1,0-0.2,0-0.3-0.1s-0.1-0.2-0.1-0.3v-1.1h4.4v5.5c-0.4,0.3-0.7,0.5-1.1,0.7s-0.8,0.4-1.2,0.5s-0.9,0.2-1.4,0.3
				c-0.5,0.1-1.1,0.1-1.6,0.1c-1,0-2-0.2-2.9-0.5c-0.9-0.4-1.6-0.9-2.2-1.5c-0.6-0.6-1.1-1.4-1.5-2.3c-0.3-0.9-0.5-1.9-0.5-3
				c0-1.1,0.2-2.1,0.5-3s0.8-1.7,1.5-2.3c0.6-0.6,1.4-1.1,2.3-1.5s1.9-0.5,3-0.5c0.6,0,1.1,0,1.6,0.1c0.5,0.1,0.9,0.2,1.4,0.4
				c0.4,0.2,0.8,0.3,1.2,0.6c0.4,0.2,0.7,0.5,1,0.8l-0.6,0.9c-0.1,0.2-0.3,0.3-0.4,0.3c-0.1,0-0.2,0-0.3-0.1
				c-0.2-0.1-0.4-0.2-0.6-0.3c-0.2-0.1-0.5-0.3-0.8-0.4c-0.3-0.1-0.6-0.2-1-0.3s-0.9-0.1-1.4-0.1c-0.8,0-1.5,0.1-2.2,0.4
				c-0.7,0.3-1.2,0.6-1.7,1.1s-0.8,1.1-1.1,1.8c-0.2,0.7-0.4,1.5-0.4,2.3c0,0.9,0.1,1.7,0.4,2.4c0.3,0.7,0.6,1.3,1.1,1.8
				c0.5,0.5,1,0.9,1.7,1.1C535.6,209.6,536.3,209.7,537.1,209.7z"/>
			<path class="st1" d="M547.5,205.2v6h-1.9v-14.3h4.1c0.9,0,1.7,0.1,2.3,0.3c0.7,0.2,1.2,0.4,1.6,0.8c0.4,0.3,0.7,0.8,1,1.3
				c0.2,0.5,0.3,1,0.3,1.6c0,0.5-0.1,1-0.2,1.4s-0.4,0.8-0.7,1.2c-0.3,0.4-0.7,0.6-1.1,0.9s-0.9,0.4-1.5,0.6
				c0.2,0.1,0.5,0.3,0.6,0.6l4.2,5.7h-1.7c-0.4,0-0.6-0.1-0.8-0.4l-3.7-5.1c-0.1-0.2-0.2-0.3-0.4-0.3c-0.1-0.1-0.3-0.1-0.6-0.1
				H547.5z M547.5,203.8h2c0.6,0,1.1-0.1,1.5-0.2s0.8-0.3,1.1-0.6s0.5-0.5,0.7-0.9s0.2-0.7,0.2-1.2c0-0.9-0.3-1.5-0.8-1.9
				s-1.4-0.7-2.5-0.7h-2.1V203.8z"/>
			<path class="st1" d="M570.1,211.1h-1.5c-0.2,0-0.3,0-0.4-0.1c-0.1-0.1-0.2-0.2-0.2-0.3l-1.3-3.5h-6.4l-1.3,3.5
				c0,0.1-0.1,0.2-0.2,0.3s-0.3,0.1-0.4,0.1h-1.5l5.7-14.3h2L570.1,211.1z M560.7,205.8h5.4l-2.2-5.8c-0.1-0.4-0.3-0.8-0.4-1.3
				c-0.1,0.3-0.1,0.5-0.2,0.8c-0.1,0.2-0.1,0.4-0.2,0.6L560.7,205.8z"/>
			<path class="st1" d="M580.3,196.8v1.6h-4.6v12.7h-1.9v-12.7h-4.7v-1.6H580.3z"/>
			<path class="st1" d="M584.6,211.1h-1.9v-14.3h1.9V211.1z"/>
			<path class="st1" d="M601.8,204c0,1.1-0.2,2.1-0.5,3s-0.8,1.7-1.4,2.3s-1.4,1.1-2.2,1.5c-0.9,0.4-1.8,0.5-2.9,0.5s-2-0.2-2.9-0.5
				c-0.9-0.4-1.6-0.9-2.2-1.5c-0.6-0.6-1.1-1.4-1.4-2.3s-0.5-1.9-0.5-3c0-1.1,0.2-2.1,0.5-3s0.8-1.7,1.4-2.3
				c0.6-0.7,1.4-1.2,2.2-1.5c0.9-0.4,1.8-0.5,2.9-0.5s2,0.2,2.9,0.5c0.9,0.4,1.6,0.9,2.2,1.5s1.1,1.4,1.4,2.3S601.8,202.9,601.8,204
				z M599.8,204c0-0.9-0.1-1.7-0.4-2.4s-0.6-1.3-1-1.8s-1-0.9-1.6-1.1c-0.6-0.3-1.3-0.4-2.1-0.4c-0.8,0-1.5,0.1-2.1,0.4
				c-0.6,0.3-1.2,0.6-1.6,1.1s-0.8,1.1-1,1.8s-0.4,1.5-0.4,2.4c0,0.9,0.1,1.7,0.4,2.4c0.2,0.7,0.6,1.3,1,1.8s1,0.9,1.6,1.1
				c0.6,0.3,1.3,0.4,2.1,0.4c0.8,0,1.5-0.1,2.1-0.4c0.6-0.3,1.2-0.6,1.6-1.1s0.8-1.1,1-1.8C599.7,205.6,599.8,204.9,599.8,204z"/>
			<path class="st1" d="M605.8,196.9c0.1,0,0.2,0.1,0.3,0.3l8.3,10.8c0-0.2,0-0.3,0-0.5c0-0.2,0-0.3,0-0.5v-10.1h1.7v14.3h-1
				c-0.2,0-0.3,0-0.4-0.1c-0.1-0.1-0.2-0.1-0.3-0.3l-8.3-10.8c0,0.2,0,0.3,0,0.5s0,0.3,0,0.4v10.2h-1.7v-14.3h1
				C605.6,196.8,605.8,196.8,605.8,196.9z"/>
		</g>
	</g>
	<g>
		<g>
			<path class="st1" d="M684,198.6c0.1,0,0.2,0,0.3,0.1l0.8,0.8c-0.6,0.7-1.3,1.2-2.1,1.6c-0.8,0.4-1.8,0.6-3,0.6
				c-1,0-2-0.2-2.8-0.5c-0.8-0.4-1.6-0.9-2.2-1.5c-0.6-0.6-1.1-1.4-1.4-2.3c-0.3-0.9-0.5-1.9-0.5-3s0.2-2.1,0.5-3
				c0.4-0.9,0.8-1.7,1.5-2.3c0.6-0.6,1.4-1.1,2.3-1.5c0.9-0.4,1.9-0.5,2.9-0.5c1.1,0,2,0.2,2.7,0.5c0.8,0.3,1.4,0.8,2,1.3l-0.6,0.9
				c0,0.1-0.1,0.1-0.2,0.2c-0.1,0-0.1,0.1-0.3,0.1c-0.1,0-0.2,0-0.3-0.1c-0.1-0.1-0.2-0.1-0.3-0.2c-0.1-0.1-0.3-0.2-0.5-0.3
				c-0.2-0.1-0.4-0.2-0.6-0.3s-0.5-0.2-0.9-0.2c-0.3-0.1-0.7-0.1-1.1-0.1c-0.8,0-1.5,0.1-2.1,0.4c-0.6,0.3-1.2,0.6-1.6,1.1
				c-0.5,0.5-0.8,1.1-1.1,1.8c-0.3,0.7-0.4,1.5-0.4,2.3c0,0.9,0.1,1.7,0.4,2.4c0.3,0.7,0.6,1.3,1,1.8c0.4,0.5,1,0.9,1.6,1.1
				c0.6,0.3,1.3,0.4,2,0.4c0.4,0,0.8,0,1.2-0.1c0.3,0,0.7-0.1,0.9-0.2c0.3-0.1,0.6-0.2,0.8-0.4s0.5-0.4,0.8-0.6
				C683.8,198.6,683.9,198.6,684,198.6z"/>
			<path class="st1" d="M699.4,201.5h-1.5c-0.2,0-0.3,0-0.4-0.1c-0.1-0.1-0.2-0.2-0.2-0.3l-1.3-3.5h-6.4l-1.3,3.5
				c0,0.1-0.1,0.2-0.2,0.3s-0.3,0.1-0.4,0.1H686l5.7-14.3h2L699.4,201.5z M690,196.2h5.3l-2.2-5.8c-0.1-0.4-0.3-0.8-0.4-1.3
				c-0.1,0.3-0.1,0.5-0.2,0.8c-0.1,0.2-0.1,0.4-0.2,0.6L690,196.2z"/>
			<path class="st1" d="M703.1,199.9h6.2v1.6h-8.1v-14.3h1.9V199.9z"/>
			<path class="st1" d="M720.8,198.6c0.1,0,0.2,0,0.3,0.1l0.8,0.8c-0.6,0.7-1.3,1.2-2.1,1.6c-0.8,0.4-1.8,0.6-3,0.6
				c-1,0-2-0.2-2.8-0.5c-0.8-0.4-1.6-0.9-2.1-1.5c-0.6-0.6-1.1-1.4-1.4-2.3s-0.5-1.9-0.5-3s0.2-2.1,0.5-3c0.3-0.9,0.8-1.7,1.5-2.3
				c0.6-0.6,1.4-1.1,2.3-1.5c0.9-0.4,1.9-0.5,2.9-0.5c1.1,0,2,0.2,2.7,0.5c0.8,0.3,1.4,0.8,2,1.3l-0.6,0.9c0,0.1-0.1,0.1-0.2,0.2
				s-0.1,0.1-0.3,0.1c-0.1,0-0.2,0-0.3-0.1c-0.1-0.1-0.2-0.1-0.3-0.2c-0.1-0.1-0.3-0.2-0.5-0.3s-0.4-0.2-0.6-0.3
				c-0.2-0.1-0.5-0.2-0.9-0.2c-0.3-0.1-0.7-0.1-1.1-0.1c-0.8,0-1.5,0.1-2.1,0.4c-0.6,0.3-1.2,0.6-1.6,1.1c-0.5,0.5-0.8,1.1-1.1,1.8
				c-0.3,0.7-0.4,1.5-0.4,2.3c0,0.9,0.1,1.7,0.4,2.4c0.3,0.7,0.6,1.3,1,1.8c0.4,0.5,1,0.9,1.6,1.1c0.6,0.3,1.3,0.4,2,0.4
				c0.4,0,0.8,0,1.1-0.1c0.3,0,0.7-0.1,0.9-0.2c0.3-0.1,0.6-0.2,0.8-0.4s0.5-0.4,0.8-0.6C720.6,198.6,720.7,198.6,720.8,198.6z"/>
			<path class="st1" d="M730,200c0.6,0,1.1-0.1,1.6-0.3c0.5-0.2,0.9-0.5,1.2-0.8c0.3-0.4,0.6-0.8,0.7-1.3s0.3-1,0.3-1.7v-8.7h1.9
				v8.7c0,0.8-0.1,1.6-0.4,2.3c-0.3,0.7-0.6,1.3-1.1,1.8s-1.1,0.9-1.8,1.2s-1.5,0.4-2.4,0.4s-1.7-0.1-2.4-0.4s-1.3-0.7-1.8-1.2
				c-0.5-0.5-0.9-1.1-1.1-1.8s-0.4-1.5-0.4-2.3v-8.7h1.9v8.7c0,0.6,0.1,1.2,0.3,1.7s0.4,0.9,0.7,1.3s0.7,0.6,1.2,0.8
				C728.8,199.9,729.4,200,730,200z"/>
			<path class="st1" d="M740.9,199.9h6.2v1.6H739v-14.3h1.9V199.9z"/>
			<path class="st1" d="M758.1,187.2v1.6h-6.9v4.8h5.6v1.5h-5.6v4.9h6.9v1.6h-8.8v-14.3H758.1z"/>
			<path class="st1" d="M662.3,214.8v1.6h-4.6v12.7h-1.9v-12.7h-4.7v-1.6H662.3z"/>
			<path class="st1" d="M666.4,223.2v6h-1.9v-14.3h4.1c0.9,0,1.7,0.1,2.3,0.3s1.2,0.4,1.6,0.8s0.7,0.8,1,1.3c0.2,0.5,0.3,1,0.3,1.6
				c0,0.5-0.1,1-0.2,1.4c-0.2,0.4-0.4,0.8-0.7,1.2c-0.3,0.4-0.7,0.6-1.1,0.9c-0.4,0.2-0.9,0.4-1.5,0.6c0.2,0.1,0.5,0.3,0.6,0.6
				l4.2,5.7h-1.7c-0.4,0-0.6-0.1-0.8-0.4l-3.7-5.1c-0.1-0.2-0.2-0.3-0.4-0.3c-0.1-0.1-0.3-0.1-0.6-0.1H666.4z M666.4,221.8h2
				c0.6,0,1.1-0.1,1.5-0.2c0.4-0.1,0.8-0.3,1.1-0.6c0.3-0.2,0.5-0.5,0.7-0.9c0.1-0.3,0.2-0.7,0.2-1.2c0-0.9-0.3-1.5-0.8-1.9
				s-1.4-0.6-2.5-0.6h-2.1V221.8z"/>
			<path class="st1" d="M689,229.1h-1.5c-0.2,0-0.3,0-0.4-0.1c-0.1-0.1-0.2-0.2-0.2-0.3l-1.3-3.5h-6.4l-1.3,3.5
				c0,0.1-0.1,0.2-0.2,0.3c-0.1,0.1-0.3,0.1-0.4,0.1h-1.5l5.7-14.3h2L689,229.1z M679.6,223.8h5.4l-2.2-5.8
				c-0.1-0.4-0.3-0.8-0.4-1.3c-0.1,0.3-0.1,0.5-0.2,0.8s-0.1,0.4-0.2,0.6L679.6,223.8z"/>
			<path class="st1" d="M692.2,214.9c0.1,0,0.2,0.1,0.3,0.3l8.3,10.8c0-0.2,0-0.3,0-0.5c0-0.2,0-0.3,0-0.5v-10.2h1.7v14.3h-1
				c-0.2,0-0.3,0-0.4-0.1c-0.1-0.1-0.2-0.1-0.3-0.3l-8.3-10.8c0,0.2,0,0.3,0,0.5c0,0.2,0,0.3,0,0.4v10.2h-1.7v-14.3h1
				C692,214.8,692.1,214.8,692.2,214.9z"/>
			<path class="st1" d="M713.3,217.1c-0.1,0.1-0.1,0.2-0.2,0.2c-0.1,0.1-0.2,0.1-0.3,0.1c-0.1,0-0.2-0.1-0.4-0.2s-0.3-0.2-0.6-0.4
				c-0.2-0.1-0.5-0.3-0.8-0.4c-0.3-0.1-0.7-0.2-1.2-0.2c-0.4,0-0.8,0.1-1.2,0.2c-0.3,0.1-0.6,0.3-0.8,0.5c-0.2,0.2-0.4,0.4-0.5,0.7
				c-0.1,0.3-0.2,0.6-0.2,0.9c0,0.4,0.1,0.7,0.3,1c0.2,0.3,0.5,0.5,0.8,0.7c0.3,0.2,0.7,0.3,1.1,0.5c0.4,0.1,0.8,0.3,1.3,0.4
				s0.8,0.3,1.3,0.5c0.4,0.2,0.8,0.4,1.1,0.7c0.3,0.3,0.6,0.6,0.8,1c0.2,0.4,0.3,0.9,0.3,1.5c0,0.6-0.1,1.2-0.3,1.8
				c-0.2,0.5-0.5,1-0.9,1.4c-0.4,0.4-0.9,0.7-1.5,1c-0.6,0.2-1.3,0.3-2,0.3c-0.9,0-1.8-0.2-2.5-0.5c-0.8-0.3-1.4-0.8-2-1.4l0.6-0.9
				c0.1-0.1,0.1-0.1,0.2-0.2c0.1-0.1,0.2-0.1,0.3-0.1c0.1,0,0.3,0.1,0.5,0.2s0.4,0.3,0.7,0.5c0.3,0.2,0.6,0.3,1,0.5
				c0.4,0.1,0.9,0.2,1.4,0.2c0.5,0,0.9-0.1,1.2-0.2c0.4-0.1,0.7-0.3,0.9-0.5s0.4-0.5,0.6-0.8s0.2-0.7,0.2-1.1c0-0.4-0.1-0.8-0.3-1.1
				c-0.2-0.3-0.5-0.5-0.8-0.7c-0.3-0.2-0.7-0.3-1.1-0.5c-0.4-0.1-0.8-0.3-1.3-0.4c-0.4-0.1-0.8-0.3-1.3-0.5s-0.8-0.4-1.1-0.7
				s-0.6-0.6-0.8-1.1c-0.2-0.4-0.3-1-0.3-1.6c0-0.5,0.1-1,0.3-1.5c0.2-0.5,0.5-0.9,0.9-1.3c0.4-0.4,0.8-0.7,1.4-0.9
				c0.5-0.2,1.2-0.3,1.9-0.3c0.8,0,1.5,0.1,2.2,0.4c0.7,0.3,1.2,0.6,1.7,1.1L713.3,217.1z"/>
			<path class="st1" d="M718.8,229.1h-1.9v-14.3h1.9V229.1z"/>
			<path class="st1" d="M732.4,214.8v1.6h-4.6v12.7h-1.9v-12.7h-4.7v-1.6H732.4z"/>
			<path class="st1" d="M736.8,229.1h-1.9v-14.3h1.9V229.1z"/>
			<path class="st1" d="M753.9,222c0,1.1-0.2,2.1-0.5,3s-0.8,1.7-1.4,2.3c-0.6,0.6-1.4,1.1-2.2,1.5c-0.9,0.4-1.8,0.5-2.9,0.5
				c-1.1,0-2-0.2-2.9-0.5c-0.9-0.4-1.6-0.9-2.2-1.5c-0.6-0.6-1.1-1.4-1.4-2.3s-0.5-1.9-0.5-3c0-1.1,0.2-2.1,0.5-3s0.8-1.7,1.4-2.3
				c0.6-0.6,1.4-1.2,2.2-1.5c0.9-0.4,1.8-0.5,2.9-0.5c1.1,0,2,0.2,2.9,0.5c0.9,0.4,1.6,0.9,2.2,1.5c0.6,0.7,1.1,1.4,1.4,2.3
				S753.9,220.9,753.9,222z M751.9,222c0-0.9-0.1-1.7-0.4-2.4c-0.2-0.7-0.6-1.3-1-1.8c-0.4-0.5-1-0.9-1.6-1.1s-1.3-0.4-2.1-0.4
				c-0.8,0-1.5,0.1-2.1,0.4c-0.6,0.3-1.2,0.6-1.6,1.1c-0.4,0.5-0.8,1.1-1,1.8c-0.2,0.7-0.4,1.5-0.4,2.4c0,0.9,0.1,1.7,0.4,2.4
				s0.6,1.3,1,1.8c0.4,0.5,1,0.9,1.6,1.1c0.6,0.3,1.3,0.4,2.1,0.4c0.8,0,1.5-0.1,2.1-0.4s1.2-0.6,1.6-1.1c0.4-0.5,0.8-1.1,1-1.8
				C751.8,223.7,751.9,222.9,751.9,222z"/>
			<path class="st1" d="M757.9,214.9c0.1,0,0.2,0.1,0.3,0.3l8.3,10.8c0-0.2,0-0.3,0-0.5c0-0.2,0-0.3,0-0.5v-10.2h1.7v14.3h-1
				c-0.2,0-0.3,0-0.4-0.1c-0.1-0.1-0.2-0.1-0.3-0.3l-8.3-10.8c0,0.2,0,0.3,0,0.5c0,0.2,0,0.3,0,0.4v10.2h-1.7v-14.3h1
				C757.7,214.8,757.9,214.8,757.9,214.9z"/>
			<path class="st1" d="M779,217.1c-0.1,0.1-0.1,0.2-0.2,0.2c-0.1,0.1-0.2,0.1-0.3,0.1c-0.1,0-0.2-0.1-0.4-0.2s-0.3-0.2-0.6-0.4
				c-0.2-0.1-0.5-0.3-0.8-0.4c-0.3-0.1-0.7-0.2-1.2-0.2c-0.4,0-0.8,0.1-1.2,0.2c-0.3,0.1-0.6,0.3-0.8,0.5c-0.2,0.2-0.4,0.4-0.5,0.7
				c-0.1,0.3-0.2,0.6-0.2,0.9c0,0.4,0.1,0.7,0.3,1c0.2,0.3,0.5,0.5,0.8,0.7c0.3,0.2,0.7,0.3,1.1,0.5c0.4,0.1,0.8,0.3,1.3,0.4
				s0.9,0.3,1.3,0.5c0.4,0.2,0.8,0.4,1.1,0.7c0.3,0.3,0.6,0.6,0.8,1c0.2,0.4,0.3,0.9,0.3,1.5c0,0.6-0.1,1.2-0.3,1.8
				c-0.2,0.5-0.5,1-0.9,1.4c-0.4,0.4-0.9,0.7-1.5,1c-0.6,0.2-1.3,0.3-2,0.3c-0.9,0-1.8-0.2-2.5-0.5c-0.8-0.3-1.4-0.8-2-1.4l0.6-0.9
				c0.1-0.1,0.1-0.1,0.2-0.2c0.1-0.1,0.2-0.1,0.3-0.1c0.1,0,0.3,0.1,0.5,0.2c0.2,0.1,0.4,0.3,0.7,0.5c0.3,0.2,0.6,0.3,1,0.5
				c0.4,0.1,0.9,0.2,1.4,0.2c0.5,0,0.9-0.1,1.2-0.2c0.4-0.1,0.7-0.3,0.9-0.5s0.4-0.5,0.6-0.8s0.2-0.7,0.2-1.1c0-0.4-0.1-0.8-0.3-1.1
				c-0.2-0.3-0.5-0.5-0.8-0.7c-0.3-0.2-0.7-0.3-1.1-0.5c-0.4-0.1-0.8-0.3-1.3-0.4c-0.4-0.1-0.9-0.3-1.3-0.5
				c-0.4-0.2-0.8-0.4-1.1-0.7s-0.6-0.6-0.8-1.1c-0.2-0.4-0.3-1-0.3-1.6c0-0.5,0.1-1,0.3-1.5c0.2-0.5,0.5-0.9,0.9-1.3
				c0.4-0.4,0.8-0.7,1.4-0.9c0.6-0.2,1.2-0.3,1.9-0.3c0.8,0,1.5,0.1,2.2,0.4c0.7,0.3,1.2,0.6,1.7,1.1L779,217.1z"/>
		</g>
	</g>
	<g>
		<g>
			<path class="st1" d="M820.5,189.5c-0.1,0.1-0.1,0.2-0.2,0.2c-0.1,0-0.2,0.1-0.3,0.1c-0.1,0-0.2-0.1-0.4-0.2
				c-0.1-0.1-0.3-0.2-0.6-0.4s-0.5-0.3-0.8-0.4s-0.7-0.2-1.2-0.2c-0.4,0-0.8,0.1-1.2,0.2c-0.3,0.1-0.6,0.3-0.8,0.5s-0.4,0.4-0.5,0.7
				s-0.2,0.6-0.2,0.9c0,0.4,0.1,0.7,0.3,1c0.2,0.3,0.5,0.5,0.8,0.7s0.7,0.3,1.1,0.5c0.4,0.1,0.8,0.3,1.3,0.4
				c0.4,0.1,0.8,0.3,1.3,0.5c0.4,0.2,0.8,0.4,1.1,0.7c0.3,0.3,0.6,0.6,0.8,1c0.2,0.4,0.3,0.9,0.3,1.5c0,0.6-0.1,1.2-0.3,1.8
				c-0.2,0.6-0.5,1-0.9,1.4s-0.9,0.7-1.5,1c-0.6,0.2-1.3,0.4-2,0.4c-0.9,0-1.8-0.2-2.5-0.5c-0.8-0.3-1.4-0.8-2-1.4l0.6-0.9
				c0.1-0.1,0.1-0.1,0.2-0.2s0.2-0.1,0.3-0.1c0.1,0,0.3,0.1,0.5,0.2c0.2,0.2,0.4,0.3,0.7,0.5c0.3,0.2,0.6,0.3,1,0.5
				c0.4,0.2,0.9,0.2,1.4,0.2c0.5,0,0.9-0.1,1.2-0.2c0.4-0.1,0.7-0.3,0.9-0.5c0.2-0.2,0.4-0.5,0.6-0.8c0.1-0.3,0.2-0.7,0.2-1.1
				c0-0.4-0.1-0.8-0.3-1.1c-0.2-0.3-0.5-0.5-0.8-0.7c-0.3-0.2-0.7-0.3-1.1-0.5s-0.8-0.3-1.3-0.4s-0.8-0.3-1.3-0.5
				c-0.4-0.2-0.8-0.4-1.1-0.7c-0.3-0.3-0.6-0.6-0.8-1.1s-0.3-1-0.3-1.6c0-0.5,0.1-1,0.3-1.5s0.5-0.9,0.9-1.3s0.8-0.7,1.4-0.9
				c0.6-0.2,1.2-0.3,1.9-0.3c0.8,0,1.5,0.1,2.2,0.4s1.2,0.6,1.7,1.1L820.5,189.5z"/>
			<path class="st1" d="M825.9,196.2v5.4h-1.9v-14.3h4.2c0.9,0,1.7,0.1,2.4,0.3s1.2,0.5,1.7,0.9c0.4,0.4,0.8,0.9,1,1.4
				s0.3,1.2,0.3,1.8c0,0.7-0.1,1.3-0.3,1.8c-0.2,0.6-0.6,1-1,1.4c-0.4,0.4-1,0.7-1.7,0.9c-0.7,0.2-1.4,0.3-2.3,0.3H825.9z
				 M825.9,194.6h2.3c0.6,0,1-0.1,1.5-0.2c0.4-0.1,0.8-0.4,1.1-0.6c0.3-0.3,0.5-0.6,0.6-0.9c0.1-0.4,0.2-0.8,0.2-1.2
				c0-0.9-0.3-1.6-0.8-2.1c-0.6-0.5-1.4-0.8-2.6-0.8h-2.3V194.6z"/>
			<path class="st1" d="M846.4,201.5h-1.5c-0.2,0-0.3,0-0.4-0.1c-0.1-0.1-0.2-0.2-0.2-0.3l-1.3-3.5h-6.4l-1.3,3.5
				c0,0.1-0.1,0.2-0.2,0.3s-0.3,0.1-0.4,0.1h-1.5l5.7-14.3h2L846.4,201.5z M837,196.2h5.3l-2.2-5.8c-0.1-0.4-0.3-0.8-0.4-1.3
				c-0.1,0.3-0.1,0.5-0.2,0.8c-0.1,0.2-0.1,0.4-0.2,0.6L837,196.2z"/>
			<path class="st1" d="M856.6,187.2v1.6H852v12.7h-1.9v-12.7h-4.7v-1.6H856.6z"/>
			<path class="st1" d="M861,201.5H859v-14.3h1.9V201.5z"/>
			<path class="st1" d="M876.6,201.5h-1.5c-0.2,0-0.3,0-0.4-0.1c-0.1-0.1-0.2-0.2-0.2-0.3l-1.3-3.5h-6.4l-1.3,3.5
				c0,0.1-0.1,0.2-0.2,0.3s-0.3,0.1-0.4,0.1h-1.5l5.7-14.3h2L876.6,201.5z M867.2,196.2h5.4l-2.2-5.8c-0.1-0.4-0.3-0.8-0.4-1.3
				c-0.1,0.3-0.1,0.5-0.2,0.8c-0.1,0.2-0.1,0.4-0.2,0.6L867.2,196.2z"/>
			<path class="st1" d="M880.3,199.9h6.2v1.6h-8.1v-14.3h1.9V199.9z"/>
			<path class="st1" d="M901.4,187.2v1.6h-6.9v5h5.9v1.6h-5.9v6.2h-2v-14.3H901.4z"/>
			<path class="st1" d="M906.2,201.5h-1.9v-14.3h1.9V201.5z"/>
			<path class="st1" d="M911.9,199.9h6.2v1.6H910v-14.3h1.9V199.9z"/>
			<path class="st1" d="M928.3,187.2v1.6h-4.6v12.7h-1.9v-12.7h-4.7v-1.6H928.3z"/>
			<path class="st1" d="M939.2,187.2v1.6h-6.9v4.8h5.6v1.5h-5.6v4.9h6.9v1.6h-8.8v-14.3H939.2z"/>
			<path class="st1" d="M944.1,195.6v6h-1.9v-14.3h4c0.9,0,1.7,0.1,2.3,0.3c0.7,0.2,1.2,0.4,1.6,0.8c0.4,0.3,0.7,0.8,1,1.3
				c0.2,0.5,0.3,1,0.3,1.6c0,0.5-0.1,1-0.2,1.4s-0.4,0.8-0.7,1.2c-0.3,0.4-0.7,0.6-1.1,0.9c-0.4,0.2-0.9,0.4-1.5,0.6
				c0.2,0.1,0.5,0.3,0.6,0.6l4.2,5.7H951c-0.4,0-0.6-0.1-0.8-0.4l-3.7-5.1c-0.1-0.2-0.2-0.3-0.4-0.3c-0.1-0.1-0.3-0.1-0.6-0.1H944.1
				z M944.1,194.2h2c0.6,0,1.1-0.1,1.5-0.2c0.4-0.1,0.8-0.3,1.1-0.6c0.3-0.2,0.5-0.5,0.7-0.9s0.2-0.7,0.2-1.2c0-0.9-0.3-1.5-0.8-1.9
				s-1.4-0.7-2.5-0.7h-2.1V194.2z"/>
			<path class="st1" d="M828.9,214.8v1.6h-4.6v12.7h-1.9v-12.7h-4.7v-1.6H828.9z"/>
			<path class="st1" d="M833.1,223.2v6h-1.9v-14.3h4c0.9,0,1.7,0.1,2.3,0.3c0.7,0.2,1.2,0.4,1.6,0.8c0.4,0.3,0.7,0.8,1,1.3
				c0.2,0.5,0.3,1,0.3,1.6c0,0.5-0.1,1-0.2,1.4c-0.2,0.4-0.4,0.8-0.7,1.2s-0.7,0.6-1.1,0.9c-0.4,0.2-0.9,0.4-1.5,0.6
				c0.2,0.1,0.5,0.3,0.6,0.6l4.2,5.7H840c-0.4,0-0.6-0.1-0.8-0.4l-3.7-5.1c-0.1-0.2-0.2-0.3-0.4-0.3s-0.3-0.1-0.6-0.1H833.1z
				 M833.1,221.8h2c0.6,0,1.1-0.1,1.5-0.2c0.4-0.1,0.8-0.3,1.1-0.6s0.5-0.5,0.7-0.9c0.1-0.3,0.2-0.7,0.2-1.2c0-0.9-0.3-1.5-0.8-1.9
				c-0.6-0.4-1.4-0.6-2.5-0.6h-2.1V221.8z"/>
			<path class="st1" d="M855.6,229.1h-1.5c-0.2,0-0.3,0-0.4-0.1c-0.1-0.1-0.2-0.2-0.2-0.3l-1.3-3.5h-6.4l-1.3,3.5
				c0,0.1-0.1,0.2-0.2,0.3c-0.1,0.1-0.3,0.1-0.4,0.1h-1.5l5.7-14.3h2L855.6,229.1z M846.2,223.8h5.4l-2.2-5.8
				c-0.1-0.4-0.3-0.8-0.4-1.3c-0.1,0.3-0.1,0.5-0.2,0.8c-0.1,0.2-0.1,0.4-0.2,0.6L846.2,223.8z"/>
			<path class="st1" d="M858.8,214.9c0.1,0,0.2,0.1,0.3,0.3l8.3,10.8c0-0.2,0-0.3,0-0.5c0-0.2,0-0.3,0-0.5v-10.2h1.7v14.3h-1
				c-0.2,0-0.3,0-0.4-0.1c-0.1-0.1-0.2-0.1-0.3-0.3l-8.3-10.8c0,0.2,0,0.3,0,0.5c0,0.2,0,0.3,0,0.4v10.2h-1.7v-14.3h1
				C858.6,214.8,858.7,214.8,858.8,214.9z"/>
			<path class="st1" d="M879.9,217.1c-0.1,0.1-0.1,0.2-0.2,0.2c-0.1,0.1-0.2,0.1-0.3,0.1c-0.1,0-0.2-0.1-0.4-0.2
				c-0.2-0.1-0.3-0.2-0.6-0.4s-0.5-0.3-0.8-0.4s-0.7-0.2-1.2-0.2c-0.4,0-0.8,0.1-1.2,0.2s-0.6,0.3-0.8,0.5c-0.2,0.2-0.4,0.4-0.5,0.7
				c-0.1,0.3-0.2,0.6-0.2,0.9c0,0.4,0.1,0.7,0.3,1c0.2,0.3,0.5,0.5,0.8,0.7c0.3,0.2,0.7,0.3,1.1,0.5c0.4,0.1,0.8,0.3,1.3,0.4
				c0.4,0.1,0.9,0.3,1.3,0.5c0.4,0.2,0.8,0.4,1.1,0.7s0.6,0.6,0.8,1c0.2,0.4,0.3,0.9,0.3,1.5c0,0.6-0.1,1.2-0.3,1.8s-0.5,1-0.9,1.4
				c-0.4,0.4-0.9,0.7-1.5,1c-0.6,0.2-1.3,0.3-2,0.3c-0.9,0-1.8-0.2-2.5-0.5c-0.8-0.3-1.4-0.8-2-1.4l0.6-0.9c0.1-0.1,0.1-0.1,0.2-0.2
				c0.1-0.1,0.2-0.1,0.3-0.1c0.1,0,0.3,0.1,0.5,0.2c0.2,0.1,0.4,0.3,0.7,0.5s0.6,0.3,1,0.5c0.4,0.1,0.9,0.2,1.4,0.2
				c0.5,0,0.9-0.1,1.2-0.2c0.4-0.1,0.7-0.3,0.9-0.5s0.4-0.5,0.6-0.8c0.1-0.3,0.2-0.7,0.2-1.1c0-0.4-0.1-0.8-0.3-1.1
				c-0.2-0.3-0.5-0.5-0.8-0.7c-0.3-0.2-0.7-0.3-1.1-0.5c-0.4-0.1-0.8-0.3-1.3-0.4s-0.9-0.3-1.3-0.5c-0.4-0.2-0.8-0.4-1.1-0.7
				c-0.3-0.3-0.6-0.6-0.8-1.1c-0.2-0.4-0.3-1-0.3-1.6c0-0.5,0.1-1,0.3-1.5c0.2-0.5,0.5-0.9,0.9-1.3c0.4-0.4,0.8-0.7,1.4-0.9
				c0.5-0.2,1.2-0.3,1.9-0.3c0.8,0,1.5,0.1,2.2,0.4c0.7,0.3,1.2,0.6,1.7,1.1L879.9,217.1z"/>
			<path class="st1" d="M885.4,229.1h-1.9v-14.3h1.9V229.1z"/>
			<path class="st1" d="M899,214.8v1.6h-4.6v12.7h-1.9v-12.7h-4.7v-1.6H899z"/>
			<path class="st1" d="M903.4,229.1h-1.9v-14.3h1.9V229.1z"/>
			<path class="st1" d="M920.5,222c0,1.1-0.2,2.1-0.5,3s-0.8,1.7-1.4,2.3c-0.6,0.6-1.4,1.1-2.2,1.5c-0.9,0.4-1.8,0.5-2.9,0.5
				s-2-0.2-2.9-0.5c-0.9-0.4-1.6-0.9-2.2-1.5c-0.6-0.6-1.1-1.4-1.4-2.3c-0.3-0.9-0.5-1.9-0.5-3c0-1.1,0.2-2.1,0.5-3
				c0.3-0.9,0.8-1.7,1.4-2.3c0.6-0.6,1.4-1.2,2.2-1.5s1.8-0.5,2.9-0.5s2,0.2,2.9,0.5c0.9,0.4,1.6,0.9,2.2,1.5
				c0.6,0.7,1.1,1.4,1.4,2.3S920.5,220.9,920.5,222z M918.5,222c0-0.9-0.1-1.7-0.4-2.4c-0.2-0.7-0.6-1.3-1-1.8
				c-0.4-0.5-1-0.9-1.6-1.1s-1.3-0.4-2.1-0.4c-0.8,0-1.5,0.1-2.1,0.4s-1.2,0.6-1.6,1.1c-0.4,0.5-0.8,1.1-1,1.8
				c-0.2,0.7-0.4,1.5-0.4,2.4c0,0.9,0.1,1.7,0.4,2.4c0.2,0.7,0.6,1.3,1,1.8c0.4,0.5,1,0.9,1.6,1.1s1.3,0.4,2.1,0.4
				c0.8,0,1.5-0.1,2.1-0.4s1.2-0.6,1.6-1.1c0.4-0.5,0.8-1.1,1-1.8C918.4,223.7,918.5,222.9,918.5,222z"/>
			<path class="st1" d="M924.5,214.9c0.1,0,0.2,0.1,0.3,0.3l8.3,10.8c0-0.2,0-0.3,0-0.5c0-0.2,0-0.3,0-0.5v-10.2h1.7v14.3h-1
				c-0.2,0-0.3,0-0.4-0.1c-0.1-0.1-0.2-0.1-0.3-0.3l-8.3-10.8c0,0.2,0,0.3,0,0.5c0,0.2,0,0.3,0,0.4v10.2h-1.7v-14.3h1
				C924.3,214.8,924.5,214.8,924.5,214.9z"/>
			<path class="st1" d="M945.6,217.1c-0.1,0.1-0.1,0.2-0.2,0.2c-0.1,0.1-0.2,0.1-0.3,0.1c-0.1,0-0.2-0.1-0.4-0.2
				c-0.1-0.1-0.3-0.2-0.6-0.4s-0.5-0.3-0.8-0.4s-0.7-0.2-1.2-0.2c-0.4,0-0.8,0.1-1.2,0.2c-0.3,0.1-0.6,0.3-0.8,0.5
				c-0.2,0.2-0.4,0.4-0.5,0.7c-0.1,0.3-0.2,0.6-0.2,0.9c0,0.4,0.1,0.7,0.3,1c0.2,0.3,0.5,0.5,0.8,0.7c0.3,0.2,0.7,0.3,1.1,0.5
				c0.4,0.1,0.8,0.3,1.3,0.4c0.4,0.1,0.8,0.3,1.3,0.5c0.4,0.2,0.8,0.4,1.1,0.7s0.6,0.6,0.8,1s0.3,0.9,0.3,1.5c0,0.6-0.1,1.2-0.3,1.8
				s-0.5,1-0.9,1.4c-0.4,0.4-0.9,0.7-1.5,1c-0.6,0.2-1.3,0.3-2,0.3c-0.9,0-1.8-0.2-2.5-0.5c-0.8-0.3-1.4-0.8-2-1.4l0.6-0.9
				c0.1-0.1,0.1-0.1,0.2-0.2c0.1-0.1,0.2-0.1,0.3-0.1c0.1,0,0.3,0.1,0.5,0.2s0.4,0.3,0.7,0.5s0.6,0.3,1,0.5c0.4,0.1,0.9,0.2,1.4,0.2
				c0.5,0,0.9-0.1,1.2-0.2c0.4-0.1,0.7-0.3,0.9-0.5s0.4-0.5,0.6-0.8c0.1-0.3,0.2-0.7,0.2-1.1c0-0.4-0.1-0.8-0.3-1.1
				c-0.2-0.3-0.5-0.5-0.8-0.7c-0.3-0.2-0.7-0.3-1.1-0.5c-0.4-0.1-0.8-0.3-1.3-0.4s-0.8-0.3-1.3-0.5s-0.8-0.4-1.1-0.7
				c-0.3-0.3-0.6-0.6-0.8-1.1s-0.3-1-0.3-1.6c0-0.5,0.1-1,0.3-1.5c0.2-0.5,0.5-0.9,0.9-1.3c0.4-0.4,0.8-0.7,1.4-0.9
				c0.6-0.2,1.2-0.3,1.9-0.3c0.8,0,1.5,0.1,2.2,0.4c0.7,0.3,1.2,0.6,1.7,1.1L945.6,217.1z"/>
		</g>
	</g>
	<g>
		<g>
			<path class="st1" d="M1048.6,94.4c0.1,0,0.2,0,0.3,0.1l0.8,0.8c-0.6,0.7-1.3,1.2-2.1,1.6c-0.8,0.4-1.8,0.6-3,0.6
				c-1,0-2-0.2-2.8-0.5c-0.8-0.4-1.6-0.9-2.1-1.5c-0.6-0.6-1.1-1.4-1.4-2.3s-0.5-1.9-0.5-3s0.2-2.1,0.5-3s0.8-1.7,1.5-2.3
				c0.6-0.6,1.4-1.1,2.3-1.5c0.9-0.4,1.9-0.5,2.9-0.5c1.1,0,2,0.2,2.7,0.5c0.8,0.3,1.4,0.8,2,1.3l-0.6,0.9c0,0.1-0.1,0.1-0.2,0.2
				c-0.1,0-0.1,0.1-0.3,0.1c-0.1,0-0.2,0-0.3-0.1c-0.1-0.1-0.2-0.1-0.3-0.2s-0.3-0.2-0.5-0.3c-0.2-0.1-0.4-0.2-0.6-0.3
				c-0.2-0.1-0.5-0.2-0.9-0.2c-0.3-0.1-0.7-0.1-1.1-0.1c-0.8,0-1.5,0.1-2.1,0.4c-0.6,0.3-1.2,0.6-1.6,1.1c-0.5,0.5-0.8,1.1-1.1,1.8
				c-0.3,0.7-0.4,1.5-0.4,2.3c0,0.9,0.1,1.7,0.4,2.4c0.3,0.7,0.6,1.3,1,1.8s1,0.9,1.6,1.1c0.6,0.3,1.3,0.4,2,0.4
				c0.4,0,0.8,0,1.1-0.1s0.7-0.1,0.9-0.2c0.3-0.1,0.6-0.2,0.8-0.4c0.2-0.2,0.5-0.4,0.8-0.6C1048.4,94.4,1048.5,94.4,1048.6,94.4z"/>
			<path class="st1" d="M1064,97.3h-1.5c-0.2,0-0.3,0-0.4-0.1c-0.1-0.1-0.2-0.2-0.2-0.3l-1.3-3.5h-6.4l-1.3,3.5
				c0,0.1-0.1,0.2-0.2,0.3c-0.1,0.1-0.3,0.1-0.4,0.1h-1.5l5.7-14.3h2L1064,97.3z M1054.6,92h5.4l-2.2-5.8c-0.1-0.4-0.3-0.8-0.4-1.4
				c-0.1,0.3-0.1,0.5-0.2,0.8s-0.1,0.4-0.2,0.6L1054.6,92z"/>
			<path class="st1" d="M1067.7,95.7h6.2v1.6h-8.1V83h1.9V95.7z"/>
			<path class="st1" d="M1085.4,94.4c0.1,0,0.2,0,0.3,0.1l0.8,0.8c-0.6,0.7-1.3,1.2-2.1,1.6c-0.8,0.4-1.8,0.6-3,0.6
				c-1,0-2-0.2-2.8-0.5c-0.8-0.4-1.6-0.9-2.1-1.5c-0.6-0.6-1.1-1.4-1.4-2.3c-0.3-0.9-0.5-1.9-0.5-3s0.2-2.1,0.5-3s0.8-1.7,1.5-2.3
				c0.6-0.6,1.4-1.1,2.3-1.5c0.9-0.4,1.9-0.5,2.9-0.5c1.1,0,2,0.2,2.7,0.5s1.4,0.8,2,1.3l-0.6,0.9c0,0.1-0.1,0.1-0.2,0.2
				c-0.1,0-0.1,0.1-0.3,0.1c-0.1,0-0.2,0-0.3-0.1s-0.2-0.1-0.3-0.2c-0.1-0.1-0.3-0.2-0.5-0.3c-0.2-0.1-0.4-0.2-0.6-0.3
				s-0.5-0.2-0.9-0.2s-0.7-0.1-1.1-0.1c-0.8,0-1.5,0.1-2.1,0.4c-0.6,0.3-1.2,0.6-1.6,1.1c-0.5,0.5-0.8,1.1-1.1,1.8
				c-0.3,0.7-0.4,1.5-0.4,2.3c0,0.9,0.1,1.7,0.4,2.4c0.3,0.7,0.6,1.3,1.1,1.8s1,0.9,1.6,1.1c0.6,0.3,1.3,0.4,2,0.4
				c0.4,0,0.8,0,1.1-0.1s0.7-0.1,0.9-0.2c0.3-0.1,0.6-0.2,0.8-0.4c0.2-0.2,0.5-0.4,0.8-0.6C1085.2,94.4,1085.3,94.4,1085.4,94.4z"/>
			<path class="st1" d="M1094.6,95.8c0.6,0,1.1-0.1,1.6-0.3c0.5-0.2,0.9-0.5,1.2-0.8c0.3-0.4,0.6-0.8,0.7-1.3c0.2-0.5,0.3-1,0.3-1.6
				V83h1.9v8.7c0,0.8-0.1,1.6-0.4,2.3s-0.6,1.3-1.1,1.8c-0.5,0.5-1.1,0.9-1.8,1.2c-0.7,0.3-1.5,0.4-2.4,0.4c-0.9,0-1.7-0.1-2.4-0.4
				s-1.3-0.7-1.8-1.2s-0.9-1.1-1.1-1.8c-0.3-0.7-0.4-1.5-0.4-2.3V83h1.9v8.7c0,0.6,0.1,1.1,0.3,1.6s0.4,0.9,0.7,1.3
				c0.3,0.4,0.7,0.6,1.2,0.8C1093.4,95.7,1094,95.8,1094.6,95.8z"/>
			<path class="st1" d="M1105.5,95.7h6.2v1.6h-8.1V83h1.9V95.7z"/>
			<path class="st1" d="M1122.7,83v1.6h-6.9v4.8h5.6v1.5h-5.6v4.9h6.9v1.6h-8.8V83H1122.7z"/>
			<path class="st1" d="M1021.7,112.8c-0.1,0.1-0.1,0.2-0.2,0.2c-0.1,0.1-0.2,0.1-0.3,0.1c-0.1,0-0.2-0.1-0.4-0.2
				c-0.2-0.1-0.3-0.2-0.6-0.4s-0.5-0.3-0.8-0.4s-0.7-0.2-1.2-0.2c-0.4,0-0.8,0.1-1.2,0.2s-0.6,0.3-0.8,0.5c-0.2,0.2-0.4,0.4-0.5,0.7
				s-0.2,0.6-0.2,0.9c0,0.4,0.1,0.7,0.3,1c0.2,0.3,0.5,0.5,0.8,0.7c0.3,0.2,0.7,0.3,1.1,0.5c0.4,0.1,0.8,0.3,1.3,0.4
				c0.4,0.1,0.9,0.3,1.3,0.5c0.4,0.2,0.8,0.4,1.1,0.7c0.3,0.3,0.6,0.6,0.8,1c0.2,0.4,0.3,0.9,0.3,1.5c0,0.6-0.1,1.2-0.3,1.8
				s-0.5,1-0.9,1.4c-0.4,0.4-0.9,0.7-1.5,1c-0.6,0.2-1.3,0.4-2,0.4c-0.9,0-1.8-0.2-2.5-0.5c-0.8-0.3-1.4-0.8-2-1.4l0.6-0.9
				c0.1-0.1,0.1-0.1,0.2-0.2c0.1-0.1,0.2-0.1,0.3-0.1c0.1,0,0.3,0.1,0.5,0.2c0.2,0.1,0.4,0.3,0.7,0.5c0.3,0.2,0.6,0.3,1,0.5
				c0.4,0.1,0.9,0.2,1.4,0.2c0.5,0,0.9-0.1,1.2-0.2c0.4-0.1,0.7-0.3,0.9-0.5s0.4-0.5,0.6-0.8c0.1-0.3,0.2-0.7,0.2-1.1
				c0-0.4-0.1-0.8-0.3-1.1c-0.2-0.3-0.5-0.5-0.8-0.7c-0.3-0.2-0.7-0.3-1.1-0.5c-0.4-0.1-0.8-0.3-1.3-0.4s-0.9-0.3-1.3-0.5
				c-0.4-0.2-0.8-0.4-1.1-0.7c-0.3-0.3-0.6-0.6-0.8-1.1c-0.2-0.4-0.3-1-0.3-1.6c0-0.5,0.1-1,0.3-1.5c0.2-0.5,0.5-0.9,0.9-1.3
				c0.4-0.4,0.8-0.7,1.4-0.9c0.5-0.2,1.2-0.3,1.9-0.3c0.8,0,1.5,0.1,2.2,0.4c0.7,0.3,1.2,0.6,1.7,1.1L1021.7,112.8z"/>
			<path class="st1" d="M1034.7,110.6v1.6h-4.6v12.7h-1.9v-12.7h-4.7v-1.6H1034.7z"/>
			<path class="st1" d="M1047.2,124.9h-1.5c-0.2,0-0.3,0-0.4-0.1c-0.1-0.1-0.2-0.2-0.2-0.3l-1.3-3.5h-6.4l-1.3,3.5
				c0,0.1-0.1,0.2-0.2,0.3c-0.1,0.1-0.3,0.1-0.4,0.1h-1.5l5.7-14.3h2L1047.2,124.9z M1037.8,119.6h5.4l-2.2-5.8
				c-0.1-0.4-0.3-0.8-0.4-1.4c-0.1,0.3-0.1,0.5-0.2,0.8s-0.1,0.4-0.2,0.6L1037.8,119.6z"/>
			<path class="st1" d="M1057.5,110.6v1.6h-4.6v12.7h-1.9v-12.7h-4.7v-1.6H1057.5z"/>
			<path class="st1" d="M1061.8,124.9h-1.9v-14.3h1.9V124.9z"/>
			<path class="st1" d="M1073,112.8c-0.1,0.1-0.1,0.2-0.2,0.2c-0.1,0.1-0.2,0.1-0.3,0.1c-0.1,0-0.2-0.1-0.4-0.2
				c-0.1-0.1-0.3-0.2-0.6-0.4s-0.5-0.3-0.8-0.4s-0.7-0.2-1.2-0.2c-0.4,0-0.8,0.1-1.2,0.2c-0.3,0.1-0.6,0.3-0.8,0.5s-0.4,0.4-0.5,0.7
				s-0.2,0.6-0.2,0.9c0,0.4,0.1,0.7,0.3,1c0.2,0.3,0.5,0.5,0.8,0.7s0.7,0.3,1.1,0.5c0.4,0.1,0.8,0.3,1.3,0.4
				c0.4,0.1,0.8,0.3,1.3,0.5c0.4,0.2,0.8,0.4,1.1,0.7c0.3,0.3,0.6,0.6,0.8,1c0.2,0.4,0.3,0.9,0.3,1.5c0,0.6-0.1,1.2-0.3,1.8
				s-0.5,1-0.9,1.4s-0.9,0.7-1.5,1c-0.6,0.2-1.3,0.4-2,0.4c-0.9,0-1.8-0.2-2.5-0.5c-0.8-0.3-1.4-0.8-2-1.4l0.6-0.9
				c0.1-0.1,0.1-0.1,0.2-0.2c0.1-0.1,0.2-0.1,0.3-0.1c0.1,0,0.3,0.1,0.5,0.2s0.4,0.3,0.7,0.5c0.3,0.2,0.6,0.3,1,0.5
				c0.4,0.1,0.9,0.2,1.4,0.2c0.5,0,0.9-0.1,1.2-0.2c0.4-0.1,0.7-0.3,0.9-0.5s0.4-0.5,0.6-0.8c0.1-0.3,0.2-0.7,0.2-1.1
				c0-0.4-0.1-0.8-0.3-1.1c-0.2-0.3-0.5-0.5-0.8-0.7c-0.3-0.2-0.7-0.3-1.1-0.5c-0.4-0.1-0.8-0.3-1.3-0.4s-0.8-0.3-1.3-0.5
				c-0.4-0.2-0.8-0.4-1.1-0.7c-0.3-0.3-0.6-0.6-0.8-1.1c-0.2-0.4-0.3-1-0.3-1.6c0-0.5,0.1-1,0.3-1.5c0.2-0.5,0.5-0.9,0.9-1.3
				s0.8-0.7,1.4-0.9c0.6-0.2,1.2-0.3,1.9-0.3c0.8,0,1.5,0.1,2.2,0.4s1.2,0.6,1.7,1.1L1073,112.8z"/>
			<path class="st1" d="M1086,110.6v1.6h-4.6v12.7h-1.9v-12.7h-4.7v-1.6H1086z"/>
			<path class="st1" d="M1090.4,124.9h-1.9v-14.3h1.9V124.9z"/>
			<path class="st1" d="M1104.3,122c0.1,0,0.2,0,0.3,0.1l0.8,0.8c-0.6,0.7-1.3,1.2-2.1,1.6c-0.8,0.4-1.8,0.6-3,0.6
				c-1,0-2-0.2-2.8-0.5c-0.8-0.4-1.6-0.9-2.1-1.5c-0.6-0.6-1.1-1.4-1.4-2.3s-0.5-1.9-0.5-3s0.2-2.1,0.5-3s0.8-1.7,1.5-2.3
				c0.6-0.6,1.4-1.1,2.3-1.5c0.9-0.4,1.9-0.5,2.9-0.5c1.1,0,2,0.2,2.7,0.5c0.8,0.3,1.4,0.8,2,1.3l-0.6,0.9c0,0.1-0.1,0.1-0.2,0.2
				c-0.1,0-0.1,0.1-0.3,0.1c-0.1,0-0.2,0-0.3-0.1c-0.1-0.1-0.2-0.1-0.3-0.2s-0.3-0.2-0.5-0.3c-0.2-0.1-0.4-0.2-0.6-0.3
				c-0.2-0.1-0.5-0.2-0.9-0.2c-0.3-0.1-0.7-0.1-1.1-0.1c-0.8,0-1.5,0.1-2.1,0.4c-0.6,0.3-1.2,0.6-1.6,1.1c-0.5,0.5-0.8,1.1-1.1,1.8
				c-0.3,0.7-0.4,1.5-0.4,2.3c0,0.9,0.1,1.7,0.4,2.4c0.3,0.7,0.6,1.3,1,1.8s1,0.9,1.6,1.1c0.6,0.3,1.3,0.4,2,0.4
				c0.4,0,0.8,0,1.1-0.1s0.7-0.1,0.9-0.2c0.3-0.1,0.6-0.2,0.8-0.4c0.2-0.2,0.5-0.4,0.8-0.6C1104.1,122,1104.2,122,1104.3,122z"/>
			<path class="st1" d="M1115.2,112.8c-0.1,0.1-0.1,0.2-0.2,0.2c-0.1,0.1-0.2,0.1-0.3,0.1c-0.1,0-0.2-0.1-0.4-0.2s-0.3-0.2-0.6-0.4
				c-0.2-0.1-0.5-0.3-0.8-0.4c-0.3-0.1-0.7-0.2-1.2-0.2c-0.4,0-0.8,0.1-1.2,0.2c-0.3,0.1-0.6,0.3-0.8,0.5c-0.2,0.2-0.4,0.4-0.5,0.7
				s-0.2,0.6-0.2,0.9c0,0.4,0.1,0.7,0.3,1c0.2,0.3,0.5,0.5,0.8,0.7c0.3,0.2,0.7,0.3,1.1,0.5c0.4,0.1,0.8,0.3,1.3,0.4
				c0.4,0.1,0.9,0.3,1.3,0.5c0.4,0.2,0.8,0.4,1.1,0.7c0.3,0.3,0.6,0.6,0.8,1c0.2,0.4,0.3,0.9,0.3,1.5c0,0.6-0.1,1.2-0.3,1.8
				c-0.2,0.5-0.5,1-0.9,1.4c-0.4,0.4-0.9,0.7-1.5,1s-1.3,0.4-2,0.4c-0.9,0-1.8-0.2-2.5-0.5c-0.8-0.3-1.4-0.8-2-1.4l0.6-0.9
				c0.1-0.1,0.1-0.1,0.2-0.2c0.1-0.1,0.2-0.1,0.3-0.1c0.1,0,0.3,0.1,0.5,0.2c0.2,0.1,0.4,0.3,0.7,0.5c0.3,0.2,0.6,0.3,1,0.5
				c0.4,0.1,0.9,0.2,1.4,0.2c0.5,0,0.9-0.1,1.2-0.2c0.4-0.1,0.7-0.3,0.9-0.5s0.4-0.5,0.6-0.8s0.2-0.7,0.2-1.1c0-0.4-0.1-0.8-0.3-1.1
				c-0.2-0.3-0.5-0.5-0.8-0.7c-0.3-0.2-0.7-0.3-1.1-0.5c-0.4-0.1-0.8-0.3-1.3-0.4c-0.4-0.1-0.9-0.3-1.3-0.5
				c-0.4-0.2-0.8-0.4-1.1-0.7s-0.6-0.6-0.8-1.1c-0.2-0.4-0.3-1-0.3-1.6c0-0.5,0.1-1,0.3-1.5c0.2-0.5,0.5-0.9,0.9-1.3
				s0.8-0.7,1.4-0.9c0.6-0.2,1.2-0.3,1.9-0.3c0.8,0,1.5,0.1,2.2,0.4c0.7,0.3,1.2,0.6,1.7,1.1L1115.2,112.8z"/>
			<path class="st1" d="M1135.7,117.8c0,1.1-0.2,2.1-0.5,3c-0.3,0.9-0.8,1.7-1.4,2.3c-0.6,0.6-1.4,1.1-2.2,1.5
				c-0.9,0.4-1.8,0.5-2.9,0.5c-1.1,0-2-0.2-2.9-0.5c-0.9-0.4-1.6-0.9-2.2-1.5c-0.6-0.6-1.1-1.4-1.4-2.3c-0.3-0.9-0.5-1.9-0.5-3
				c0-1.1,0.2-2.1,0.5-3c0.3-0.9,0.8-1.7,1.4-2.3s1.4-1.2,2.2-1.5c0.9-0.4,1.8-0.5,2.9-0.5c1.1,0,2,0.2,2.9,0.5
				c0.9,0.4,1.6,0.9,2.2,1.5c0.6,0.6,1.1,1.4,1.4,2.3C1135.5,115.7,1135.7,116.7,1135.7,117.8z M1133.7,117.8c0-0.9-0.1-1.7-0.4-2.4
				c-0.2-0.7-0.6-1.3-1-1.8c-0.4-0.5-1-0.9-1.6-1.1c-0.6-0.3-1.3-0.4-2.1-0.4c-0.8,0-1.5,0.1-2.1,0.4c-0.6,0.3-1.2,0.6-1.6,1.1
				c-0.4,0.5-0.8,1.1-1,1.8c-0.2,0.7-0.4,1.5-0.4,2.4c0,0.9,0.1,1.7,0.4,2.4s0.6,1.3,1,1.8s1,0.9,1.6,1.1c0.6,0.3,1.3,0.4,2.1,0.4
				c0.8,0,1.5-0.1,2.1-0.4c0.6-0.3,1.2-0.6,1.6-1.1c0.4-0.5,0.8-1.1,1-1.8C1133.6,119.4,1133.7,118.6,1133.7,117.8z"/>
			<path class="st1" d="M1147.1,110.6v1.6h-6.9v5h5.9v1.6h-5.9v6.2h-2v-14.3H1147.1z"/>
			<path class="st1" d="M1067.9,152.5h-1.5c-0.2,0-0.3,0-0.4-0.1c-0.1-0.1-0.2-0.2-0.2-0.3l-1.3-3.5h-6.4l-1.3,3.5
				c0,0.1-0.1,0.2-0.2,0.3c-0.1,0.1-0.3,0.1-0.4,0.1h-1.5l5.7-14.3h2L1067.9,152.5z M1058.6,147.2h5.3l-2.2-5.8
				c-0.1-0.4-0.3-0.8-0.4-1.4c-0.1,0.3-0.1,0.5-0.2,0.8c-0.1,0.2-0.1,0.4-0.2,0.6L1058.6,147.2z"/>
			<path class="st1" d="M1071.9,146.5v6h-1.9v-14.3h4.1c0.9,0,1.7,0.1,2.3,0.3c0.7,0.2,1.2,0.4,1.6,0.8s0.7,0.8,1,1.3
				c0.2,0.5,0.3,1,0.3,1.6c0,0.5-0.1,1-0.2,1.4s-0.4,0.8-0.7,1.2c-0.3,0.4-0.7,0.6-1.1,0.9c-0.4,0.2-0.9,0.4-1.5,0.6
				c0.2,0.1,0.5,0.3,0.6,0.6l4.2,5.7h-1.7c-0.4,0-0.6-0.1-0.8-0.4l-3.7-5.1c-0.1-0.2-0.2-0.3-0.4-0.3c-0.1-0.1-0.3-0.1-0.6-0.1
				H1071.9z M1071.9,145.1h2c0.6,0,1.1-0.1,1.5-0.2c0.4-0.1,0.8-0.3,1.1-0.6c0.3-0.2,0.5-0.5,0.7-0.9s0.2-0.7,0.2-1.2
				c0-0.9-0.3-1.5-0.8-1.9c-0.6-0.4-1.4-0.6-2.5-0.6h-2.1V145.1z"/>
			<path class="st1" d="M1091.5,138.2v1.6h-6.9v4.8h5.6v1.5h-5.6v4.9h6.9v1.6h-8.8v-14.3H1091.5z"/>
			<path class="st1" d="M1106,152.5h-1.5c-0.2,0-0.3,0-0.4-0.1c-0.1-0.1-0.2-0.2-0.2-0.3l-1.3-3.5h-6.4l-1.3,3.5
				c0,0.1-0.1,0.2-0.2,0.3c-0.1,0.1-0.3,0.1-0.4,0.1h-1.5l5.7-14.3h2L1106,152.5z M1096.6,147.2h5.3l-2.2-5.8
				c-0.1-0.4-0.3-0.8-0.4-1.4c-0.1,0.3-0.1,0.5-0.2,0.8c-0.1,0.2-0.1,0.4-0.2,0.6L1096.6,147.2z"/>
		</g>
	</g>
	<g>
		<g>
			<path class="st1" d="M1042.9,285.3h-1.5c-0.2,0-0.3,0-0.4-0.1s-0.2-0.2-0.2-0.3l-1.3-3.5h-6.4l-1.3,3.5c0,0.1-0.1,0.2-0.2,0.3
				c-0.1,0.1-0.3,0.1-0.4,0.1h-1.5l5.7-14.3h2L1042.9,285.3z M1033.5,280h5.3l-2.2-5.8c-0.1-0.4-0.3-0.8-0.4-1.3
				c-0.1,0.3-0.1,0.5-0.2,0.8s-0.1,0.4-0.2,0.6L1033.5,280z"/>
			<path class="st1" d="M1054.4,282.4c0.1,0,0.2,0,0.3,0.1l0.8,0.8c-0.6,0.7-1.3,1.2-2.1,1.6c-0.8,0.4-1.8,0.6-3,0.6
				c-1,0-2-0.2-2.8-0.5c-0.8-0.4-1.6-0.9-2.1-1.5c-0.6-0.6-1.1-1.4-1.4-2.3c-0.3-0.9-0.5-1.9-0.5-3s0.2-2.1,0.5-3s0.8-1.7,1.5-2.3
				c0.6-0.6,1.4-1.1,2.3-1.5c0.9-0.4,1.9-0.5,2.9-0.5c1.1,0,2,0.2,2.7,0.5s1.4,0.8,2,1.3l-0.6,0.9c0,0.1-0.1,0.1-0.2,0.2
				c-0.1,0-0.1,0.1-0.3,0.1c-0.1,0-0.2,0-0.3-0.1c-0.1-0.1-0.2-0.1-0.3-0.2c-0.1-0.1-0.3-0.2-0.5-0.3c-0.2-0.1-0.4-0.2-0.6-0.3
				c-0.2-0.1-0.5-0.2-0.9-0.2s-0.7-0.1-1.1-0.1c-0.8,0-1.5,0.1-2.1,0.4c-0.6,0.3-1.2,0.6-1.6,1.1c-0.5,0.5-0.8,1.1-1.1,1.8
				c-0.3,0.7-0.4,1.5-0.4,2.3c0,0.9,0.1,1.7,0.4,2.4c0.3,0.7,0.6,1.3,1.1,1.8s1,0.9,1.6,1.1c0.6,0.3,1.3,0.4,2,0.4
				c0.4,0,0.8,0,1.1-0.1s0.7-0.1,0.9-0.2c0.3-0.1,0.6-0.2,0.8-0.4c0.2-0.2,0.5-0.4,0.8-0.6C1054.2,282.4,1054.3,282.4,1054.4,282.4z
				"/>
			<path class="st1" d="M1063.5,283.8c0.6,0,1.1-0.1,1.6-0.3c0.5-0.2,0.9-0.5,1.2-0.8c0.3-0.4,0.6-0.8,0.7-1.3s0.3-1,0.3-1.6V271
				h1.9v8.7c0,0.8-0.1,1.6-0.4,2.3c-0.3,0.7-0.6,1.3-1.1,1.8c-0.5,0.5-1.1,0.9-1.8,1.2c-0.7,0.3-1.5,0.4-2.4,0.4s-1.7-0.1-2.4-0.4
				c-0.7-0.3-1.3-0.7-1.8-1.2c-0.5-0.5-0.9-1.1-1.1-1.8c-0.3-0.7-0.4-1.5-0.4-2.3V271h1.9v8.7c0,0.6,0.1,1.1,0.3,1.6
				s0.4,0.9,0.7,1.3c0.3,0.4,0.7,0.6,1.2,0.8C1062.4,283.7,1062.9,283.8,1063.5,283.8z"/>
			<path class="st1" d="M1074.7,279.3v6h-1.9V271h4.1c0.9,0,1.7,0.1,2.3,0.3s1.2,0.4,1.6,0.8s0.7,0.8,1,1.3c0.2,0.5,0.3,1,0.3,1.6
				c0,0.5-0.1,1-0.2,1.4c-0.2,0.4-0.4,0.8-0.7,1.2c-0.3,0.4-0.7,0.6-1.1,0.9c-0.4,0.2-0.9,0.4-1.5,0.6c0.2,0.1,0.5,0.3,0.6,0.6
				l4.2,5.7h-1.7c-0.4,0-0.6-0.1-0.8-0.4l-3.7-5.1c-0.1-0.2-0.2-0.3-0.4-0.3c-0.1-0.1-0.3-0.1-0.6-0.1H1074.7z M1074.7,277.9h2
				c0.6,0,1.1-0.1,1.5-0.2c0.4-0.1,0.8-0.3,1.1-0.6c0.3-0.2,0.5-0.5,0.7-0.9c0.1-0.3,0.2-0.7,0.2-1.2c0-0.9-0.3-1.5-0.8-1.9
				s-1.4-0.6-2.5-0.6h-2.1V277.9z"/>
			<path class="st1" d="M1097.2,285.3h-1.5c-0.2,0-0.3,0-0.4-0.1c-0.1-0.1-0.2-0.2-0.2-0.3l-1.3-3.5h-6.4l-1.3,3.5
				c0,0.1-0.1,0.2-0.2,0.3c-0.1,0.1-0.3,0.1-0.4,0.1h-1.5l5.7-14.3h2L1097.2,285.3z M1087.8,280h5.4l-2.2-5.8
				c-0.1-0.4-0.3-0.8-0.4-1.3c-0.1,0.3-0.1,0.5-0.2,0.8s-0.1,0.4-0.2,0.6L1087.8,280z"/>
			<path class="st1" d="M1108.7,282.4c0.1,0,0.2,0,0.3,0.1l0.8,0.8c-0.6,0.7-1.3,1.2-2.1,1.6c-0.8,0.4-1.8,0.6-3,0.6
				c-1,0-2-0.2-2.8-0.5c-0.8-0.4-1.6-0.9-2.1-1.5c-0.6-0.6-1.1-1.4-1.4-2.3c-0.3-0.9-0.5-1.9-0.5-3s0.2-2.1,0.5-3s0.8-1.7,1.5-2.3
				c0.6-0.6,1.4-1.1,2.3-1.5c0.9-0.4,1.9-0.5,2.9-0.5c1.1,0,2,0.2,2.7,0.5s1.4,0.8,2,1.3l-0.6,0.9c0,0.1-0.1,0.1-0.2,0.2
				c-0.1,0-0.1,0.1-0.3,0.1c-0.1,0-0.2,0-0.3-0.1c-0.1-0.1-0.2-0.1-0.3-0.2c-0.1-0.1-0.3-0.2-0.5-0.3c-0.2-0.1-0.4-0.2-0.6-0.3
				c-0.2-0.1-0.5-0.2-0.9-0.2s-0.7-0.1-1.1-0.1c-0.8,0-1.5,0.1-2.1,0.4c-0.6,0.3-1.2,0.6-1.6,1.1c-0.5,0.5-0.8,1.1-1.1,1.8
				c-0.3,0.7-0.4,1.5-0.4,2.3c0,0.9,0.1,1.7,0.4,2.4c0.3,0.7,0.6,1.3,1.1,1.8s1,0.9,1.6,1.1c0.6,0.3,1.3,0.4,2,0.4
				c0.4,0,0.8,0,1.1-0.1s0.7-0.1,0.9-0.2c0.3-0.1,0.6-0.2,0.8-0.4c0.2-0.2,0.5-0.4,0.8-0.6C1108.5,282.4,1108.6,282.4,1108.7,282.4z
				"/>
			<path class="st1" d="M1117.8,279.6v5.7h-1.9v-5.7l-5.2-8.6h1.7c0.2,0,0.3,0,0.4,0.1c0.1,0.1,0.2,0.2,0.3,0.3l3.3,5.6
				c0.1,0.2,0.2,0.5,0.3,0.7c0.1,0.2,0.2,0.4,0.2,0.6c0.1-0.2,0.2-0.4,0.2-0.6s0.2-0.4,0.3-0.7l3.3-5.6c0.1-0.1,0.1-0.2,0.2-0.3
				c0.1-0.1,0.2-0.1,0.4-0.1h1.7L1117.8,279.6z"/>
			<path class="st1" d="M1041.8,312.9h-1.5c-0.2,0-0.3,0-0.4-0.1c-0.1-0.1-0.2-0.2-0.2-0.3l-1.3-3.5h-6.4l-1.3,3.5
				c0,0.1-0.1,0.2-0.2,0.3c-0.1,0.1-0.3,0.1-0.4,0.1h-1.5l5.7-14.3h2L1041.8,312.9z M1032.5,307.6h5.4l-2.2-5.8
				c-0.1-0.4-0.3-0.8-0.4-1.4c-0.1,0.3-0.1,0.5-0.2,0.8c-0.1,0.2-0.1,0.4-0.2,0.6L1032.5,307.6z"/>
			<path class="st1" d="M1045,298.6c0.1,0,0.2,0.1,0.3,0.3l8.3,10.8c0-0.2,0-0.3,0-0.5c0-0.2,0-0.3,0-0.5v-10.2h1.7v14.3h-1
				c-0.2,0-0.3,0-0.4-0.1c-0.1-0.1-0.2-0.1-0.3-0.3l-8.3-10.8c0,0.2,0,0.3,0,0.5c0,0.2,0,0.3,0,0.4v10.2h-1.7v-14.3h1
				C1044.8,298.6,1045,298.6,1045,298.6z"/>
			<path class="st1" d="M1070.6,312.9h-1.5c-0.2,0-0.3,0-0.4-0.1c-0.1-0.1-0.2-0.2-0.2-0.3l-1.3-3.5h-6.4l-1.3,3.5
				c0,0.1-0.1,0.2-0.2,0.3c-0.1,0.1-0.3,0.1-0.4,0.1h-1.5l5.7-14.3h2L1070.6,312.9z M1061.2,307.6h5.3l-2.2-5.8
				c-0.1-0.4-0.3-0.8-0.4-1.4c-0.1,0.3-0.1,0.5-0.2,0.8c-0.1,0.2-0.1,0.4-0.2,0.6L1061.2,307.6z"/>
			<path class="st1" d="M1074.3,311.3h6.2v1.6h-8.1v-14.3h1.9V311.3z"/>
			<path class="st1" d="M1086.1,307.2v5.7h-1.9v-5.7l-5.2-8.6h1.7c0.2,0,0.3,0,0.4,0.1c0.1,0.1,0.2,0.2,0.3,0.3l3.3,5.6
				c0.1,0.2,0.2,0.5,0.3,0.7s0.2,0.4,0.2,0.6c0.1-0.2,0.2-0.4,0.2-0.6c0.1-0.2,0.2-0.4,0.3-0.6l3.3-5.6c0.1-0.1,0.1-0.2,0.2-0.3
				c0.1-0.1,0.2-0.1,0.4-0.1h1.7L1086.1,307.2z"/>
			<path class="st1" d="M1100.5,300.8c-0.1,0.1-0.1,0.2-0.2,0.2c-0.1,0.1-0.2,0.1-0.3,0.1c-0.1,0-0.2-0.1-0.4-0.2s-0.3-0.2-0.6-0.4
				c-0.2-0.1-0.5-0.3-0.8-0.4c-0.3-0.1-0.7-0.2-1.2-0.2c-0.4,0-0.8,0.1-1.2,0.2c-0.3,0.1-0.6,0.3-0.8,0.5c-0.2,0.2-0.4,0.4-0.5,0.7
				s-0.2,0.6-0.2,0.9c0,0.4,0.1,0.7,0.3,1c0.2,0.3,0.5,0.5,0.8,0.7c0.3,0.2,0.7,0.3,1.1,0.5s0.8,0.3,1.3,0.4
				c0.4,0.1,0.8,0.3,1.3,0.5s0.8,0.4,1.1,0.7c0.3,0.3,0.6,0.6,0.8,1c0.2,0.4,0.3,0.9,0.3,1.5c0,0.6-0.1,1.2-0.3,1.8
				c-0.2,0.5-0.5,1-0.9,1.4s-0.9,0.7-1.5,1s-1.3,0.3-2,0.3c-0.9,0-1.8-0.2-2.5-0.5s-1.4-0.8-2-1.4l0.6-0.9c0.1-0.1,0.1-0.1,0.2-0.2
				c0.1-0.1,0.2-0.1,0.3-0.1c0.1,0,0.3,0.1,0.5,0.2c0.2,0.1,0.4,0.3,0.7,0.5c0.3,0.2,0.6,0.3,1,0.5c0.4,0.1,0.9,0.2,1.4,0.2
				c0.5,0,0.9-0.1,1.2-0.2c0.4-0.1,0.7-0.3,0.9-0.5c0.2-0.2,0.4-0.5,0.6-0.8c0.1-0.3,0.2-0.7,0.2-1.1c0-0.4-0.1-0.8-0.3-1.1
				c-0.2-0.3-0.5-0.5-0.8-0.7c-0.3-0.2-0.7-0.3-1.1-0.5c-0.4-0.1-0.8-0.3-1.3-0.4c-0.4-0.1-0.8-0.3-1.3-0.5s-0.8-0.4-1.1-0.7
				c-0.3-0.3-0.6-0.6-0.8-1.1c-0.2-0.4-0.3-1-0.3-1.6c0-0.5,0.1-1,0.3-1.5c0.2-0.5,0.5-0.9,0.9-1.3c0.4-0.4,0.8-0.7,1.4-0.9
				c0.5-0.2,1.2-0.3,1.9-0.3c0.8,0,1.5,0.1,2.2,0.4s1.2,0.6,1.7,1.1L1100.5,300.8z"/>
			<path class="st1" d="M1112.5,298.6v1.6h-6.9v4.8h5.6v1.5h-5.6v4.9h6.9v1.6h-8.8v-14.3H1112.5z"/>
			<path class="st1" d="M1122.7,300.8c-0.1,0.1-0.1,0.2-0.2,0.2c-0.1,0.1-0.2,0.1-0.3,0.1c-0.1,0-0.2-0.1-0.4-0.2
				c-0.1-0.1-0.3-0.2-0.6-0.4s-0.5-0.3-0.8-0.4s-0.7-0.2-1.2-0.2c-0.4,0-0.8,0.1-1.2,0.2c-0.3,0.1-0.6,0.3-0.8,0.5s-0.4,0.4-0.5,0.7
				s-0.2,0.6-0.2,0.9c0,0.4,0.1,0.7,0.3,1s0.5,0.5,0.8,0.7s0.7,0.3,1.1,0.5c0.4,0.1,0.8,0.3,1.3,0.4c0.4,0.1,0.8,0.3,1.3,0.5
				s0.8,0.4,1.1,0.7c0.3,0.3,0.6,0.6,0.8,1s0.3,0.9,0.3,1.5c0,0.6-0.1,1.2-0.3,1.8c-0.2,0.5-0.5,1-0.9,1.4s-0.9,0.7-1.5,1
				c-0.6,0.2-1.3,0.3-2,0.3c-0.9,0-1.8-0.2-2.5-0.5s-1.4-0.8-2-1.4l0.6-0.9c0.1-0.1,0.1-0.1,0.2-0.2c0.1-0.1,0.2-0.1,0.3-0.1
				c0.1,0,0.3,0.1,0.5,0.2c0.2,0.1,0.4,0.3,0.7,0.5s0.6,0.3,1,0.5c0.4,0.1,0.9,0.2,1.4,0.2c0.5,0,0.9-0.1,1.2-0.2
				c0.4-0.1,0.7-0.3,0.9-0.5c0.2-0.2,0.4-0.5,0.6-0.8c0.1-0.3,0.2-0.7,0.2-1.1c0-0.4-0.1-0.8-0.3-1.1c-0.2-0.3-0.5-0.5-0.8-0.7
				c-0.3-0.2-0.7-0.3-1.1-0.5c-0.4-0.1-0.8-0.3-1.3-0.4s-0.8-0.3-1.3-0.5s-0.8-0.4-1.1-0.7c-0.3-0.3-0.6-0.6-0.8-1.1
				c-0.2-0.4-0.3-1-0.3-1.6c0-0.5,0.1-1,0.3-1.5c0.2-0.5,0.5-0.9,0.9-1.3s0.8-0.7,1.4-0.9c0.6-0.2,1.2-0.3,1.9-0.3
				c0.8,0,1.5,0.1,2.2,0.4s1.2,0.6,1.7,1.1L1122.7,300.8z"/>
		</g>
	</g>
	<polygon class="st2" points="159.4,119 143.7,110.9 143.7,117.4 118.8,117.4 118.8,120.6 143.7,120.6 143.7,127.1 	"/>
	<polygon class="st2" points="324.4,119 308.7,110.9 308.7,117.4 283.8,117.4 283.8,120.6 308.7,120.6 308.7,127.1 	"/>
	<polygon class="st2" points="489.4,119 473.7,110.9 473.7,117.4 448.8,117.4 448.8,120.6 473.7,120.6 473.7,127.1 	"/>
	<polygon class="st2" points="654.4,119 638.7,110.9 638.7,117.4 613.8,117.4 613.8,120.6 638.7,120.6 638.7,127.1 	"/>
	<polygon class="st2" points="819.4,119 803.7,110.9 803.7,117.4 778.8,117.4 778.8,120.6 803.7,120.6 803.7,127.1 	"/>
	<path class="st2" d="M994.9,222.7h-9.3c-4,0-7.3-3.3-7.3-7.3V38.7c0-4,3.3-7.3,7.3-7.3h9.3v6.5l15.6-8.1l-15.6-8.1v6.5h-9.3
		c-5.8,0-10.5,4.7-10.5,10.5v78.7h-31.9v3.2h31.9v94.8c0,5.8,4.7,10.5,10.5,10.5h9.3v6.5l15.6-8.1l-15.6-8.1V222.7z"/>
</g>
</svg>
