<?xml version="1.0" encoding="utf-8"?>
<!-- Generator: Adobe Illustrator 19.0.0, SVG Export Plug-In . SVG Version: 6.00 Build 0)  -->
<svg version="1.1" id="Layer_1" xmlns="http://www.w3.org/2000/svg" xmlns:xlink="http://www.w3.org/1999/xlink" x="0px" y="0px"
	 width="384.2px" height="165.9px" viewBox="-105 338 384.2 165.9" style="enable-background:new -105 338 384.2 165.9;"
	 xml:space="preserve">
<style type="text/css">
	.st0{opacity:0.7;}
	.st1{fill:#999999;}
	.st2{fill:#62A5BB;}
	.st3{fill:#77B893;}
	.st4{fill:#F7963F;}
	.st5{fill:#DCDB77;}
	.st6{fill:#75C7E0;}
	.st7{fill:#E18837;}
	.st8{fill:#84CAA0;}
	.st9{fill:#C5C56C;}
</style>
<g id="ZOqNMh_1_">
	
		<image style="overflow:visible;enable-background:new    ;" width="640" height="280" id="ZOqNMh_2_" xlink:href="869B0215DDC0B54E.png"  transform="matrix(0.9981 0 0 0.9981 -832.6748 -58.2771)">
	</image>
</g>
<g class="st0">
	<polygon class="st1" points="-85,473.9 264.7,476.9 264.5,505.9 -85.2,504.9 	"/>
</g>
<g class="st0">
	<path class="st1" d="M263.7,476.8c-3.7,0-92.8-1.3-173.7-25.4c-77.3-23-177-14.1-178-14l-2.2-23.4c4.3-0.4,105.3-9.4,186.9,14.8
		c77.8,23.2,166.4,24.4,167.3,24.4L263.7,476.8z"/>
</g>
<g class="st0">
	<path class="st1" d="M-88.9,414.6l-2.3-19.6c4.6-0.5,112.6-13,185.2-7.3c71.2,5.7,164.9,4.3,165.9,4.3l0.3,19.8
		c-0.9,0-95.6,1.4-167.8-4.4C21.8,401.8-87.8,414.4-88.9,414.6z"/>
</g>
<g class="st0">
	<path class="st1" d="M-85.8,476.9l-0.6-16.7c1.3,0,128-4.9,176.1-27.6c51.4-24.2,166.1-22.7,170.9-22.6l-0.3,16.7
		c-1.1,0-115.6-1.5-163.5,21C45.6,471.9-80.5,476.7-85.8,476.9z"/>
</g>
<g class="st0">
	<path class="st1" d="M-84.7,461.7v-9.3c7,0,32.6-0.5,65.6-7.1c39.1-7.8,73.4-20.9,102-39c74.8-47.3,171.4-47,182.1-46.8l-0.2,9.3
		c-10.5-0.2-104.5-0.5-177,45.4c-29.6,18.7-64.9,32.2-105.2,40.2C-51.1,461.2-77.4,461.7-84.7,461.7z"/>
</g>
<g class="st0">
	<path class="st1" d="M-87.5,394.9l-2.2-15.3c0.6-0.1,62.9-8.8,177-23.9c114.8-15.2,175-10.5,177.5-10.3l-1.3,15.4
		c-20.7-1.7-83.9-1.7-174.2,10.3C-24.6,386.1-86.9,394.8-87.5,394.9z"/>
</g>
<path class="st2" d="M-82.6,438.9h-18.5c-1,0-1.9-0.8-1.9-1.9v-58c0-1,0.8-1.9,1.9-1.9h18.5c1,0,1.9,0.8,1.9,1.9v58.1
	C-80.8,438.1-81.6,438.9-82.6,438.9z"/>
<path class="st3" d="M-82.7,505.4H-101c-1.1,0-2-0.9-2-2V450c0-1.1,0.9-2,2-2h18.3c1.1,0,2,0.9,2,2v53.4
	C-80.8,504.6-81.6,505.4-82.7,505.4z"/>
<path class="st4" d="M275.1,506.8h-18.5c-1,0-1.9-0.8-1.9-1.9v-51.3c0-1,0.8-1.9,1.9-1.9h18.5c1,0,1.9,0.8,1.9,1.9v51.3
	C277,505.9,276.1,506.8,275.1,506.8z"/>
<path class="st5" d="M275.1,428.3h-18.5c-1,0-1.9-0.8-1.9-1.9v-35c0-1,0.8-1.9,1.9-1.9h18.5c1,0,1.9,0.8,1.9,1.9v35
	C277,427.5,276.1,428.3,275.1,428.3z"/>
<path class="st6" d="M275.1,369.6h-18.5c-1,0-1.9-0.8-1.9-1.9v-21.8c0-1,0.8-1.9,1.9-1.9h18.5c1,0,1.9,0.8,1.9,1.9v21.8
	C277,368.8,276.1,369.6,275.1,369.6z"/>
<path class="st7" d="M273.7,502.4h-13.6c-0.5,0-0.9-0.4-0.9-0.9v-7.1c0-0.5,0.4-0.9,0.9-0.9h13.6c0.5,0,0.9,0.4,0.9,0.9v7.1
	C274.6,502,274.2,502.4,273.7,502.4z"/>
<path class="st8" d="M-85.4,502.4H-99c-0.5,0-0.9-0.4-0.9-0.9v-7.1c0-0.5,0.4-0.9,0.9-0.9h13.6c0.5,0,0.9,0.4,0.9,0.9v7.1
	C-84.5,502-84.9,502.4-85.4,502.4z"/>
<path class="st6" d="M-85.4,435.7H-99c-0.5,0-0.9-0.4-0.9-0.9v-7.1c0-0.5,0.4-0.9,0.9-0.9h13.6c0.5,0,0.9,0.4,0.9,0.9v7.1
	C-84.5,435.3-84.9,435.7-85.4,435.7z"/>
<path class="st9" d="M273.7,424.6h-13.6c-0.5,0-0.9-0.4-0.9-0.9v-7.1c0-0.5,0.4-0.9,0.9-0.9h13.6c0.5,0,0.9,0.4,0.9,0.9v7.1
	C274.6,424.2,274.2,424.6,273.7,424.6z"/>
<path class="st2" d="M273.7,366.7h-13.6c-0.5,0-0.9-0.4-0.9-0.9v-7.1c0-0.5,0.4-0.9,0.9-0.9h13.6c0.5,0,0.9,0.4,0.9,0.9v7.1
	C274.6,366.3,274.2,366.7,273.7,366.7z"/>
</svg>
