<?xml version="1.0" encoding="utf-8"?>
<!-- Generator: Adobe Illustrator 22.0.1, SVG Export Plug-In . SVG Version: 6.00 Build 0)  -->
<svg version="1.1" id="Camada_1" xmlns="http://www.w3.org/2000/svg" xmlns:xlink="http://www.w3.org/1999/xlink" x="0px" y="0px"
	 viewBox="0 0 29.5 29.6" style="enable-background:new 0 0 29.5 29.6;" xml:space="preserve">
<style type="text/css">
	.st0{fill:#FFFFFF;}
</style>
<g>
	<g>
		<g>
			<path class="st0" d="M14.1,29.6C14.1,29.6,14,29.6,14.1,29.6c-0.7,0-1.2-0.3-1.6-0.7L0.6,15.5c-0.8-0.9-0.7-2.3,0.2-3.1
				c0.9-0.8,2.3-0.7,3.1,0.2l10.4,11.6l11.7-11.7c0.8-0.8,2.2-0.8,3.1,0c0.8,0.8,0.8,2.2,0,3.1L15.6,28.9
				C15.2,29.3,14.6,29.6,14.1,29.6z"/>
		</g>
		<g>
			<path class="st0" d="M14.3,12.5C14.3,12.5,14.2,12.5,14.3,12.5c-0.5,0-0.9-0.2-1.1-0.5L4.7,2.6C4.2,1.9,4.2,1,4.8,0.4
				C5.5-0.2,6.4-0.1,7,0.5l7.3,8.2l8.3-8.3c0.6-0.6,1.6-0.6,2.2,0c0.6,0.6,0.6,1.6,0,2.2L15.4,12C15.1,12.3,14.7,12.5,14.3,12.5z"/>
		</g>
	</g>
</g>
</svg>
